<?xml version="1.0" encoding="UTF-8"?>
<!DOCTYPE svg PUBLIC "-//W3C//DTD SVG 1.1//EN" "http://www.w3.org/Graphics/SVG/1.1/DTD/svg11.dtd">
<svg width="160mm" height="90mm" viewBox="0 0 16000 9000" version="1.1" xmlns="http://www.w3.org/2000/svg" xmlns:xlink="http://www.w3.org/1999/xlink" stroke-width="28.222" stroke-linejoin="round" xml:space="preserve">
 <path fill="rgb(255,255,255)" stroke="none" d="M 7987,8986 L -13,8986 -13,-13 15986,-13 15986,8986 7987,8986 Z"/>
 <path fill="none" stroke="rgb(179,179,179)" stroke-linejoin="round" d="M 5908,5844 L 1615,5844 1615,1461 10201,1461 10201,5844 5908,5844 Z"/>
 <path fill="none" stroke="rgb(179,179,179)" stroke-linejoin="round" d="M 10201,5843 L 1615,5843"/>
 <path fill="none" stroke="rgb(179,179,179)" stroke-linejoin="round" d="M 10201,5404 L 1615,5404"/>
 <path fill="none" stroke="rgb(179,179,179)" stroke-linejoin="round" d="M 10201,4966 L 1615,4966"/>
 <path fill="none" stroke="rgb(179,179,179)" stroke-linejoin="round" d="M 10201,4527 L 1615,4527"/>
 <path fill="none" stroke="rgb(179,179,179)" stroke-linejoin="round" d="M 10201,4090 L 1615,4090"/>
 <path fill="none" stroke="rgb(179,179,179)" stroke-linejoin="round" d="M 10201,3652 L 1615,3652"/>
 <path fill="none" stroke="rgb(179,179,179)" stroke-linejoin="round" d="M 10201,3213 L 1615,3213"/>
 <path fill="none" stroke="rgb(179,179,179)" stroke-linejoin="round" d="M 10201,2775 L 1615,2775"/>
 <path fill="none" stroke="rgb(179,179,179)" stroke-linejoin="round" d="M 10201,2336 L 1615,2336"/>
 <path fill="none" stroke="rgb(179,179,179)" stroke-linejoin="round" d="M 10201,1898 L 1615,1898"/>
 <path fill="none" stroke="rgb(179,179,179)" stroke-linejoin="round" d="M 10201,1460 L 1615,1460"/>
 <path fill="none" stroke="rgb(179,179,179)" stroke-linejoin="round" d="M 1615,5993 L 1615,5843"/>
 <path fill="none" stroke="rgb(179,179,179)" stroke-linejoin="round" d="M 1615,5993 L 1615,5843"/>
 <path fill="none" stroke="rgb(179,179,179)" stroke-linejoin="round" d="M 2688,5993 L 2688,5843"/>
 <path fill="none" stroke="rgb(179,179,179)" stroke-linejoin="round" d="M 2688,5993 L 2688,5843"/>
 <path fill="none" stroke="rgb(179,179,179)" stroke-linejoin="round" d="M 3761,5993 L 3761,5843"/>
 <path fill="none" stroke="rgb(179,179,179)" stroke-linejoin="round" d="M 3761,5993 L 3761,5843"/>
 <path fill="none" stroke="rgb(179,179,179)" stroke-linejoin="round" d="M 4835,5993 L 4835,5843"/>
 <path fill="none" stroke="rgb(179,179,179)" stroke-linejoin="round" d="M 4835,5993 L 4835,5843"/>
 <path fill="none" stroke="rgb(179,179,179)" stroke-linejoin="round" d="M 5908,5993 L 5908,5843"/>
 <path fill="none" stroke="rgb(179,179,179)" stroke-linejoin="round" d="M 5908,5993 L 5908,5843"/>
 <path fill="none" stroke="rgb(179,179,179)" stroke-linejoin="round" d="M 6981,5993 L 6981,5843"/>
 <path fill="none" stroke="rgb(179,179,179)" stroke-linejoin="round" d="M 6981,5993 L 6981,5843"/>
 <path fill="none" stroke="rgb(179,179,179)" stroke-linejoin="round" d="M 8054,5993 L 8054,5843"/>
 <path fill="none" stroke="rgb(179,179,179)" stroke-linejoin="round" d="M 8054,5993 L 8054,5843"/>
 <path fill="none" stroke="rgb(179,179,179)" stroke-linejoin="round" d="M 9127,5993 L 9127,5843"/>
 <path fill="none" stroke="rgb(179,179,179)" stroke-linejoin="round" d="M 9127,5993 L 9127,5843"/>
 <path fill="none" stroke="rgb(179,179,179)" stroke-linejoin="round" d="M 10201,5993 L 10201,5843"/>
 <path fill="none" stroke="rgb(179,179,179)" stroke-linejoin="round" d="M 10201,5993 L 10201,5843"/>
 <path fill="none" stroke="rgb(179,179,179)" stroke-linejoin="round" d="M 1615,5843 L 10201,5843"/>
 <path fill="none" stroke="rgb(179,179,179)" stroke-linejoin="round" d="M 1465,5843 L 1615,5843"/>
 <path fill="none" stroke="rgb(179,179,179)" stroke-linejoin="round" d="M 1465,5843 L 1615,5843"/>
 <path fill="none" stroke="rgb(179,179,179)" stroke-linejoin="round" d="M 1465,5404 L 1615,5404"/>
 <path fill="none" stroke="rgb(179,179,179)" stroke-linejoin="round" d="M 1465,5404 L 1615,5404"/>
 <path fill="none" stroke="rgb(179,179,179)" stroke-linejoin="round" d="M 1465,4966 L 1615,4966"/>
 <path fill="none" stroke="rgb(179,179,179)" stroke-linejoin="round" d="M 1465,4966 L 1615,4966"/>
 <path fill="none" stroke="rgb(179,179,179)" stroke-linejoin="round" d="M 1465,4527 L 1615,4527"/>
 <path fill="none" stroke="rgb(179,179,179)" stroke-linejoin="round" d="M 1465,4527 L 1615,4527"/>
 <path fill="none" stroke="rgb(179,179,179)" stroke-linejoin="round" d="M 1465,4090 L 1615,4090"/>
 <path fill="none" stroke="rgb(179,179,179)" stroke-linejoin="round" d="M 1465,4090 L 1615,4090"/>
 <path fill="none" stroke="rgb(179,179,179)" stroke-linejoin="round" d="M 1465,3652 L 1615,3652"/>
 <path fill="none" stroke="rgb(179,179,179)" stroke-linejoin="round" d="M 1465,3652 L 1615,3652"/>
 <path fill="none" stroke="rgb(179,179,179)" stroke-linejoin="round" d="M 1465,3213 L 1615,3213"/>
 <path fill="none" stroke="rgb(179,179,179)" stroke-linejoin="round" d="M 1465,3213 L 1615,3213"/>
 <path fill="none" stroke="rgb(179,179,179)" stroke-linejoin="round" d="M 1465,2775 L 1615,2775"/>
 <path fill="none" stroke="rgb(179,179,179)" stroke-linejoin="round" d="M 1465,2775 L 1615,2775"/>
 <path fill="none" stroke="rgb(179,179,179)" stroke-linejoin="round" d="M 1465,2336 L 1615,2336"/>
 <path fill="none" stroke="rgb(179,179,179)" stroke-linejoin="round" d="M 1465,2336 L 1615,2336"/>
 <path fill="none" stroke="rgb(179,179,179)" stroke-linejoin="round" d="M 1465,1898 L 1615,1898"/>
 <path fill="none" stroke="rgb(179,179,179)" stroke-linejoin="round" d="M 1465,1898 L 1615,1898"/>
 <path fill="none" stroke="rgb(179,179,179)" stroke-linejoin="round" d="M 1465,1460 L 1615,1460"/>
 <path fill="none" stroke="rgb(179,179,179)" stroke-linejoin="round" d="M 1465,1460 L 1615,1460"/>
 <path fill="none" stroke="rgb(179,179,179)" stroke-linejoin="round" d="M 1615,5843 L 1615,1460"/>
 <path fill="rgb(129,212,26)" stroke="none" d="M 9395,5843 L 9932,5843 9932,5623 9395,5623 9395,5843 Z"/>
 <path fill="rgb(129,212,26)" stroke="none" d="M 8322,5843 L 8859,5843 8859,5623 8322,5623 8322,5843 Z"/>
 <path fill="rgb(129,212,26)" stroke="none" d="M 7250,5843 L 7786,5843 7786,4508 7250,4508 7250,5843 Z"/>
 <path fill="rgb(129,212,26)" stroke="none" d="M 6176,5843 L 6713,5843 6713,5271 6176,5271 6176,5843 Z"/>
 <path fill="rgb(129,212,26)" stroke="none" d="M 5103,5843 L 5640,5843 5640,5843 5103,5843 Z"/>
 <path fill="rgb(129,212,26)" stroke="none" d="M 4030,5843 L 4566,5843 4566,5843 4030,5843 Z"/>
 <path fill="rgb(129,212,26)" stroke="none" d="M 2956,5843 L 3493,5843 3493,5843 2956,5843 Z"/>
 <path fill="rgb(129,212,26)" stroke="none" d="M 1883,5843 L 2420,5843 2420,5843 1883,5843 Z"/>
 <path fill="rgb(0,169,51)" stroke="none" d="M 9395,5623 L 9932,5623 9932,4966 9395,4966 9395,5623 Z"/>
 <path fill="rgb(0,169,51)" stroke="none" d="M 8322,5623 L 8859,5623 8859,4966 8322,4966 8322,5623 Z"/>
 <path fill="rgb(0,169,51)" stroke="none" d="M 7250,4508 L 7786,4508 7786,3747 7250,3747 7250,4508 Z"/>
 <path fill="rgb(0,169,51)" stroke="none" d="M 6176,5271 L 6713,5271 6713,4508 6176,4508 6176,5271 Z"/>
 <path fill="rgb(0,169,51)" stroke="none" d="M 5103,5843 L 5640,5843 5640,4966 5103,4966 5103,5843 Z"/>
 <path fill="rgb(0,169,51)" stroke="none" d="M 4030,5843 L 4566,5843 4566,4966 4030,4966 4030,5843 Z"/>
 <path fill="rgb(0,169,51)" stroke="none" d="M 2956,5843 L 3493,5843 3493,4966 2956,4966 2956,5843 Z"/>
 <path fill="rgb(0,169,51)" stroke="none" d="M 1883,5843 L 2420,5843 2420,4966 1883,4966 1883,5843 Z"/>
 <path fill="rgb(255,0,0)" stroke="none" d="M 9395,4966 L 9932,4966 9932,4090 9395,4090 9395,4966 Z"/>
 <path fill="rgb(255,0,0)" stroke="none" d="M 8322,4966 L 8859,4966 8859,4090 8322,4090 8322,4966 Z"/>
 <path fill="rgb(255,0,0)" stroke="none" d="M 7250,3747 L 7786,3747 7786,2603 7250,2603 7250,3747 Z"/>
 <path fill="rgb(255,0,0)" stroke="none" d="M 6176,4508 L 6713,4508 6713,2603 6176,2603 6176,4508 Z"/>
 <path fill="rgb(255,0,0)" stroke="none" d="M 5103,4966 L 5640,4966 5640,2994 5103,2994 5103,4966 Z"/>
 <path fill="rgb(255,0,0)" stroke="none" d="M 4030,4966 L 4566,4966 4566,2994 4030,2994 4030,4966 Z"/>
 <path fill="rgb(255,0,0)" stroke="none" d="M 2956,4966 L 3493,4966 3493,2994 2956,2994 2956,4966 Z"/>
 <path fill="rgb(255,0,0)" stroke="none" d="M 1883,4966 L 2420,4966 2420,4090 1883,4090 1883,4966 Z"/>
 <path fill="rgb(255,128,0)" stroke="none" d="M 9395,4090 L 9932,4090 9932,3213 9395,3213 9395,4090 Z"/>
 <path fill="rgb(255,128,0)" stroke="none" d="M 8322,4090 L 8859,4090 8859,3213 8322,3213 8322,4090 Z"/>
 <path fill="rgb(255,128,0)" stroke="none" d="M 7250,2603 L 7786,2603 7786,1460 7250,1460 7250,2603 Z"/>
 <path fill="rgb(255,128,0)" stroke="none" d="M 6176,2603 L 6713,2603 6713,1460 6176,1460 6176,2603 Z"/>
 <path fill="rgb(255,128,0)" stroke="none" d="M 5103,2994 L 5640,2994 5640,2117 5103,2117 5103,2994 Z"/>
 <path fill="rgb(255,128,0)" stroke="none" d="M 4030,2994 L 4566,2994 4566,2117 4030,2117 4030,2994 Z"/>
 <path fill="rgb(255,128,0)" stroke="none" d="M 2956,2994 L 3493,2994 3493,2117 2956,2117 2956,2994 Z"/>
 <path fill="rgb(255,128,0)" stroke="none" d="M 1883,4090 L 2420,4090 2420,3213 1883,3213 1883,4090 Z"/>
 <path fill="rgb(42,96,153)" stroke="none" d="M 9395,3213 L 9932,3213 9932,2555 9395,2555 9395,3213 Z"/>
 <path fill="rgb(42,96,153)" stroke="none" d="M 8322,3213 L 8859,3213 8859,2555 8322,2555 8322,3213 Z"/>
 <path fill="rgb(42,96,153)" stroke="none" d="M 5103,2117 L 5640,2117 5640,1460 5103,1460 5103,2117 Z"/>
 <path fill="rgb(42,96,153)" stroke="none" d="M 4030,2117 L 4566,2117 4566,1460 4030,1460 4030,2117 Z"/>
 <path fill="rgb(42,96,153)" stroke="none" d="M 2956,2117 L 3493,2117 3493,1460 2956,1460 2956,2117 Z"/>
 <path fill="rgb(42,96,153)" stroke="none" d="M 1883,3213 L 2420,3213 2420,2555 1883,2555 1883,3213 Z"/>
 <path fill="rgb(85,48,141)" stroke="none" d="M 9395,2555 L 9932,2555 9932,1460 9395,1460 9395,2555 Z"/>
 <path fill="rgb(85,48,141)" stroke="none" d="M 8322,2555 L 8859,2555 8859,1460 8322,1460 8322,2555 Z"/>
 <path fill="rgb(85,48,141)" stroke="none" d="M 1883,2555 L 2420,2555 2420,1460 1883,1460 1883,2555 Z"/>
 <text class="SVGTextShape" transform="rotate(-44.9 532 8021)"><tspan class="TextParagraph" font-family="Liberation Sans, sans-serif" font-size="353px" font-weight="400"><tspan class="TextPosition" x="532" y="8021"><tspan fill="rgb(0,0,0)" stroke="none" style="white-space: pre">_alaska2-51679</tspan></tspan></tspan></text>
 <text class="SVGTextShape" transform="rotate(-44.9 1606 8021)"><tspan class="TextParagraph" font-family="Liberation Sans, sans-serif" font-size="353px" font-weight="400"><tspan class="TextPosition" x="1606" y="8021"><tspan fill="rgb(0,0,0)" stroke="none" style="white-space: pre">_alaska2-51893</tspan></tspan></tspan></text>
 <text class="SVGTextShape" transform="rotate(-44.9 2679 8021)"><tspan class="TextParagraph" font-family="Liberation Sans, sans-serif" font-size="353px" font-weight="400"><tspan class="TextPosition" x="2679" y="8021"><tspan fill="rgb(0,0,0)" stroke="none" style="white-space: pre">_alaska2-62899</tspan></tspan></tspan></text>
 <text class="SVGTextShape" transform="rotate(-44.9 3752 8021)"><tspan class="TextParagraph" font-family="Liberation Sans, sans-serif" font-size="353px" font-weight="400"><tspan class="TextPosition" x="3752" y="8021"><tspan fill="rgb(0,0,0)" stroke="none" style="white-space: pre">_alaska2-66345</tspan></tspan></tspan></text>
 <text class="SVGTextShape" transform="rotate(-44.9 4096 8750)"><tspan class="TextParagraph" font-family="Liberation Sans, sans-serif" font-size="353px" font-weight="400"><tspan class="TextPosition" x="4096" y="8750"><tspan fill="rgb(0,0,0)" stroke="none" style="white-space: pre">_bb-20220414_202013</tspan></tspan></tspan></text>
 <text class="SVGTextShape" transform="rotate(-44.9 5169 8750)"><tspan class="TextParagraph" font-family="Liberation Sans, sans-serif" font-size="353px" font-weight="400"><tspan class="TextPosition" x="5169" y="8750"><tspan fill="rgb(0,0,0)" stroke="none" style="white-space: pre">_bb-20220825_134650</tspan></tspan></tspan></text>
 <text class="SVGTextShape" transform="rotate(-44.9 7252 7740)"><tspan class="TextParagraph" font-family="Liberation Sans, sans-serif" font-size="353px" font-weight="400"><tspan class="TextPosition" x="7252" y="7740"><tspan fill="rgb(0,0,0)" stroke="none" style="white-space: pre">_bows2-1230</tspan></tspan></tspan></text>
 <text class="SVGTextShape" transform="rotate(-44.9 8326 7740)"><tspan class="TextParagraph" font-family="Liberation Sans, sans-serif" font-size="353px" font-weight="400"><tspan class="TextPosition" x="8326" y="7740"><tspan fill="rgb(0,0,0)" stroke="none" style="white-space: pre">_bows2-3087</tspan></tspan></tspan></text>
 <text class="SVGTextShape"><tspan class="TextParagraph" font-family="Liberation Sans, sans-serif" font-size="353px" font-weight="400"><tspan class="TextPosition" x="756" y="5964"><tspan fill="rgb(0,0,0)" stroke="none" style="white-space: pre">0 %</tspan></tspan></tspan></text>
 <text class="SVGTextShape"><tspan class="TextParagraph" font-family="Liberation Sans, sans-serif" font-size="353px" font-weight="400"><tspan class="TextPosition" x="571" y="5525"><tspan fill="rgb(0,0,0)" stroke="none" style="white-space: pre">10 %</tspan></tspan></tspan></text>
 <text class="SVGTextShape"><tspan class="TextParagraph" font-family="Liberation Sans, sans-serif" font-size="353px" font-weight="400"><tspan class="TextPosition" x="571" y="5087"><tspan fill="rgb(0,0,0)" stroke="none" style="white-space: pre">20 %</tspan></tspan></tspan></text>
 <text class="SVGTextShape"><tspan class="TextParagraph" font-family="Liberation Sans, sans-serif" font-size="353px" font-weight="400"><tspan class="TextPosition" x="571" y="4648"><tspan fill="rgb(0,0,0)" stroke="none" style="white-space: pre">30 %</tspan></tspan></tspan></text>
 <text class="SVGTextShape"><tspan class="TextParagraph" font-family="Liberation Sans, sans-serif" font-size="353px" font-weight="400"><tspan class="TextPosition" x="571" y="4210"><tspan fill="rgb(0,0,0)" stroke="none" style="white-space: pre">40 %</tspan></tspan></tspan></text>
 <text class="SVGTextShape"><tspan class="TextParagraph" font-family="Liberation Sans, sans-serif" font-size="353px" font-weight="400"><tspan class="TextPosition" x="571" y="3772"><tspan fill="rgb(0,0,0)" stroke="none" style="white-space: pre">50 %</tspan></tspan></tspan></text>
 <text class="SVGTextShape"><tspan class="TextParagraph" font-family="Liberation Sans, sans-serif" font-size="353px" font-weight="400"><tspan class="TextPosition" x="571" y="3333"><tspan fill="rgb(0,0,0)" stroke="none" style="white-space: pre">60 %</tspan></tspan></tspan></text>
 <text class="SVGTextShape"><tspan class="TextParagraph" font-family="Liberation Sans, sans-serif" font-size="353px" font-weight="400"><tspan class="TextPosition" x="571" y="2895"><tspan fill="rgb(0,0,0)" stroke="none" style="white-space: pre">70 %</tspan></tspan></tspan></text>
 <text class="SVGTextShape"><tspan class="TextParagraph" font-family="Liberation Sans, sans-serif" font-size="353px" font-weight="400"><tspan class="TextPosition" x="571" y="2456"><tspan fill="rgb(0,0,0)" stroke="none" style="white-space: pre">80 %</tspan></tspan></tspan></text>
 <text class="SVGTextShape"><tspan class="TextParagraph" font-family="Liberation Sans, sans-serif" font-size="353px" font-weight="400"><tspan class="TextPosition" x="571" y="2018"><tspan fill="rgb(0,0,0)" stroke="none" style="white-space: pre">90 %</tspan></tspan></tspan></text>
 <text class="SVGTextShape"><tspan class="TextParagraph" font-family="Liberation Sans, sans-serif" font-size="353px" font-weight="400"><tspan class="TextPosition" x="386" y="1580"><tspan fill="rgb(0,0,0)" stroke="none" style="white-space: pre">100 %</tspan></tspan></tspan></text>
 <text class="SVGTextShape"><tspan class="TextParagraph" font-family="Liberation Sans, sans-serif" font-size="459px" font-weight="400"><tspan class="TextPosition" x="5817" y="838"><tspan fill="rgb(0,0,0)" stroke="none" style="white-space: pre">stegbreak Ausführung</tspan></tspan></tspan></text>
 <path fill="rgb(129,212,26)" stroke="none" d="M 10743,5836 L 10637,5836 10637,5625 10848,5625 10848,5836 10743,5836 Z"/>
 <path fill="rgb(0,169,51)" stroke="none" d="M 10743,5338 L 10637,5338 10637,5127 10848,5127 10848,5338 10743,5338 Z"/>
 <path fill="rgb(255,0,0)" stroke="none" d="M 10743,4840 L 10637,4840 10637,4629 10848,4629 10848,4840 10743,4840 Z"/>
 <path fill="rgb(255,128,0)" stroke="none" d="M 10743,4343 L 10637,4343 10637,4132 10848,4132 10848,4343 10743,4343 Z"/>
 <path fill="rgb(42,96,153)" stroke="none" d="M 10743,3845 L 10637,3845 10637,3634 10848,3634 10848,3845 10743,3845 Z"/>
 <path fill="rgb(85,48,141)" stroke="none" d="M 10743,3347 L 10637,3347 10637,3136 10848,3136 10848,3347 10743,3347 Z"/>
 <text class="SVGTextShape"><tspan class="TextParagraph" font-family="Liberation Sans, sans-serif" font-size="353px" font-weight="400"><tspan class="TextPosition" x="10948" y="3361"><tspan fill="rgb(0,0,0)" stroke="none" style="white-space: pre">bad size in bits</tspan></tspan></tspan></text>
 <text class="SVGTextShape"><tspan class="TextParagraph" font-family="Liberation Sans, sans-serif" font-size="353px" font-weight="400"><tspan class="TextPosition" x="10948" y="3859"><tspan fill="rgb(0,0,0)" stroke="none" style="white-space: pre">Premature end of JPEG file</tspan></tspan></tspan></text>
 <text class="SVGTextShape"><tspan class="TextParagraph" font-family="Liberation Sans, sans-serif" font-size="353px" font-weight="400"><tspan class="TextPosition" x="10948" y="4357"><tspan fill="rgb(0,0,0)" stroke="none" style="white-space: pre">SegFault ‚‘ (leerer Output)</tspan></tspan></tspan></text>
 <text class="SVGTextShape"><tspan class="TextParagraph" font-family="Liberation Sans, sans-serif" font-size="353px" font-weight="400"><tspan class="TextPosition" x="10948" y="4854"><tspan fill="rgb(0,0,0)" stroke="none" style="white-space: pre">SegFault ‚Loaded 1 files…‘</tspan></tspan></tspan></text>
 <text class="SVGTextShape"><tspan class="TextParagraph" font-family="Liberation Sans, sans-serif" font-size="353px" font-weight="400"><tspan class="TextPosition" x="10948" y="5352"><tspan fill="rgb(0,0,0)" stroke="none" style="white-space: pre">Ergebnis: negativ</tspan></tspan></tspan></text>
 <text class="SVGTextShape"><tspan class="TextParagraph" font-family="Liberation Sans, sans-serif" font-size="353px" font-weight="400"><tspan class="TextPosition" x="10948" y="5850"><tspan fill="rgb(0,0,0)" stroke="none" style="white-space: pre">Ergebnis: Einbettung gefunden</tspan></tspan></tspan></text>
</svg>