<svg width="2854" height="1857" xmlns="http://www.w3.org/2000/svg" xmlns:xlink="http://www.w3.org/1999/xlink" xml:space="preserve" overflow="hidden"><defs><clipPath id="clip0"><rect x="5037" y="2201" width="2854" height="1857"/></clipPath></defs><g clip-path="url(#clip0)" transform="translate(-5037 -2201)"><rect x="5038" y="2202" width="2851" height="1854" fill="#FFFFFF"/><g><path d="M5168.5 3454.61 7838.5 3454.61M5168.5 3400.61 7838.5 3400.61M5168.5 3346.61 7838.5 3346.61M5168.5 3292.61 7838.5 3292.61M5168.5 3238.61 7838.5 3238.61M5168.5 3183.6 7838.5 3183.6M5168.5 3129.6 7838.5 3129.6M5168.5 3075.6 7838.5 3075.6M5168.5 3021.6 7838.5 3021.6M5168.5 2967.6 7838.5 2967.6M5168.5 2913.6 7838.5 2913.6M5168.5 2859.59 7838.5 2859.59M5168.5 2804.59 7838.5 2804.59M5168.5 2750.59 7838.5 2750.59M5168.5 2696.59 7838.5 2696.59M5168.5 2642.59 7838.5 2642.59M5168.5 2588.58 7838.5 2588.58M5168.5 2534.58 7838.5 2534.58M5168.5 2479.58 7838.5 2479.58M5168.5 2425.58 7838.5 2425.58M5168.5 2371.5 7838.5 2371.5" stroke="#D9D9D9" stroke-width="3.4375" stroke-linejoin="round" stroke-miterlimit="10" fill="none"/></g><g><path d="M5189.67 3427.61 5208.67 3427.61 5208.67 3508.5 5189.67 3508.5ZM5300.67 3481.61 5320.67 3481.61 5320.67 3508.5 5300.67 3508.5ZM5412.68 3498.61 5431.68 3498.61 5431.68 3508.5 5412.68 3508.5ZM5523.68 3481.61 5542.68 3481.61 5542.68 3508.5 5523.68 3508.5ZM5634.69 3443.61 5653.69 3443.61 5653.69 3508.5 5634.69 3508.5ZM5745.69 3487.61 5765.69 3487.61 5765.69 3508.5 5745.69 3508.5ZM5968.7 3492.61 5987.7 3492.61 5987.7 3508.5 5968.7 3508.5ZM6079.7 3416.61 6098.7 3416.61 6098.7 3508.5 6079.7 3508.5ZM6190.7 3481.61 6210.7 3481.61 6210.7 3508.5 6190.7 3508.5ZM6302.71 3503.62 6321.71 3503.62 6321.71 3508.5 6302.71 3508.5ZM6413.71 3498.61 6432.71 3498.61 6432.71 3508.5 6413.71 3508.5ZM6524.71 3503.62 6543.71 3503.62 6543.71 3508.5 6524.71 3508.5ZM6969.73 3460.61 6989.73 3460.61 6989.73 3508.5 6969.73 3508.5ZM7080.73 3487.61 7100.73 3487.61 7100.73 3508.5 7080.73 3508.5ZM7192.74 3503.62 7211.74 3503.62 7211.74 3508.5 7192.74 3508.5ZM7303.74 3481.61 7322.74 3481.61 7322.74 3508.5 7303.74 3508.5ZM7414.74 3449.61 7434.74 3449.61 7434.74 3508.5 7414.74 3508.5ZM7525.75 3487.61 7545.75 3487.61 7545.75 3508.5 7525.75 3508.5ZM7637.75 3454.61 7656.75 3454.61 7656.75 3508.5 7637.75 3508.5ZM7748.75 3503.62 7767.75 3503.62 7767.75 3508.5 7748.75 3508.5Z" stroke="#333F50" stroke-width="3.4375" stroke-linejoin="round" stroke-miterlimit="10" fill="#8497B0"/></g><g><path d="M5214.67 3427.61 5233.67 3427.61 5233.67 3508.5 5214.67 3508.5ZM5325.67 3481.61 5344.68 3481.61 5344.68 3508.5 5325.67 3508.5ZM5436.68 3492.61 5456.68 3492.61 5456.68 3508.5 5436.68 3508.5ZM5547.68 3481.61 5567.68 3481.61 5567.68 3508.5 5547.68 3508.5ZM5659.69 3064.6 5678.69 3064.6 5678.69 3508.5 5659.69 3508.5ZM5770.69 3324.61 5789.69 3324.61 5789.69 3508.5 5770.69 3508.5ZM5881.69 3492.61 5901.69 3492.61 5901.69 3508.5 5881.69 3508.5ZM5992.7 3297.61 6012.7 3297.61 6012.7 3508.5 5992.7 3508.5ZM6104.7 3276.61 6123.7 3276.61 6123.7 3508.5 6104.7 3508.5ZM6215.7 3422.61 6234.7 3422.61 6234.7 3508.5 6215.7 3508.5ZM6326.71 3487.61 6346.71 3487.61 6346.71 3508.5 6326.71 3508.5ZM6437.71 3395.61 6457.71 3395.61 6457.71 3508.5 6437.71 3508.5ZM6549.71 3492.61 6568.72 3492.61 6568.72 3508.5 6549.71 3508.5ZM6660.72 3498.61 6679.72 3498.61 6679.72 3508.5 6660.72 3508.5ZM6771.72 3492.61 6791.72 3492.61 6791.72 3508.5 6771.72 3508.5ZM6883.73 3498.61 6902.73 3498.61 6902.73 3508.5 6883.73 3508.5ZM6994.73 2561.58 7013.73 2561.58 7013.73 3508.5 6994.73 3508.5ZM7105.73 3162.6 7124.73 3162.6 7124.73 3508.5 7105.73 3508.5ZM7216.74 3476.61 7236.74 3476.61 7236.74 3508.5 7216.74 3508.5ZM7328.74 2387.58 7347.74 2387.58 7347.74 3508.5 7328.74 3508.5ZM7439.74 2810.59 7458.74 2810.59 7458.74 3508.5 7439.74 3508.5ZM7550.75 3221.61 7569.75 3221.61 7569.75 3508.5 7550.75 3508.5ZM7661.75 3443.61 7681.75 3443.61 7681.75 3508.5 7661.75 3508.5ZM7773.75 2761.59 7792.76 2761.59 7792.76 3508.5 7773.75 3508.5Z" stroke="#C55A11" stroke-width="3.4375" stroke-linejoin="round" stroke-miterlimit="10" fill="#F4B183"/></g><g><path d="M5238.67 3443.61 5258.67 3443.61 5258.67 3508.5 5238.67 3508.5ZM5350.68 3481.61 5369.68 3481.61 5369.68 3508.5 5350.68 3508.5ZM5461.68 3492.61 5480.68 3492.61 5480.68 3508.5 5461.68 3508.5ZM5572.68 3476.61 5592.68 3476.61 5592.68 3508.5 5572.68 3508.5ZM5683.69 3048.6 5703.69 3048.6 5703.69 3508.5 5683.69 3508.5ZM5795.69 3286.61 5814.69 3286.61 5814.69 3508.5 5795.69 3508.5ZM5906.69 3498.61 5925.69 3498.61 5925.69 3508.5 5906.69 3508.5ZM6017.7 3221.61 6037.7 3221.61 6037.7 3508.5 6017.7 3508.5ZM6128.7 3286.61 6148.7 3286.61 6148.7 3508.5 6128.7 3508.5ZM6240.71 3400.61 6259.71 3400.61 6259.71 3508.5 6240.71 3508.5ZM6351.71 3498.61 6370.71 3498.61 6370.71 3508.5 6351.71 3508.5ZM6462.71 3378.61 6482.71 3378.61 6482.71 3508.5 6462.71 3508.5ZM6573.72 3503.62 6593.72 3503.62 6593.72 3508.5 6573.72 3508.5ZM7018.73 3443.61 7038.73 3443.61 7038.73 3508.5 7018.73 3508.5ZM7130.73 3476.61 7149.73 3476.61 7149.73 3508.5 7130.73 3508.5ZM7241.74 3498.61 7260.74 3498.61 7260.74 3508.5 7241.74 3508.5ZM7352.74 3481.61 7372.74 3481.61 7372.74 3508.5 7352.74 3508.5ZM7463.75 3449.61 7483.75 3449.61 7483.75 3508.5 7463.75 3508.5ZM7575.75 3498.61 7594.75 3498.61 7594.75 3508.5 7575.75 3508.5ZM7686.75 3454.61 7705.75 3454.61 7705.75 3508.5 7686.75 3508.5ZM7797.76 3503.62 7817.76 3503.62 7817.76 3508.5 7797.76 3508.5Z" stroke="#548235" stroke-width="3.4375" stroke-linejoin="round" stroke-miterlimit="10" fill="#A9D18E"/></g><g><path d="M5168.5 3508.5 7838.5 3508.5" stroke="#D9D9D9" stroke-width="3.4375" stroke-linejoin="round" stroke-miterlimit="10" fill="none" fill-rule="evenodd"/></g><g><path d="M5168.5 3508.5 5168.5 3848.5M5613.68 3508.5 5613.68 3848.5M6058.7 3508.5 6058.7 3848.5M6503.71 3508.5 6503.71 3848.5M6948.73 3508.5 6948.73 3848.5M7393.74 3508.5 7393.74 3848.5M7838.5 3508.5 7838.5 3848.5" stroke="#D9D9D9" stroke-width="3.4375" stroke-linejoin="round" stroke-miterlimit="10" fill="none"/></g><g><path d="M5168.5 3848.5 5168.5 3928.5M5613.68 3848.5 5613.68 3928.5M6058.7 3848.5 6058.7 3928.5M6503.71 3848.5 6503.71 3928.5M6948.73 3848.5 6948.73 3928.5M7393.74 3848.5 7393.74 3928.5M7838.5 3848.5 7838.5 3928.5" stroke="#D9D9D9" stroke-width="3.4375" stroke-linejoin="round" stroke-miterlimit="10" fill="none"/></g><g><text fill="#595959" font-family="Calibri,Calibri_MSFontService,sans-serif" font-weight="400" font-size="41" transform="matrix(1 0 0 1 5109.25 3521)">0</text></g><g><text fill="#595959" font-family="Calibri,Calibri_MSFontService,sans-serif" font-weight="400" font-size="41" transform="matrix(1 0 0 1 5088.35 3466)">10</text></g><g><text fill="#595959" font-family="Calibri,Calibri_MSFontService,sans-serif" font-weight="400" font-size="41" transform="matrix(1 0 0 1 5088.35 3412)">20</text></g><g><text fill="#595959" font-family="Calibri,Calibri_MSFontService,sans-serif" font-weight="400" font-size="41" transform="matrix(1 0 0 1 5088.35 3358)">30</text></g><g><text fill="#595959" font-family="Calibri,Calibri_MSFontService,sans-serif" font-weight="400" font-size="41" transform="matrix(1 0 0 1 5088.35 3304)">40</text></g><g><text fill="#595959" font-family="Calibri,Calibri_MSFontService,sans-serif" font-weight="400" font-size="41" transform="matrix(1 0 0 1 5088.35 3250)">50</text></g><g><text fill="#595959" font-family="Calibri,Calibri_MSFontService,sans-serif" font-weight="400" font-size="41" transform="matrix(1 0 0 1 5088.35 3196)">60</text></g><g><text fill="#595959" font-family="Calibri,Calibri_MSFontService,sans-serif" font-weight="400" font-size="41" transform="matrix(1 0 0 1 5088.35 3141)">70</text></g><g><text fill="#595959" font-family="Calibri,Calibri_MSFontService,sans-serif" font-weight="400" font-size="41" transform="matrix(1 0 0 1 5088.35 3087)">80</text></g><g><text fill="#595959" font-family="Calibri,Calibri_MSFontService,sans-serif" font-weight="400" font-size="41" transform="matrix(1 0 0 1 5088.35 3033)">90</text></g><g><text fill="#595959" font-family="Calibri,Calibri_MSFontService,sans-serif" font-weight="400" font-size="41" transform="matrix(1 0 0 1 5067.45 2979)">100</text></g><g><text fill="#595959" font-family="Calibri,Calibri_MSFontService,sans-serif" font-weight="400" font-size="41" transform="matrix(1 0 0 1 5067.45 2925)">110</text></g><g><text fill="#595959" font-family="Calibri,Calibri_MSFontService,sans-serif" font-weight="400" font-size="41" transform="matrix(1 0 0 1 5067.45 2871)">120</text></g><g><text fill="#595959" font-family="Calibri,Calibri_MSFontService,sans-serif" font-weight="400" font-size="41" transform="matrix(1 0 0 1 5067.45 2817)">130</text></g><g><text fill="#595959" font-family="Calibri,Calibri_MSFontService,sans-serif" font-weight="400" font-size="41" transform="matrix(1 0 0 1 5067.45 2762)">140</text></g><g><text fill="#595959" font-family="Calibri,Calibri_MSFontService,sans-serif" font-weight="400" font-size="41" transform="matrix(1 0 0 1 5067.45 2708)">150</text></g><g><text fill="#595959" font-family="Calibri,Calibri_MSFontService,sans-serif" font-weight="400" font-size="41" transform="matrix(1 0 0 1 5067.45 2654)">160</text></g><g><text fill="#595959" font-family="Calibri,Calibri_MSFontService,sans-serif" font-weight="400" font-size="41" transform="matrix(1 0 0 1 5067.45 2600)">170</text></g><g><text fill="#595959" font-family="Calibri,Calibri_MSFontService,sans-serif" font-weight="400" font-size="41" transform="matrix(1 0 0 1 5067.45 2546)">180</text></g><g><text fill="#595959" font-family="Calibri,Calibri_MSFontService,sans-serif" font-weight="400" font-size="41" transform="matrix(1 0 0 1 5067.45 2492)">190</text></g><g><text fill="#595959" font-family="Calibri,Calibri_MSFontService,sans-serif" font-weight="400" font-size="41" transform="matrix(1 0 0 1 5067.45 2437)">200</text></g><g><text fill="#595959" font-family="Calibri,Calibri_MSFontService,sans-serif" font-weight="400" font-size="41" transform="matrix(1 0 0 1 5067.45 2383)">210</text></g><g><text fill="#595959" font-family="Calibri,Calibri_MSFontService,sans-serif" font-weight="400" font-size="41" transform="matrix(6.12323e-17 -1 1 6.12323e-17 5237.87 3799)">3rd-Party-Hosts</text></g><g><text fill="#595959" font-family="Calibri,Calibri_MSFontService,sans-serif" font-weight="400" font-size="41" transform="matrix(6.12323e-17 -1 1 6.12323e-17 5349.13 3845)">3rd-Party-Beacons</text></g><g><text fill="#595959" font-family="Calibri,Calibri_MSFontService,sans-serif" font-weight="400" font-size="41" transform="matrix(6.12323e-17 -1 1 6.12323e-17 5460.39 3830)">1st-Party-Cookies</text></g><g><text fill="#595959" font-family="Calibri,Calibri_MSFontService,sans-serif" font-weight="400" font-size="41" transform="matrix(6.12323e-17 -1 1 6.12323e-17 5571.65 3836)">3rd-Party-Cookies</text></g><g><text fill="#595959" font-family="Calibri,Calibri_MSFontService,sans-serif" font-weight="400" font-size="41" transform="matrix(6.12323e-17 -1 1 6.12323e-17 5682.91 3799)">3rd-Party-Hosts</text></g><g><text fill="#595959" font-family="Calibri,Calibri_MSFontService,sans-serif" font-weight="400" font-size="41" transform="matrix(6.12323e-17 -1 1 6.12323e-17 5794.17 3845)">3rd-Party-Beacons</text></g><g><text fill="#595959" font-family="Calibri,Calibri_MSFontService,sans-serif" font-weight="400" font-size="41" transform="matrix(6.12323e-17 -1 1 6.12323e-17 5905.43 3830)">1st-Party-Cookies</text></g><g><text fill="#595959" font-family="Calibri,Calibri_MSFontService,sans-serif" font-weight="400" font-size="41" transform="matrix(6.12323e-17 -1 1 6.12323e-17 6016.69 3836)">3rd-Party-Cookies</text></g><g><text fill="#595959" font-family="Calibri,Calibri_MSFontService,sans-serif" font-weight="400" font-size="41" transform="matrix(6.12323e-17 -1 1 6.12323e-17 6127.95 3799)">3rd-Party-Hosts</text></g><g><text fill="#595959" font-family="Calibri,Calibri_MSFontService,sans-serif" font-weight="400" font-size="41" transform="matrix(6.12323e-17 -1 1 6.12323e-17 6239.21 3845)">3rd-Party-Beacons</text></g><g><text fill="#595959" font-family="Calibri,Calibri_MSFontService,sans-serif" font-weight="400" font-size="41" transform="matrix(6.12323e-17 -1 1 6.12323e-17 6350.47 3830)">1st-Party-Cookies</text></g><g><text fill="#595959" font-family="Calibri,Calibri_MSFontService,sans-serif" font-weight="400" font-size="41" transform="matrix(6.12323e-17 -1 1 6.12323e-17 6461.73 3836)">3rd-Party-Cookies</text></g><g><text fill="#595959" font-family="Calibri,Calibri_MSFontService,sans-serif" font-weight="400" font-size="41" transform="matrix(6.12323e-17 -1 1 6.12323e-17 6572.99 3799)">3rd-Party-Hosts</text></g><g><text fill="#595959" font-family="Calibri,Calibri_MSFontService,sans-serif" font-weight="400" font-size="41" transform="matrix(6.12323e-17 -1 1 6.12323e-17 6684.25 3845)">3rd-Party-Beacons</text></g><g><text fill="#595959" font-family="Calibri,Calibri_MSFontService,sans-serif" font-weight="400" font-size="41" transform="matrix(6.12323e-17 -1 1 6.12323e-17 6795.5 3830)">1st-Party-Cookies</text></g><g><text fill="#595959" font-family="Calibri,Calibri_MSFontService,sans-serif" font-weight="400" font-size="41" transform="matrix(6.12323e-17 -1 1 6.12323e-17 6906.76 3836)">3rd-Party-Cookies</text></g><g><text fill="#595959" font-family="Calibri,Calibri_MSFontService,sans-serif" font-weight="400" font-size="41" transform="matrix(6.12323e-17 -1 1 6.12323e-17 7018.02 3799)">3rd-Party-Hosts</text></g><g><text fill="#595959" font-family="Calibri,Calibri_MSFontService,sans-serif" font-weight="400" font-size="41" transform="matrix(6.12323e-17 -1 1 6.12323e-17 7129.28 3845)">3rd-Party-Beacons</text></g><g><text fill="#595959" font-family="Calibri,Calibri_MSFontService,sans-serif" font-weight="400" font-size="41" transform="matrix(6.12323e-17 -1 1 6.12323e-17 7240.54 3830)">1st-Party-Cookies</text></g><g><text fill="#595959" font-family="Calibri,Calibri_MSFontService,sans-serif" font-weight="400" font-size="41" transform="matrix(6.12323e-17 -1 1 6.12323e-17 7351.8 3836)">3rd-Party-Cookies</text></g><g><text fill="#595959" font-family="Calibri,Calibri_MSFontService,sans-serif" font-weight="400" font-size="41" transform="matrix(6.12323e-17 -1 1 6.12323e-17 7463.06 3799)">3rd-Party-Hosts</text></g><g><text fill="#595959" font-family="Calibri,Calibri_MSFontService,sans-serif" font-weight="400" font-size="41" transform="matrix(6.12323e-17 -1 1 6.12323e-17 7574.32 3845)">3rd-Party-Beacons</text></g><g><text fill="#595959" font-family="Calibri,Calibri_MSFontService,sans-serif" font-weight="400" font-size="41" transform="matrix(6.12323e-17 -1 1 6.12323e-17 7685.58 3830)">1st-Party-Cookies</text></g><g><text fill="#595959" font-family="Calibri,Calibri_MSFontService,sans-serif" font-weight="400" font-size="41" transform="matrix(6.12323e-17 -1 1 6.12323e-17 7796.84 3836)">3rd-Party-Cookies</text></g><g><text fill="#595959" font-family="Calibri,Calibri_MSFontService,sans-serif" font-weight="400" font-size="41" transform="matrix(1 0 0 1 5277.52 3914)">docinsider.de</text></g><g><text fill="#595959" font-family="Calibri,Calibri_MSFontService,sans-serif" font-weight="400" font-size="41" transform="matrix(1 0 0 1 5716.36 3914)">gesundheit.de</text></g><g><text fill="#595959" font-family="Calibri,Calibri_MSFontService,sans-serif" font-weight="400" font-size="41" transform="matrix(1 0 0 1 6192.43 3914)">jameda.de</text></g><g><text fill="#595959" font-family="Calibri,Calibri_MSFontService,sans-serif" font-weight="400" font-size="41" transform="matrix(1 0 0 1 6634.85 3914)">kliniken.de</text></g><g><text fill="#595959" font-family="Calibri,Calibri_MSFontService,sans-serif" font-weight="400" font-size="41" transform="matrix(1 0 0 1 7085.15 3914)">sanego.de</text></g><g><text fill="#595959" font-family="Calibri,Calibri_MSFontService,sans-serif" font-weight="400" font-size="41" transform="matrix(1 0 0 1 7466.31 3914)">seniorenportal.de</text></g><g><text fill="#595959" font-family="Calibri,Calibri_MSFontService,sans-serif" font-weight="400" font-size="64" transform="matrix(1 0 0 1 5673.99 2297)">Vergleich beider Ansätze zur Umgehung von Cookie</text></g><g><text fill="#595959" font-family="Calibri,Calibri_MSFontService,sans-serif" font-weight="400" font-size="64" transform="matrix(1 0 0 1 7012.03 2297)">-</text></g><g><text fill="#595959" font-family="Calibri,Calibri_MSFontService,sans-serif" font-weight="400" font-size="64" transform="matrix(1 0 0 1 7031.67 2297)">Bannern</text></g><g><rect x="5764.5" y="3978.5" width="23" height="23" stroke="#333F50" stroke-width="3.4375" stroke-linejoin="round" stroke-miterlimit="10" fill="#8497B0"/></g><g><text fill="#595959" font-family="Calibri,Calibri_MSFontService,sans-serif" font-weight="400" font-size="41" transform="matrix(1 0 0 1 5796.87 4002)">ohne Akzeptanz</text></g><g><rect x="6142.5" y="3978.5" width="23" height="23" stroke="#C55A11" stroke-width="3.4375" stroke-linejoin="round" stroke-miterlimit="10" fill="#F4B183"/></g><g><text fill="#595959" font-family="Calibri,Calibri_MSFontService,sans-serif" font-weight="400" font-size="41" transform="matrix(1 0 0 1 6174.69 4002)">Consent-Cookies (Ansatz 1)</text></g><g><rect x="6709.5" y="3978.5" width="22" height="23" stroke="#548235" stroke-width="3.4375" stroke-linejoin="round" stroke-miterlimit="10" fill="#A9D18E"/></g><g><text fill="#595959" font-family="Calibri,Calibri_MSFontService,sans-serif" font-weight="400" font-size="41" transform="matrix(1 0 0 1 6741.6 4002)">Keyword-Suche (Ansatz 2)</text></g><rect x="5038.5" y="2202.5" width="2851" height="1854" stroke="#D9D9D9" stroke-width="3.4375" stroke-linejoin="round" stroke-miterlimit="10" fill="none"/></g></svg>