<svg width="1997" height="1033" xmlns="http://www.w3.org/2000/svg" xmlns:xlink="http://www.w3.org/1999/xlink" xml:space="preserve" overflow="hidden"><defs><clipPath id="clip0"><rect x="772" y="688" width="1997" height="1033"/></clipPath></defs><g clip-path="url(#clip0)" transform="translate(-772 -688)"><rect x="773" y="689" width="1994" height="1030" fill="#FFFFFF"/><g><path d="M904.5 1435.55 2716.5 1435.55M904.5 1363.54 2716.5 1363.54M904.5 1291.54 2716.5 1291.54M904.5 1219.54 2716.5 1219.54M904.5 1147.54 2716.5 1147.54M904.5 1075.54 2716.5 1075.54M904.5 1003.53 2716.5 1003.53M904.5 931.531 2716.5 931.531M904.5 859.5 2716.5 859.5" stroke="#D9D9D9" stroke-width="3.4375" stroke-linejoin="round" stroke-miterlimit="10" fill="none"/></g><g><path d="M951.531 1390.55 994.533 1390.55 994.533 1507.5 951.531 1507.5ZM1253.54 879.529 1296.54 879.529 1296.54 1507.5 1253.54 1507.5ZM1555.55 1333.54 1598.55 1333.54 1598.55 1507.5 1555.55 1507.5ZM1857.56 1481.55 1900.56 1481.55 1900.56 1507.5 1857.56 1507.5ZM2159.57 981.532 2202.57 981.532 2202.57 1507.5 2159.57 1507.5ZM2461.58 1320.54 2505.58 1320.54 2505.58 1507.5 2461.58 1507.5Z" stroke="#333F50" stroke-width="3.4375" stroke-linejoin="round" stroke-miterlimit="10" fill="#8497B0"/></g><g><path d="M1006.53 1441.55 1049.53 1441.55 1049.53 1507.5 1006.53 1507.5ZM1308.54 1428.55 1351.54 1428.55 1351.54 1507.5 1308.54 1507.5ZM1610.55 1428.55 1653.55 1428.55 1653.55 1507.5 1610.55 1507.5ZM1912.56 1481.55 1955.56 1481.55 1955.56 1507.5 1912.56 1507.5ZM2214.57 1491.55 2257.57 1491.55 2257.57 1507.5 2214.57 1507.5ZM2516.58 1444.55 2559.58 1444.55 2559.58 1507.5 2516.58 1507.5Z" stroke="#C55A11" stroke-width="3.4375" stroke-linejoin="round" stroke-miterlimit="10" fill="#F4B183"/></g><g><path d="M1061.54 1434.55 1104.54 1434.55 1104.54 1507.5 1061.54 1507.5ZM1363.54 1445.55 1406.55 1445.55 1406.55 1507.5 1363.54 1507.5ZM1665.55 1441.55 1708.56 1441.55 1708.56 1507.5 1665.55 1507.5ZM1967.56 1481.55 2010.57 1481.55 2010.57 1507.5 1967.56 1507.5ZM2269.57 1487.55 2312.58 1487.55 2312.58 1507.5 2269.57 1507.5ZM2571.58 1439.55 2614.59 1439.55 2614.59 1507.5 2571.58 1507.5Z" stroke="#548235" stroke-width="3.4375" stroke-linejoin="round" stroke-miterlimit="10" fill="#A9D18E"/></g><g><path d="M1115.54 1441.55 1158.54 1441.55 1158.54 1507.5 1115.54 1507.5ZM1417.55 1448.55 1461.55 1448.55 1461.55 1507.5 1417.55 1507.5ZM1720.56 1442.55 1763.56 1442.55 1763.56 1507.5 1720.56 1507.5ZM2022.57 1481.55 2065.57 1481.55 2065.57 1507.5 2022.57 1507.5ZM2324.58 1491.55 2367.58 1491.55 2367.58 1507.5 2324.58 1507.5ZM2626.59 1415.55 2669.59 1415.55 2669.59 1507.5 2626.59 1507.5Z" stroke="#BF9000" stroke-width="3.4375" stroke-linejoin="round" stroke-miterlimit="10" fill="#FFD966"/></g><g><path d="M904.5 1507.5 2716.5 1507.5" stroke="#D9D9D9" stroke-width="3.4375" stroke-linejoin="round" stroke-miterlimit="10" fill="none" fill-rule="evenodd"/></g><g><text fill="#595959" font-family="Calibri,Calibri_MSFontService,sans-serif" font-weight="400" font-size="41" transform="matrix(1 0 0 1 845.029 1519)">0</text></g><g><text fill="#595959" font-family="Calibri,Calibri_MSFontService,sans-serif" font-weight="400" font-size="41" transform="matrix(1 0 0 1 824.129 1447)">50</text></g><g><text fill="#595959" font-family="Calibri,Calibri_MSFontService,sans-serif" font-weight="400" font-size="41" transform="matrix(1 0 0 1 803.229 1375)">100</text></g><g><text fill="#595959" font-family="Calibri,Calibri_MSFontService,sans-serif" font-weight="400" font-size="41" transform="matrix(1 0 0 1 803.229 1303)">150</text></g><g><text fill="#595959" font-family="Calibri,Calibri_MSFontService,sans-serif" font-weight="400" font-size="41" transform="matrix(1 0 0 1 803.229 1231)">200</text></g><g><text fill="#595959" font-family="Calibri,Calibri_MSFontService,sans-serif" font-weight="400" font-size="41" transform="matrix(1 0 0 1 803.229 1159)">250</text></g><g><text fill="#595959" font-family="Calibri,Calibri_MSFontService,sans-serif" font-weight="400" font-size="41" transform="matrix(1 0 0 1 803.229 1087)">300</text></g><g><text fill="#595959" font-family="Calibri,Calibri_MSFontService,sans-serif" font-weight="400" font-size="41" transform="matrix(1 0 0 1 803.229 1015)">350</text></g><g><text fill="#595959" font-family="Calibri,Calibri_MSFontService,sans-serif" font-weight="400" font-size="41" transform="matrix(1 0 0 1 803.229 943)">400</text></g><g><text fill="#595959" font-family="Calibri,Calibri_MSFontService,sans-serif" font-weight="400" font-size="41" transform="matrix(1 0 0 1 803.229 871)">450</text></g><g><text fill="#595959" font-family="Calibri,Calibri_MSFontService,sans-serif" font-weight="400" font-size="41" transform="matrix(1 0 0 1 941.829 1573)">docinsider.de</text></g><g><text fill="#595959" font-family="Calibri,Calibri_MSFontService,sans-serif" font-weight="400" font-size="41" transform="matrix(1 0 0 1 1237.73 1573)">gesundheit.de</text></g><g><text fill="#595959" font-family="Calibri,Calibri_MSFontService,sans-serif" font-weight="400" font-size="41" transform="matrix(1 0 0 1 1570.85 1573)">jameda.de</text></g><g><text fill="#595959" font-family="Calibri,Calibri_MSFontService,sans-serif" font-weight="400" font-size="41" transform="matrix(1 0 0 1 1870.33 1573)">kliniken.de</text></g><g><text fill="#595959" font-family="Calibri,Calibri_MSFontService,sans-serif" font-weight="400" font-size="41" transform="matrix(1 0 0 1 2177.69 1573)">sanego.de</text></g><g><text fill="#595959" font-family="Calibri,Calibri_MSFontService,sans-serif" font-weight="400" font-size="41" transform="matrix(1 0 0 1 2415.9 1573)">seniorenportal.de</text></g><g><text fill="#595959" font-family="Calibri,Calibri_MSFontService,sans-serif" font-weight="400" font-size="64" transform="matrix(1 0 0 1 1192.25 785)">Initiierte Anfragen nach Aufruf der Webseite</text></g><g><rect x="1013.5" y="1641.5" width="23" height="22" stroke="#333F50" stroke-width="3.4375" stroke-linejoin="round" stroke-miterlimit="10" fill="#8497B0"/></g><g><text fill="#595959" font-family="Calibri,Calibri_MSFontService,sans-serif" font-weight="400" font-size="41" transform="matrix(1 0 0 1 1046.17 1664)">ohne Blockiermaßnahmen</text></g><g><rect x="1556.5" y="1641.5" width="22" height="22" stroke="#C55A11" stroke-width="3.4375" stroke-linejoin="round" stroke-miterlimit="10" fill="#F4B183"/></g><g><text fill="#595959" font-family="Calibri,Calibri_MSFontService,sans-serif" font-weight="400" font-size="41" transform="matrix(1 0 0 1 1588.49 1664)">uBlockOrigin</text></g><g><rect x="1869.5" y="1641.5" width="22.9996" height="22" stroke="#548235" stroke-width="3.4375" stroke-linejoin="round" stroke-miterlimit="10" fill="#A9D18E"/></g><g><text fill="#595959" font-family="Calibri,Calibri_MSFontService,sans-serif" font-weight="400" font-size="41" transform="matrix(1 0 0 1 1902.13 1664)">NoScript</text></g><g><rect x="2114.5" y="1641.5" width="23" height="22" stroke="#BF9000" stroke-width="3.4375" stroke-linejoin="round" stroke-miterlimit="10" fill="#FFD966"/></g><g><text fill="#595959" font-family="Calibri,Calibri_MSFontService,sans-serif" font-weight="400" font-size="41" transform="matrix(1 0 0 1 2146.65 1664)">uBlockOrigin + NoScript</text></g><rect x="773.5" y="689.5" width="1994" height="1030" stroke="#D9D9D9" stroke-width="3.4375" stroke-linejoin="round" stroke-miterlimit="10" fill="none"/></g></svg>