<svg width="1997" height="1032" xmlns="http://www.w3.org/2000/svg" xmlns:xlink="http://www.w3.org/1999/xlink" xml:space="preserve" overflow="hidden"><defs><clipPath id="clip0"><rect x="2766" y="687" width="1997" height="1032"/></clipPath></defs><g clip-path="url(#clip0)" transform="translate(-2766 -687)"><rect x="2767" y="688" width="1994" height="1029" fill="#FFFFFF"/><g><path d="M2877.5 1413.55 4710.5 1413.55M2877.5 1320.54 4710.5 1320.54M2877.5 1227.54 4710.5 1227.54M2877.5 1135.54 4710.5 1135.54M2877.5 1042.53 4710.5 1042.53M2877.5 950.531 4710.5 950.531M2877.5 857.5 4710.5 857.5" stroke="#D9D9D9" stroke-width="3.4375" stroke-linejoin="round" stroke-miterlimit="10" fill="none"/></g><g><path d="M2924.6 1277.54 2968.6 1277.54 2968.6 1505.5 2924.6 1505.5ZM3230.61 935.531 3273.61 935.531 3273.61 1505.5 3230.61 1505.5ZM3535.62 1205.54 3579.62 1205.54 3579.62 1505.5 3535.62 1505.5ZM3841.63 1457.55 3885.63 1457.55 3885.63 1505.5 3841.63 1505.5ZM4147.64 1130.54 4190.64 1130.54 4190.64 1505.5 4147.64 1505.5ZM4452.65 1336.54 4496.65 1336.54 4496.65 1505.5 4452.65 1505.5Z" stroke="#333F50" stroke-width="3.4375" stroke-linejoin="round" stroke-miterlimit="10" fill="#8497B0"/></g><g><path d="M2980.6 1343.54 3023.6 1343.54 3023.6 1505.5 2980.6 1505.5ZM3285.61 1407.55 3329.61 1407.55 3329.61 1505.5 3285.61 1505.5ZM3591.62 1367.55 3634.62 1367.55 3634.62 1505.5 3591.62 1505.5ZM3896.63 1457.55 3940.63 1457.55 3940.63 1505.5 3896.63 1505.5ZM4202.64 1454.55 4246.64 1454.55 4246.64 1505.5 4202.64 1505.5ZM4508.65 1458.55 4551.65 1458.55 4551.65 1505.5 4508.65 1505.5Z" stroke="#C55A11" stroke-width="3.4375" stroke-linejoin="round" stroke-miterlimit="10" fill="#F4B183"/></g><g><path d="M3035.6 1343.54 3079.6 1343.54 3079.6 1505.5 3035.6 1505.5ZM3341.61 1447.55 3384.61 1447.55 3384.61 1505.5 3341.61 1505.5ZM3646.62 1396.55 3690.62 1396.55 3690.62 1505.5 3646.62 1505.5ZM3952.63 1457.55 3995.63 1457.55 3995.63 1505.5 3952.63 1505.5ZM4257.64 1454.55 4301.64 1454.55 4301.64 1505.5 4257.64 1505.5ZM4563.65 1446.55 4607.65 1446.55 4607.65 1505.5 4563.65 1505.5Z" stroke="#548235" stroke-width="3.4375" stroke-linejoin="round" stroke-miterlimit="10" fill="#A9D18E"/></g><g><path d="M3091.6 1343.54 3134.6 1343.54 3134.6 1505.5 3091.6 1505.5ZM3396.61 1453.55 3440.61 1453.55 3440.61 1505.5 3396.61 1505.5ZM3702.62 1396.55 3745.62 1396.55 3745.62 1505.5 3702.62 1505.5ZM4007.63 1457.55 4051.63 1457.55 4051.63 1505.5 4007.63 1505.5ZM4313.64 1454.55 4356.64 1454.55 4356.64 1505.5 4313.64 1505.5ZM4618.65 1445.55 4662.65 1445.55 4662.65 1505.5 4618.65 1505.5Z" stroke="#BF9000" stroke-width="3.4375" stroke-linejoin="round" stroke-miterlimit="10" fill="#FFD966"/></g><g><path d="M2877.5 1505.5 4710.5 1505.5" stroke="#D9D9D9" stroke-width="3.4375" stroke-linejoin="round" stroke-miterlimit="10" fill="none" fill-rule="evenodd"/></g><g><text fill="#595959" font-family="Calibri,Calibri_MSFontService,sans-serif" font-weight="400" font-size="41" transform="matrix(1 0 0 1 2817.88 1517)">0</text></g><g><text fill="#595959" font-family="Calibri,Calibri_MSFontService,sans-serif" font-weight="400" font-size="41" transform="matrix(1 0 0 1 2817.88 1425)">2</text></g><g><text fill="#595959" font-family="Calibri,Calibri_MSFontService,sans-serif" font-weight="400" font-size="41" transform="matrix(1 0 0 1 2817.88 1332)">4</text></g><g><text fill="#595959" font-family="Calibri,Calibri_MSFontService,sans-serif" font-weight="400" font-size="41" transform="matrix(1 0 0 1 2817.88 1240)">6</text></g><g><text fill="#595959" font-family="Calibri,Calibri_MSFontService,sans-serif" font-weight="400" font-size="41" transform="matrix(1 0 0 1 2817.88 1147)">8</text></g><g><text fill="#595959" font-family="Calibri,Calibri_MSFontService,sans-serif" font-weight="400" font-size="41" transform="matrix(1 0 0 1 2796.98 1054)">10</text></g><g><text fill="#595959" font-family="Calibri,Calibri_MSFontService,sans-serif" font-weight="400" font-size="41" transform="matrix(1 0 0 1 2796.98 962)">12</text></g><g><text fill="#595959" font-family="Calibri,Calibri_MSFontService,sans-serif" font-weight="400" font-size="41" transform="matrix(1 0 0 1 2796.98 869)">14</text></g><g><text fill="#595959" font-family="Calibri,Calibri_MSFontService,sans-serif" font-weight="400" font-size="41" transform="matrix(1 0 0 1 2916.42 1571)">docinsider.de</text></g><g><text fill="#595959" font-family="Calibri,Calibri_MSFontService,sans-serif" font-weight="400" font-size="41" transform="matrix(1 0 0 1 3215.8 1571)">gesundheit.de</text></g><g><text fill="#595959" font-family="Calibri,Calibri_MSFontService,sans-serif" font-weight="400" font-size="41" transform="matrix(1 0 0 1 3552.41 1571)">jameda.de</text></g><g><text fill="#595959" font-family="Calibri,Calibri_MSFontService,sans-serif" font-weight="400" font-size="41" transform="matrix(1 0 0 1 3855.38 1571)">kliniken.de</text></g><g><text fill="#595959" font-family="Calibri,Calibri_MSFontService,sans-serif" font-weight="400" font-size="41" transform="matrix(1 0 0 1 4166.21 1571)">sanego.de</text></g><g><text fill="#595959" font-family="Calibri,Calibri_MSFontService,sans-serif" font-weight="400" font-size="41" transform="matrix(1 0 0 1 4407.91 1571)">seniorenportal.de</text></g><g><text fill="#595959" font-family="Calibri,Calibri_MSFontService,sans-serif" font-weight="400" font-size="64" transform="matrix(1 0 0 1 3135.92 783)">Datenmengen nach Aufruf der Webseite (in MB)</text></g><g><rect x="3007.5" y="1639.5" width="23" height="23" stroke="#333F50" stroke-width="3.4375" stroke-linejoin="round" stroke-miterlimit="10" fill="#8497B0"/></g><g><text fill="#595959" font-family="Calibri,Calibri_MSFontService,sans-serif" font-weight="400" font-size="41" transform="matrix(1 0 0 1 3039.92 1662)">ohne Blockiermaßnahmen</text></g><g><rect x="3549.5" y="1639.5" width="23" height="23" stroke="#C55A11" stroke-width="3.4375" stroke-linejoin="round" stroke-miterlimit="10" fill="#F4B183"/></g><g><text fill="#595959" font-family="Calibri,Calibri_MSFontService,sans-serif" font-weight="400" font-size="41" transform="matrix(1 0 0 1 3582.24 1662)">uBlockOrigin</text></g><g><rect x="3863.5" y="1639.5" width="23" height="23" stroke="#548235" stroke-width="3.4375" stroke-linejoin="round" stroke-miterlimit="10" fill="#A9D18E"/></g><g><text fill="#595959" font-family="Calibri,Calibri_MSFontService,sans-serif" font-weight="400" font-size="41" transform="matrix(1 0 0 1 3895.88 1662)">NoScript</text></g><g><rect x="4108.5" y="1639.5" width="22" height="23" stroke="#BF9000" stroke-width="3.4375" stroke-linejoin="round" stroke-miterlimit="10" fill="#FFD966"/></g><g><text fill="#595959" font-family="Calibri,Calibri_MSFontService,sans-serif" font-weight="400" font-size="41" transform="matrix(1 0 0 1 4140.4 1662)">uBlockOrigin + NoScript</text></g><rect x="2767.5" y="688.5" width="1994" height="1029" stroke="#D9D9D9" stroke-width="3.4375" stroke-linejoin="round" stroke-miterlimit="10" fill="none"/></g></svg>