<svg width="2203" height="1378" xmlns="http://www.w3.org/2000/svg" xmlns:xlink="http://www.w3.org/1999/xlink" xml:space="preserve" overflow="hidden"><defs><clipPath id="clip0"><rect x="2749" y="2130" width="2203" height="1378"/></clipPath><clipPath id="clip1"><rect x="2750" y="2131" width="2200" height="1375"/></clipPath><clipPath id="clip2"><rect x="2870" y="2301" width="2033" height="614"/></clipPath><clipPath id="clip3"><rect x="2870" y="2301" width="2033" height="614"/></clipPath><clipPath id="clip4"><rect x="2870" y="2301" width="2033" height="614"/></clipPath><clipPath id="clip5"><rect x="2750" y="2131" width="2200" height="1375"/></clipPath><clipPath id="clip6"><rect x="2750" y="2131" width="2200" height="1375"/></clipPath><clipPath id="clip7"><rect x="2750" y="2131" width="2200" height="1375"/></clipPath><clipPath id="clip8"><rect x="2750" y="2131" width="2200" height="1375"/></clipPath><clipPath id="clip9"><rect x="2750" y="2131" width="2200" height="1375"/></clipPath><clipPath id="clip10"><rect x="2750" y="2131" width="2200" height="1375"/></clipPath><clipPath id="clip11"><rect x="2750" y="2131" width="2200" height="1375"/></clipPath><clipPath id="clip12"><rect x="2750" y="2131" width="2200" height="1375"/></clipPath><clipPath id="clip13"><rect x="2750" y="2131" width="2200" height="1375"/></clipPath><clipPath id="clip14"><rect x="2750" y="2131" width="2200" height="1375"/></clipPath><clipPath id="clip15"><rect x="2750" y="2131" width="2200" height="1375"/></clipPath><clipPath id="clip16"><rect x="2750" y="2131" width="2200" height="1375"/></clipPath><clipPath id="clip17"><rect x="2750" y="2131" width="2200" height="1375"/></clipPath><clipPath id="clip18"><rect x="2750" y="2131" width="2200" height="1375"/></clipPath><clipPath id="clip19"><rect x="2750" y="2131" width="2200" height="1375"/></clipPath><clipPath id="clip20"><rect x="2750" y="2131" width="2200" height="1375"/></clipPath><clipPath id="clip21"><rect x="2750" y="2131" width="2200" height="1375"/></clipPath><clipPath id="clip22"><rect x="2750" y="2131" width="2200" height="1375"/></clipPath><clipPath id="clip23"><rect x="2750" y="2131" width="2200" height="1375"/></clipPath><clipPath id="clip24"><rect x="2750" y="2131" width="2200" height="1375"/></clipPath><clipPath id="clip25"><rect x="2750" y="2131" width="2200" height="1375"/></clipPath><clipPath id="clip26"><rect x="2750" y="2131" width="2200" height="1375"/></clipPath><clipPath id="clip27"><rect x="2750" y="2131" width="2200" height="1375"/></clipPath><clipPath id="clip28"><rect x="2750" y="2131" width="2200" height="1375"/></clipPath><clipPath id="clip29"><rect x="2750" y="2131" width="2200" height="1375"/></clipPath><clipPath id="clip30"><rect x="2750" y="2131" width="2200" height="1375"/></clipPath><clipPath id="clip31"><rect x="2750" y="2131" width="2200" height="1375"/></clipPath><clipPath id="clip32"><rect x="2750" y="2131" width="2200" height="1375"/></clipPath><clipPath id="clip33"><rect x="2750" y="2131" width="2200" height="1375"/></clipPath><clipPath id="clip34"><rect x="2750" y="2131" width="2200" height="1375"/></clipPath><clipPath id="clip35"><rect x="2750" y="2131" width="2200" height="1375"/></clipPath><clipPath id="clip36"><rect x="2750" y="2131" width="2200" height="1375"/></clipPath><clipPath id="clip37"><rect x="2750" y="2131" width="2200" height="1375"/></clipPath><clipPath id="clip38"><rect x="2750" y="2131" width="2200" height="1375"/></clipPath><clipPath id="clip39"><rect x="2750" y="2131" width="2200" height="1375"/></clipPath><clipPath id="clip40"><rect x="2750" y="2131" width="2200" height="1375"/></clipPath><clipPath id="clip41"><rect x="2750" y="2131" width="2200" height="1375"/></clipPath><clipPath id="clip42"><rect x="2750" y="2131" width="2200" height="1375"/></clipPath><clipPath id="clip43"><rect x="2750" y="2131" width="2200" height="1375"/></clipPath><clipPath id="clip44"><rect x="2750" y="2131" width="2200" height="1375"/></clipPath><clipPath id="clip45"><rect x="2750" y="2131" width="2200" height="1375"/></clipPath><clipPath id="clip46"><rect x="2750" y="2131" width="2200" height="1375"/></clipPath><clipPath id="clip47"><rect x="2750" y="2131" width="2200" height="1375"/></clipPath><clipPath id="clip48"><rect x="2750" y="2131" width="2200" height="1375"/></clipPath><clipPath id="clip49"><rect x="2750" y="2131" width="2200" height="1375"/></clipPath><clipPath id="clip50"><rect x="2750" y="2131" width="2200" height="1375"/></clipPath><clipPath id="clip51"><rect x="2750" y="2131" width="2200" height="1375"/></clipPath><clipPath id="clip52"><rect x="2750" y="2131" width="2200" height="1375"/></clipPath><clipPath id="clip53"><rect x="2750" y="2131" width="2200" height="1375"/></clipPath><clipPath id="clip54"><rect x="2750" y="2131" width="2200" height="1375"/></clipPath><clipPath id="clip55"><rect x="2750" y="2131" width="2200" height="1375"/></clipPath><clipPath id="clip56"><rect x="2750" y="2131" width="2200" height="1375"/></clipPath><clipPath id="clip57"><rect x="2750" y="2131" width="2200" height="1375"/></clipPath><clipPath id="clip58"><rect x="2750" y="2131" width="2200" height="1375"/></clipPath><clipPath id="clip59"><rect x="2750" y="2131" width="2200" height="1375"/></clipPath><clipPath id="clip60"><rect x="2750" y="2131" width="2200" height="1375"/></clipPath><clipPath id="clip61"><rect x="2750" y="2131" width="2200" height="1375"/></clipPath><clipPath id="clip62"><rect x="2750" y="2131" width="2200" height="1375"/></clipPath><clipPath id="clip63"><rect x="2750" y="2131" width="2200" height="1375"/></clipPath></defs><g clip-path="url(#clip0)" transform="translate(-2749 -2130)"><rect x="2750" y="2131" width="2200" height="1375" fill="#FFFFFF"/><g clip-path="url(#clip1)"><path d="M2870.5 2851.59 4899.5 2851.59M2870.5 2789.59 4899.5 2789.59M2870.5 2728.59 4899.5 2728.59M2870.5 2667.59 4899.5 2667.59M2870.5 2606.59 4899.5 2606.59M2870.5 2545.58 4899.5 2545.58M2870.5 2484.58 4899.5 2484.58M2870.5 2423.58 4899.5 2423.58M2870.5 2362.58 4899.5 2362.58M2870.5 2301.5 4899.5 2301.5" stroke="#D9D9D9" stroke-width="3.4375" stroke-linejoin="round" stroke-miterlimit="10" fill="none"/></g><g clip-path="url(#clip2)"><path d="M2885.59 2757.59 2899.6 2757.59 2899.6 2912.5 2885.59 2912.5ZM2966.6 2761.59 2981.6 2761.59 2981.6 2912.5 2966.6 2912.5ZM3048.6 2772.59 3062.6 2772.59 3062.6 2912.5 3048.6 2912.5ZM3129.6 2780.59 3143.6 2780.59 3143.6 2912.5 3129.6 2912.5ZM3210.61 2779.59 3224.61 2779.59 3224.61 2912.5 3210.61 2912.5ZM3291.61 2777.59 3305.61 2777.59 3305.61 2912.5 3291.61 2912.5ZM3372.61 2762.59 3386.61 2762.59 3386.61 2912.5 3372.61 2912.5ZM3453.61 2797.59 3468.61 2797.59 3468.61 2912.5 3453.61 2912.5ZM3778.62 2761.59 3792.62 2761.59 3792.62 2912.5 3778.62 2912.5ZM3859.63 2792.59 3873.63 2792.59 3873.63 2912.5 3859.63 2912.5ZM4590.65 2754.59 4604.65 2754.59 4604.65 2912.5 4590.65 2912.5ZM4671.65 2761.59 4685.65 2761.59 4685.65 2912.5 4671.65 2912.5ZM4752.66 2773.59 4766.66 2773.59 4766.66 2912.5 4752.66 2912.5ZM4833.66 2773.59 4847.66 2773.59 4847.66 2912.5 4833.66 2912.5Z" stroke="#333F50" stroke-width="3.4375" stroke-linejoin="round" stroke-miterlimit="10" fill="#8497B0"/></g><g clip-path="url(#clip3)"><path d="M3390.61 2762.59 3404.61 2762.59 3404.61 2912.5 3390.61 2912.5ZM3471.61 2797.59 3486.61 2797.59 3486.61 2912.5 3471.61 2912.5ZM3796.62 2761.59 3810.63 2761.59 3810.63 2912.5 3796.62 2912.5ZM3877.63 2792.59 3891.63 2792.59 3891.63 2912.5 3877.63 2912.5ZM4202.64 2307.58 4216.64 2307.58 4216.64 2912.5 4202.64 2912.5ZM4283.64 2322.58 4297.64 2322.58 4297.64 2912.5 4283.64 2912.5ZM4364.64 2331.58 4378.64 2331.58 4378.64 2912.5 4364.64 2912.5ZM4445.65 2306.58 4460.65 2306.58 4460.65 2912.5 4445.65 2912.5ZM4527.65 2374.58 4541.65 2374.58 4541.65 2912.5 4527.65 2912.5ZM4608.65 2754.59 4622.65 2754.59 4622.65 2912.5 4608.65 2912.5ZM4689.65 2761.59 4703.65 2761.59 4703.65 2912.5 4689.65 2912.5ZM4770.66 2773.59 4784.66 2773.59 4784.66 2912.5 4770.66 2912.5ZM4851.66 2773.59 4865.66 2773.59 4865.66 2912.5 4851.66 2912.5Z" stroke="#BF9000" stroke-width="3.4375" stroke-linejoin="round" stroke-miterlimit="10" fill="#FFD966"/></g><g clip-path="url(#clip4)"><path d="M3408.61 2762.59 3422.61 2762.59 3422.61 2912.5 3408.61 2912.5ZM3489.61 2797.59 3504.62 2797.59 3504.62 2912.5 3489.61 2912.5ZM3814.63 2761.59 3828.63 2761.59 3828.63 2912.5 3814.63 2912.5ZM3895.63 2792.59 3909.63 2792.59 3909.63 2912.5 3895.63 2912.5ZM4220.64 2307.58 4234.64 2307.58 4234.64 2912.5 4220.64 2912.5ZM4301.64 2322.58 4315.64 2322.58 4315.64 2912.5 4301.64 2912.5ZM4382.64 2331.58 4396.64 2331.58 4396.64 2912.5 4382.64 2912.5ZM4463.65 2306.58 4478.65 2306.58 4478.65 2912.5 4463.65 2912.5ZM4545.65 2374.58 4559.65 2374.58 4559.65 2912.5 4545.65 2912.5ZM4626.65 2754.59 4640.65 2754.59 4640.65 2912.5 4626.65 2912.5ZM4707.65 2761.59 4721.66 2761.59 4721.66 2912.5 4707.65 2912.5ZM4788.66 2773.59 4802.66 2773.59 4802.66 2912.5 4788.66 2912.5ZM4869.66 2773.59 4883.66 2773.59 4883.66 2912.5 4869.66 2912.5Z" stroke="#548235" stroke-width="3.4375" stroke-linejoin="round" stroke-miterlimit="10" fill="#A9D18E"/></g><g clip-path="url(#clip5)"><path d="M2870.5 2912.5 4899.5 2912.5" stroke="#D9D9D9" stroke-width="3.4375" stroke-linejoin="round" stroke-miterlimit="10" fill="none" fill-rule="evenodd"/></g><g clip-path="url(#clip6)"><path d="M2870.5 2912.5 2870.5 3298.5M2951.6 2912.5 2951.6 3298.5M3357.61 2912.5 3357.61 3298.5M3763.62 2912.5 3763.62 3298.5M4168.64 2912.5 4168.64 3298.5M4574.65 2912.5 4574.65 3298.5M4899.5 2912.5 4899.5 3298.5" stroke="#D9D9D9" stroke-width="3.4375" stroke-linejoin="round" stroke-miterlimit="10" fill="none"/></g><g clip-path="url(#clip7)"><path d="M2870.5 3298.5 2870.5 3378.5M2951.6 3298.5 2951.6 3378.5M3357.61 3298.5 3357.61 3378.5M3763.62 3298.5 3763.62 3378.5M4168.64 3298.5 4168.64 3378.5M4574.65 3298.5 4574.65 3378.5M4899.5 3298.5 4899.5 3378.5" stroke="#D9D9D9" stroke-width="3.4375" stroke-linejoin="round" stroke-miterlimit="10" fill="none"/></g><g clip-path="url(#clip8)"><text fill="#595959" font-family="Calibri,Calibri_MSFontService,sans-serif" font-weight="400" font-size="41" transform="matrix(1 0 0 1 2811.1 2924)">0</text></g><g clip-path="url(#clip9)"><text fill="#595959" font-family="Calibri,Calibri_MSFontService,sans-serif" font-weight="400" font-size="41" transform="matrix(1 0 0 1 2779.79 2863)">0.1</text></g><g clip-path="url(#clip10)"><text fill="#595959" font-family="Calibri,Calibri_MSFontService,sans-serif" font-weight="400" font-size="41" transform="matrix(1 0 0 1 2779.79 2802)">0.2</text></g><g clip-path="url(#clip11)"><text fill="#595959" font-family="Calibri,Calibri_MSFontService,sans-serif" font-weight="400" font-size="41" transform="matrix(1 0 0 1 2779.79 2741)">0.3</text></g><g clip-path="url(#clip12)"><text fill="#595959" font-family="Calibri,Calibri_MSFontService,sans-serif" font-weight="400" font-size="41" transform="matrix(1 0 0 1 2779.79 2679)">0.4</text></g><g clip-path="url(#clip13)"><text fill="#595959" font-family="Calibri,Calibri_MSFontService,sans-serif" font-weight="400" font-size="41" transform="matrix(1 0 0 1 2779.79 2618)">0.5</text></g><g clip-path="url(#clip14)"><text fill="#595959" font-family="Calibri,Calibri_MSFontService,sans-serif" font-weight="400" font-size="41" transform="matrix(1 0 0 1 2779.79 2557)">0.6</text></g><g clip-path="url(#clip15)"><text fill="#595959" font-family="Calibri,Calibri_MSFontService,sans-serif" font-weight="400" font-size="41" transform="matrix(1 0 0 1 2779.79 2496)">0.7</text></g><g clip-path="url(#clip16)"><text fill="#595959" font-family="Calibri,Calibri_MSFontService,sans-serif" font-weight="400" font-size="41" transform="matrix(1 0 0 1 2779.79 2435)">0.8</text></g><g clip-path="url(#clip17)"><text fill="#595959" font-family="Calibri,Calibri_MSFontService,sans-serif" font-weight="400" font-size="41" transform="matrix(1 0 0 1 2779.79 2374)">0.9</text></g><g clip-path="url(#clip18)"><text fill="#595959" font-family="Calibri,Calibri_MSFontService,sans-serif" font-weight="400" font-size="41" transform="matrix(1 0 0 1 2811.1 2313)">1</text></g><g clip-path="url(#clip19)"><text fill="#595959" font-family="Calibri,Calibri_MSFontService,sans-serif" font-weight="400" font-size="41" transform="matrix(6.12323e-17 -1 1 6.12323e-17 2924.68 3250)">JPEG-Kompression</text></g><g clip-path="url(#clip20)"><text fill="#595959" font-family="Calibri,Calibri_MSFontService,sans-serif" font-weight="400" font-size="41" transform="matrix(6.12323e-17 -1 1 6.12323e-17 3005.85 3065)">67 Byte</text></g><g clip-path="url(#clip21)"><text fill="#595959" font-family="Calibri,Calibri_MSFontService,sans-serif" font-weight="400" font-size="41" transform="matrix(6.12323e-17 -1 1 6.12323e-17 3087.02 3065)">1.53 KB</text></g><g clip-path="url(#clip22)"><text fill="#595959" font-family="Calibri,Calibri_MSFontService,sans-serif" font-weight="400" font-size="41" transform="matrix(6.12323e-17 -1 1 6.12323e-17 3168.19 3065)">17.5 KB</text></g><g clip-path="url(#clip23)"><text fill="#595959" font-family="Calibri,Calibri_MSFontService,sans-serif" font-weight="400" font-size="41" transform="matrix(6.12323e-17 -1 1 6.12323e-17 3249.37 3295)">16 KB (min. Entropie)</text></g><g clip-path="url(#clip24)"><text fill="#595959" font-family="Calibri,Calibri_MSFontService,sans-serif" font-weight="400" font-size="41" transform="matrix(6.12323e-17 -1 1 6.12323e-17 3330.54 3186)">16.8 KB (binär)</text></g><g clip-path="url(#clip25)"><text fill="#595959" font-family="Calibri,Calibri_MSFontService,sans-serif" font-weight="400" font-size="41" transform="matrix(6.12323e-17 -1 1 6.12323e-17 3411.71 3065)">67 Byte</text></g><g clip-path="url(#clip26)"><text fill="#595959" font-family="Calibri,Calibri_MSFontService,sans-serif" font-weight="400" font-size="41" transform="matrix(6.12323e-17 -1 1 6.12323e-17 3492.88 3065)">1.53 KB</text></g><g clip-path="url(#clip27)"><text fill="#595959" font-family="Calibri,Calibri_MSFontService,sans-serif" font-weight="400" font-size="41" transform="matrix(6.12323e-17 -1 1 6.12323e-17 3574.06 3065)">17.5 KB</text></g><g clip-path="url(#clip28)"><text fill="#595959" font-family="Calibri,Calibri_MSFontService,sans-serif" font-weight="400" font-size="41" transform="matrix(6.12323e-17 -1 1 6.12323e-17 3655.23 3295)">16 KB (min. Entropie)</text></g><g clip-path="url(#clip29)"><text fill="#595959" font-family="Calibri,Calibri_MSFontService,sans-serif" font-weight="400" font-size="41" transform="matrix(6.12323e-17 -1 1 6.12323e-17 3736.4 3186)">16.8 KB (binär)</text></g><g clip-path="url(#clip30)"><text fill="#595959" font-family="Calibri,Calibri_MSFontService,sans-serif" font-weight="400" font-size="41" transform="matrix(6.12323e-17 -1 1 6.12323e-17 3817.58 3065)">67 Byte</text></g><g clip-path="url(#clip31)"><text fill="#595959" font-family="Calibri,Calibri_MSFontService,sans-serif" font-weight="400" font-size="41" transform="matrix(6.12323e-17 -1 1 6.12323e-17 3898.75 3065)">1.53 KB</text></g><g clip-path="url(#clip32)"><text fill="#595959" font-family="Calibri,Calibri_MSFontService,sans-serif" font-weight="400" font-size="41" transform="matrix(6.12323e-17 -1 1 6.12323e-17 3979.92 3065)">17.5 KB</text></g><g clip-path="url(#clip33)"><text fill="#595959" font-family="Calibri,Calibri_MSFontService,sans-serif" font-weight="400" font-size="41" transform="matrix(6.12323e-17 -1 1 6.12323e-17 4061.09 3295)">16 KB (min. Entropie)</text></g><g clip-path="url(#clip34)"><text fill="#595959" font-family="Calibri,Calibri_MSFontService,sans-serif" font-weight="400" font-size="41" transform="matrix(6.12323e-17 -1 1 6.12323e-17 4142.27 3186)">16.8 KB (binär)</text></g><g clip-path="url(#clip35)"><text fill="#595959" font-family="Calibri,Calibri_MSFontService,sans-serif" font-weight="400" font-size="41" transform="matrix(6.12323e-17 -1 1 6.12323e-17 4223.44 3065)">67 Byte</text></g><g clip-path="url(#clip36)"><text fill="#595959" font-family="Calibri,Calibri_MSFontService,sans-serif" font-weight="400" font-size="41" transform="matrix(6.12323e-17 -1 1 6.12323e-17 4304.61 3065)">1.53 KB</text></g><g clip-path="url(#clip37)"><text fill="#595959" font-family="Calibri,Calibri_MSFontService,sans-serif" font-weight="400" font-size="41" transform="matrix(6.12323e-17 -1 1 6.12323e-17 4385.79 3065)">17.5 KB</text></g><g clip-path="url(#clip38)"><text fill="#595959" font-family="Calibri,Calibri_MSFontService,sans-serif" font-weight="400" font-size="41" transform="matrix(6.12323e-17 -1 1 6.12323e-17 4466.96 3295)">16 KB (min. Entropie)</text></g><g clip-path="url(#clip39)"><text fill="#595959" font-family="Calibri,Calibri_MSFontService,sans-serif" font-weight="400" font-size="41" transform="matrix(6.12323e-17 -1 1 6.12323e-17 4548.13 3186)">16.8 KB (binär)</text></g><g clip-path="url(#clip40)"><text fill="#595959" font-family="Calibri,Calibri_MSFontService,sans-serif" font-weight="400" font-size="41" transform="matrix(6.12323e-17 -1 1 6.12323e-17 4629.3 3065)">67 Byte</text></g><g clip-path="url(#clip41)"><text fill="#595959" font-family="Calibri,Calibri_MSFontService,sans-serif" font-weight="400" font-size="41" transform="matrix(6.12323e-17 -1 1 6.12323e-17 4710.48 3065)">1.53 KB</text></g><g clip-path="url(#clip42)"><text fill="#595959" font-family="Calibri,Calibri_MSFontService,sans-serif" font-weight="400" font-size="41" transform="matrix(6.12323e-17 -1 1 6.12323e-17 4791.65 3065)">17.5 KB</text></g><g clip-path="url(#clip43)"><text fill="#595959" font-family="Calibri,Calibri_MSFontService,sans-serif" font-weight="400" font-size="41" transform="matrix(6.12323e-17 -1 1 6.12323e-17 4872.82 3295)">16 KB (min. Entropie)</text></g><g clip-path="url(#clip44)"><text fill="#595959" font-family="Calibri,Calibri_MSFontService,sans-serif" font-weight="400" font-size="41" transform="matrix(1 0 0 1 3114.48 3364)">jsteg</text></g><g clip-path="url(#clip45)"><text fill="#595959" font-family="Calibri,Calibri_MSFontService,sans-serif" font-weight="400" font-size="41" transform="matrix(1 0 0 1 3484.66 3364)">outguess</text></g><g clip-path="url(#clip46)"><text fill="#595959" font-family="Calibri,Calibri_MSFontService,sans-serif" font-weight="400" font-size="41" transform="matrix(1 0 0 1 3847.66 3364)">outguess-0.13</text></g><g clip-path="url(#clip47)"><text fill="#595959" font-family="Calibri,Calibri_MSFontService,sans-serif" font-weight="400" font-size="41" transform="matrix(1 0 0 1 4300.33 3364)">steghide</text></g><g clip-path="url(#clip48)"><text fill="#595959" font-family="Calibri,Calibri_MSFontService,sans-serif" font-weight="400" font-size="41" transform="matrix(1 0 0 1 4720.5 3364)">f5</text></g><g clip-path="url(#clip49)"><text fill="#595959" font-family="Calibri,Calibri_MSFontService,sans-serif" font-weight="400" font-size="64" transform="matrix(1 0 0 1 3115.3 2227)">schwarz</text></g><g clip-path="url(#clip50)"><text fill="#595959" font-family="Calibri,Calibri_MSFontService,sans-serif" font-weight="400" font-size="64" transform="matrix(1 0 0 1 3324.42 2227)">-</text></g><g clip-path="url(#clip51)"><text fill="#595959" font-family="Calibri,Calibri_MSFontService,sans-serif" font-weight="400" font-size="64" transform="matrix(1 0 0 1 3344.06 2227)">weiß</text></g><g clip-path="url(#clip52)"><text fill="#595959" font-family="Calibri,Calibri_MSFontService,sans-serif" font-weight="400" font-size="64" transform="matrix(1 0 0 1 3469.87 2227)">-</text></g><g clip-path="url(#clip53)"><text fill="#595959" font-family="Calibri,Calibri_MSFontService,sans-serif" font-weight="400" font-size="64" transform="matrix(1 0 0 1 3489.51 2227)">Verhältnis im </text></g><g clip-path="url(#clip54)"><text fill="#595959" font-family="Calibri,Calibri_MSFontService,sans-serif" font-weight="700" font-size="64" transform="matrix(1 0 0 1 3846.25 2227)">Differenzbild</text></g><g clip-path="url(#clip55)"><text fill="#595959" font-family="Calibri,Calibri_MSFontService,sans-serif" font-weight="400" font-size="64" transform="matrix(1 0 0 1 4203.55 2227)">(bows2</text></g><g clip-path="url(#clip56)"><text fill="#595959" font-family="Calibri,Calibri_MSFontService,sans-serif" font-weight="400" font-size="64" transform="matrix(1 0 0 1 4393.23 2227)">-</text></g><g clip-path="url(#clip57)"><text fill="#595959" font-family="Calibri,Calibri_MSFontService,sans-serif" font-weight="400" font-size="64" transform="matrix(1 0 0 1 4412.87 2227)">Bilder)</text></g><g clip-path="url(#clip58)"><rect x="3358.5" y="3428.5" width="22" height="23" stroke="#333F50" stroke-width="3.4375" stroke-linejoin="round" stroke-miterlimit="10" fill="#8497B0"/></g><g clip-path="url(#clip59)"><text fill="#595959" font-family="Calibri,Calibri_MSFontService,sans-serif" font-weight="400" font-size="41" transform="matrix(1 0 0 1 3390.44 3452)">kein Schlüssel</text></g><g clip-path="url(#clip60)"><rect x="3680.5" y="3428.5" width="23" height="23" stroke="#BF9000" stroke-width="3.4375" stroke-linejoin="round" stroke-miterlimit="10" fill="#FFD966"/></g><g clip-path="url(#clip61)"><text fill="#595959" font-family="Calibri,Calibri_MSFontService,sans-serif" font-weight="400" font-size="41" transform="matrix(1 0 0 1 3713.04 3452)">4 Byte Schlüssel</text></g><g clip-path="url(#clip62)"><rect x="4038.5" y="3428.5" width="23" height="23" stroke="#548235" stroke-width="3.4375" stroke-linejoin="round" stroke-miterlimit="10" fill="#A9D18E"/></g><g clip-path="url(#clip63)"><text fill="#595959" font-family="Calibri,Calibri_MSFontService,sans-serif" font-weight="400" font-size="41" transform="matrix(1 0 0 1 4070.91 3452)">50 Byte Schlüssel</text></g><rect x="2750.5" y="2131.5" width="2200" height="1375" stroke="#D9D9D9" stroke-width="3.4375" stroke-linejoin="round" stroke-miterlimit="10" fill="none"/></g></svg>