<svg width="2203" height="1378" xmlns="http://www.w3.org/2000/svg" xmlns:xlink="http://www.w3.org/1999/xlink" xml:space="preserve" overflow="hidden"><defs><clipPath id="clip0"><rect x="274" y="3574" width="2203" height="1378"/></clipPath><clipPath id="clip1"><rect x="275" y="3575" width="2200" height="1375"/></clipPath><clipPath id="clip2"><rect x="416" y="3744" width="2012" height="615"/></clipPath><clipPath id="clip3"><rect x="416" y="3744" width="2012" height="615"/></clipPath><clipPath id="clip4"><rect x="416" y="3744" width="2012" height="615"/></clipPath><clipPath id="clip5"><rect x="275" y="3575" width="2200" height="1375"/></clipPath><clipPath id="clip6"><rect x="275" y="3575" width="2200" height="1375"/></clipPath><clipPath id="clip7"><rect x="275" y="3575" width="2200" height="1375"/></clipPath><clipPath id="clip8"><rect x="275" y="3575" width="2200" height="1375"/></clipPath><clipPath id="clip9"><rect x="275" y="3575" width="2200" height="1375"/></clipPath><clipPath id="clip10"><rect x="275" y="3575" width="2200" height="1375"/></clipPath><clipPath id="clip11"><rect x="275" y="3575" width="2200" height="1375"/></clipPath><clipPath id="clip12"><rect x="275" y="3575" width="2200" height="1375"/></clipPath><clipPath id="clip13"><rect x="275" y="3575" width="2200" height="1375"/></clipPath><clipPath id="clip14"><rect x="275" y="3575" width="2200" height="1375"/></clipPath><clipPath id="clip15"><rect x="275" y="3575" width="2200" height="1375"/></clipPath><clipPath id="clip16"><rect x="275" y="3575" width="2200" height="1375"/></clipPath><clipPath id="clip17"><rect x="275" y="3575" width="2200" height="1375"/></clipPath><clipPath id="clip18"><rect x="275" y="3575" width="2200" height="1375"/></clipPath><clipPath id="clip19"><rect x="275" y="3575" width="2200" height="1375"/></clipPath><clipPath id="clip20"><rect x="275" y="3575" width="2200" height="1375"/></clipPath><clipPath id="clip21"><rect x="275" y="3575" width="2200" height="1375"/></clipPath><clipPath id="clip22"><rect x="275" y="3575" width="2200" height="1375"/></clipPath><clipPath id="clip23"><rect x="275" y="3575" width="2200" height="1375"/></clipPath><clipPath id="clip24"><rect x="275" y="3575" width="2200" height="1375"/></clipPath><clipPath id="clip25"><rect x="275" y="3575" width="2200" height="1375"/></clipPath><clipPath id="clip26"><rect x="275" y="3575" width="2200" height="1375"/></clipPath><clipPath id="clip27"><rect x="275" y="3575" width="2200" height="1375"/></clipPath><clipPath id="clip28"><rect x="275" y="3575" width="2200" height="1375"/></clipPath><clipPath id="clip29"><rect x="275" y="3575" width="2200" height="1375"/></clipPath><clipPath id="clip30"><rect x="275" y="3575" width="2200" height="1375"/></clipPath><clipPath id="clip31"><rect x="275" y="3575" width="2200" height="1375"/></clipPath><clipPath id="clip32"><rect x="275" y="3575" width="2200" height="1375"/></clipPath><clipPath id="clip33"><rect x="275" y="3575" width="2200" height="1375"/></clipPath><clipPath id="clip34"><rect x="275" y="3575" width="2200" height="1375"/></clipPath><clipPath id="clip35"><rect x="275" y="3575" width="2200" height="1375"/></clipPath><clipPath id="clip36"><rect x="275" y="3575" width="2200" height="1375"/></clipPath><clipPath id="clip37"><rect x="275" y="3575" width="2200" height="1375"/></clipPath><clipPath id="clip38"><rect x="275" y="3575" width="2200" height="1375"/></clipPath><clipPath id="clip39"><rect x="275" y="3575" width="2200" height="1375"/></clipPath><clipPath id="clip40"><rect x="275" y="3575" width="2200" height="1375"/></clipPath><clipPath id="clip41"><rect x="275" y="3575" width="2200" height="1375"/></clipPath><clipPath id="clip42"><rect x="275" y="3575" width="2200" height="1375"/></clipPath><clipPath id="clip43"><rect x="275" y="3575" width="2200" height="1375"/></clipPath><clipPath id="clip44"><rect x="275" y="3575" width="2200" height="1375"/></clipPath><clipPath id="clip45"><rect x="275" y="3575" width="2200" height="1375"/></clipPath><clipPath id="clip46"><rect x="275" y="3575" width="2200" height="1375"/></clipPath><clipPath id="clip47"><rect x="275" y="3575" width="2200" height="1375"/></clipPath><clipPath id="clip48"><rect x="275" y="3575" width="2200" height="1375"/></clipPath><clipPath id="clip49"><rect x="275" y="3575" width="2200" height="1375"/></clipPath><clipPath id="clip50"><rect x="275" y="3575" width="2200" height="1375"/></clipPath><clipPath id="clip51"><rect x="275" y="3575" width="2200" height="1375"/></clipPath><clipPath id="clip52"><rect x="275" y="3575" width="2200" height="1375"/></clipPath><clipPath id="clip53"><rect x="275" y="3575" width="2200" height="1375"/></clipPath><clipPath id="clip54"><rect x="275" y="3575" width="2200" height="1375"/></clipPath><clipPath id="clip55"><rect x="275" y="3575" width="2200" height="1375"/></clipPath><clipPath id="clip56"><rect x="275" y="3575" width="2200" height="1375"/></clipPath></defs><g clip-path="url(#clip0)" transform="translate(-274 -3574)"><rect x="275" y="3575" width="2200" height="1375" fill="#FFFFFF"/><g clip-path="url(#clip1)"><path d="M416.5 4268.64 2424.5 4268.64M416.5 4181.64 2424.5 4181.64M416.5 4094.63 2424.5 4094.63M416.5 4006.63 2424.5 4006.63M416.5 3919.63 2424.5 3919.63M416.5 3832.63 2424.5 3832.63M416.5 3744.5 2424.5 3744.5" stroke="#D9D9D9" stroke-width="3.4375" stroke-linejoin="round" stroke-miterlimit="10" fill="none"/></g><g clip-path="url(#clip2)"><path d="M431.514 3849.63 445.515 3849.63 445.515 4356.5 431.514 4356.5ZM511.517 3848.63 525.517 3848.63 525.517 4356.5 511.517 4356.5ZM592.52 3843.63 606.52 3843.63 606.52 4356.5 592.52 4356.5ZM672.522 3843.63 686.523 3843.63 686.523 4356.5 672.522 4356.5ZM752.525 3844.63 766.525 3844.63 766.525 4356.5 752.525 4356.5ZM833.528 3845.63 847.528 3845.63 847.528 4356.5 833.528 4356.5ZM913.53 3853.63 927.531 3853.63 927.531 4356.5 913.53 4356.5ZM993.533 3851.63 1007.53 3851.63 1007.53 4356.5 993.533 4356.5ZM1074.54 3753.62 1088.54 3753.62 1088.54 4356.5 1074.54 4356.5ZM1154.54 3753.62 1168.54 3753.62 1168.54 4356.5 1154.54 4356.5ZM1234.54 3753.62 1248.54 3753.62 1248.54 4356.5 1234.54 4356.5ZM1315.54 3839.63 1329.54 3839.63 1329.54 4356.5 1315.54 4356.5ZM1395.55 3804.62 1409.55 3804.62 1409.55 4356.5 1395.55 4356.5ZM1475.55 3765.62 1489.55 3765.62 1489.55 4356.5 1475.55 4356.5ZM1556.55 3778.62 1570.55 3778.62 1570.55 4356.5 1556.55 4356.5ZM1636.55 3778.62 1650.55 3778.62 1650.55 4356.5 1636.55 4356.5ZM2118.57 3793.62 2132.57 3793.62 2132.57 4356.5 2118.57 4356.5ZM2198.57 3792.62 2212.57 3792.62 2212.57 4356.5 2198.57 4356.5ZM2279.57 3808.63 2293.58 3808.63 2293.58 4356.5 2279.57 4356.5ZM2359.58 3808.63 2373.58 3808.63 2373.58 4356.5 2359.58 4356.5Z" stroke="#333F50" stroke-width="3.4375" stroke-linejoin="round" stroke-miterlimit="10" fill="#8497B0"/></g><g clip-path="url(#clip3)"><path d="M931.531 3853.63 945.531 3853.63 945.531 4356.5 931.531 4356.5ZM1011.53 3850.63 1025.53 3850.63 1025.53 4356.5 1011.53 4356.5ZM1091.54 3753.62 1105.54 3753.62 1105.54 4356.5 1091.54 4356.5ZM1172.54 3753.62 1186.54 3753.62 1186.54 4356.5 1172.54 4356.5ZM1252.54 3753.62 1266.54 3753.62 1266.54 4356.5 1252.54 4356.5ZM1332.54 3839.63 1347.54 3839.63 1347.54 4356.5 1332.54 4356.5ZM1413.55 3804.62 1427.55 3804.62 1427.55 4356.5 1413.55 4356.5ZM1493.55 3766.62 1507.55 3766.62 1507.55 4356.5 1493.55 4356.5ZM1573.55 3778.62 1588.55 3778.62 1588.55 4356.5 1573.55 4356.5ZM1654.55 3778.62 1668.55 3778.62 1668.55 4356.5 1654.55 4356.5ZM1734.56 3814.63 1748.56 3814.63 1748.56 4356.5 1734.56 4356.5ZM1814.56 3814.63 1829.56 3814.63 1829.56 4356.5 1814.56 4356.5ZM1895.56 3814.63 1909.56 3814.63 1909.56 4356.5 1895.56 4356.5ZM1975.56 3814.63 1989.57 3814.63 1989.57 4356.5 1975.56 4356.5ZM2055.57 3814.63 2070.57 3814.63 2070.57 4356.5 2055.57 4356.5ZM2136.57 3793.62 2150.57 3793.62 2150.57 4356.5 2136.57 4356.5ZM2216.57 3793.62 2230.57 3793.62 2230.57 4356.5 2216.57 4356.5ZM2296.58 3806.62 2311.58 3806.62 2311.58 4356.5 2296.58 4356.5ZM2377.58 3807.63 2391.58 3807.63 2391.58 4356.5 2377.58 4356.5Z" stroke="#BF9000" stroke-width="3.4375" stroke-linejoin="round" stroke-miterlimit="10" fill="#FFD966"/></g><g clip-path="url(#clip4)"><path d="M949.531 3852.63 963.532 3852.63 963.532 4356.5 949.531 4356.5ZM1029.53 3850.63 1043.53 3850.63 1043.53 4356.5 1029.53 4356.5ZM1109.54 3753.62 1123.54 3753.62 1123.54 4356.5 1109.54 4356.5ZM1190.54 3753.62 1204.54 3753.62 1204.54 4356.5 1190.54 4356.5ZM1270.54 3753.62 1284.54 3753.62 1284.54 4356.5 1270.54 4356.5ZM1350.54 3839.63 1364.54 3839.63 1364.54 4356.5 1350.54 4356.5ZM1431.55 3804.62 1445.55 3804.62 1445.55 4356.5 1431.55 4356.5ZM1511.55 3765.62 1525.55 3765.62 1525.55 4356.5 1511.55 4356.5ZM1591.55 3778.62 1605.55 3778.62 1605.55 4356.5 1591.55 4356.5ZM1672.56 3778.62 1686.56 3778.62 1686.56 4356.5 1672.56 4356.5ZM1752.56 3849.63 1766.56 3849.63 1766.56 4356.5 1752.56 4356.5ZM1832.56 3849.63 1846.56 3849.63 1846.56 4356.5 1832.56 4356.5ZM1913.56 3849.63 1927.56 3849.63 1927.56 4356.5 1913.56 4356.5ZM1993.57 3849.63 2007.57 3849.63 2007.57 4356.5 1993.57 4356.5ZM2073.57 3814.63 2087.57 3814.63 2087.57 4356.5 2073.57 4356.5ZM2154.57 3792.62 2168.57 3792.62 2168.57 4356.5 2154.57 4356.5ZM2234.57 3795.62 2248.57 3795.62 2248.57 4356.5 2234.57 4356.5ZM2314.58 3809.63 2328.58 3809.63 2328.58 4356.5 2314.58 4356.5ZM2395.58 3808.63 2409.58 3808.63 2409.58 4356.5 2395.58 4356.5Z" stroke="#548235" stroke-width="3.4375" stroke-linejoin="round" stroke-miterlimit="10" fill="#A9D18E"/></g><g clip-path="url(#clip5)"><path d="M416.5 4356.5 2424.5 4356.5" stroke="#D9D9D9" stroke-width="3.4375" stroke-linejoin="round" stroke-miterlimit="10" fill="none" fill-rule="evenodd"/></g><g clip-path="url(#clip6)"><path d="M416.5 4356.5 416.5 4742.5M496.516 4356.5 496.516 4742.5M898.53 4356.5 898.53 4742.5M1299.54 4356.5 1299.54 4742.5M1701.56 4356.5 1701.56 4742.5M2103.57 4356.5 2103.57 4742.5M2424.5 4356.5 2424.5 4742.5" stroke="#D9D9D9" stroke-width="3.4375" stroke-linejoin="round" stroke-miterlimit="10" fill="none"/></g><g clip-path="url(#clip7)"><path d="M416.5 4742.5 416.5 4822.5M496.516 4742.5 496.516 4822.5M898.53 4742.5 898.53 4822.5M1299.54 4742.5 1299.54 4822.5M1701.56 4742.5 1701.56 4822.5M2103.57 4742.5 2103.57 4822.5M2424.5 4742.5 2424.5 4822.5" stroke="#D9D9D9" stroke-width="3.4375" stroke-linejoin="round" stroke-miterlimit="10" fill="none"/></g><g clip-path="url(#clip8)"><text fill="#595959" font-family="Calibri,Calibri_MSFontService,sans-serif" font-weight="400" font-size="41" transform="matrix(1 0 0 1 304.792 4368)">0.86</text></g><g clip-path="url(#clip9)"><text fill="#595959" font-family="Calibri,Calibri_MSFontService,sans-serif" font-weight="400" font-size="41" transform="matrix(1 0 0 1 304.792 4280)">0.87</text></g><g clip-path="url(#clip10)"><text fill="#595959" font-family="Calibri,Calibri_MSFontService,sans-serif" font-weight="400" font-size="41" transform="matrix(1 0 0 1 304.792 4193)">0.88</text></g><g clip-path="url(#clip11)"><text fill="#595959" font-family="Calibri,Calibri_MSFontService,sans-serif" font-weight="400" font-size="41" transform="matrix(1 0 0 1 304.792 4106)">0.89</text></g><g clip-path="url(#clip12)"><text fill="#595959" font-family="Calibri,Calibri_MSFontService,sans-serif" font-weight="400" font-size="41" transform="matrix(1 0 0 1 325.692 4018)">0.9</text></g><g clip-path="url(#clip13)"><text fill="#595959" font-family="Calibri,Calibri_MSFontService,sans-serif" font-weight="400" font-size="41" transform="matrix(1 0 0 1 304.792 3931)">0.91</text></g><g clip-path="url(#clip14)"><text fill="#595959" font-family="Calibri,Calibri_MSFontService,sans-serif" font-weight="400" font-size="41" transform="matrix(1 0 0 1 304.792 3844)">0.92</text></g><g clip-path="url(#clip15)"><text fill="#595959" font-family="Calibri,Calibri_MSFontService,sans-serif" font-weight="400" font-size="41" transform="matrix(1 0 0 1 304.792 3757)">0.93</text></g><g clip-path="url(#clip16)"><text fill="#595959" font-family="Calibri,Calibri_MSFontService,sans-serif" font-weight="400" font-size="41" transform="matrix(6.12323e-17 -1 1 6.12323e-17 470.157 4589)">Original-Bild</text></g><g clip-path="url(#clip17)"><text fill="#595959" font-family="Calibri,Calibri_MSFontService,sans-serif" font-weight="400" font-size="41" transform="matrix(6.12323e-17 -1 1 6.12323e-17 550.494 4509)">67 Byte</text></g><g clip-path="url(#clip18)"><text fill="#595959" font-family="Calibri,Calibri_MSFontService,sans-serif" font-weight="400" font-size="41" transform="matrix(6.12323e-17 -1 1 6.12323e-17 630.831 4508)">1.53 KB</text></g><g clip-path="url(#clip19)"><text fill="#595959" font-family="Calibri,Calibri_MSFontService,sans-serif" font-weight="400" font-size="41" transform="matrix(6.12323e-17 -1 1 6.12323e-17 711.168 4508)">17.5 KB</text></g><g clip-path="url(#clip20)"><text fill="#595959" font-family="Calibri,Calibri_MSFontService,sans-serif" font-weight="400" font-size="41" transform="matrix(6.12323e-17 -1 1 6.12323e-17 791.504 4739)">16 KB (min. Entropie)</text></g><g clip-path="url(#clip21)"><text fill="#595959" font-family="Calibri,Calibri_MSFontService,sans-serif" font-weight="400" font-size="41" transform="matrix(6.12323e-17 -1 1 6.12323e-17 871.841 4630)">16.8 KB (binär)</text></g><g clip-path="url(#clip22)"><text fill="#595959" font-family="Calibri,Calibri_MSFontService,sans-serif" font-weight="400" font-size="41" transform="matrix(6.12323e-17 -1 1 6.12323e-17 952.178 4509)">67 Byte</text></g><g clip-path="url(#clip23)"><text fill="#595959" font-family="Calibri,Calibri_MSFontService,sans-serif" font-weight="400" font-size="41" transform="matrix(6.12323e-17 -1 1 6.12323e-17 1032.51 4508)">1.53 KB</text></g><g clip-path="url(#clip24)"><text fill="#595959" font-family="Calibri,Calibri_MSFontService,sans-serif" font-weight="400" font-size="41" transform="matrix(6.12323e-17 -1 1 6.12323e-17 1112.85 4508)">17.5 KB</text></g><g clip-path="url(#clip25)"><text fill="#595959" font-family="Calibri,Calibri_MSFontService,sans-serif" font-weight="400" font-size="41" transform="matrix(6.12323e-17 -1 1 6.12323e-17 1193.19 4739)">16 KB (min. Entropie)</text></g><g clip-path="url(#clip26)"><text fill="#595959" font-family="Calibri,Calibri_MSFontService,sans-serif" font-weight="400" font-size="41" transform="matrix(6.12323e-17 -1 1 6.12323e-17 1273.53 4630)">16.8 KB (binär)</text></g><g clip-path="url(#clip27)"><text fill="#595959" font-family="Calibri,Calibri_MSFontService,sans-serif" font-weight="400" font-size="41" transform="matrix(6.12323e-17 -1 1 6.12323e-17 1353.86 4509)">67 Byte</text></g><g clip-path="url(#clip28)"><text fill="#595959" font-family="Calibri,Calibri_MSFontService,sans-serif" font-weight="400" font-size="41" transform="matrix(6.12323e-17 -1 1 6.12323e-17 1434.2 4508)">1.53 KB</text></g><g clip-path="url(#clip29)"><text fill="#595959" font-family="Calibri,Calibri_MSFontService,sans-serif" font-weight="400" font-size="41" transform="matrix(6.12323e-17 -1 1 6.12323e-17 1514.54 4508)">17.5 KB</text></g><g clip-path="url(#clip30)"><text fill="#595959" font-family="Calibri,Calibri_MSFontService,sans-serif" font-weight="400" font-size="41" transform="matrix(6.12323e-17 -1 1 6.12323e-17 1594.87 4739)">16 KB (min. Entropie)</text></g><g clip-path="url(#clip31)"><text fill="#595959" font-family="Calibri,Calibri_MSFontService,sans-serif" font-weight="400" font-size="41" transform="matrix(6.12323e-17 -1 1 6.12323e-17 1675.21 4630)">16.8 KB (binär)</text></g><g clip-path="url(#clip32)"><text fill="#595959" font-family="Calibri,Calibri_MSFontService,sans-serif" font-weight="400" font-size="41" transform="matrix(6.12323e-17 -1 1 6.12323e-17 1755.55 4509)">67 Byte</text></g><g clip-path="url(#clip33)"><text fill="#595959" font-family="Calibri,Calibri_MSFontService,sans-serif" font-weight="400" font-size="41" transform="matrix(6.12323e-17 -1 1 6.12323e-17 1835.88 4508)">1.53 KB</text></g><g clip-path="url(#clip34)"><text fill="#595959" font-family="Calibri,Calibri_MSFontService,sans-serif" font-weight="400" font-size="41" transform="matrix(6.12323e-17 -1 1 6.12323e-17 1916.22 4508)">17.5 KB</text></g><g clip-path="url(#clip35)"><text fill="#595959" font-family="Calibri,Calibri_MSFontService,sans-serif" font-weight="400" font-size="41" transform="matrix(6.12323e-17 -1 1 6.12323e-17 1996.56 4739)">16 KB (min. Entropie)</text></g><g clip-path="url(#clip36)"><text fill="#595959" font-family="Calibri,Calibri_MSFontService,sans-serif" font-weight="400" font-size="41" transform="matrix(6.12323e-17 -1 1 6.12323e-17 2076.89 4630)">16.8 KB (binär)</text></g><g clip-path="url(#clip37)"><text fill="#595959" font-family="Calibri,Calibri_MSFontService,sans-serif" font-weight="400" font-size="41" transform="matrix(6.12323e-17 -1 1 6.12323e-17 2157.23 4509)">67 Byte</text></g><g clip-path="url(#clip38)"><text fill="#595959" font-family="Calibri,Calibri_MSFontService,sans-serif" font-weight="400" font-size="41" transform="matrix(6.12323e-17 -1 1 6.12323e-17 2237.57 4508)">1.53 KB</text></g><g clip-path="url(#clip39)"><text fill="#595959" font-family="Calibri,Calibri_MSFontService,sans-serif" font-weight="400" font-size="41" transform="matrix(6.12323e-17 -1 1 6.12323e-17 2317.9 4508)">17.5 KB</text></g><g clip-path="url(#clip40)"><text fill="#595959" font-family="Calibri,Calibri_MSFontService,sans-serif" font-weight="400" font-size="41" transform="matrix(6.12323e-17 -1 1 6.12323e-17 2398.24 4739)">16 KB (min. Entropie)</text></g><g clip-path="url(#clip41)"><text fill="#595959" font-family="Calibri,Calibri_MSFontService,sans-serif" font-weight="400" font-size="41" transform="matrix(1 0 0 1 657.455 4807)">jsteg</text></g><g clip-path="url(#clip42)"><text fill="#595959" font-family="Calibri,Calibri_MSFontService,sans-serif" font-weight="400" font-size="41" transform="matrix(1 0 0 1 1023.46 4807)">outguess</text></g><g clip-path="url(#clip43)"><text fill="#595959" font-family="Calibri,Calibri_MSFontService,sans-serif" font-weight="400" font-size="41" transform="matrix(1 0 0 1 1382.28 4807)">outguess-0.13</text></g><g clip-path="url(#clip44)"><text fill="#595959" font-family="Calibri,Calibri_MSFontService,sans-serif" font-weight="400" font-size="41" transform="matrix(1 0 0 1 1830.77 4807)">steghide</text></g><g clip-path="url(#clip45)"><text fill="#595959" font-family="Calibri,Calibri_MSFontService,sans-serif" font-weight="400" font-size="41" transform="matrix(1 0 0 1 2247.17 4807)">f5</text></g><g clip-path="url(#clip46)"><text fill="#595959" font-family="Calibri,Calibri_MSFontService,sans-serif" font-weight="400" font-size="64" transform="matrix(1 0 0 1 837.913 3670)">durchschn. </text></g><g clip-path="url(#clip47)"><text fill="#595959" font-family="Calibri,Calibri_MSFontService,sans-serif" font-weight="700" font-size="64" transform="matrix(1 0 0 1 1137.96 3670)">Entropie</text></g><g clip-path="url(#clip48)"><text fill="#595959" font-family="Calibri,Calibri_MSFontService,sans-serif" font-weight="400" font-size="64" transform="matrix(1 0 0 1 1378.91 3670)">(Smartphone</text></g><g clip-path="url(#clip49)"><text fill="#595959" font-family="Calibri,Calibri_MSFontService,sans-serif" font-weight="400" font-size="64" transform="matrix(1 0 0 1 1720.62 3670)">-</text></g><g clip-path="url(#clip50)"><text fill="#595959" font-family="Calibri,Calibri_MSFontService,sans-serif" font-weight="400" font-size="64" transform="matrix(1 0 0 1 1740.26 3670)">Bilder)</text></g><g clip-path="url(#clip51)"><rect x="883.5" y="4872.5" width="22" height="22.9995" stroke="#333F50" stroke-width="3.4375" stroke-linejoin="round" stroke-miterlimit="10" fill="#8497B0"/></g><g clip-path="url(#clip52)"><text fill="#595959" font-family="Calibri,Calibri_MSFontService,sans-serif" font-weight="400" font-size="41" transform="matrix(1 0 0 1 915.444 4895)">kein Schlüssel</text></g><g clip-path="url(#clip53)"><rect x="1205.5" y="4872.5" width="23" height="22.9995" stroke="#BF9000" stroke-width="3.4375" stroke-linejoin="round" stroke-miterlimit="10" fill="#FFD966"/></g><g clip-path="url(#clip54)"><text fill="#595959" font-family="Calibri,Calibri_MSFontService,sans-serif" font-weight="400" font-size="41" transform="matrix(1 0 0 1 1238.04 4895)">4 Byte Schlüssel</text></g><g clip-path="url(#clip55)"><rect x="1563.5" y="4872.5" width="23" height="22.9995" stroke="#548235" stroke-width="3.4375" stroke-linejoin="round" stroke-miterlimit="10" fill="#A9D18E"/></g><g clip-path="url(#clip56)"><text fill="#595959" font-family="Calibri,Calibri_MSFontService,sans-serif" font-weight="400" font-size="41" transform="matrix(1 0 0 1 1595.91 4895)">50 Byte Schlüssel</text></g><rect x="275.5" y="3575.5" width="2200" height="1375" stroke="#D9D9D9" stroke-width="3.4375" stroke-linejoin="round" stroke-miterlimit="10" fill="none"/></g></svg>