<svg width="2203" height="1378" xmlns="http://www.w3.org/2000/svg" xmlns:xlink="http://www.w3.org/1999/xlink" xml:space="preserve" overflow="hidden"><defs><clipPath id="clip0"><rect x="274" y="3643" width="2203" height="1378"/></clipPath><clipPath id="clip1"><rect x="275" y="3643" width="2200" height="1375"/></clipPath><clipPath id="clip2"><rect x="395" y="3813" width="2033" height="615"/></clipPath><clipPath id="clip3"><rect x="395" y="3813" width="2033" height="615"/></clipPath><clipPath id="clip4"><rect x="395" y="3813" width="2033" height="615"/></clipPath><clipPath id="clip5"><rect x="275" y="3643" width="2200" height="1375"/></clipPath><clipPath id="clip6"><rect x="275" y="3643" width="2200" height="1375"/></clipPath><clipPath id="clip7"><rect x="275" y="3643" width="2200" height="1375"/></clipPath><clipPath id="clip8"><rect x="275" y="3643" width="2200" height="1375"/></clipPath><clipPath id="clip9"><rect x="275" y="3643" width="2200" height="1375"/></clipPath><clipPath id="clip10"><rect x="275" y="3643" width="2200" height="1375"/></clipPath><clipPath id="clip11"><rect x="275" y="3643" width="2200" height="1375"/></clipPath><clipPath id="clip12"><rect x="275" y="3643" width="2200" height="1375"/></clipPath><clipPath id="clip13"><rect x="275" y="3643" width="2200" height="1375"/></clipPath><clipPath id="clip14"><rect x="275" y="3643" width="2200" height="1375"/></clipPath><clipPath id="clip15"><rect x="275" y="3643" width="2200" height="1375"/></clipPath><clipPath id="clip16"><rect x="275" y="3643" width="2200" height="1375"/></clipPath><clipPath id="clip17"><rect x="275" y="3643" width="2200" height="1375"/></clipPath><clipPath id="clip18"><rect x="275" y="3643" width="2200" height="1375"/></clipPath><clipPath id="clip19"><rect x="275" y="3643" width="2200" height="1375"/></clipPath><clipPath id="clip20"><rect x="275" y="3643" width="2200" height="1375"/></clipPath><clipPath id="clip21"><rect x="275" y="3643" width="2200" height="1375"/></clipPath><clipPath id="clip22"><rect x="275" y="3643" width="2200" height="1375"/></clipPath><clipPath id="clip23"><rect x="275" y="3643" width="2200" height="1375"/></clipPath><clipPath id="clip24"><rect x="275" y="3643" width="2200" height="1375"/></clipPath><clipPath id="clip25"><rect x="275" y="3643" width="2200" height="1375"/></clipPath><clipPath id="clip26"><rect x="275" y="3643" width="2200" height="1375"/></clipPath><clipPath id="clip27"><rect x="275" y="3643" width="2200" height="1375"/></clipPath><clipPath id="clip28"><rect x="275" y="3643" width="2200" height="1375"/></clipPath><clipPath id="clip29"><rect x="275" y="3643" width="2200" height="1375"/></clipPath><clipPath id="clip30"><rect x="275" y="3643" width="2200" height="1375"/></clipPath><clipPath id="clip31"><rect x="275" y="3643" width="2200" height="1375"/></clipPath><clipPath id="clip32"><rect x="275" y="3643" width="2200" height="1375"/></clipPath><clipPath id="clip33"><rect x="275" y="3643" width="2200" height="1375"/></clipPath><clipPath id="clip34"><rect x="275" y="3643" width="2200" height="1375"/></clipPath><clipPath id="clip35"><rect x="275" y="3643" width="2200" height="1375"/></clipPath><clipPath id="clip36"><rect x="275" y="3643" width="2200" height="1375"/></clipPath><clipPath id="clip37"><rect x="275" y="3643" width="2200" height="1375"/></clipPath><clipPath id="clip38"><rect x="275" y="3643" width="2200" height="1375"/></clipPath><clipPath id="clip39"><rect x="275" y="3643" width="2200" height="1375"/></clipPath><clipPath id="clip40"><rect x="275" y="3643" width="2200" height="1375"/></clipPath><clipPath id="clip41"><rect x="275" y="3643" width="2200" height="1375"/></clipPath><clipPath id="clip42"><rect x="275" y="3643" width="2200" height="1375"/></clipPath><clipPath id="clip43"><rect x="275" y="3643" width="2200" height="1375"/></clipPath><clipPath id="clip44"><rect x="275" y="3643" width="2200" height="1375"/></clipPath><clipPath id="clip45"><rect x="275" y="3643" width="2200" height="1375"/></clipPath><clipPath id="clip46"><rect x="275" y="3643" width="2200" height="1375"/></clipPath><clipPath id="clip47"><rect x="275" y="3643" width="2200" height="1375"/></clipPath><clipPath id="clip48"><rect x="275" y="3643" width="2200" height="1375"/></clipPath><clipPath id="clip49"><rect x="275" y="3643" width="2200" height="1375"/></clipPath><clipPath id="clip50"><rect x="275" y="3643" width="2200" height="1375"/></clipPath><clipPath id="clip51"><rect x="275" y="3643" width="2200" height="1375"/></clipPath><clipPath id="clip52"><rect x="275" y="3643" width="2200" height="1375"/></clipPath><clipPath id="clip53"><rect x="275" y="3643" width="2200" height="1375"/></clipPath><clipPath id="clip54"><rect x="275" y="3643" width="2200" height="1375"/></clipPath><clipPath id="clip55"><rect x="275" y="3643" width="2200" height="1375"/></clipPath><clipPath id="clip56"><rect x="275" y="3643" width="2200" height="1375"/></clipPath><clipPath id="clip57"><rect x="275" y="3643" width="2200" height="1375"/></clipPath><clipPath id="clip58"><rect x="275" y="3643" width="2200" height="1375"/></clipPath><clipPath id="clip59"><rect x="275" y="3643" width="2200" height="1375"/></clipPath><clipPath id="clip60"><rect x="275" y="3643" width="2200" height="1375"/></clipPath><clipPath id="clip61"><rect x="275" y="3643" width="2200" height="1375"/></clipPath><clipPath id="clip62"><rect x="275" y="3643" width="2200" height="1375"/></clipPath><clipPath id="clip63"><rect x="275" y="3643" width="2200" height="1375"/></clipPath><clipPath id="clip64"><rect x="275" y="3643" width="2200" height="1375"/></clipPath></defs><g clip-path="url(#clip0)" transform="translate(-274 -3643)"><rect x="275" y="3644" width="2200" height="1375" fill="#FFFFFF"/><g clip-path="url(#clip1)"><path d="M395.5 4363.64 2424.5 4363.64M395.5 4302.64 2424.5 4302.64M395.5 4241.64 2424.5 4241.64M395.5 4180.64 2424.5 4180.64M395.5 4119.64 2424.5 4119.64M395.5 4058.63 2424.5 4058.63M395.5 3996.63 2424.5 3996.63M395.5 3935.63 2424.5 3935.63M395.5 3874.63 2424.5 3874.63M395.5 3813.5 2424.5 3813.5" stroke="#D9D9D9" stroke-width="3.4375" stroke-linejoin="round" stroke-miterlimit="10" fill="none"/></g><g clip-path="url(#clip2)"><path d="M410.514 3813.5 423.514 3813.5 423.514 4424.5 410.514 4424.5ZM488.516 4276.64 501.517 4276.64 501.517 4424.5 488.516 4424.5ZM566.519 4335.64 579.519 4335.64 579.519 4424.5 566.519 4424.5ZM644.521 4339.64 657.522 4339.64 657.522 4424.5 644.521 4424.5ZM722.524 4347.64 735.524 4347.64 735.524 4424.5 722.524 4424.5ZM800.526 4346.64 814.527 4346.64 814.527 4424.5 800.526 4424.5ZM878.529 4345.64 892.529 4345.64 892.529 4424.5 878.529 4424.5ZM956.531 4335.64 970.532 4335.64 970.532 4424.5 956.531 4424.5ZM1034.53 4340.64 1048.53 4340.64 1048.53 4424.5 1034.53 4424.5ZM1112.54 4370.64 1126.54 4370.64 1126.54 4424.5 1112.54 4424.5ZM1190.54 4370.64 1204.54 4370.64 1204.54 4424.5 1190.54 4424.5ZM1268.54 4370.64 1282.54 4370.64 1282.54 4424.5 1268.54 4424.5ZM1346.54 4337.64 1360.54 4337.64 1360.54 4424.5 1346.54 4424.5ZM1424.55 4345.64 1438.55 4345.64 1438.55 4424.5 1424.55 4424.5ZM1502.55 4362.64 1516.55 4362.64 1516.55 4424.5 1502.55 4424.5ZM1580.55 4361.64 1594.55 4361.64 1594.55 4424.5 1580.55 4424.5ZM1658.55 4361.64 1672.56 4361.64 1672.56 4424.5 1658.55 4424.5ZM2127.57 4343.64 2140.57 4343.64 2140.57 4424.5 2127.57 4424.5ZM2205.57 4351.64 2218.57 4351.64 2218.57 4424.5 2205.57 4424.5ZM2283.58 4381.64 2296.58 4381.64 2296.58 4424.5 2283.58 4424.5ZM2361.58 4380.64 2374.58 4380.64 2374.58 4424.5 2361.58 4424.5Z" stroke="#333F50" stroke-width="3.4375" stroke-linejoin="round" stroke-miterlimit="10" fill="#8497B0"/></g><g clip-path="url(#clip3)"><path d="M973.532 4335.64 987.533 4335.64 987.533 4424.5 973.532 4424.5ZM1051.53 4340.64 1065.54 4340.64 1065.54 4424.5 1051.53 4424.5ZM1129.54 4370.64 1143.54 4370.64 1143.54 4424.5 1129.54 4424.5ZM1207.54 4370.64 1221.54 4370.64 1221.54 4424.5 1207.54 4424.5ZM1285.54 4370.64 1299.54 4370.64 1299.54 4424.5 1285.54 4424.5ZM1364.54 4337.64 1377.55 4337.64 1377.55 4424.5 1364.54 4424.5ZM1442.55 4345.64 1455.55 4345.64 1455.55 4424.5 1442.55 4424.5ZM1520.55 4362.64 1533.55 4362.64 1533.55 4424.5 1520.55 4424.5ZM1598.55 4361.64 1611.55 4361.64 1611.55 4424.5 1598.55 4424.5ZM1676.56 4361.64 1689.56 4361.64 1689.56 4424.5 1676.56 4424.5ZM1754.56 3815.63 1767.56 3815.63 1767.56 4424.5 1754.56 4424.5ZM1832.56 3820.63 1845.56 3820.63 1845.56 4424.5 1832.56 4424.5ZM1910.56 3823.63 1924.56 3823.63 1924.56 4424.5 1910.56 4424.5ZM1988.57 3815.63 2002.57 3815.63 2002.57 4424.5 1988.57 4424.5ZM2066.57 3840.63 2080.57 3840.63 2080.57 4424.5 2066.57 4424.5ZM2144.57 4343.64 2158.57 4343.64 2158.57 4424.5 2144.57 4424.5ZM2222.57 4350.64 2236.57 4350.64 2236.57 4424.5 2222.57 4424.5ZM2300.58 4381.64 2314.58 4381.64 2314.58 4424.5 2300.58 4424.5ZM2378.58 4381.64 2392.58 4381.64 2392.58 4424.5 2378.58 4424.5Z" stroke="#BF9000" stroke-width="3.4375" stroke-linejoin="round" stroke-miterlimit="10" fill="#FFD966"/></g><g clip-path="url(#clip4)"><path d="M991.533 4335.64 1004.53 4335.64 1004.53 4424.5 991.533 4424.5ZM1069.54 4340.64 1082.54 4340.64 1082.54 4424.5 1069.54 4424.5ZM1147.54 4370.64 1160.54 4370.64 1160.54 4424.5 1147.54 4424.5ZM1225.54 4370.64 1238.54 4370.64 1238.54 4424.5 1225.54 4424.5ZM1303.54 4370.64 1316.54 4370.64 1316.54 4424.5 1303.54 4424.5ZM1381.55 4337.64 1394.55 4337.64 1394.55 4424.5 1381.55 4424.5ZM1459.55 4345.64 1473.55 4345.64 1473.55 4424.5 1459.55 4424.5ZM1537.55 4362.64 1551.55 4362.64 1551.55 4424.5 1537.55 4424.5ZM1615.55 4361.64 1629.55 4361.64 1629.55 4424.5 1615.55 4424.5ZM1693.56 4361.64 1707.56 4361.64 1707.56 4424.5 1693.56 4424.5ZM1771.56 3815.63 1785.56 3815.63 1785.56 4424.5 1771.56 4424.5ZM1849.56 3820.63 1863.56 3820.63 1863.56 4424.5 1849.56 4424.5ZM1927.56 3823.63 1941.56 3823.63 1941.56 4424.5 1927.56 4424.5ZM2005.57 3815.63 2019.57 3815.63 2019.57 4424.5 2005.57 4424.5ZM2083.57 3840.63 2097.57 3840.63 2097.57 4424.5 2083.57 4424.5ZM2161.57 4343.64 2175.57 4343.64 2175.57 4424.5 2161.57 4424.5ZM2239.57 4351.64 2253.57 4351.64 2253.57 4424.5 2239.57 4424.5ZM2317.58 4381.64 2331.58 4381.64 2331.58 4424.5 2317.58 4424.5ZM2395.58 4381.64 2409.58 4381.64 2409.58 4424.5 2395.58 4424.5Z" stroke="#548235" stroke-width="3.4375" stroke-linejoin="round" stroke-miterlimit="10" fill="#A9D18E"/></g><g clip-path="url(#clip5)"><path d="M395.5 4424.5 2424.5 4424.5" stroke="#D9D9D9" stroke-width="3.4375" stroke-linejoin="round" stroke-miterlimit="10" fill="none" fill-rule="evenodd"/></g><g clip-path="url(#clip6)"><path d="M395.5 4424.5 395.5 4811.5M551.518 4424.5 551.518 4811.5M941.531 4424.5 941.531 4811.5M1331.54 4424.5 1331.54 4811.5M1722.56 4424.5 1722.56 4811.5M2112.57 4424.5 2112.57 4811.5M2424.5 4424.5 2424.5 4811.5" stroke="#D9D9D9" stroke-width="3.4375" stroke-linejoin="round" stroke-miterlimit="10" fill="none"/></g><g clip-path="url(#clip7)"><path d="M395.5 4811.5 395.5 4890.5M551.518 4811.5 551.518 4890.5M941.531 4811.5 941.531 4890.5M1331.54 4811.5 1331.54 4890.5M1722.56 4811.5 1722.56 4890.5M2112.57 4811.5 2112.57 4890.5M2424.5 4811.5 2424.5 4890.5" stroke="#D9D9D9" stroke-width="3.4375" stroke-linejoin="round" stroke-miterlimit="10" fill="none"/></g><g clip-path="url(#clip8)"><text fill="#595959" font-family="Calibri,Calibri_MSFontService,sans-serif" font-weight="400" font-size="41" transform="matrix(1 0 0 1 336.096 4436)">0</text></g><g clip-path="url(#clip9)"><text fill="#595959" font-family="Calibri,Calibri_MSFontService,sans-serif" font-weight="400" font-size="41" transform="matrix(1 0 0 1 304.792 4375)">0.1</text></g><g clip-path="url(#clip10)"><text fill="#595959" font-family="Calibri,Calibri_MSFontService,sans-serif" font-weight="400" font-size="41" transform="matrix(1 0 0 1 304.792 4314)">0.2</text></g><g clip-path="url(#clip11)"><text fill="#595959" font-family="Calibri,Calibri_MSFontService,sans-serif" font-weight="400" font-size="41" transform="matrix(1 0 0 1 304.792 4253)">0.3</text></g><g clip-path="url(#clip12)"><text fill="#595959" font-family="Calibri,Calibri_MSFontService,sans-serif" font-weight="400" font-size="41" transform="matrix(1 0 0 1 304.792 4192)">0.4</text></g><g clip-path="url(#clip13)"><text fill="#595959" font-family="Calibri,Calibri_MSFontService,sans-serif" font-weight="400" font-size="41" transform="matrix(1 0 0 1 304.792 4131)">0.5</text></g><g clip-path="url(#clip14)"><text fill="#595959" font-family="Calibri,Calibri_MSFontService,sans-serif" font-weight="400" font-size="41" transform="matrix(1 0 0 1 304.792 4070)">0.6</text></g><g clip-path="url(#clip15)"><text fill="#595959" font-family="Calibri,Calibri_MSFontService,sans-serif" font-weight="400" font-size="41" transform="matrix(1 0 0 1 304.792 4009)">0.7</text></g><g clip-path="url(#clip16)"><text fill="#595959" font-family="Calibri,Calibri_MSFontService,sans-serif" font-weight="400" font-size="41" transform="matrix(1 0 0 1 304.792 3948)">0.8</text></g><g clip-path="url(#clip17)"><text fill="#595959" font-family="Calibri,Calibri_MSFontService,sans-serif" font-weight="400" font-size="41" transform="matrix(1 0 0 1 304.792 3886)">0.9</text></g><g clip-path="url(#clip18)"><text fill="#595959" font-family="Calibri,Calibri_MSFontService,sans-serif" font-weight="400" font-size="41" transform="matrix(1 0 0 1 336.096 3825)">1</text></g><g clip-path="url(#clip19)"><text fill="#595959" font-family="Calibri,Calibri_MSFontService,sans-serif" font-weight="400" font-size="41" transform="matrix(6.12323e-17 -1 1 6.12323e-17 448.114 4582)">Original</text></g><g clip-path="url(#clip20)"><text fill="#595959" font-family="Calibri,Calibri_MSFontService,sans-serif" font-weight="400" font-size="41" transform="matrix(6.12323e-17 -1 1 6.12323e-17 526.165 4762)">JPEG-Kompression</text></g><g clip-path="url(#clip21)"><text fill="#595959" font-family="Calibri,Calibri_MSFontService,sans-serif" font-weight="400" font-size="41" transform="matrix(6.12323e-17 -1 1 6.12323e-17 604.216 4578)">67 Byte</text></g><g clip-path="url(#clip22)"><text fill="#595959" font-family="Calibri,Calibri_MSFontService,sans-serif" font-weight="400" font-size="41" transform="matrix(6.12323e-17 -1 1 6.12323e-17 682.266 4577)">1.53 KB</text></g><g clip-path="url(#clip23)"><text fill="#595959" font-family="Calibri,Calibri_MSFontService,sans-serif" font-weight="400" font-size="41" transform="matrix(6.12323e-17 -1 1 6.12323e-17 760.317 4577)">17.5 KB</text></g><g clip-path="url(#clip24)"><text fill="#595959" font-family="Calibri,Calibri_MSFontService,sans-serif" font-weight="400" font-size="41" transform="matrix(6.12323e-17 -1 1 6.12323e-17 838.368 4808)">16 KB (min. Entropie)</text></g><g clip-path="url(#clip25)"><text fill="#595959" font-family="Calibri,Calibri_MSFontService,sans-serif" font-weight="400" font-size="41" transform="matrix(6.12323e-17 -1 1 6.12323e-17 916.419 4699)">16.8 KB (binär)</text></g><g clip-path="url(#clip26)"><text fill="#595959" font-family="Calibri,Calibri_MSFontService,sans-serif" font-weight="400" font-size="41" transform="matrix(6.12323e-17 -1 1 6.12323e-17 994.469 4578)">67 Byte</text></g><g clip-path="url(#clip27)"><text fill="#595959" font-family="Calibri,Calibri_MSFontService,sans-serif" font-weight="400" font-size="41" transform="matrix(6.12323e-17 -1 1 6.12323e-17 1072.52 4577)">1.53 KB</text></g><g clip-path="url(#clip28)"><text fill="#595959" font-family="Calibri,Calibri_MSFontService,sans-serif" font-weight="400" font-size="41" transform="matrix(6.12323e-17 -1 1 6.12323e-17 1150.57 4577)">17.5 KB</text></g><g clip-path="url(#clip29)"><text fill="#595959" font-family="Calibri,Calibri_MSFontService,sans-serif" font-weight="400" font-size="41" transform="matrix(6.12323e-17 -1 1 6.12323e-17 1228.62 4808)">16 KB (min. Entropie)</text></g><g clip-path="url(#clip30)"><text fill="#595959" font-family="Calibri,Calibri_MSFontService,sans-serif" font-weight="400" font-size="41" transform="matrix(6.12323e-17 -1 1 6.12323e-17 1306.67 4699)">16.8 KB (binär)</text></g><g clip-path="url(#clip31)"><text fill="#595959" font-family="Calibri,Calibri_MSFontService,sans-serif" font-weight="400" font-size="41" transform="matrix(6.12323e-17 -1 1 6.12323e-17 1384.72 4578)">67 Byte</text></g><g clip-path="url(#clip32)"><text fill="#595959" font-family="Calibri,Calibri_MSFontService,sans-serif" font-weight="400" font-size="41" transform="matrix(6.12323e-17 -1 1 6.12323e-17 1462.77 4577)">1.53 KB</text></g><g clip-path="url(#clip33)"><text fill="#595959" font-family="Calibri,Calibri_MSFontService,sans-serif" font-weight="400" font-size="41" transform="matrix(6.12323e-17 -1 1 6.12323e-17 1540.83 4577)">17.5 KB</text></g><g clip-path="url(#clip34)"><text fill="#595959" font-family="Calibri,Calibri_MSFontService,sans-serif" font-weight="400" font-size="41" transform="matrix(6.12323e-17 -1 1 6.12323e-17 1618.88 4808)">16 KB (min. Entropie)</text></g><g clip-path="url(#clip35)"><text fill="#595959" font-family="Calibri,Calibri_MSFontService,sans-serif" font-weight="400" font-size="41" transform="matrix(6.12323e-17 -1 1 6.12323e-17 1696.93 4699)">16.8 KB (binär)</text></g><g clip-path="url(#clip36)"><text fill="#595959" font-family="Calibri,Calibri_MSFontService,sans-serif" font-weight="400" font-size="41" transform="matrix(6.12323e-17 -1 1 6.12323e-17 1774.98 4578)">67 Byte</text></g><g clip-path="url(#clip37)"><text fill="#595959" font-family="Calibri,Calibri_MSFontService,sans-serif" font-weight="400" font-size="41" transform="matrix(6.12323e-17 -1 1 6.12323e-17 1853.03 4577)">1.53 KB</text></g><g clip-path="url(#clip38)"><text fill="#595959" font-family="Calibri,Calibri_MSFontService,sans-serif" font-weight="400" font-size="41" transform="matrix(6.12323e-17 -1 1 6.12323e-17 1931.08 4577)">17.5 KB</text></g><g clip-path="url(#clip39)"><text fill="#595959" font-family="Calibri,Calibri_MSFontService,sans-serif" font-weight="400" font-size="41" transform="matrix(6.12323e-17 -1 1 6.12323e-17 2009.13 4808)">16 KB (min. Entropie)</text></g><g clip-path="url(#clip40)"><text fill="#595959" font-family="Calibri,Calibri_MSFontService,sans-serif" font-weight="400" font-size="41" transform="matrix(6.12323e-17 -1 1 6.12323e-17 2087.18 4699)">16.8 KB (binär)</text></g><g clip-path="url(#clip41)"><text fill="#595959" font-family="Calibri,Calibri_MSFontService,sans-serif" font-weight="400" font-size="41" transform="matrix(6.12323e-17 -1 1 6.12323e-17 2165.23 4578)">67 Byte</text></g><g clip-path="url(#clip42)"><text fill="#595959" font-family="Calibri,Calibri_MSFontService,sans-serif" font-weight="400" font-size="41" transform="matrix(6.12323e-17 -1 1 6.12323e-17 2243.28 4577)">1.53 KB</text></g><g clip-path="url(#clip43)"><text fill="#595959" font-family="Calibri,Calibri_MSFontService,sans-serif" font-weight="400" font-size="41" transform="matrix(6.12323e-17 -1 1 6.12323e-17 2321.33 4577)">17.5 KB</text></g><g clip-path="url(#clip44)"><text fill="#595959" font-family="Calibri,Calibri_MSFontService,sans-serif" font-weight="400" font-size="41" transform="matrix(6.12323e-17 -1 1 6.12323e-17 2399.38 4808)">16 KB (min. Entropie)</text></g><g clip-path="url(#clip45)"><text fill="#595959" font-family="Calibri,Calibri_MSFontService,sans-serif" font-weight="400" font-size="41" transform="matrix(1 0 0 1 706.604 4876)">jsteg</text></g><g clip-path="url(#clip46)"><text fill="#595959" font-family="Calibri,Calibri_MSFontService,sans-serif" font-weight="400" font-size="41" transform="matrix(1 0 0 1 1061.18 4876)">outguess</text></g><g clip-path="url(#clip47)"><text fill="#595959" font-family="Calibri,Calibri_MSFontService,sans-serif" font-weight="400" font-size="41" transform="matrix(1 0 0 1 1408.57 4876)">outguess-0.13</text></g><g clip-path="url(#clip48)"><text fill="#595959" font-family="Calibri,Calibri_MSFontService,sans-serif" font-weight="400" font-size="41" transform="matrix(1 0 0 1 1845.63 4876)">steghide</text></g><g clip-path="url(#clip49)"><text fill="#595959" font-family="Calibri,Calibri_MSFontService,sans-serif" font-weight="400" font-size="41" transform="matrix(1 0 0 1 2251.74 4876)">f5</text></g><g clip-path="url(#clip50)"><text fill="#595959" font-family="Calibri,Calibri_MSFontService,sans-serif" font-weight="400" font-size="64" transform="matrix(1 0 0 1 564.288 3739)">schwarz</text></g><g clip-path="url(#clip51)"><text fill="#595959" font-family="Calibri,Calibri_MSFontService,sans-serif" font-weight="400" font-size="64" transform="matrix(1 0 0 1 773.403 3739)">-</text></g><g clip-path="url(#clip52)"><text fill="#595959" font-family="Calibri,Calibri_MSFontService,sans-serif" font-weight="400" font-size="64" transform="matrix(1 0 0 1 793.042 3739)">weiß</text></g><g clip-path="url(#clip53)"><text fill="#595959" font-family="Calibri,Calibri_MSFontService,sans-serif" font-weight="400" font-size="64" transform="matrix(1 0 0 1 918.855 3739)">-</text></g><g clip-path="url(#clip54)"><text fill="#595959" font-family="Calibri,Calibri_MSFontService,sans-serif" font-weight="400" font-size="64" transform="matrix(1 0 0 1 938.495 3739)">Verhältnis im </text></g><g clip-path="url(#clip55)"><text fill="#595959" font-family="Calibri,Calibri_MSFontService,sans-serif" font-weight="700" font-size="64" transform="matrix(1 0 0 1 1295.24 3739)">Differenzbild</text></g><g clip-path="url(#clip56)"><text fill="#595959" font-family="Calibri,Calibri_MSFontService,sans-serif" font-weight="400" font-size="64" transform="matrix(1 0 0 1 1652.53 3739)">(Smartphone</text></g><g clip-path="url(#clip57)"><text fill="#595959" font-family="Calibri,Calibri_MSFontService,sans-serif" font-weight="400" font-size="64" transform="matrix(1 0 0 1 1994.24 3739)">-</text></g><g clip-path="url(#clip58)"><text fill="#595959" font-family="Calibri,Calibri_MSFontService,sans-serif" font-weight="400" font-size="64" transform="matrix(1 0 0 1 2013.88 3739)">Bilder)</text></g><g clip-path="url(#clip59)"><rect x="883.5" y="4941.5" width="22" height="22" stroke="#333F50" stroke-width="3.4375" stroke-linejoin="round" stroke-miterlimit="10" fill="#8497B0"/></g><g clip-path="url(#clip60)"><text fill="#595959" font-family="Calibri,Calibri_MSFontService,sans-serif" font-weight="400" font-size="41" transform="matrix(1 0 0 1 915.444 4964)">kein Schlüssel</text></g><g clip-path="url(#clip61)"><rect x="1205.5" y="4941.5" width="23" height="22" stroke="#BF9000" stroke-width="3.4375" stroke-linejoin="round" stroke-miterlimit="10" fill="#FFD966"/></g><g clip-path="url(#clip62)"><text fill="#595959" font-family="Calibri,Calibri_MSFontService,sans-serif" font-weight="400" font-size="41" transform="matrix(1 0 0 1 1238.04 4964)">4 Byte Schlüssel</text></g><g clip-path="url(#clip63)"><rect x="1563.5" y="4941.5" width="23" height="22" stroke="#548235" stroke-width="3.4375" stroke-linejoin="round" stroke-miterlimit="10" fill="#A9D18E"/></g><g clip-path="url(#clip64)"><text fill="#595959" font-family="Calibri,Calibri_MSFontService,sans-serif" font-weight="400" font-size="41" transform="matrix(1 0 0 1 1595.91 4964)">50 Byte Schlüssel</text></g><rect x="275.5" y="3644.5" width="2200" height="1375" stroke="#D9D9D9" stroke-width="3.4375" stroke-linejoin="round" stroke-miterlimit="10" fill="none"/></g></svg>