<svg width="2203" height="1378" xmlns="http://www.w3.org/2000/svg" xmlns:xlink="http://www.w3.org/1999/xlink" xml:space="preserve" overflow="hidden"><defs><clipPath id="clip0"><rect x="274" y="3574" width="2203" height="1378"/></clipPath><clipPath id="clip1"><rect x="275" y="3575" width="2200" height="1375"/></clipPath><clipPath id="clip2"><rect x="426" y="3800" width="2002" height="559"/></clipPath><clipPath id="clip3"><rect x="426" y="3800" width="2002" height="559"/></clipPath><clipPath id="clip4"><rect x="426" y="3800" width="2002" height="559"/></clipPath><clipPath id="clip5"><rect x="275" y="3575" width="2200" height="1375"/></clipPath><clipPath id="clip6"><rect x="275" y="3575" width="2200" height="1375"/></clipPath><clipPath id="clip7"><rect x="275" y="3575" width="2200" height="1375"/></clipPath><clipPath id="clip8"><rect x="275" y="3575" width="2200" height="1375"/></clipPath><clipPath id="clip9"><rect x="275" y="3575" width="2200" height="1375"/></clipPath><clipPath id="clip10"><rect x="275" y="3575" width="2200" height="1375"/></clipPath><clipPath id="clip11"><rect x="275" y="3575" width="2200" height="1375"/></clipPath><clipPath id="clip12"><rect x="275" y="3575" width="2200" height="1375"/></clipPath><clipPath id="clip13"><rect x="275" y="3575" width="2200" height="1375"/></clipPath><clipPath id="clip14"><rect x="275" y="3575" width="2200" height="1375"/></clipPath><clipPath id="clip15"><rect x="275" y="3575" width="2200" height="1375"/></clipPath><clipPath id="clip16"><rect x="275" y="3575" width="2200" height="1375"/></clipPath><clipPath id="clip17"><rect x="275" y="3575" width="2200" height="1375"/></clipPath><clipPath id="clip18"><rect x="275" y="3575" width="2200" height="1375"/></clipPath><clipPath id="clip19"><rect x="275" y="3575" width="2200" height="1375"/></clipPath><clipPath id="clip20"><rect x="275" y="3575" width="2200" height="1375"/></clipPath><clipPath id="clip21"><rect x="275" y="3575" width="2200" height="1375"/></clipPath><clipPath id="clip22"><rect x="275" y="3575" width="2200" height="1375"/></clipPath><clipPath id="clip23"><rect x="275" y="3575" width="2200" height="1375"/></clipPath><clipPath id="clip24"><rect x="275" y="3575" width="2200" height="1375"/></clipPath><clipPath id="clip25"><rect x="275" y="3575" width="2200" height="1375"/></clipPath><clipPath id="clip26"><rect x="275" y="3575" width="2200" height="1375"/></clipPath><clipPath id="clip27"><rect x="275" y="3575" width="2200" height="1375"/></clipPath><clipPath id="clip28"><rect x="275" y="3575" width="2200" height="1375"/></clipPath><clipPath id="clip29"><rect x="275" y="3575" width="2200" height="1375"/></clipPath><clipPath id="clip30"><rect x="275" y="3575" width="2200" height="1375"/></clipPath><clipPath id="clip31"><rect x="275" y="3575" width="2200" height="1375"/></clipPath><clipPath id="clip32"><rect x="275" y="3575" width="2200" height="1375"/></clipPath><clipPath id="clip33"><rect x="275" y="3575" width="2200" height="1375"/></clipPath><clipPath id="clip34"><rect x="275" y="3575" width="2200" height="1375"/></clipPath><clipPath id="clip35"><rect x="275" y="3575" width="2200" height="1375"/></clipPath><clipPath id="clip36"><rect x="275" y="3575" width="2200" height="1375"/></clipPath><clipPath id="clip37"><rect x="275" y="3575" width="2200" height="1375"/></clipPath><clipPath id="clip38"><rect x="275" y="3575" width="2200" height="1375"/></clipPath><clipPath id="clip39"><rect x="275" y="3575" width="2200" height="1375"/></clipPath><clipPath id="clip40"><rect x="275" y="3575" width="2200" height="1375"/></clipPath><clipPath id="clip41"><rect x="275" y="3575" width="2200" height="1375"/></clipPath><clipPath id="clip42"><rect x="275" y="3575" width="2200" height="1375"/></clipPath><clipPath id="clip43"><rect x="275" y="3575" width="2200" height="1375"/></clipPath><clipPath id="clip44"><rect x="275" y="3575" width="2200" height="1375"/></clipPath><clipPath id="clip45"><rect x="275" y="3575" width="2200" height="1375"/></clipPath><clipPath id="clip46"><rect x="275" y="3575" width="2200" height="1375"/></clipPath><clipPath id="clip47"><rect x="275" y="3575" width="2200" height="1375"/></clipPath><clipPath id="clip48"><rect x="275" y="3575" width="2200" height="1375"/></clipPath><clipPath id="clip49"><rect x="275" y="3575" width="2200" height="1375"/></clipPath><clipPath id="clip50"><rect x="275" y="3575" width="2200" height="1375"/></clipPath><clipPath id="clip51"><rect x="275" y="3575" width="2200" height="1375"/></clipPath><clipPath id="clip52"><rect x="275" y="3575" width="2200" height="1375"/></clipPath><clipPath id="clip53"><rect x="275" y="3575" width="2200" height="1375"/></clipPath><clipPath id="clip54"><rect x="275" y="3575" width="2200" height="1375"/></clipPath><clipPath id="clip55"><rect x="275" y="3575" width="2200" height="1375"/></clipPath><clipPath id="clip56"><rect x="275" y="3575" width="2200" height="1375"/></clipPath><clipPath id="clip57"><rect x="275" y="3575" width="2200" height="1375"/></clipPath><clipPath id="clip58"><rect x="275" y="3575" width="2200" height="1375"/></clipPath></defs><g clip-path="url(#clip0)" transform="translate(-274 -3574)"><rect x="275" y="3575" width="2200" height="1375" fill="#FFFFFF"/><g clip-path="url(#clip1)"><path d="M426.5 4286.64 2424.5 4286.64M426.5 4217.64 2424.5 4217.64M426.5 4147.64 2424.5 4147.64M426.5 4078.63 2424.5 4078.63M426.5 4008.63 2424.5 4008.63M426.5 3939.63 2424.5 3939.63M426.5 3870.63 2424.5 3870.63M426.5 3800.5 2424.5 3800.5" stroke="#D9D9D9" stroke-width="3.4375" stroke-linejoin="round" stroke-miterlimit="10" fill="none"/></g><g clip-path="url(#clip2)"><path d="M441.515 3864.63 455.515 3864.63 455.515 4356.5 441.515 4356.5ZM521.517 4168.64 535.518 4168.64 535.518 4356.5 521.517 4356.5ZM601.52 4168.64 615.52 4168.64 615.52 4356.5 601.52 4356.5ZM681.523 4168.64 695.523 4168.64 695.523 4356.5 681.523 4356.5ZM761.525 4168.64 775.526 4168.64 775.526 4356.5 761.525 4356.5ZM841.528 4168.64 855.528 4168.64 855.528 4356.5 841.528 4356.5ZM921.53 4170.64 935.531 4170.64 935.531 4356.5 921.53 4356.5ZM1001.53 4171.64 1015.53 4171.64 1015.53 4356.5 1001.53 4356.5ZM1081.54 4156.64 1095.54 4156.64 1095.54 4356.5 1081.54 4356.5ZM1161.54 4156.64 1175.54 4156.64 1175.54 4356.5 1161.54 4356.5ZM1241.54 4156.64 1255.54 4156.64 1255.54 4356.5 1241.54 4356.5ZM1320.54 4166.64 1334.54 4166.64 1334.54 4356.5 1320.54 4356.5ZM1400.55 4165.64 1414.55 4165.64 1414.55 4356.5 1400.55 4356.5ZM1480.55 4154.64 1494.55 4154.64 1494.55 4356.5 1480.55 4356.5ZM1560.55 4157.64 1574.55 4157.64 1574.55 4356.5 1560.55 4356.5ZM1640.55 4157.64 1654.55 4157.64 1654.55 4356.5 1640.55 4356.5ZM2120.57 4341.64 2134.57 4341.64 2134.57 4356.5 2120.57 4356.5ZM2200.57 4341.64 2213.57 4341.64 2213.57 4356.5 2200.57 4356.5ZM2279.57 4343.64 2293.58 4343.64 2293.58 4356.5 2279.57 4356.5ZM2359.58 4343.64 2373.58 4343.64 2373.58 4356.5 2359.58 4356.5Z" stroke="#333F50" stroke-width="3.4375" stroke-linejoin="round" stroke-miterlimit="10" fill="#8497B0"/></g><g clip-path="url(#clip3)"><path d="M939.531 4170.64 953.531 4170.64 953.531 4356.5 939.531 4356.5ZM1019.53 4171.64 1032.53 4171.64 1032.53 4356.5 1019.53 4356.5ZM1098.54 4156.64 1112.54 4156.64 1112.54 4356.5 1098.54 4356.5ZM1178.54 4156.64 1192.54 4156.64 1192.54 4356.5 1178.54 4356.5ZM1258.54 4156.64 1272.54 4156.64 1272.54 4356.5 1258.54 4356.5ZM1338.54 4166.64 1352.54 4166.64 1352.54 4356.5 1338.54 4356.5ZM1418.55 4165.64 1432.55 4165.64 1432.55 4356.5 1418.55 4356.5ZM1498.55 4154.64 1512.55 4154.64 1512.55 4356.5 1498.55 4356.5ZM1578.55 4157.64 1592.55 4157.64 1592.55 4356.5 1578.55 4356.5ZM1658.55 4157.64 1672.56 4157.64 1672.56 4356.5 1658.55 4356.5ZM1738.56 3900.63 1752.56 3900.63 1752.56 4356.5 1738.56 4356.5ZM1818.56 3900.63 1832.56 3900.63 1832.56 4356.5 1818.56 4356.5ZM1898.56 3900.63 1912.56 3900.63 1912.56 4356.5 1898.56 4356.5ZM1978.57 3900.63 1991.57 3900.63 1991.57 4356.5 1978.57 4356.5ZM2057.57 3900.63 2071.57 3900.63 2071.57 4356.5 2057.57 4356.5ZM2137.57 4341.64 2151.57 4341.64 2151.57 4356.5 2137.57 4356.5ZM2217.57 4341.64 2231.57 4341.64 2231.57 4356.5 2217.57 4356.5ZM2297.58 4343.64 2311.58 4343.64 2311.58 4356.5 2297.58 4356.5ZM2377.58 4343.64 2391.58 4343.64 2391.58 4356.5 2377.58 4356.5Z" stroke="#BF9000" stroke-width="3.4375" stroke-linejoin="round" stroke-miterlimit="10" fill="#FFD966"/></g><g clip-path="url(#clip4)"><path d="M956.531 4170.64 970.532 4170.64 970.532 4356.5 956.531 4356.5ZM1036.53 4171.64 1050.53 4171.64 1050.53 4356.5 1036.53 4356.5ZM1116.54 4156.64 1130.54 4156.64 1130.54 4356.5 1116.54 4356.5ZM1196.54 4156.64 1210.54 4156.64 1210.54 4356.5 1196.54 4356.5ZM1276.54 4156.64 1290.54 4156.64 1290.54 4356.5 1276.54 4356.5ZM1356.54 4166.64 1370.55 4166.64 1370.55 4356.5 1356.54 4356.5ZM1436.55 4165.64 1450.55 4165.64 1450.55 4356.5 1436.55 4356.5ZM1516.55 4154.64 1530.55 4154.64 1530.55 4356.5 1516.55 4356.5ZM1596.55 4157.64 1610.55 4157.64 1610.55 4356.5 1596.55 4356.5ZM1676.56 4157.64 1690.56 4157.64 1690.56 4356.5 1676.56 4356.5ZM1755.56 3903.63 1769.56 3903.63 1769.56 4356.5 1755.56 4356.5ZM1835.56 3903.63 1849.56 3903.63 1849.56 4356.5 1835.56 4356.5ZM1915.56 3903.63 1929.56 3903.63 1929.56 4356.5 1915.56 4356.5ZM1995.57 3903.63 2009.57 3903.63 2009.57 4356.5 1995.57 4356.5ZM2075.57 3903.63 2089.57 3903.63 2089.57 4356.5 2075.57 4356.5ZM2155.57 4341.64 2169.57 4341.64 2169.57 4356.5 2155.57 4356.5ZM2235.57 4341.64 2249.57 4341.64 2249.57 4356.5 2235.57 4356.5ZM2315.58 4343.64 2329.58 4343.64 2329.58 4356.5 2315.58 4356.5ZM2395.58 4343.64 2409.58 4343.64 2409.58 4356.5 2395.58 4356.5Z" stroke="#548235" stroke-width="3.4375" stroke-linejoin="round" stroke-miterlimit="10" fill="#A9D18E"/></g><g clip-path="url(#clip5)"><path d="M426.5 4356.5 2424.5 4356.5" stroke="#D9D9D9" stroke-width="3.4375" stroke-linejoin="round" stroke-miterlimit="10" fill="none" fill-rule="evenodd"/></g><g clip-path="url(#clip6)"><path d="M426.5 4356.5 426.5 4742.5M506.517 4356.5 506.517 4742.5M906.53 4356.5 906.53 4742.5M1305.54 4356.5 1305.54 4742.5M1705.56 4356.5 1705.56 4742.5M2104.57 4356.5 2104.57 4742.5M2424.5 4356.5 2424.5 4742.5" stroke="#D9D9D9" stroke-width="3.4375" stroke-linejoin="round" stroke-miterlimit="10" fill="none"/></g><g clip-path="url(#clip7)"><path d="M426.5 4742.5 426.5 4822.5M506.517 4742.5 506.517 4822.5M906.53 4742.5 906.53 4822.5M1305.54 4742.5 1305.54 4822.5M1705.56 4742.5 1705.56 4822.5M2104.57 4742.5 2104.57 4822.5M2424.5 4742.5 2424.5 4822.5" stroke="#D9D9D9" stroke-width="3.4375" stroke-linejoin="round" stroke-miterlimit="10" fill="none"/></g><g clip-path="url(#clip8)"><text fill="#595959" font-family="Calibri,Calibri_MSFontService,sans-serif" font-weight="400" font-size="41" transform="matrix(1 0 0 1 367.492 4368)">0</text></g><g clip-path="url(#clip9)"><text fill="#595959" font-family="Calibri,Calibri_MSFontService,sans-serif" font-weight="400" font-size="41" transform="matrix(1 0 0 1 325.692 4298)">500</text></g><g clip-path="url(#clip10)"><text fill="#595959" font-family="Calibri,Calibri_MSFontService,sans-serif" font-weight="400" font-size="41" transform="matrix(1 0 0 1 304.792 4229)">1000</text></g><g clip-path="url(#clip11)"><text fill="#595959" font-family="Calibri,Calibri_MSFontService,sans-serif" font-weight="400" font-size="41" transform="matrix(1 0 0 1 304.792 4159)">1500</text></g><g clip-path="url(#clip12)"><text fill="#595959" font-family="Calibri,Calibri_MSFontService,sans-serif" font-weight="400" font-size="41" transform="matrix(1 0 0 1 304.792 4090)">2000</text></g><g clip-path="url(#clip13)"><text fill="#595959" font-family="Calibri,Calibri_MSFontService,sans-serif" font-weight="400" font-size="41" transform="matrix(1 0 0 1 304.792 4021)">2500</text></g><g clip-path="url(#clip14)"><text fill="#595959" font-family="Calibri,Calibri_MSFontService,sans-serif" font-weight="400" font-size="41" transform="matrix(1 0 0 1 304.792 3951)">3000</text></g><g clip-path="url(#clip15)"><text fill="#595959" font-family="Calibri,Calibri_MSFontService,sans-serif" font-weight="400" font-size="41" transform="matrix(1 0 0 1 304.792 3882)">3500</text></g><g clip-path="url(#clip16)"><text fill="#595959" font-family="Calibri,Calibri_MSFontService,sans-serif" font-weight="400" font-size="41" transform="matrix(1 0 0 1 304.792 3812)">4000</text></g><g clip-path="url(#clip17)"><text fill="#595959" font-family="Calibri,Calibri_MSFontService,sans-serif" font-weight="400" font-size="41" transform="matrix(6.12323e-17 -1 1 6.12323e-17 480.443 4589)">Original-Bild</text></g><g clip-path="url(#clip18)"><text fill="#595959" font-family="Calibri,Calibri_MSFontService,sans-serif" font-weight="400" font-size="41" transform="matrix(6.12323e-17 -1 1 6.12323e-17 560.36 4509)">67 Byte</text></g><g clip-path="url(#clip19)"><text fill="#595959" font-family="Calibri,Calibri_MSFontService,sans-serif" font-weight="400" font-size="41" transform="matrix(6.12323e-17 -1 1 6.12323e-17 640.277 4508)">1.53 KB</text></g><g clip-path="url(#clip20)"><text fill="#595959" font-family="Calibri,Calibri_MSFontService,sans-serif" font-weight="400" font-size="41" transform="matrix(6.12323e-17 -1 1 6.12323e-17 720.194 4508)">17.5 KB</text></g><g clip-path="url(#clip21)"><text fill="#595959" font-family="Calibri,Calibri_MSFontService,sans-serif" font-weight="400" font-size="41" transform="matrix(6.12323e-17 -1 1 6.12323e-17 800.111 4739)">16 KB (min. Entropie)</text></g><g clip-path="url(#clip22)"><text fill="#595959" font-family="Calibri,Calibri_MSFontService,sans-serif" font-weight="400" font-size="41" transform="matrix(6.12323e-17 -1 1 6.12323e-17 880.028 4630)">16.8 KB (binär)</text></g><g clip-path="url(#clip23)"><text fill="#595959" font-family="Calibri,Calibri_MSFontService,sans-serif" font-weight="400" font-size="41" transform="matrix(6.12323e-17 -1 1 6.12323e-17 959.945 4509)">67 Byte</text></g><g clip-path="url(#clip24)"><text fill="#595959" font-family="Calibri,Calibri_MSFontService,sans-serif" font-weight="400" font-size="41" transform="matrix(6.12323e-17 -1 1 6.12323e-17 1039.86 4508)">1.53 KB</text></g><g clip-path="url(#clip25)"><text fill="#595959" font-family="Calibri,Calibri_MSFontService,sans-serif" font-weight="400" font-size="41" transform="matrix(6.12323e-17 -1 1 6.12323e-17 1119.78 4508)">17.5 KB</text></g><g clip-path="url(#clip26)"><text fill="#595959" font-family="Calibri,Calibri_MSFontService,sans-serif" font-weight="400" font-size="41" transform="matrix(6.12323e-17 -1 1 6.12323e-17 1199.7 4739)">16 KB (min. Entropie)</text></g><g clip-path="url(#clip27)"><text fill="#595959" font-family="Calibri,Calibri_MSFontService,sans-serif" font-weight="400" font-size="41" transform="matrix(6.12323e-17 -1 1 6.12323e-17 1279.61 4630)">16.8 KB (binär)</text></g><g clip-path="url(#clip28)"><text fill="#595959" font-family="Calibri,Calibri_MSFontService,sans-serif" font-weight="400" font-size="41" transform="matrix(6.12323e-17 -1 1 6.12323e-17 1359.53 4509)">67 Byte</text></g><g clip-path="url(#clip29)"><text fill="#595959" font-family="Calibri,Calibri_MSFontService,sans-serif" font-weight="400" font-size="41" transform="matrix(6.12323e-17 -1 1 6.12323e-17 1439.45 4508)">1.53 KB</text></g><g clip-path="url(#clip30)"><text fill="#595959" font-family="Calibri,Calibri_MSFontService,sans-serif" font-weight="400" font-size="41" transform="matrix(6.12323e-17 -1 1 6.12323e-17 1519.36 4508)">17.5 KB</text></g><g clip-path="url(#clip31)"><text fill="#595959" font-family="Calibri,Calibri_MSFontService,sans-serif" font-weight="400" font-size="41" transform="matrix(6.12323e-17 -1 1 6.12323e-17 1599.28 4739)">16 KB (min. Entropie)</text></g><g clip-path="url(#clip32)"><text fill="#595959" font-family="Calibri,Calibri_MSFontService,sans-serif" font-weight="400" font-size="41" transform="matrix(6.12323e-17 -1 1 6.12323e-17 1679.2 4630)">16.8 KB (binär)</text></g><g clip-path="url(#clip33)"><text fill="#595959" font-family="Calibri,Calibri_MSFontService,sans-serif" font-weight="400" font-size="41" transform="matrix(6.12323e-17 -1 1 6.12323e-17 1759.11 4509)">67 Byte</text></g><g clip-path="url(#clip34)"><text fill="#595959" font-family="Calibri,Calibri_MSFontService,sans-serif" font-weight="400" font-size="41" transform="matrix(6.12323e-17 -1 1 6.12323e-17 1839.03 4508)">1.53 KB</text></g><g clip-path="url(#clip35)"><text fill="#595959" font-family="Calibri,Calibri_MSFontService,sans-serif" font-weight="400" font-size="41" transform="matrix(6.12323e-17 -1 1 6.12323e-17 1918.95 4508)">17.5 KB</text></g><g clip-path="url(#clip36)"><text fill="#595959" font-family="Calibri,Calibri_MSFontService,sans-serif" font-weight="400" font-size="41" transform="matrix(6.12323e-17 -1 1 6.12323e-17 1998.87 4739)">16 KB (min. Entropie)</text></g><g clip-path="url(#clip37)"><text fill="#595959" font-family="Calibri,Calibri_MSFontService,sans-serif" font-weight="400" font-size="41" transform="matrix(6.12323e-17 -1 1 6.12323e-17 2078.78 4630)">16.8 KB (binär)</text></g><g clip-path="url(#clip38)"><text fill="#595959" font-family="Calibri,Calibri_MSFontService,sans-serif" font-weight="400" font-size="41" transform="matrix(6.12323e-17 -1 1 6.12323e-17 2158.7 4509)">67 Byte</text></g><g clip-path="url(#clip39)"><text fill="#595959" font-family="Calibri,Calibri_MSFontService,sans-serif" font-weight="400" font-size="41" transform="matrix(6.12323e-17 -1 1 6.12323e-17 2238.62 4508)">1.53 KB</text></g><g clip-path="url(#clip40)"><text fill="#595959" font-family="Calibri,Calibri_MSFontService,sans-serif" font-weight="400" font-size="41" transform="matrix(6.12323e-17 -1 1 6.12323e-17 2318.53 4508)">17.5 KB</text></g><g clip-path="url(#clip41)"><text fill="#595959" font-family="Calibri,Calibri_MSFontService,sans-serif" font-weight="400" font-size="41" transform="matrix(6.12323e-17 -1 1 6.12323e-17 2398.45 4739)">16 KB (min. Entropie)</text></g><g clip-path="url(#clip42)"><text fill="#595959" font-family="Calibri,Calibri_MSFontService,sans-serif" font-weight="400" font-size="41" transform="matrix(1 0 0 1 666.482 4807)">jsteg</text></g><g clip-path="url(#clip43)"><text fill="#595959" font-family="Calibri,Calibri_MSFontService,sans-serif" font-weight="400" font-size="41" transform="matrix(1 0 0 1 1030.38 4807)">outguess</text></g><g clip-path="url(#clip44)"><text fill="#595959" font-family="Calibri,Calibri_MSFontService,sans-serif" font-weight="400" font-size="41" transform="matrix(1 0 0 1 1387.1 4807)">outguess-0.13</text></g><g clip-path="url(#clip45)"><text fill="#595959" font-family="Calibri,Calibri_MSFontService,sans-serif" font-weight="400" font-size="41" transform="matrix(1 0 0 1 1833.5 4807)">steghide</text></g><g clip-path="url(#clip46)"><text fill="#595959" font-family="Calibri,Calibri_MSFontService,sans-serif" font-weight="400" font-size="41" transform="matrix(1 0 0 1 2248.01 4807)">f5</text></g><g clip-path="url(#clip47)"><text fill="#595959" font-family="Calibri,Calibri_MSFontService,sans-serif" font-weight="400" font-size="64" transform="matrix(1 0 0 1 803.172 3670)">durchschn. </text></g><g clip-path="url(#clip48)"><text fill="#595959" font-family="Calibri,Calibri_MSFontService,sans-serif" font-weight="700" font-size="64" transform="matrix(1 0 0 1 1103.22 3670)">Dateigröße</text></g><g clip-path="url(#clip49)"><text fill="#595959" font-family="Calibri,Calibri_MSFontService,sans-serif" font-weight="400" font-size="64" transform="matrix(1 0 0 1 1413.65 3670)">(Smartphone</text></g><g clip-path="url(#clip50)"><text fill="#595959" font-family="Calibri,Calibri_MSFontService,sans-serif" font-weight="400" font-size="64" transform="matrix(1 0 0 1 1755.36 3670)">-</text></g><g clip-path="url(#clip51)"><text fill="#595959" font-family="Calibri,Calibri_MSFontService,sans-serif" font-weight="400" font-size="64" transform="matrix(1 0 0 1 1775 3670)">Bilder)</text></g><g clip-path="url(#clip52)"><text fill="#595959" font-family="Calibri,Calibri_MSFontService,sans-serif" font-weight="400" font-size="46" transform="matrix(1 0 0 1 1328.15 3731)">in KB</text></g><g clip-path="url(#clip53)"><rect x="883.5" y="4872.5" width="22" height="22.9995" stroke="#333F50" stroke-width="3.4375" stroke-linejoin="round" stroke-miterlimit="10" fill="#8497B0"/></g><g clip-path="url(#clip54)"><text fill="#595959" font-family="Calibri,Calibri_MSFontService,sans-serif" font-weight="400" font-size="41" transform="matrix(1 0 0 1 915.444 4895)">kein Schlüssel</text></g><g clip-path="url(#clip55)"><rect x="1205.5" y="4872.5" width="23" height="22.9995" stroke="#BF9000" stroke-width="3.4375" stroke-linejoin="round" stroke-miterlimit="10" fill="#FFD966"/></g><g clip-path="url(#clip56)"><text fill="#595959" font-family="Calibri,Calibri_MSFontService,sans-serif" font-weight="400" font-size="41" transform="matrix(1 0 0 1 1238.04 4895)">4 Byte Schlüssel</text></g><g clip-path="url(#clip57)"><rect x="1563.5" y="4872.5" width="23" height="22.9995" stroke="#548235" stroke-width="3.4375" stroke-linejoin="round" stroke-miterlimit="10" fill="#A9D18E"/></g><g clip-path="url(#clip58)"><text fill="#595959" font-family="Calibri,Calibri_MSFontService,sans-serif" font-weight="400" font-size="41" transform="matrix(1 0 0 1 1595.91 4895)">50 Byte Schlüssel</text></g><rect x="275.5" y="3575.5" width="2200" height="1375" stroke="#D9D9D9" stroke-width="3.4375" stroke-linejoin="round" stroke-miterlimit="10" fill="none"/></g></svg>