<svg width="2203" height="1378" xmlns="http://www.w3.org/2000/svg" xmlns:xlink="http://www.w3.org/1999/xlink" xml:space="preserve" overflow="hidden"><defs><clipPath id="clip0"><rect x="2749" y="3574" width="2203" height="1378"/></clipPath><clipPath id="clip1"><rect x="2750" y="3575" width="2200" height="1375"/></clipPath><clipPath id="clip2"><rect x="2901" y="3800" width="2002" height="559"/></clipPath><clipPath id="clip3"><rect x="2901" y="3800" width="2002" height="559"/></clipPath><clipPath id="clip4"><rect x="2901" y="3800" width="2002" height="559"/></clipPath><clipPath id="clip5"><rect x="2750" y="3575" width="2200" height="1375"/></clipPath><clipPath id="clip6"><rect x="2750" y="3575" width="2200" height="1375"/></clipPath><clipPath id="clip7"><rect x="2750" y="3575" width="2200" height="1375"/></clipPath><clipPath id="clip8"><rect x="2750" y="3575" width="2200" height="1375"/></clipPath><clipPath id="clip9"><rect x="2750" y="3575" width="2200" height="1375"/></clipPath><clipPath id="clip10"><rect x="2750" y="3575" width="2200" height="1375"/></clipPath><clipPath id="clip11"><rect x="2750" y="3575" width="2200" height="1375"/></clipPath><clipPath id="clip12"><rect x="2750" y="3575" width="2200" height="1375"/></clipPath><clipPath id="clip13"><rect x="2750" y="3575" width="2200" height="1375"/></clipPath><clipPath id="clip14"><rect x="2750" y="3575" width="2200" height="1375"/></clipPath><clipPath id="clip15"><rect x="2750" y="3575" width="2200" height="1375"/></clipPath><clipPath id="clip16"><rect x="2750" y="3575" width="2200" height="1375"/></clipPath><clipPath id="clip17"><rect x="2750" y="3575" width="2200" height="1375"/></clipPath><clipPath id="clip18"><rect x="2750" y="3575" width="2200" height="1375"/></clipPath><clipPath id="clip19"><rect x="2750" y="3575" width="2200" height="1375"/></clipPath><clipPath id="clip20"><rect x="2750" y="3575" width="2200" height="1375"/></clipPath><clipPath id="clip21"><rect x="2750" y="3575" width="2200" height="1375"/></clipPath><clipPath id="clip22"><rect x="2750" y="3575" width="2200" height="1375"/></clipPath><clipPath id="clip23"><rect x="2750" y="3575" width="2200" height="1375"/></clipPath><clipPath id="clip24"><rect x="2750" y="3575" width="2200" height="1375"/></clipPath><clipPath id="clip25"><rect x="2750" y="3575" width="2200" height="1375"/></clipPath><clipPath id="clip26"><rect x="2750" y="3575" width="2200" height="1375"/></clipPath><clipPath id="clip27"><rect x="2750" y="3575" width="2200" height="1375"/></clipPath><clipPath id="clip28"><rect x="2750" y="3575" width="2200" height="1375"/></clipPath><clipPath id="clip29"><rect x="2750" y="3575" width="2200" height="1375"/></clipPath><clipPath id="clip30"><rect x="2750" y="3575" width="2200" height="1375"/></clipPath><clipPath id="clip31"><rect x="2750" y="3575" width="2200" height="1375"/></clipPath><clipPath id="clip32"><rect x="2750" y="3575" width="2200" height="1375"/></clipPath><clipPath id="clip33"><rect x="2750" y="3575" width="2200" height="1375"/></clipPath><clipPath id="clip34"><rect x="2750" y="3575" width="2200" height="1375"/></clipPath><clipPath id="clip35"><rect x="2750" y="3575" width="2200" height="1375"/></clipPath><clipPath id="clip36"><rect x="2750" y="3575" width="2200" height="1375"/></clipPath><clipPath id="clip37"><rect x="2750" y="3575" width="2200" height="1375"/></clipPath><clipPath id="clip38"><rect x="2750" y="3575" width="2200" height="1375"/></clipPath><clipPath id="clip39"><rect x="2750" y="3575" width="2200" height="1375"/></clipPath><clipPath id="clip40"><rect x="2750" y="3575" width="2200" height="1375"/></clipPath><clipPath id="clip41"><rect x="2750" y="3575" width="2200" height="1375"/></clipPath><clipPath id="clip42"><rect x="2750" y="3575" width="2200" height="1375"/></clipPath><clipPath id="clip43"><rect x="2750" y="3575" width="2200" height="1375"/></clipPath><clipPath id="clip44"><rect x="2750" y="3575" width="2200" height="1375"/></clipPath><clipPath id="clip45"><rect x="2750" y="3575" width="2200" height="1375"/></clipPath><clipPath id="clip46"><rect x="2750" y="3575" width="2200" height="1375"/></clipPath><clipPath id="clip47"><rect x="2750" y="3575" width="2200" height="1375"/></clipPath><clipPath id="clip48"><rect x="2750" y="3575" width="2200" height="1375"/></clipPath><clipPath id="clip49"><rect x="2750" y="3575" width="2200" height="1375"/></clipPath><clipPath id="clip50"><rect x="2750" y="3575" width="2200" height="1375"/></clipPath><clipPath id="clip51"><rect x="2750" y="3575" width="2200" height="1375"/></clipPath><clipPath id="clip52"><rect x="2750" y="3575" width="2200" height="1375"/></clipPath><clipPath id="clip53"><rect x="2750" y="3575" width="2200" height="1375"/></clipPath><clipPath id="clip54"><rect x="2750" y="3575" width="2200" height="1375"/></clipPath><clipPath id="clip55"><rect x="2750" y="3575" width="2200" height="1375"/></clipPath><clipPath id="clip56"><rect x="2750" y="3575" width="2200" height="1375"/></clipPath><clipPath id="clip57"><rect x="2750" y="3575" width="2200" height="1375"/></clipPath><clipPath id="clip58"><rect x="2750" y="3575" width="2200" height="1375"/></clipPath><clipPath id="clip59"><rect x="2750" y="3575" width="2200" height="1375"/></clipPath></defs><g clip-path="url(#clip0)" transform="translate(-2749 -3574)"><rect x="2750" y="3575" width="2200" height="1375" fill="#FFFFFF"/><g clip-path="url(#clip1)"><path d="M2901.5 4276.64 4899.5 4276.64M2901.5 4197.64 4899.5 4197.64M2901.5 4117.64 4899.5 4117.64M2901.5 4038.63 4899.5 4038.63M2901.5 3959.63 4899.5 3959.63M2901.5 3880.63 4899.5 3880.63M2901.5 3800.5 4899.5 3800.5" stroke="#D9D9D9" stroke-width="3.4375" stroke-linejoin="round" stroke-miterlimit="10" fill="none"/></g><g clip-path="url(#clip2)"><path d="M2916.6 3877.63 2930.6 3877.63 2930.6 4356.5 2916.6 4356.5ZM2996.6 4266.64 3010.6 4266.64 3010.6 4356.5 2996.6 4356.5ZM3076.6 4266.64 3090.6 4266.64 3090.6 4356.5 3076.6 4356.5ZM3156.6 4266.64 3170.6 4266.64 3170.6 4356.5 3156.6 4356.5ZM3236.61 4266.64 3250.61 4266.64 3250.61 4356.5 3236.61 4356.5ZM3316.61 4266.64 3330.61 4266.64 3330.61 4356.5 3316.61 4356.5ZM3396.61 4278.64 3410.61 4278.64 3410.61 4356.5 3396.61 4356.5ZM3476.61 4275.64 3490.61 4275.64 3490.61 4356.5 3476.61 4356.5ZM3556.62 4248.64 3570.62 4248.64 3570.62 4356.5 3556.62 4356.5ZM3636.62 4249.64 3650.62 4249.64 3650.62 4356.5 3636.62 4356.5ZM3715.62 4248.64 3729.62 4248.64 3729.62 4356.5 3715.62 4356.5ZM3795.62 4266.64 3809.62 4266.64 3809.62 4356.5 3795.62 4356.5ZM3875.63 4266.64 3889.63 4266.64 3889.63 4356.5 3875.63 4356.5ZM3955.63 4249.64 3969.63 4249.64 3969.63 4356.5 3955.63 4356.5ZM4035.63 4249.64 4049.63 4249.64 4049.63 4356.5 4035.63 4356.5ZM4115.64 4249.64 4129.64 4249.64 4129.64 4356.5 4115.64 4356.5Z" stroke="#333F50" stroke-width="3.4375" stroke-linejoin="round" stroke-miterlimit="10" fill="#8497B0"/></g><g clip-path="url(#clip3)"><path d="M3414.61 4278.64 3427.61 4278.64 3427.61 4356.5 3414.61 4356.5ZM3493.61 4275.64 3507.62 4275.64 3507.62 4356.5 3493.61 4356.5ZM3573.62 4248.64 3587.62 4248.64 3587.62 4356.5 3573.62 4356.5ZM3653.62 4249.64 3667.62 4249.64 3667.62 4356.5 3653.62 4356.5ZM3733.62 4248.64 3747.62 4248.64 3747.62 4356.5 3733.62 4356.5ZM3813.63 4266.64 3827.63 4266.64 3827.63 4356.5 3813.63 4356.5ZM3893.63 4266.64 3907.63 4266.64 3907.63 4356.5 3893.63 4356.5ZM3973.63 4249.64 3987.63 4249.64 3987.63 4356.5 3973.63 4356.5ZM4053.63 4249.64 4067.63 4249.64 4067.63 4356.5 4053.63 4356.5ZM4133.64 4249.64 4147.64 4249.64 4147.64 4356.5 4133.64 4356.5ZM4213.64 3853.63 4227.64 3853.63 4227.64 4356.5 4213.64 4356.5ZM4293.64 3853.63 4307.64 3853.63 4307.64 4356.5 4293.64 4356.5ZM4373.64 3853.63 4386.64 3853.63 4386.64 4356.5 4373.64 4356.5ZM4452.65 3853.63 4466.65 3853.63 4466.65 4356.5 4452.65 4356.5ZM4532.65 3853.63 4546.65 3853.63 4546.65 4356.5 4532.65 4356.5Z" stroke="#BF9000" stroke-width="3.4375" stroke-linejoin="round" stroke-miterlimit="10" fill="#FFD966"/></g><g clip-path="url(#clip4)"><path d="M3431.61 4278.64 3445.61 4278.64 3445.61 4356.5 3431.61 4356.5ZM3511.62 4275.64 3525.62 4275.64 3525.62 4356.5 3511.62 4356.5ZM3591.62 4248.64 3605.62 4248.64 3605.62 4356.5 3591.62 4356.5ZM3671.62 4249.64 3685.62 4249.64 3685.62 4356.5 3671.62 4356.5ZM3751.62 4248.64 3765.62 4248.64 3765.62 4356.5 3751.62 4356.5ZM3831.63 4266.64 3845.63 4266.64 3845.63 4356.5 3831.63 4356.5ZM3911.63 4266.64 3925.63 4266.64 3925.63 4356.5 3911.63 4356.5ZM3991.63 4249.64 4005.63 4249.64 4005.63 4356.5 3991.63 4356.5ZM4071.63 4249.64 4085.63 4249.64 4085.63 4356.5 4071.63 4356.5ZM4150.64 4249.64 4164.64 4249.64 4164.64 4356.5 4150.64 4356.5ZM4230.64 3853.63 4244.64 3853.63 4244.64 4356.5 4230.64 4356.5ZM4310.64 3853.63 4324.64 3853.63 4324.64 4356.5 4310.64 4356.5ZM4390.64 3853.63 4404.64 3853.63 4404.64 4356.5 4390.64 4356.5ZM4470.65 3853.63 4484.65 3853.63 4484.65 4356.5 4470.65 4356.5ZM4550.65 3853.63 4564.65 3853.63 4564.65 4356.5 4550.65 4356.5Z" stroke="#548235" stroke-width="3.4375" stroke-linejoin="round" stroke-miterlimit="10" fill="#A9D18E"/></g><g clip-path="url(#clip5)"><path d="M2901.5 4356.5 4899.5 4356.5" stroke="#D9D9D9" stroke-width="3.4375" stroke-linejoin="round" stroke-miterlimit="10" fill="none" fill-rule="evenodd"/></g><g clip-path="url(#clip6)"><path d="M2901.5 4356.5 2901.5 4742.5M2981.6 4356.5 2981.6 4742.5M3381.61 4356.5 3381.61 4742.5M3780.62 4356.5 3780.62 4742.5M4180.64 4356.5 4180.64 4742.5M4579.65 4356.5 4579.65 4742.5M4899.5 4356.5 4899.5 4742.5" stroke="#D9D9D9" stroke-width="3.4375" stroke-linejoin="round" stroke-miterlimit="10" fill="none"/></g><g clip-path="url(#clip7)"><path d="M2901.5 4742.5 2901.5 4822.5M2981.6 4742.5 2981.6 4822.5M3381.61 4742.5 3381.61 4822.5M3780.62 4742.5 3780.62 4822.5M4180.64 4742.5 4180.64 4822.5M4579.65 4742.5 4579.65 4822.5M4899.5 4742.5 4899.5 4822.5" stroke="#D9D9D9" stroke-width="3.4375" stroke-linejoin="round" stroke-miterlimit="10" fill="none"/></g><g clip-path="url(#clip8)"><text fill="#595959" font-family="Calibri,Calibri_MSFontService,sans-serif" font-weight="400" font-size="41" transform="matrix(1 0 0 1 2842.49 4368)">0</text></g><g clip-path="url(#clip9)"><text fill="#595959" font-family="Calibri,Calibri_MSFontService,sans-serif" font-weight="400" font-size="41" transform="matrix(1 0 0 1 2779.79 4288)">1000</text></g><g clip-path="url(#clip10)"><text fill="#595959" font-family="Calibri,Calibri_MSFontService,sans-serif" font-weight="400" font-size="41" transform="matrix(1 0 0 1 2779.79 4209)">2000</text></g><g clip-path="url(#clip11)"><text fill="#595959" font-family="Calibri,Calibri_MSFontService,sans-serif" font-weight="400" font-size="41" transform="matrix(1 0 0 1 2779.79 4130)">3000</text></g><g clip-path="url(#clip12)"><text fill="#595959" font-family="Calibri,Calibri_MSFontService,sans-serif" font-weight="400" font-size="41" transform="matrix(1 0 0 1 2779.79 4050)">4000</text></g><g clip-path="url(#clip13)"><text fill="#595959" font-family="Calibri,Calibri_MSFontService,sans-serif" font-weight="400" font-size="41" transform="matrix(1 0 0 1 2779.79 3971)">5000</text></g><g clip-path="url(#clip14)"><text fill="#595959" font-family="Calibri,Calibri_MSFontService,sans-serif" font-weight="400" font-size="41" transform="matrix(1 0 0 1 2779.79 3892)">6000</text></g><g clip-path="url(#clip15)"><text fill="#595959" font-family="Calibri,Calibri_MSFontService,sans-serif" font-weight="400" font-size="41" transform="matrix(1 0 0 1 2779.79 3812)">7000</text></g><g clip-path="url(#clip16)"><text fill="#595959" font-family="Calibri,Calibri_MSFontService,sans-serif" font-weight="400" font-size="41" transform="matrix(6.12323e-17 -1 1 6.12323e-17 2955.44 4589)">Original-Bild</text></g><g clip-path="url(#clip17)"><text fill="#595959" font-family="Calibri,Calibri_MSFontService,sans-serif" font-weight="400" font-size="41" transform="matrix(6.12323e-17 -1 1 6.12323e-17 3035.36 4509)">67 Byte</text></g><g clip-path="url(#clip18)"><text fill="#595959" font-family="Calibri,Calibri_MSFontService,sans-serif" font-weight="400" font-size="41" transform="matrix(6.12323e-17 -1 1 6.12323e-17 3115.28 4508)">1.53 KB</text></g><g clip-path="url(#clip19)"><text fill="#595959" font-family="Calibri,Calibri_MSFontService,sans-serif" font-weight="400" font-size="41" transform="matrix(6.12323e-17 -1 1 6.12323e-17 3195.19 4508)">17.5 KB</text></g><g clip-path="url(#clip20)"><text fill="#595959" font-family="Calibri,Calibri_MSFontService,sans-serif" font-weight="400" font-size="41" transform="matrix(6.12323e-17 -1 1 6.12323e-17 3275.11 4739)">16 KB (min. Entropie)</text></g><g clip-path="url(#clip21)"><text fill="#595959" font-family="Calibri,Calibri_MSFontService,sans-serif" font-weight="400" font-size="41" transform="matrix(6.12323e-17 -1 1 6.12323e-17 3355.03 4630)">16.8 KB (binär)</text></g><g clip-path="url(#clip22)"><text fill="#595959" font-family="Calibri,Calibri_MSFontService,sans-serif" font-weight="400" font-size="41" transform="matrix(6.12323e-17 -1 1 6.12323e-17 3434.95 4509)">67 Byte</text></g><g clip-path="url(#clip23)"><text fill="#595959" font-family="Calibri,Calibri_MSFontService,sans-serif" font-weight="400" font-size="41" transform="matrix(6.12323e-17 -1 1 6.12323e-17 3514.86 4508)">1.53 KB</text></g><g clip-path="url(#clip24)"><text fill="#595959" font-family="Calibri,Calibri_MSFontService,sans-serif" font-weight="400" font-size="41" transform="matrix(6.12323e-17 -1 1 6.12323e-17 3594.78 4508)">17.5 KB</text></g><g clip-path="url(#clip25)"><text fill="#595959" font-family="Calibri,Calibri_MSFontService,sans-serif" font-weight="400" font-size="41" transform="matrix(6.12323e-17 -1 1 6.12323e-17 3674.7 4739)">16 KB (min. Entropie)</text></g><g clip-path="url(#clip26)"><text fill="#595959" font-family="Calibri,Calibri_MSFontService,sans-serif" font-weight="400" font-size="41" transform="matrix(6.12323e-17 -1 1 6.12323e-17 3754.61 4630)">16.8 KB (binär)</text></g><g clip-path="url(#clip27)"><text fill="#595959" font-family="Calibri,Calibri_MSFontService,sans-serif" font-weight="400" font-size="41" transform="matrix(6.12323e-17 -1 1 6.12323e-17 3834.53 4509)">67 Byte</text></g><g clip-path="url(#clip28)"><text fill="#595959" font-family="Calibri,Calibri_MSFontService,sans-serif" font-weight="400" font-size="41" transform="matrix(6.12323e-17 -1 1 6.12323e-17 3914.45 4508)">1.53 KB</text></g><g clip-path="url(#clip29)"><text fill="#595959" font-family="Calibri,Calibri_MSFontService,sans-serif" font-weight="400" font-size="41" transform="matrix(6.12323e-17 -1 1 6.12323e-17 3994.36 4508)">17.5 KB</text></g><g clip-path="url(#clip30)"><text fill="#595959" font-family="Calibri,Calibri_MSFontService,sans-serif" font-weight="400" font-size="41" transform="matrix(6.12323e-17 -1 1 6.12323e-17 4074.28 4739)">16 KB (min. Entropie)</text></g><g clip-path="url(#clip31)"><text fill="#595959" font-family="Calibri,Calibri_MSFontService,sans-serif" font-weight="400" font-size="41" transform="matrix(6.12323e-17 -1 1 6.12323e-17 4154.2 4630)">16.8 KB (binär)</text></g><g clip-path="url(#clip32)"><text fill="#595959" font-family="Calibri,Calibri_MSFontService,sans-serif" font-weight="400" font-size="41" transform="matrix(6.12323e-17 -1 1 6.12323e-17 4234.11 4509)">67 Byte</text></g><g clip-path="url(#clip33)"><text fill="#595959" font-family="Calibri,Calibri_MSFontService,sans-serif" font-weight="400" font-size="41" transform="matrix(6.12323e-17 -1 1 6.12323e-17 4314.03 4508)">1.53 KB</text></g><g clip-path="url(#clip34)"><text fill="#595959" font-family="Calibri,Calibri_MSFontService,sans-serif" font-weight="400" font-size="41" transform="matrix(6.12323e-17 -1 1 6.12323e-17 4393.95 4508)">17.5 KB</text></g><g clip-path="url(#clip35)"><text fill="#595959" font-family="Calibri,Calibri_MSFontService,sans-serif" font-weight="400" font-size="41" transform="matrix(6.12323e-17 -1 1 6.12323e-17 4473.87 4739)">16 KB (min. Entropie)</text></g><g clip-path="url(#clip36)"><text fill="#595959" font-family="Calibri,Calibri_MSFontService,sans-serif" font-weight="400" font-size="41" transform="matrix(6.12323e-17 -1 1 6.12323e-17 4553.78 4630)">16.8 KB (binär)</text></g><g clip-path="url(#clip37)"><text fill="#595959" font-family="Calibri,Calibri_MSFontService,sans-serif" font-weight="400" font-size="41" transform="matrix(6.12323e-17 -1 1 6.12323e-17 4633.7 4509)">67 Byte</text></g><g clip-path="url(#clip38)"><text fill="#595959" font-family="Calibri,Calibri_MSFontService,sans-serif" font-weight="400" font-size="41" transform="matrix(6.12323e-17 -1 1 6.12323e-17 4713.62 4508)">1.53 KB</text></g><g clip-path="url(#clip39)"><text fill="#595959" font-family="Calibri,Calibri_MSFontService,sans-serif" font-weight="400" font-size="41" transform="matrix(6.12323e-17 -1 1 6.12323e-17 4793.53 4508)">17.5 KB</text></g><g clip-path="url(#clip40)"><text fill="#595959" font-family="Calibri,Calibri_MSFontService,sans-serif" font-weight="400" font-size="41" transform="matrix(6.12323e-17 -1 1 6.12323e-17 4873.45 4739)">16 KB (min. Entropie)</text></g><g clip-path="url(#clip41)"><text fill="#595959" font-family="Calibri,Calibri_MSFontService,sans-serif" font-weight="400" font-size="41" transform="matrix(1 0 0 1 3141.48 4807)">jsteg</text></g><g clip-path="url(#clip42)"><text fill="#595959" font-family="Calibri,Calibri_MSFontService,sans-serif" font-weight="400" font-size="41" transform="matrix(1 0 0 1 3505.38 4807)">outguess</text></g><g clip-path="url(#clip43)"><text fill="#595959" font-family="Calibri,Calibri_MSFontService,sans-serif" font-weight="400" font-size="41" transform="matrix(1 0 0 1 3862.1 4807)">outguess-0.13</text></g><g clip-path="url(#clip44)"><text fill="#595959" font-family="Calibri,Calibri_MSFontService,sans-serif" font-weight="400" font-size="41" transform="matrix(1 0 0 1 4308.5 4807)">steghide</text></g><g clip-path="url(#clip45)"><text fill="#595959" font-family="Calibri,Calibri_MSFontService,sans-serif" font-weight="400" font-size="41" transform="matrix(1 0 0 1 4723.01 4807)">f5</text></g><g clip-path="url(#clip46)"><text fill="#595959" font-family="Calibri,Calibri_MSFontService,sans-serif" font-weight="400" font-size="64" transform="matrix(1 0 0 1 3231.75 3670)">durchschn. </text></g><g clip-path="url(#clip47)"><text fill="#595959" font-family="Calibri,Calibri_MSFontService,sans-serif" font-weight="700" font-size="64" transform="matrix(1 0 0 1 3531.8 3670)">Dateigröße</text></g><g clip-path="url(#clip48)"><text fill="#595959" font-family="Calibri,Calibri_MSFontService,sans-serif" font-weight="400" font-size="64" transform="matrix(1 0 0 1 3842.23 3670)">(High</text></g><g clip-path="url(#clip49)"><text fill="#595959" font-family="Calibri,Calibri_MSFontService,sans-serif" font-weight="400" font-size="64" transform="matrix(1 0 0 1 3980.33 3670)">-</text></g><g clip-path="url(#clip50)"><text fill="#595959" font-family="Calibri,Calibri_MSFontService,sans-serif" font-weight="400" font-size="64" transform="matrix(1 0 0 1 3999.97 3670)">Resolution</text></g><g clip-path="url(#clip51)"><text fill="#595959" font-family="Calibri,Calibri_MSFontService,sans-serif" font-weight="400" font-size="64" transform="matrix(1 0 0 1 4276.78 3670)">-</text></g><g clip-path="url(#clip52)"><text fill="#595959" font-family="Calibri,Calibri_MSFontService,sans-serif" font-weight="400" font-size="64" transform="matrix(1 0 0 1 4296.42 3670)">Bilder)</text></g><g clip-path="url(#clip53)"><text fill="#595959" font-family="Calibri,Calibri_MSFontService,sans-serif" font-weight="400" font-size="46" transform="matrix(1 0 0 1 3803.14 3731)">in KB</text></g><g clip-path="url(#clip54)"><rect x="3358.5" y="4872.5" width="22" height="22.9995" stroke="#333F50" stroke-width="3.4375" stroke-linejoin="round" stroke-miterlimit="10" fill="#8497B0"/></g><g clip-path="url(#clip55)"><text fill="#595959" font-family="Calibri,Calibri_MSFontService,sans-serif" font-weight="400" font-size="41" transform="matrix(1 0 0 1 3390.44 4895)">kein Schlüssel</text></g><g clip-path="url(#clip56)"><rect x="3680.5" y="4872.5" width="23" height="22.9995" stroke="#BF9000" stroke-width="3.4375" stroke-linejoin="round" stroke-miterlimit="10" fill="#FFD966"/></g><g clip-path="url(#clip57)"><text fill="#595959" font-family="Calibri,Calibri_MSFontService,sans-serif" font-weight="400" font-size="41" transform="matrix(1 0 0 1 3713.04 4895)">4 Byte Schlüssel</text></g><g clip-path="url(#clip58)"><rect x="4038.5" y="4872.5" width="23" height="22.9995" stroke="#548235" stroke-width="3.4375" stroke-linejoin="round" stroke-miterlimit="10" fill="#A9D18E"/></g><g clip-path="url(#clip59)"><text fill="#595959" font-family="Calibri,Calibri_MSFontService,sans-serif" font-weight="400" font-size="41" transform="matrix(1 0 0 1 4070.91 4895)">50 Byte Schlüssel</text></g><rect x="2750.5" y="3575.5" width="2200" height="1375" stroke="#D9D9D9" stroke-width="3.4375" stroke-linejoin="round" stroke-miterlimit="10" fill="none"/></g></svg>