<svg width="2203" height="1378" xmlns="http://www.w3.org/2000/svg" xmlns:xlink="http://www.w3.org/1999/xlink" xml:space="preserve" overflow="hidden"><defs><clipPath id="clip0"><rect x="274" y="3574" width="2203" height="1378"/></clipPath><clipPath id="clip1"><rect x="275" y="3575" width="2200" height="1375"/></clipPath><clipPath id="clip2"><rect x="437" y="3744" width="1991" height="615"/></clipPath><clipPath id="clip3"><rect x="437" y="3744" width="1991" height="615"/></clipPath><clipPath id="clip4"><rect x="437" y="3744" width="1991" height="615"/></clipPath><clipPath id="clip5"><rect x="275" y="3575" width="2200" height="1375"/></clipPath><clipPath id="clip6"><rect x="275" y="3575" width="2200" height="1375"/></clipPath><clipPath id="clip7"><rect x="275" y="3575" width="2200" height="1375"/></clipPath><clipPath id="clip8"><rect x="275" y="3575" width="2200" height="1375"/></clipPath><clipPath id="clip9"><rect x="275" y="3575" width="2200" height="1375"/></clipPath><clipPath id="clip10"><rect x="275" y="3575" width="2200" height="1375"/></clipPath><clipPath id="clip11"><rect x="275" y="3575" width="2200" height="1375"/></clipPath><clipPath id="clip12"><rect x="275" y="3575" width="2200" height="1375"/></clipPath><clipPath id="clip13"><rect x="275" y="3575" width="2200" height="1375"/></clipPath><clipPath id="clip14"><rect x="275" y="3575" width="2200" height="1375"/></clipPath><clipPath id="clip15"><rect x="275" y="3575" width="2200" height="1375"/></clipPath><clipPath id="clip16"><rect x="275" y="3575" width="2200" height="1375"/></clipPath><clipPath id="clip17"><rect x="275" y="3575" width="2200" height="1375"/></clipPath><clipPath id="clip18"><rect x="275" y="3575" width="2200" height="1375"/></clipPath><clipPath id="clip19"><rect x="275" y="3575" width="2200" height="1375"/></clipPath><clipPath id="clip20"><rect x="275" y="3575" width="2200" height="1375"/></clipPath><clipPath id="clip21"><rect x="275" y="3575" width="2200" height="1375"/></clipPath><clipPath id="clip22"><rect x="275" y="3575" width="2200" height="1375"/></clipPath><clipPath id="clip23"><rect x="275" y="3575" width="2200" height="1375"/></clipPath><clipPath id="clip24"><rect x="275" y="3575" width="2200" height="1375"/></clipPath><clipPath id="clip25"><rect x="275" y="3575" width="2200" height="1375"/></clipPath><clipPath id="clip26"><rect x="275" y="3575" width="2200" height="1375"/></clipPath><clipPath id="clip27"><rect x="275" y="3575" width="2200" height="1375"/></clipPath><clipPath id="clip28"><rect x="275" y="3575" width="2200" height="1375"/></clipPath><clipPath id="clip29"><rect x="275" y="3575" width="2200" height="1375"/></clipPath><clipPath id="clip30"><rect x="275" y="3575" width="2200" height="1375"/></clipPath><clipPath id="clip31"><rect x="275" y="3575" width="2200" height="1375"/></clipPath><clipPath id="clip32"><rect x="275" y="3575" width="2200" height="1375"/></clipPath><clipPath id="clip33"><rect x="275" y="3575" width="2200" height="1375"/></clipPath><clipPath id="clip34"><rect x="275" y="3575" width="2200" height="1375"/></clipPath><clipPath id="clip35"><rect x="275" y="3575" width="2200" height="1375"/></clipPath><clipPath id="clip36"><rect x="275" y="3575" width="2200" height="1375"/></clipPath><clipPath id="clip37"><rect x="275" y="3575" width="2200" height="1375"/></clipPath><clipPath id="clip38"><rect x="275" y="3575" width="2200" height="1375"/></clipPath><clipPath id="clip39"><rect x="275" y="3575" width="2200" height="1375"/></clipPath><clipPath id="clip40"><rect x="275" y="3575" width="2200" height="1375"/></clipPath><clipPath id="clip41"><rect x="275" y="3575" width="2200" height="1375"/></clipPath><clipPath id="clip42"><rect x="275" y="3575" width="2200" height="1375"/></clipPath><clipPath id="clip43"><rect x="275" y="3575" width="2200" height="1375"/></clipPath><clipPath id="clip44"><rect x="275" y="3575" width="2200" height="1375"/></clipPath><clipPath id="clip45"><rect x="275" y="3575" width="2200" height="1375"/></clipPath><clipPath id="clip46"><rect x="275" y="3575" width="2200" height="1375"/></clipPath><clipPath id="clip47"><rect x="275" y="3575" width="2200" height="1375"/></clipPath><clipPath id="clip48"><rect x="275" y="3575" width="2200" height="1375"/></clipPath><clipPath id="clip49"><rect x="275" y="3575" width="2200" height="1375"/></clipPath><clipPath id="clip50"><rect x="275" y="3575" width="2200" height="1375"/></clipPath><clipPath id="clip51"><rect x="275" y="3575" width="2200" height="1375"/></clipPath><clipPath id="clip52"><rect x="275" y="3575" width="2200" height="1375"/></clipPath><clipPath id="clip53"><rect x="275" y="3575" width="2200" height="1375"/></clipPath><clipPath id="clip54"><rect x="275" y="3575" width="2200" height="1375"/></clipPath><clipPath id="clip55"><rect x="275" y="3575" width="2200" height="1375"/></clipPath><clipPath id="clip56"><rect x="275" y="3575" width="2200" height="1375"/></clipPath><clipPath id="clip57"><rect x="275" y="3575" width="2200" height="1375"/></clipPath></defs><g clip-path="url(#clip0)" transform="translate(-274 -3574)"><rect x="275" y="3575" width="2200" height="1375" fill="#FFFFFF"/><g clip-path="url(#clip1)"><path d="M437.5 4279.64 2424.5 4279.64M437.5 4203.64 2424.5 4203.64M437.5 4126.64 2424.5 4126.64M437.5 4050.63 2424.5 4050.63M437.5 3973.63 2424.5 3973.63M437.5 3897.63 2424.5 3897.63M437.5 3821.63 2424.5 3821.63M437.5 3744.5 2424.5 3744.5" stroke="#D9D9D9" stroke-width="3.4375" stroke-linejoin="round" stroke-miterlimit="10" fill="none"/></g><g clip-path="url(#clip2)"><path d="M452.515 4203.64 466.515 4203.64 466.515 4356.5 452.515 4356.5ZM531.518 4198.64 545.518 4198.64 545.518 4356.5 531.518 4356.5ZM611.52 4177.64 625.521 4177.64 625.521 4356.5 611.52 4356.5ZM690.523 4177.64 704.523 4177.64 704.523 4356.5 690.523 4356.5ZM770.525 4181.64 784.526 4181.64 784.526 4356.5 770.525 4356.5ZM849.528 4183.64 863.529 4183.64 863.529 4356.5 849.528 4356.5ZM929.531 4218.64 943.531 4218.64 943.531 4356.5 929.531 4356.5ZM1008.53 4209.64 1022.53 4209.64 1022.53 4356.5 1008.53 4356.5ZM1088.54 3780.62 1102.54 3780.62 1102.54 4356.5 1088.54 4356.5ZM1167.54 3781.62 1181.54 3781.62 1181.54 4356.5 1167.54 4356.5ZM1247.54 3781.62 1261.54 3781.62 1261.54 4356.5 1247.54 4356.5ZM1326.54 4158.64 1340.54 4158.64 1340.54 4356.5 1326.54 4356.5ZM1406.55 4007.63 1420.55 4007.63 1420.55 4356.5 1406.55 4356.5ZM1485.55 3836.63 1499.55 3836.63 1499.55 4356.5 1485.55 4356.5ZM1565.55 3893.63 1579.55 3893.63 1579.55 4356.5 1565.55 4356.5ZM1644.55 3892.63 1658.55 3892.63 1658.55 4356.5 1644.55 4356.5ZM2121.57 3956.63 2135.57 3956.63 2135.57 4356.5 2121.57 4356.5ZM2201.57 3955.63 2215.57 3955.63 2215.57 4356.5 2201.57 4356.5ZM2280.57 4022.63 2294.58 4022.63 2294.58 4356.5 2280.57 4356.5ZM2360.58 4023.63 2374.58 4023.63 2374.58 4356.5 2360.58 4356.5Z" stroke="#333F50" stroke-width="3.4375" stroke-linejoin="round" stroke-miterlimit="10" fill="#8497B0"/></g><g clip-path="url(#clip3)"><path d="M946.531 4218.64 960.532 4218.64 960.532 4356.5 946.531 4356.5ZM1026.53 4208.64 1040.53 4208.64 1040.53 4356.5 1026.53 4356.5ZM1105.54 3780.62 1119.54 3780.62 1119.54 4356.5 1105.54 4356.5ZM1185.54 3781.62 1199.54 3781.62 1199.54 4356.5 1185.54 4356.5ZM1264.54 3781.62 1278.54 3781.62 1278.54 4356.5 1264.54 4356.5ZM1344.54 4158.64 1358.54 4158.64 1358.54 4356.5 1344.54 4356.5ZM1423.55 4007.63 1437.55 4007.63 1437.55 4356.5 1423.55 4356.5ZM1503.55 3837.63 1517.55 3837.63 1517.55 4356.5 1503.55 4356.5ZM1582.55 3893.63 1596.55 3893.63 1596.55 4356.5 1582.55 4356.5ZM1662.55 3893.63 1676.56 3893.63 1676.56 4356.5 1662.55 4356.5ZM1741.56 4049.63 1755.56 4049.63 1755.56 4356.5 1741.56 4356.5ZM1821.56 4049.63 1835.56 4049.63 1835.56 4356.5 1821.56 4356.5ZM1900.56 4049.63 1914.56 4049.63 1914.56 4356.5 1900.56 4356.5ZM1980.57 4049.63 1994.57 4049.63 1994.57 4356.5 1980.57 4356.5ZM2059.57 4048.63 2073.57 4048.63 2073.57 4356.5 2059.57 4356.5ZM2139.57 3956.63 2153.57 3956.63 2153.57 4356.5 2139.57 4356.5ZM2218.57 3957.63 2232.57 3957.63 2232.57 4356.5 2218.57 4356.5ZM2298.58 4013.63 2312.58 4013.63 2312.58 4356.5 2298.58 4356.5ZM2377.58 4019.63 2391.58 4019.63 2391.58 4356.5 2377.58 4356.5Z" stroke="#BF9000" stroke-width="3.4375" stroke-linejoin="round" stroke-miterlimit="10" fill="#FFD966"/></g><g clip-path="url(#clip4)"><path d="M964.532 4217.64 978.532 4217.64 978.532 4356.5 964.532 4356.5ZM1043.53 4208.64 1057.53 4208.64 1057.53 4356.5 1043.53 4356.5ZM1123.54 3780.62 1137.54 3780.62 1137.54 4356.5 1123.54 4356.5ZM1202.54 3780.62 1216.54 3780.62 1216.54 4356.5 1202.54 4356.5ZM1282.54 3781.62 1296.54 3781.62 1296.54 4356.5 1282.54 4356.5ZM1361.54 4158.64 1375.55 4158.64 1375.55 4356.5 1361.54 4356.5ZM1441.55 4007.63 1455.55 4007.63 1455.55 4356.5 1441.55 4356.5ZM1520.55 3836.63 1534.55 3836.63 1534.55 4356.5 1520.55 4356.5ZM1600.55 3893.63 1614.55 3893.63 1614.55 4356.5 1600.55 4356.5ZM1679.56 3893.63 1693.56 3893.63 1693.56 4356.5 1679.56 4356.5ZM1759.56 4202.64 1773.56 4202.64 1773.56 4356.5 1759.56 4356.5ZM1838.56 4202.64 1852.56 4202.64 1852.56 4356.5 1838.56 4356.5ZM1918.56 4201.64 1932.56 4201.64 1932.56 4356.5 1918.56 4356.5ZM1997.57 4202.64 2011.57 4202.64 2011.57 4356.5 1997.57 4356.5ZM2077.57 4048.63 2091.57 4048.63 2091.57 4356.5 2077.57 4356.5ZM2156.57 3953.63 2170.57 3953.63 2170.57 4356.5 2156.57 4356.5ZM2236.57 3964.63 2250.57 3964.63 2250.57 4356.5 2236.57 4356.5ZM2315.58 4028.63 2329.58 4028.63 2329.58 4356.5 2315.58 4356.5ZM2395.58 4022.63 2409.58 4022.63 2409.58 4356.5 2395.58 4356.5Z" stroke="#548235" stroke-width="3.4375" stroke-linejoin="round" stroke-miterlimit="10" fill="#A9D18E"/></g><g clip-path="url(#clip5)"><path d="M437.5 4356.5 2424.5 4356.5" stroke="#D9D9D9" stroke-width="3.4375" stroke-linejoin="round" stroke-miterlimit="10" fill="none" fill-rule="evenodd"/></g><g clip-path="url(#clip6)"><path d="M437.5 4356.5 437.5 4742.5M516.517 4356.5 516.517 4742.5M914.53 4356.5 914.53 4742.5M1311.54 4356.5 1311.54 4742.5M1709.56 4356.5 1709.56 4742.5M2106.57 4356.5 2106.57 4742.5M2424.5 4356.5 2424.5 4742.5" stroke="#D9D9D9" stroke-width="3.4375" stroke-linejoin="round" stroke-miterlimit="10" fill="none"/></g><g clip-path="url(#clip7)"><path d="M437.5 4742.5 437.5 4822.5M516.517 4742.5 516.517 4822.5M914.53 4742.5 914.53 4822.5M1311.54 4742.5 1311.54 4822.5M1709.56 4742.5 1709.56 4822.5M2106.57 4742.5 2106.57 4822.5M2424.5 4742.5 2424.5 4822.5" stroke="#D9D9D9" stroke-width="3.4375" stroke-linejoin="round" stroke-miterlimit="10" fill="none"/></g><g clip-path="url(#clip8)"><text fill="#595959" font-family="Calibri,Calibri_MSFontService,sans-serif" font-weight="400" font-size="41" transform="matrix(1 0 0 1 304.792 4368)">0.914</text></g><g clip-path="url(#clip9)"><text fill="#595959" font-family="Calibri,Calibri_MSFontService,sans-serif" font-weight="400" font-size="41" transform="matrix(1 0 0 1 304.792 4291)">0.916</text></g><g clip-path="url(#clip10)"><text fill="#595959" font-family="Calibri,Calibri_MSFontService,sans-serif" font-weight="400" font-size="41" transform="matrix(1 0 0 1 304.792 4215)">0.918</text></g><g clip-path="url(#clip11)"><text fill="#595959" font-family="Calibri,Calibri_MSFontService,sans-serif" font-weight="400" font-size="41" transform="matrix(1 0 0 1 325.692 4138)">0.92</text></g><g clip-path="url(#clip12)"><text fill="#595959" font-family="Calibri,Calibri_MSFontService,sans-serif" font-weight="400" font-size="41" transform="matrix(1 0 0 1 304.792 4062)">0.922</text></g><g clip-path="url(#clip13)"><text fill="#595959" font-family="Calibri,Calibri_MSFontService,sans-serif" font-weight="400" font-size="41" transform="matrix(1 0 0 1 304.792 3986)">0.924</text></g><g clip-path="url(#clip14)"><text fill="#595959" font-family="Calibri,Calibri_MSFontService,sans-serif" font-weight="400" font-size="41" transform="matrix(1 0 0 1 304.792 3909)">0.926</text></g><g clip-path="url(#clip15)"><text fill="#595959" font-family="Calibri,Calibri_MSFontService,sans-serif" font-weight="400" font-size="41" transform="matrix(1 0 0 1 304.792 3833)">0.928</text></g><g clip-path="url(#clip16)"><text fill="#595959" font-family="Calibri,Calibri_MSFontService,sans-serif" font-weight="400" font-size="41" transform="matrix(1 0 0 1 325.692 3757)">0.93</text></g><g clip-path="url(#clip17)"><text fill="#595959" font-family="Calibri,Calibri_MSFontService,sans-serif" font-weight="400" font-size="41" transform="matrix(6.12323e-17 -1 1 6.12323e-17 490.639 4589)">Original-Bild</text></g><g clip-path="url(#clip18)"><text fill="#595959" font-family="Calibri,Calibri_MSFontService,sans-serif" font-weight="400" font-size="41" transform="matrix(6.12323e-17 -1 1 6.12323e-17 570.14 4509)">67 Byte</text></g><g clip-path="url(#clip19)"><text fill="#595959" font-family="Calibri,Calibri_MSFontService,sans-serif" font-weight="400" font-size="41" transform="matrix(6.12323e-17 -1 1 6.12323e-17 649.641 4508)">1.53 KB</text></g><g clip-path="url(#clip20)"><text fill="#595959" font-family="Calibri,Calibri_MSFontService,sans-serif" font-weight="400" font-size="41" transform="matrix(6.12323e-17 -1 1 6.12323e-17 729.141 4508)">17.5 KB</text></g><g clip-path="url(#clip21)"><text fill="#595959" font-family="Calibri,Calibri_MSFontService,sans-serif" font-weight="400" font-size="41" transform="matrix(6.12323e-17 -1 1 6.12323e-17 808.642 4739)">16 KB (min. Entropie)</text></g><g clip-path="url(#clip22)"><text fill="#595959" font-family="Calibri,Calibri_MSFontService,sans-serif" font-weight="400" font-size="41" transform="matrix(6.12323e-17 -1 1 6.12323e-17 888.143 4630)">16.8 KB (binär)</text></g><g clip-path="url(#clip23)"><text fill="#595959" font-family="Calibri,Calibri_MSFontService,sans-serif" font-weight="400" font-size="41" transform="matrix(6.12323e-17 -1 1 6.12323e-17 967.644 4509)">67 Byte</text></g><g clip-path="url(#clip24)"><text fill="#595959" font-family="Calibri,Calibri_MSFontService,sans-serif" font-weight="400" font-size="41" transform="matrix(6.12323e-17 -1 1 6.12323e-17 1047.14 4508)">1.53 KB</text></g><g clip-path="url(#clip25)"><text fill="#595959" font-family="Calibri,Calibri_MSFontService,sans-serif" font-weight="400" font-size="41" transform="matrix(6.12323e-17 -1 1 6.12323e-17 1126.65 4508)">17.5 KB</text></g><g clip-path="url(#clip26)"><text fill="#595959" font-family="Calibri,Calibri_MSFontService,sans-serif" font-weight="400" font-size="41" transform="matrix(6.12323e-17 -1 1 6.12323e-17 1206.15 4739)">16 KB (min. Entropie)</text></g><g clip-path="url(#clip27)"><text fill="#595959" font-family="Calibri,Calibri_MSFontService,sans-serif" font-weight="400" font-size="41" transform="matrix(6.12323e-17 -1 1 6.12323e-17 1285.65 4630)">16.8 KB (binär)</text></g><g clip-path="url(#clip28)"><text fill="#595959" font-family="Calibri,Calibri_MSFontService,sans-serif" font-weight="400" font-size="41" transform="matrix(6.12323e-17 -1 1 6.12323e-17 1365.15 4509)">67 Byte</text></g><g clip-path="url(#clip29)"><text fill="#595959" font-family="Calibri,Calibri_MSFontService,sans-serif" font-weight="400" font-size="41" transform="matrix(6.12323e-17 -1 1 6.12323e-17 1444.65 4508)">1.53 KB</text></g><g clip-path="url(#clip30)"><text fill="#595959" font-family="Calibri,Calibri_MSFontService,sans-serif" font-weight="400" font-size="41" transform="matrix(6.12323e-17 -1 1 6.12323e-17 1524.15 4508)">17.5 KB</text></g><g clip-path="url(#clip31)"><text fill="#595959" font-family="Calibri,Calibri_MSFontService,sans-serif" font-weight="400" font-size="41" transform="matrix(6.12323e-17 -1 1 6.12323e-17 1603.65 4739)">16 KB (min. Entropie)</text></g><g clip-path="url(#clip32)"><text fill="#595959" font-family="Calibri,Calibri_MSFontService,sans-serif" font-weight="400" font-size="41" transform="matrix(6.12323e-17 -1 1 6.12323e-17 1683.15 4630)">16.8 KB (binär)</text></g><g clip-path="url(#clip33)"><text fill="#595959" font-family="Calibri,Calibri_MSFontService,sans-serif" font-weight="400" font-size="41" transform="matrix(6.12323e-17 -1 1 6.12323e-17 1762.65 4509)">67 Byte</text></g><g clip-path="url(#clip34)"><text fill="#595959" font-family="Calibri,Calibri_MSFontService,sans-serif" font-weight="400" font-size="41" transform="matrix(6.12323e-17 -1 1 6.12323e-17 1842.15 4508)">1.53 KB</text></g><g clip-path="url(#clip35)"><text fill="#595959" font-family="Calibri,Calibri_MSFontService,sans-serif" font-weight="400" font-size="41" transform="matrix(6.12323e-17 -1 1 6.12323e-17 1921.65 4508)">17.5 KB</text></g><g clip-path="url(#clip36)"><text fill="#595959" font-family="Calibri,Calibri_MSFontService,sans-serif" font-weight="400" font-size="41" transform="matrix(6.12323e-17 -1 1 6.12323e-17 2001.15 4739)">16 KB (min. Entropie)</text></g><g clip-path="url(#clip37)"><text fill="#595959" font-family="Calibri,Calibri_MSFontService,sans-serif" font-weight="400" font-size="41" transform="matrix(6.12323e-17 -1 1 6.12323e-17 2080.66 4630)">16.8 KB (binär)</text></g><g clip-path="url(#clip38)"><text fill="#595959" font-family="Calibri,Calibri_MSFontService,sans-serif" font-weight="400" font-size="41" transform="matrix(6.12323e-17 -1 1 6.12323e-17 2160.16 4509)">67 Byte</text></g><g clip-path="url(#clip39)"><text fill="#595959" font-family="Calibri,Calibri_MSFontService,sans-serif" font-weight="400" font-size="41" transform="matrix(6.12323e-17 -1 1 6.12323e-17 2239.66 4508)">1.53 KB</text></g><g clip-path="url(#clip40)"><text fill="#595959" font-family="Calibri,Calibri_MSFontService,sans-serif" font-weight="400" font-size="41" transform="matrix(6.12323e-17 -1 1 6.12323e-17 2319.16 4508)">17.5 KB</text></g><g clip-path="url(#clip41)"><text fill="#595959" font-family="Calibri,Calibri_MSFontService,sans-serif" font-weight="400" font-size="41" transform="matrix(6.12323e-17 -1 1 6.12323e-17 2398.66 4739)">16 KB (min. Entropie)</text></g><g clip-path="url(#clip42)"><text fill="#595959" font-family="Calibri,Calibri_MSFontService,sans-serif" font-weight="400" font-size="41" transform="matrix(1 0 0 1 675.429 4807)">jsteg</text></g><g clip-path="url(#clip43)"><text fill="#595959" font-family="Calibri,Calibri_MSFontService,sans-serif" font-weight="400" font-size="41" transform="matrix(1 0 0 1 1037.25 4807)">outguess</text></g><g clip-path="url(#clip44)"><text fill="#595959" font-family="Calibri,Calibri_MSFontService,sans-serif" font-weight="400" font-size="41" transform="matrix(1 0 0 1 1391.89 4807)">outguess-0.13</text></g><g clip-path="url(#clip45)"><text fill="#595959" font-family="Calibri,Calibri_MSFontService,sans-serif" font-weight="400" font-size="41" transform="matrix(1 0 0 1 1836.2 4807)">steghide</text></g><g clip-path="url(#clip46)"><text fill="#595959" font-family="Calibri,Calibri_MSFontService,sans-serif" font-weight="400" font-size="41" transform="matrix(1 0 0 1 2248.84 4807)">f5</text></g><g clip-path="url(#clip47)"><text fill="#595959" font-family="Calibri,Calibri_MSFontService,sans-serif" font-weight="400" font-size="64" transform="matrix(1 0 0 1 837.913 3670)">durchschn. </text></g><g clip-path="url(#clip48)"><text fill="#595959" font-family="Calibri,Calibri_MSFontService,sans-serif" font-weight="700" font-size="64" transform="matrix(1 0 0 1 1137.96 3670)">Entropie</text></g><g clip-path="url(#clip49)"><text fill="#595959" font-family="Calibri,Calibri_MSFontService,sans-serif" font-weight="400" font-size="64" transform="matrix(1 0 0 1 1378.91 3670)">(Smartphone</text></g><g clip-path="url(#clip50)"><text fill="#595959" font-family="Calibri,Calibri_MSFontService,sans-serif" font-weight="400" font-size="64" transform="matrix(1 0 0 1 1720.62 3670)">-</text></g><g clip-path="url(#clip51)"><text fill="#595959" font-family="Calibri,Calibri_MSFontService,sans-serif" font-weight="400" font-size="64" transform="matrix(1 0 0 1 1740.26 3670)">Bilder)</text></g><g clip-path="url(#clip52)"><rect x="883.5" y="4872.5" width="22" height="22.9995" stroke="#333F50" stroke-width="3.4375" stroke-linejoin="round" stroke-miterlimit="10" fill="#8497B0"/></g><g clip-path="url(#clip53)"><text fill="#595959" font-family="Calibri,Calibri_MSFontService,sans-serif" font-weight="400" font-size="41" transform="matrix(1 0 0 1 915.444 4895)">kein Schlüssel</text></g><g clip-path="url(#clip54)"><rect x="1205.5" y="4872.5" width="23" height="22.9995" stroke="#BF9000" stroke-width="3.4375" stroke-linejoin="round" stroke-miterlimit="10" fill="#FFD966"/></g><g clip-path="url(#clip55)"><text fill="#595959" font-family="Calibri,Calibri_MSFontService,sans-serif" font-weight="400" font-size="41" transform="matrix(1 0 0 1 1238.04 4895)">4 Byte Schlüssel</text></g><g clip-path="url(#clip56)"><rect x="1563.5" y="4872.5" width="23" height="22.9995" stroke="#548235" stroke-width="3.4375" stroke-linejoin="round" stroke-miterlimit="10" fill="#A9D18E"/></g><g clip-path="url(#clip57)"><text fill="#595959" font-family="Calibri,Calibri_MSFontService,sans-serif" font-weight="400" font-size="41" transform="matrix(1 0 0 1 1595.91 4895)">50 Byte Schlüssel</text></g><rect x="275.5" y="3575.5" width="2200" height="1375" stroke="#D9D9D9" stroke-width="3.4375" stroke-linejoin="round" stroke-miterlimit="10" fill="none"/></g></svg>