<svg width="2203" height="1378" xmlns="http://www.w3.org/2000/svg" xmlns:xlink="http://www.w3.org/1999/xlink" xml:space="preserve" overflow="hidden"><defs><clipPath id="clip0"><rect x="2749" y="2199" width="2203" height="1378"/></clipPath><clipPath id="clip1"><rect x="2750" y="2200" width="2200" height="1375"/></clipPath><clipPath id="clip2"><rect x="2880" y="2425" width="2023" height="559"/></clipPath><clipPath id="clip3"><rect x="2880" y="2425" width="2023" height="559"/></clipPath><clipPath id="clip4"><rect x="2880" y="2425" width="2023" height="559"/></clipPath><clipPath id="clip5"><rect x="2750" y="2200" width="2200" height="1375"/></clipPath><clipPath id="clip6"><rect x="2750" y="2200" width="2200" height="1375"/></clipPath><clipPath id="clip7"><rect x="2750" y="2200" width="2200" height="1375"/></clipPath><clipPath id="clip8"><rect x="2750" y="2200" width="2200" height="1375"/></clipPath><clipPath id="clip9"><rect x="2750" y="2200" width="2200" height="1375"/></clipPath><clipPath id="clip10"><rect x="2750" y="2200" width="2200" height="1375"/></clipPath><clipPath id="clip11"><rect x="2750" y="2200" width="2200" height="1375"/></clipPath><clipPath id="clip12"><rect x="2750" y="2200" width="2200" height="1375"/></clipPath><clipPath id="clip13"><rect x="2750" y="2200" width="2200" height="1375"/></clipPath><clipPath id="clip14"><rect x="2750" y="2200" width="2200" height="1375"/></clipPath><clipPath id="clip15"><rect x="2750" y="2200" width="2200" height="1375"/></clipPath><clipPath id="clip16"><rect x="2750" y="2200" width="2200" height="1375"/></clipPath><clipPath id="clip17"><rect x="2750" y="2200" width="2200" height="1375"/></clipPath><clipPath id="clip18"><rect x="2750" y="2200" width="2200" height="1375"/></clipPath><clipPath id="clip19"><rect x="2750" y="2200" width="2200" height="1375"/></clipPath><clipPath id="clip20"><rect x="2750" y="2200" width="2200" height="1375"/></clipPath><clipPath id="clip21"><rect x="2750" y="2200" width="2200" height="1375"/></clipPath><clipPath id="clip22"><rect x="2750" y="2200" width="2200" height="1375"/></clipPath><clipPath id="clip23"><rect x="2750" y="2200" width="2200" height="1375"/></clipPath><clipPath id="clip24"><rect x="2750" y="2200" width="2200" height="1375"/></clipPath><clipPath id="clip25"><rect x="2750" y="2200" width="2200" height="1375"/></clipPath><clipPath id="clip26"><rect x="2750" y="2200" width="2200" height="1375"/></clipPath><clipPath id="clip27"><rect x="2750" y="2200" width="2200" height="1375"/></clipPath><clipPath id="clip28"><rect x="2750" y="2200" width="2200" height="1375"/></clipPath><clipPath id="clip29"><rect x="2750" y="2200" width="2200" height="1375"/></clipPath><clipPath id="clip30"><rect x="2750" y="2200" width="2200" height="1375"/></clipPath><clipPath id="clip31"><rect x="2750" y="2200" width="2200" height="1375"/></clipPath><clipPath id="clip32"><rect x="2750" y="2200" width="2200" height="1375"/></clipPath><clipPath id="clip33"><rect x="2750" y="2200" width="2200" height="1375"/></clipPath><clipPath id="clip34"><rect x="2750" y="2200" width="2200" height="1375"/></clipPath><clipPath id="clip35"><rect x="2750" y="2200" width="2200" height="1375"/></clipPath><clipPath id="clip36"><rect x="2750" y="2200" width="2200" height="1375"/></clipPath><clipPath id="clip37"><rect x="2750" y="2200" width="2200" height="1375"/></clipPath><clipPath id="clip38"><rect x="2750" y="2200" width="2200" height="1375"/></clipPath><clipPath id="clip39"><rect x="2750" y="2200" width="2200" height="1375"/></clipPath><clipPath id="clip40"><rect x="2750" y="2200" width="2200" height="1375"/></clipPath><clipPath id="clip41"><rect x="2750" y="2200" width="2200" height="1375"/></clipPath><clipPath id="clip42"><rect x="2750" y="2200" width="2200" height="1375"/></clipPath><clipPath id="clip43"><rect x="2750" y="2200" width="2200" height="1375"/></clipPath><clipPath id="clip44"><rect x="2750" y="2200" width="2200" height="1375"/></clipPath><clipPath id="clip45"><rect x="2750" y="2200" width="2200" height="1375"/></clipPath><clipPath id="clip46"><rect x="2750" y="2200" width="2200" height="1375"/></clipPath><clipPath id="clip47"><rect x="2750" y="2200" width="2200" height="1375"/></clipPath><clipPath id="clip48"><rect x="2750" y="2200" width="2200" height="1375"/></clipPath><clipPath id="clip49"><rect x="2750" y="2200" width="2200" height="1375"/></clipPath><clipPath id="clip50"><rect x="2750" y="2200" width="2200" height="1375"/></clipPath><clipPath id="clip51"><rect x="2750" y="2200" width="2200" height="1375"/></clipPath><clipPath id="clip52"><rect x="2750" y="2200" width="2200" height="1375"/></clipPath><clipPath id="clip53"><rect x="2750" y="2200" width="2200" height="1375"/></clipPath><clipPath id="clip54"><rect x="2750" y="2200" width="2200" height="1375"/></clipPath><clipPath id="clip55"><rect x="2750" y="2200" width="2200" height="1375"/></clipPath><clipPath id="clip56"><rect x="2750" y="2200" width="2200" height="1375"/></clipPath><clipPath id="clip57"><rect x="2750" y="2200" width="2200" height="1375"/></clipPath><clipPath id="clip58"><rect x="2750" y="2200" width="2200" height="1375"/></clipPath><clipPath id="clip59"><rect x="2750" y="2200" width="2200" height="1375"/></clipPath></defs><g clip-path="url(#clip0)" transform="translate(-2749 -2199)"><rect x="2750" y="2200" width="2200" height="1375" fill="#FFFFFF"/><g clip-path="url(#clip1)"><path d="M2880.5 2911.6 4899.5 2911.6M2880.5 2842.59 4899.5 2842.59M2880.5 2772.59 4899.5 2772.59M2880.5 2703.59 4899.5 2703.59M2880.5 2634.59 4899.5 2634.59M2880.5 2564.58 4899.5 2564.58M2880.5 2495.58 4899.5 2495.58M2880.5 2425.5 4899.5 2425.5" stroke="#D9D9D9" stroke-width="3.4375" stroke-linejoin="round" stroke-miterlimit="10" fill="none"/></g><g clip-path="url(#clip2)"><path d="M2895.6 2456.58 2909.6 2456.58 2909.6 2981.5 2895.6 2981.5ZM2973.6 2841.59 2986.6 2841.59 2986.6 2981.5 2973.6 2981.5ZM3050.6 2854.59 3064.6 2854.59 3064.6 2981.5 3050.6 2981.5ZM3128.6 2855.59 3141.6 2855.59 3141.6 2981.5 3128.6 2981.5ZM3206.61 2860.59 3219.61 2860.59 3219.61 2981.5 3206.61 2981.5ZM3283.61 2861.59 3297.61 2861.59 3297.61 2981.5 3283.61 2981.5ZM3361.61 2861.59 3374.61 2861.59 3374.61 2981.5 3361.61 2981.5ZM3439.61 2854.59 3452.61 2854.59 3452.61 2981.5 3439.61 2981.5ZM3516.62 2832.59 3530.62 2832.59 3530.62 2981.5 3516.62 2981.5ZM3827.63 2854.59 3840.63 2854.59 3840.63 2981.5 3827.63 2981.5ZM3904.63 2829.59 3918.63 2829.59 3918.63 2981.5 3904.63 2981.5ZM4603.65 2837.59 4617.65 2837.59 4617.65 2981.5 4603.65 2981.5ZM4681.65 2841.59 4694.65 2841.59 4694.65 2981.5 4681.65 2981.5ZM4758.66 2855.59 4772.66 2855.59 4772.66 2981.5 4758.66 2981.5ZM4836.66 2855.59 4850.66 2855.59 4850.66 2981.5 4836.66 2981.5Z" stroke="#333F50" stroke-width="3.4375" stroke-linejoin="round" stroke-miterlimit="10" fill="#8497B0"/></g><g clip-path="url(#clip3)"><path d="M3456.61 2854.59 3469.61 2854.59 3469.61 2981.5 3456.61 2981.5ZM3533.62 2832.59 3547.62 2832.59 3547.62 2981.5 3533.62 2981.5ZM3844.63 2854.59 3857.63 2854.59 3857.63 2981.5 3844.63 2981.5ZM3922.63 2829.59 3935.63 2829.59 3935.63 2981.5 3922.63 2981.5ZM4232.64 2456.58 4246.64 2456.58 4246.64 2981.5 4232.64 2981.5ZM4310.64 2456.58 4323.64 2456.58 4323.64 2981.5 4310.64 2981.5ZM4387.64 2456.58 4401.64 2456.58 4401.64 2981.5 4387.64 2981.5ZM4465.65 2456.58 4479.65 2456.58 4479.65 2981.5 4465.65 2981.5ZM4543.65 2455.58 4556.65 2455.58 4556.65 2981.5 4543.65 2981.5ZM4620.65 2837.59 4634.65 2837.59 4634.65 2981.5 4620.65 2981.5ZM4698.65 2841.59 4712.65 2841.59 4712.65 2981.5 4698.65 2981.5ZM4776.66 2855.59 4789.66 2855.59 4789.66 2981.5 4776.66 2981.5ZM4853.66 2855.59 4867.66 2855.59 4867.66 2981.5 4853.66 2981.5Z" stroke="#BF9000" stroke-width="3.4375" stroke-linejoin="round" stroke-miterlimit="10" fill="#FFD966"/></g><g clip-path="url(#clip4)"><path d="M3473.61 2854.59 3486.61 2854.59 3486.61 2981.5 3473.61 2981.5ZM3551.62 2832.59 3564.62 2832.59 3564.62 2981.5 3551.62 2981.5ZM3861.63 2854.59 3875.63 2854.59 3875.63 2981.5 3861.63 2981.5ZM3939.63 2829.59 3952.63 2829.59 3952.63 2981.5 3939.63 2981.5ZM4249.64 2456.58 4263.64 2456.58 4263.64 2981.5 4249.64 2981.5ZM4327.64 2456.58 4341.64 2456.58 4341.64 2981.5 4327.64 2981.5ZM4405.64 2456.58 4418.65 2456.58 4418.65 2981.5 4405.64 2981.5ZM4482.65 2456.58 4496.65 2456.58 4496.65 2981.5 4482.65 2981.5ZM4560.65 2455.58 4574.65 2455.58 4574.65 2981.5 4560.65 2981.5ZM4638.65 2837.59 4651.65 2837.59 4651.65 2981.5 4638.65 2981.5ZM4715.66 2841.59 4729.66 2841.59 4729.66 2981.5 4715.66 2981.5ZM4793.66 2855.59 4806.66 2855.59 4806.66 2981.5 4793.66 2981.5ZM4871.66 2855.59 4884.66 2855.59 4884.66 2981.5 4871.66 2981.5Z" stroke="#548235" stroke-width="3.4375" stroke-linejoin="round" stroke-miterlimit="10" fill="#A9D18E"/></g><g clip-path="url(#clip5)"><path d="M2880.5 2981.5 4899.5 2981.5" stroke="#D9D9D9" stroke-width="3.4375" stroke-linejoin="round" stroke-miterlimit="10" fill="none" fill-rule="evenodd"/></g><g clip-path="url(#clip6)"><path d="M2880.5 2981.5 2880.5 3367.5M3035.6 2981.5 3035.6 3367.5M3424.61 2981.5 3424.61 3367.5M3812.63 2981.5 3812.63 3367.5M4200.64 2981.5 4200.64 3367.5M4588.65 2981.5 4588.65 3367.5M4899.5 2981.5 4899.5 3367.5" stroke="#D9D9D9" stroke-width="3.4375" stroke-linejoin="round" stroke-miterlimit="10" fill="none"/></g><g clip-path="url(#clip7)"><path d="M2880.5 3367.5 2880.5 3447.5M3035.6 3367.5 3035.6 3447.5M3424.61 3367.5 3424.61 3447.5M3812.63 3367.5 3812.63 3447.5M4200.64 3367.5 4200.64 3447.5M4588.65 3367.5 4588.65 3447.5M4899.5 3367.5 4899.5 3447.5" stroke="#D9D9D9" stroke-width="3.4375" stroke-linejoin="round" stroke-miterlimit="10" fill="none"/></g><g clip-path="url(#clip8)"><text fill="#595959" font-family="Calibri,Calibri_MSFontService,sans-serif" font-weight="400" font-size="41" transform="matrix(1 0 0 1 2821.59 2993)">0</text></g><g clip-path="url(#clip9)"><text fill="#595959" font-family="Calibri,Calibri_MSFontService,sans-serif" font-weight="400" font-size="41" transform="matrix(1 0 0 1 2800.69 2923)">20</text></g><g clip-path="url(#clip10)"><text fill="#595959" font-family="Calibri,Calibri_MSFontService,sans-serif" font-weight="400" font-size="41" transform="matrix(1 0 0 1 2800.69 2854)">40</text></g><g clip-path="url(#clip11)"><text fill="#595959" font-family="Calibri,Calibri_MSFontService,sans-serif" font-weight="400" font-size="41" transform="matrix(1 0 0 1 2800.69 2784)">60</text></g><g clip-path="url(#clip12)"><text fill="#595959" font-family="Calibri,Calibri_MSFontService,sans-serif" font-weight="400" font-size="41" transform="matrix(1 0 0 1 2800.69 2715)">80</text></g><g clip-path="url(#clip13)"><text fill="#595959" font-family="Calibri,Calibri_MSFontService,sans-serif" font-weight="400" font-size="41" transform="matrix(1 0 0 1 2779.79 2646)">100</text></g><g clip-path="url(#clip14)"><text fill="#595959" font-family="Calibri,Calibri_MSFontService,sans-serif" font-weight="400" font-size="41" transform="matrix(1 0 0 1 2779.79 2576)">120</text></g><g clip-path="url(#clip15)"><text fill="#595959" font-family="Calibri,Calibri_MSFontService,sans-serif" font-weight="400" font-size="41" transform="matrix(1 0 0 1 2779.79 2507)">140</text></g><g clip-path="url(#clip16)"><text fill="#595959" font-family="Calibri,Calibri_MSFontService,sans-serif" font-weight="400" font-size="41" transform="matrix(1 0 0 1 2779.79 2437)">160</text></g><g clip-path="url(#clip17)"><text fill="#595959" font-family="Calibri,Calibri_MSFontService,sans-serif" font-weight="400" font-size="41" transform="matrix(6.12323e-17 -1 1 6.12323e-17 2933.41 3214)">Original-Bild</text></g><g clip-path="url(#clip18)"><text fill="#595959" font-family="Calibri,Calibri_MSFontService,sans-serif" font-weight="400" font-size="41" transform="matrix(6.12323e-17 -1 1 6.12323e-17 3011.06 3318)">JPEG-Kompression</text></g><g clip-path="url(#clip19)"><text fill="#595959" font-family="Calibri,Calibri_MSFontService,sans-serif" font-weight="400" font-size="41" transform="matrix(6.12323e-17 -1 1 6.12323e-17 3088.7 3134)">67 Byte</text></g><g clip-path="url(#clip20)"><text fill="#595959" font-family="Calibri,Calibri_MSFontService,sans-serif" font-weight="400" font-size="41" transform="matrix(6.12323e-17 -1 1 6.12323e-17 3166.35 3133)">1.53 KB</text></g><g clip-path="url(#clip21)"><text fill="#595959" font-family="Calibri,Calibri_MSFontService,sans-serif" font-weight="400" font-size="41" transform="matrix(6.12323e-17 -1 1 6.12323e-17 3244 3133)">17.5 KB</text></g><g clip-path="url(#clip22)"><text fill="#595959" font-family="Calibri,Calibri_MSFontService,sans-serif" font-weight="400" font-size="41" transform="matrix(6.12323e-17 -1 1 6.12323e-17 3321.64 3364)">16 KB (min. Entropie)</text></g><g clip-path="url(#clip23)"><text fill="#595959" font-family="Calibri,Calibri_MSFontService,sans-serif" font-weight="400" font-size="41" transform="matrix(6.12323e-17 -1 1 6.12323e-17 3399.29 3255)">16.8 KB (binär)</text></g><g clip-path="url(#clip24)"><text fill="#595959" font-family="Calibri,Calibri_MSFontService,sans-serif" font-weight="400" font-size="41" transform="matrix(6.12323e-17 -1 1 6.12323e-17 3476.94 3134)">67 Byte</text></g><g clip-path="url(#clip25)"><text fill="#595959" font-family="Calibri,Calibri_MSFontService,sans-serif" font-weight="400" font-size="41" transform="matrix(6.12323e-17 -1 1 6.12323e-17 3554.58 3133)">1.53 KB</text></g><g clip-path="url(#clip26)"><text fill="#595959" font-family="Calibri,Calibri_MSFontService,sans-serif" font-weight="400" font-size="41" transform="matrix(6.12323e-17 -1 1 6.12323e-17 3632.23 3133)">17.5 KB</text></g><g clip-path="url(#clip27)"><text fill="#595959" font-family="Calibri,Calibri_MSFontService,sans-serif" font-weight="400" font-size="41" transform="matrix(6.12323e-17 -1 1 6.12323e-17 3709.88 3364)">16 KB (min. Entropie)</text></g><g clip-path="url(#clip28)"><text fill="#595959" font-family="Calibri,Calibri_MSFontService,sans-serif" font-weight="400" font-size="41" transform="matrix(6.12323e-17 -1 1 6.12323e-17 3787.53 3255)">16.8 KB (binär)</text></g><g clip-path="url(#clip29)"><text fill="#595959" font-family="Calibri,Calibri_MSFontService,sans-serif" font-weight="400" font-size="41" transform="matrix(6.12323e-17 -1 1 6.12323e-17 3865.17 3134)">67 Byte</text></g><g clip-path="url(#clip30)"><text fill="#595959" font-family="Calibri,Calibri_MSFontService,sans-serif" font-weight="400" font-size="41" transform="matrix(6.12323e-17 -1 1 6.12323e-17 3942.82 3133)">1.53 KB</text></g><g clip-path="url(#clip31)"><text fill="#595959" font-family="Calibri,Calibri_MSFontService,sans-serif" font-weight="400" font-size="41" transform="matrix(6.12323e-17 -1 1 6.12323e-17 4020.47 3133)">17.5 KB</text></g><g clip-path="url(#clip32)"><text fill="#595959" font-family="Calibri,Calibri_MSFontService,sans-serif" font-weight="400" font-size="41" transform="matrix(6.12323e-17 -1 1 6.12323e-17 4098.11 3364)">16 KB (min. Entropie)</text></g><g clip-path="url(#clip33)"><text fill="#595959" font-family="Calibri,Calibri_MSFontService,sans-serif" font-weight="400" font-size="41" transform="matrix(6.12323e-17 -1 1 6.12323e-17 4175.76 3255)">16.8 KB (binär)</text></g><g clip-path="url(#clip34)"><text fill="#595959" font-family="Calibri,Calibri_MSFontService,sans-serif" font-weight="400" font-size="41" transform="matrix(6.12323e-17 -1 1 6.12323e-17 4253.41 3134)">67 Byte</text></g><g clip-path="url(#clip35)"><text fill="#595959" font-family="Calibri,Calibri_MSFontService,sans-serif" font-weight="400" font-size="41" transform="matrix(6.12323e-17 -1 1 6.12323e-17 4331.06 3133)">1.53 KB</text></g><g clip-path="url(#clip36)"><text fill="#595959" font-family="Calibri,Calibri_MSFontService,sans-serif" font-weight="400" font-size="41" transform="matrix(6.12323e-17 -1 1 6.12323e-17 4408.7 3133)">17.5 KB</text></g><g clip-path="url(#clip37)"><text fill="#595959" font-family="Calibri,Calibri_MSFontService,sans-serif" font-weight="400" font-size="41" transform="matrix(6.12323e-17 -1 1 6.12323e-17 4486.35 3364)">16 KB (min. Entropie)</text></g><g clip-path="url(#clip38)"><text fill="#595959" font-family="Calibri,Calibri_MSFontService,sans-serif" font-weight="400" font-size="41" transform="matrix(6.12323e-17 -1 1 6.12323e-17 4564 3255)">16.8 KB (binär)</text></g><g clip-path="url(#clip39)"><text fill="#595959" font-family="Calibri,Calibri_MSFontService,sans-serif" font-weight="400" font-size="41" transform="matrix(6.12323e-17 -1 1 6.12323e-17 4641.64 3134)">67 Byte</text></g><g clip-path="url(#clip40)"><text fill="#595959" font-family="Calibri,Calibri_MSFontService,sans-serif" font-weight="400" font-size="41" transform="matrix(6.12323e-17 -1 1 6.12323e-17 4719.29 3133)">1.53 KB</text></g><g clip-path="url(#clip41)"><text fill="#595959" font-family="Calibri,Calibri_MSFontService,sans-serif" font-weight="400" font-size="41" transform="matrix(6.12323e-17 -1 1 6.12323e-17 4796.94 3133)">17.5 KB</text></g><g clip-path="url(#clip42)"><text fill="#595959" font-family="Calibri,Calibri_MSFontService,sans-serif" font-weight="400" font-size="41" transform="matrix(6.12323e-17 -1 1 6.12323e-17 4874.59 3364)">16 KB (min. Entropie)</text></g><g clip-path="url(#clip43)"><text fill="#595959" font-family="Calibri,Calibri_MSFontService,sans-serif" font-weight="400" font-size="41" transform="matrix(1 0 0 1 3190.28 3432)">jsteg</text></g><g clip-path="url(#clip44)"><text fill="#595959" font-family="Calibri,Calibri_MSFontService,sans-serif" font-weight="400" font-size="41" transform="matrix(1 0 0 1 3542.84 3432)">outguess</text></g><g clip-path="url(#clip45)"><text fill="#595959" font-family="Calibri,Calibri_MSFontService,sans-serif" font-weight="400" font-size="41" transform="matrix(1 0 0 1 3888.21 3432)">outguess-0.13</text></g><g clip-path="url(#clip46)"><text fill="#595959" font-family="Calibri,Calibri_MSFontService,sans-serif" font-weight="400" font-size="41" transform="matrix(1 0 0 1 4323.25 3432)">steghide</text></g><g clip-path="url(#clip47)"><text fill="#595959" font-family="Calibri,Calibri_MSFontService,sans-serif" font-weight="400" font-size="41" transform="matrix(1 0 0 1 4727.55 3432)">f5</text></g><g clip-path="url(#clip48)"><text fill="#595959" font-family="Calibri,Calibri_MSFontService,sans-serif" font-weight="400" font-size="64" transform="matrix(1 0 0 1 3272.76 2295)">durchschnittliche </text></g><g clip-path="url(#clip49)"><text fill="#595959" font-family="Calibri,Calibri_MSFontService,sans-serif" font-weight="700" font-size="64" transform="matrix(1 0 0 1 3735.66 2295)">Dateigröße</text></g><g clip-path="url(#clip50)"><text fill="#595959" font-family="Calibri,Calibri_MSFontService,sans-serif" font-weight="400" font-size="64" transform="matrix(1 0 0 1 4046.09 2295)">(bows2</text></g><g clip-path="url(#clip51)"><text fill="#595959" font-family="Calibri,Calibri_MSFontService,sans-serif" font-weight="400" font-size="64" transform="matrix(1 0 0 1 4235.77 2295)">-</text></g><g clip-path="url(#clip52)"><text fill="#595959" font-family="Calibri,Calibri_MSFontService,sans-serif" font-weight="400" font-size="64" transform="matrix(1 0 0 1 4255.41 2295)">Bilder)</text></g><g clip-path="url(#clip53)"><text fill="#595959" font-family="Calibri,Calibri_MSFontService,sans-serif" font-weight="400" font-size="46" transform="matrix(1 0 0 1 3803.15 2356)">in KB</text></g><g clip-path="url(#clip54)"><rect x="3358.5" y="3497.5" width="22" height="22.9998" stroke="#333F50" stroke-width="3.4375" stroke-linejoin="round" stroke-miterlimit="10" fill="#8497B0"/></g><g clip-path="url(#clip55)"><text fill="#595959" font-family="Calibri,Calibri_MSFontService,sans-serif" font-weight="400" font-size="41" transform="matrix(1 0 0 1 3390.44 3520)">kein Schlüssel</text></g><g clip-path="url(#clip56)"><rect x="3680.5" y="3497.5" width="23" height="22.9998" stroke="#BF9000" stroke-width="3.4375" stroke-linejoin="round" stroke-miterlimit="10" fill="#FFD966"/></g><g clip-path="url(#clip57)"><text fill="#595959" font-family="Calibri,Calibri_MSFontService,sans-serif" font-weight="400" font-size="41" transform="matrix(1 0 0 1 3713.04 3520)">4 Byte Schlüssel</text></g><g clip-path="url(#clip58)"><rect x="4038.5" y="3497.5" width="23" height="22.9998" stroke="#548235" stroke-width="3.4375" stroke-linejoin="round" stroke-miterlimit="10" fill="#A9D18E"/></g><g clip-path="url(#clip59)"><text fill="#595959" font-family="Calibri,Calibri_MSFontService,sans-serif" font-weight="400" font-size="41" transform="matrix(1 0 0 1 4070.91 3520)">50 Byte Schlüssel</text></g><rect x="2750.5" y="2200.5" width="2200" height="1375" stroke="#D9D9D9" stroke-width="3.4375" stroke-linejoin="round" stroke-miterlimit="10" fill="none"/></g></svg>