<svg width="2203" height="1378" xmlns="http://www.w3.org/2000/svg" xmlns:xlink="http://www.w3.org/1999/xlink" xml:space="preserve" overflow="hidden"><defs><clipPath id="clip0"><rect x="2749" y="2199" width="2203" height="1378"/></clipPath><clipPath id="clip1"><rect x="2750" y="2200" width="2200" height="1375"/></clipPath><clipPath id="clip2"><rect x="2891" y="2425" width="2012" height="559"/></clipPath><clipPath id="clip3"><rect x="2891" y="2425" width="2012" height="559"/></clipPath><clipPath id="clip4"><rect x="2891" y="2425" width="2012" height="559"/></clipPath><clipPath id="clip5"><rect x="2750" y="2200" width="2200" height="1375"/></clipPath><clipPath id="clip6"><rect x="2750" y="2200" width="2200" height="1375"/></clipPath><clipPath id="clip7"><rect x="2750" y="2200" width="2200" height="1375"/></clipPath><clipPath id="clip8"><rect x="2750" y="2200" width="2200" height="1375"/></clipPath><clipPath id="clip9"><rect x="2750" y="2200" width="2200" height="1375"/></clipPath><clipPath id="clip10"><rect x="2750" y="2200" width="2200" height="1375"/></clipPath><clipPath id="clip11"><rect x="2750" y="2200" width="2200" height="1375"/></clipPath><clipPath id="clip12"><rect x="2750" y="2200" width="2200" height="1375"/></clipPath><clipPath id="clip13"><rect x="2750" y="2200" width="2200" height="1375"/></clipPath><clipPath id="clip14"><rect x="2750" y="2200" width="2200" height="1375"/></clipPath><clipPath id="clip15"><rect x="2750" y="2200" width="2200" height="1375"/></clipPath><clipPath id="clip16"><rect x="2750" y="2200" width="2200" height="1375"/></clipPath><clipPath id="clip17"><rect x="2750" y="2200" width="2200" height="1375"/></clipPath><clipPath id="clip18"><rect x="2750" y="2200" width="2200" height="1375"/></clipPath><clipPath id="clip19"><rect x="2750" y="2200" width="2200" height="1375"/></clipPath><clipPath id="clip20"><rect x="2750" y="2200" width="2200" height="1375"/></clipPath><clipPath id="clip21"><rect x="2750" y="2200" width="2200" height="1375"/></clipPath><clipPath id="clip22"><rect x="2750" y="2200" width="2200" height="1375"/></clipPath><clipPath id="clip23"><rect x="2750" y="2200" width="2200" height="1375"/></clipPath><clipPath id="clip24"><rect x="2750" y="2200" width="2200" height="1375"/></clipPath><clipPath id="clip25"><rect x="2750" y="2200" width="2200" height="1375"/></clipPath><clipPath id="clip26"><rect x="2750" y="2200" width="2200" height="1375"/></clipPath><clipPath id="clip27"><rect x="2750" y="2200" width="2200" height="1375"/></clipPath><clipPath id="clip28"><rect x="2750" y="2200" width="2200" height="1375"/></clipPath><clipPath id="clip29"><rect x="2750" y="2200" width="2200" height="1375"/></clipPath><clipPath id="clip30"><rect x="2750" y="2200" width="2200" height="1375"/></clipPath><clipPath id="clip31"><rect x="2750" y="2200" width="2200" height="1375"/></clipPath><clipPath id="clip32"><rect x="2750" y="2200" width="2200" height="1375"/></clipPath><clipPath id="clip33"><rect x="2750" y="2200" width="2200" height="1375"/></clipPath><clipPath id="clip34"><rect x="2750" y="2200" width="2200" height="1375"/></clipPath><clipPath id="clip35"><rect x="2750" y="2200" width="2200" height="1375"/></clipPath><clipPath id="clip36"><rect x="2750" y="2200" width="2200" height="1375"/></clipPath><clipPath id="clip37"><rect x="2750" y="2200" width="2200" height="1375"/></clipPath><clipPath id="clip38"><rect x="2750" y="2200" width="2200" height="1375"/></clipPath><clipPath id="clip39"><rect x="2750" y="2200" width="2200" height="1375"/></clipPath><clipPath id="clip40"><rect x="2750" y="2200" width="2200" height="1375"/></clipPath><clipPath id="clip41"><rect x="2750" y="2200" width="2200" height="1375"/></clipPath><clipPath id="clip42"><rect x="2750" y="2200" width="2200" height="1375"/></clipPath><clipPath id="clip43"><rect x="2750" y="2200" width="2200" height="1375"/></clipPath><clipPath id="clip44"><rect x="2750" y="2200" width="2200" height="1375"/></clipPath><clipPath id="clip45"><rect x="2750" y="2200" width="2200" height="1375"/></clipPath><clipPath id="clip46"><rect x="2750" y="2200" width="2200" height="1375"/></clipPath><clipPath id="clip47"><rect x="2750" y="2200" width="2200" height="1375"/></clipPath><clipPath id="clip48"><rect x="2750" y="2200" width="2200" height="1375"/></clipPath><clipPath id="clip49"><rect x="2750" y="2200" width="2200" height="1375"/></clipPath><clipPath id="clip50"><rect x="2750" y="2200" width="2200" height="1375"/></clipPath><clipPath id="clip51"><rect x="2750" y="2200" width="2200" height="1375"/></clipPath><clipPath id="clip52"><rect x="2750" y="2200" width="2200" height="1375"/></clipPath><clipPath id="clip53"><rect x="2750" y="2200" width="2200" height="1375"/></clipPath><clipPath id="clip54"><rect x="2750" y="2200" width="2200" height="1375"/></clipPath><clipPath id="clip55"><rect x="2750" y="2200" width="2200" height="1375"/></clipPath><clipPath id="clip56"><rect x="2750" y="2200" width="2200" height="1375"/></clipPath><clipPath id="clip57"><rect x="2750" y="2200" width="2200" height="1375"/></clipPath><clipPath id="clip58"><rect x="2750" y="2200" width="2200" height="1375"/></clipPath></defs><g clip-path="url(#clip0)" transform="translate(-2749 -2199)"><rect x="2750" y="2200" width="2200" height="1375" fill="#FFFFFF"/><g clip-path="url(#clip1)"><path d="M2891.5 2901.6 4899.5 2901.6M2891.5 2822.59 4899.5 2822.59M2891.5 2743.59 4899.5 2743.59M2891.5 2663.59 4899.5 2663.59M2891.5 2584.58 4899.5 2584.58M2891.5 2505.58 4899.5 2505.58M2891.5 2425.5 4899.5 2425.5" stroke="#D9D9D9" stroke-width="3.4375" stroke-linejoin="round" stroke-miterlimit="10" fill="none"/></g><g clip-path="url(#clip2)"><path d="M2905.6 2708.59 2919.6 2708.59 2919.6 2981.5 2905.6 2981.5ZM2983.6 2733.59 2996.6 2733.59 2996.6 2981.5 2983.6 2981.5ZM3060.6 2736.59 3073.6 2736.59 3073.6 2981.5 3060.6 2981.5ZM3137.6 2792.59 3151.6 2792.59 3151.6 2981.5 3137.6 2981.5ZM3214.61 2892.59 3228.61 2892.59 3228.61 2981.5 3214.61 2981.5ZM3292.61 2895.6 3305.61 2895.6 3305.61 2981.5 3292.61 2981.5ZM3369.61 2897.6 3382.61 2897.6 3382.61 2981.5 3369.61 2981.5ZM3446.61 2735.59 3460.61 2735.59 3460.61 2981.5 3446.61 2981.5ZM3523.62 2568.58 3537.62 2568.58 3537.62 2981.5 3523.62 2981.5ZM3832.63 2737.59 3846.63 2737.59 3846.63 2981.5 3832.63 2981.5ZM3910.63 2563.58 3923.63 2563.58 3923.63 2981.5 3910.63 2981.5ZM4605.65 2734.59 4618.65 2734.59 4618.65 2981.5 4605.65 2981.5ZM4682.65 2736.59 4695.65 2736.59 4695.65 2981.5 4682.65 2981.5ZM4759.66 2746.59 4773.66 2746.59 4773.66 2981.5 4759.66 2981.5ZM4836.66 2746.59 4850.66 2746.59 4850.66 2981.5 4836.66 2981.5Z" stroke="#333F50" stroke-width="3.4375" stroke-linejoin="round" stroke-miterlimit="10" fill="#8497B0"/></g><g clip-path="url(#clip3)"><path d="M3463.61 2735.59 3477.61 2735.59 3477.61 2981.5 3463.61 2981.5ZM3540.62 2568.58 3554.62 2568.58 3554.62 2981.5 3540.62 2981.5ZM3849.63 2736.59 3863.63 2736.59 3863.63 2981.5 3849.63 2981.5ZM3927.63 2564.58 3940.63 2564.58 3940.63 2981.5 3927.63 2981.5ZM4236.64 2708.59 4249.64 2708.59 4249.64 2981.5 4236.64 2981.5ZM4313.64 2708.59 4326.64 2708.59 4326.64 2981.5 4313.64 2981.5ZM4390.64 2708.59 4404.64 2708.59 4404.64 2981.5 4390.64 2981.5ZM4467.65 2708.59 4481.65 2708.59 4481.65 2981.5 4467.65 2981.5ZM4545.65 2707.59 4558.65 2707.59 4558.65 2981.5 4545.65 2981.5ZM4622.65 2733.59 4635.65 2733.59 4635.65 2981.5 4622.65 2981.5ZM4699.65 2737.59 4713.65 2737.59 4713.65 2981.5 4699.65 2981.5ZM4776.66 2747.59 4790.66 2747.59 4790.66 2981.5 4776.66 2981.5ZM4854.66 2747.59 4867.66 2747.59 4867.66 2981.5 4854.66 2981.5Z" stroke="#BF9000" stroke-width="3.4375" stroke-linejoin="round" stroke-miterlimit="10" fill="#FFD966"/></g><g clip-path="url(#clip4)"><path d="M3480.61 2736.59 3494.61 2736.59 3494.61 2981.5 3480.61 2981.5ZM3558.62 2568.58 3571.62 2568.58 3571.62 2981.5 3558.62 2981.5ZM3867.63 2736.59 3880.63 2736.59 3880.63 2981.5 3867.63 2981.5ZM3944.63 2564.58 3957.63 2564.58 3957.63 2981.5 3944.63 2981.5ZM4253.64 2708.59 4266.64 2708.59 4266.64 2981.5 4253.64 2981.5ZM4330.64 2708.59 4343.64 2708.59 4343.64 2981.5 4330.64 2981.5ZM4407.65 2708.59 4421.65 2708.59 4421.65 2981.5 4407.65 2981.5ZM4484.65 2708.59 4498.65 2708.59 4498.65 2981.5 4484.65 2981.5ZM4562.65 2707.59 4575.65 2707.59 4575.65 2981.5 4562.65 2981.5ZM4639.65 2734.59 4652.65 2734.59 4652.65 2981.5 4639.65 2981.5ZM4716.66 2736.59 4730.66 2736.59 4730.66 2981.5 4716.66 2981.5ZM4793.66 2746.59 4807.66 2746.59 4807.66 2981.5 4793.66 2981.5ZM4871.66 2746.59 4884.66 2746.59 4884.66 2981.5 4871.66 2981.5Z" stroke="#548235" stroke-width="3.4375" stroke-linejoin="round" stroke-miterlimit="10" fill="#A9D18E"/></g><g clip-path="url(#clip5)"><path d="M2891.5 2981.5 4899.5 2981.5" stroke="#D9D9D9" stroke-width="3.4375" stroke-linejoin="round" stroke-miterlimit="10" fill="none" fill-rule="evenodd"/></g><g clip-path="url(#clip6)"><path d="M2891.5 2981.5 2891.5 3367.5M3045.6 2981.5 3045.6 3367.5M3431.61 2981.5 3431.61 3367.5M3818.63 2981.5 3818.63 3367.5M4204.64 2981.5 4204.64 3367.5M4590.65 2981.5 4590.65 3367.5M4899.5 2981.5 4899.5 3367.5" stroke="#D9D9D9" stroke-width="3.4375" stroke-linejoin="round" stroke-miterlimit="10" fill="none"/></g><g clip-path="url(#clip7)"><path d="M2891.5 3367.5 2891.5 3447.5M3045.6 3367.5 3045.6 3447.5M3431.61 3367.5 3431.61 3447.5M3818.63 3367.5 3818.63 3447.5M4204.64 3367.5 4204.64 3447.5M4590.65 3367.5 4590.65 3447.5M4899.5 3367.5 4899.5 3447.5" stroke="#D9D9D9" stroke-width="3.4375" stroke-linejoin="round" stroke-miterlimit="10" fill="none"/></g><g clip-path="url(#clip8)"><text fill="#595959" font-family="Calibri,Calibri_MSFontService,sans-serif" font-weight="400" font-size="41" transform="matrix(1 0 0 1 2779.79 2993)">0.86</text></g><g clip-path="url(#clip9)"><text fill="#595959" font-family="Calibri,Calibri_MSFontService,sans-serif" font-weight="400" font-size="41" transform="matrix(1 0 0 1 2779.79 2913)">0.87</text></g><g clip-path="url(#clip10)"><text fill="#595959" font-family="Calibri,Calibri_MSFontService,sans-serif" font-weight="400" font-size="41" transform="matrix(1 0 0 1 2779.79 2834)">0.88</text></g><g clip-path="url(#clip11)"><text fill="#595959" font-family="Calibri,Calibri_MSFontService,sans-serif" font-weight="400" font-size="41" transform="matrix(1 0 0 1 2779.79 2755)">0.89</text></g><g clip-path="url(#clip12)"><text fill="#595959" font-family="Calibri,Calibri_MSFontService,sans-serif" font-weight="400" font-size="41" transform="matrix(1 0 0 1 2800.69 2675)">0.9</text></g><g clip-path="url(#clip13)"><text fill="#595959" font-family="Calibri,Calibri_MSFontService,sans-serif" font-weight="400" font-size="41" transform="matrix(1 0 0 1 2779.79 2596)">0.91</text></g><g clip-path="url(#clip14)"><text fill="#595959" font-family="Calibri,Calibri_MSFontService,sans-serif" font-weight="400" font-size="41" transform="matrix(1 0 0 1 2779.79 2517)">0.92</text></g><g clip-path="url(#clip15)"><text fill="#595959" font-family="Calibri,Calibri_MSFontService,sans-serif" font-weight="400" font-size="41" transform="matrix(1 0 0 1 2779.79 2437)">0.93</text></g><g clip-path="url(#clip16)"><text fill="#595959" font-family="Calibri,Calibri_MSFontService,sans-serif" font-weight="400" font-size="41" transform="matrix(6.12323e-17 -1 1 6.12323e-17 2943.61 3214)">Original-Bild</text></g><g clip-path="url(#clip17)"><text fill="#595959" font-family="Calibri,Calibri_MSFontService,sans-serif" font-weight="400" font-size="41" transform="matrix(6.12323e-17 -1 1 6.12323e-17 3020.86 3318)">JPEG-Kompression</text></g><g clip-path="url(#clip18)"><text fill="#595959" font-family="Calibri,Calibri_MSFontService,sans-serif" font-weight="400" font-size="41" transform="matrix(6.12323e-17 -1 1 6.12323e-17 3098.11 3134)">67 Byte</text></g><g clip-path="url(#clip19)"><text fill="#595959" font-family="Calibri,Calibri_MSFontService,sans-serif" font-weight="400" font-size="41" transform="matrix(6.12323e-17 -1 1 6.12323e-17 3175.35 3133)">1.53 KB</text></g><g clip-path="url(#clip20)"><text fill="#595959" font-family="Calibri,Calibri_MSFontService,sans-serif" font-weight="400" font-size="41" transform="matrix(6.12323e-17 -1 1 6.12323e-17 3252.6 3133)">17.5 KB</text></g><g clip-path="url(#clip21)"><text fill="#595959" font-family="Calibri,Calibri_MSFontService,sans-serif" font-weight="400" font-size="41" transform="matrix(6.12323e-17 -1 1 6.12323e-17 3329.85 3364)">16 KB (min. Entropie)</text></g><g clip-path="url(#clip22)"><text fill="#595959" font-family="Calibri,Calibri_MSFontService,sans-serif" font-weight="400" font-size="41" transform="matrix(6.12323e-17 -1 1 6.12323e-17 3407.09 3255)">16.8 KB (binär)</text></g><g clip-path="url(#clip23)"><text fill="#595959" font-family="Calibri,Calibri_MSFontService,sans-serif" font-weight="400" font-size="41" transform="matrix(6.12323e-17 -1 1 6.12323e-17 3484.34 3134)">67 Byte</text></g><g clip-path="url(#clip24)"><text fill="#595959" font-family="Calibri,Calibri_MSFontService,sans-serif" font-weight="400" font-size="41" transform="matrix(6.12323e-17 -1 1 6.12323e-17 3561.59 3133)">1.53 KB</text></g><g clip-path="url(#clip25)"><text fill="#595959" font-family="Calibri,Calibri_MSFontService,sans-serif" font-weight="400" font-size="41" transform="matrix(6.12323e-17 -1 1 6.12323e-17 3638.83 3133)">17.5 KB</text></g><g clip-path="url(#clip26)"><text fill="#595959" font-family="Calibri,Calibri_MSFontService,sans-serif" font-weight="400" font-size="41" transform="matrix(6.12323e-17 -1 1 6.12323e-17 3716.08 3364)">16 KB (min. Entropie)</text></g><g clip-path="url(#clip27)"><text fill="#595959" font-family="Calibri,Calibri_MSFontService,sans-serif" font-weight="400" font-size="41" transform="matrix(6.12323e-17 -1 1 6.12323e-17 3793.33 3255)">16.8 KB (binär)</text></g><g clip-path="url(#clip28)"><text fill="#595959" font-family="Calibri,Calibri_MSFontService,sans-serif" font-weight="400" font-size="41" transform="matrix(6.12323e-17 -1 1 6.12323e-17 3870.58 3134)">67 Byte</text></g><g clip-path="url(#clip29)"><text fill="#595959" font-family="Calibri,Calibri_MSFontService,sans-serif" font-weight="400" font-size="41" transform="matrix(6.12323e-17 -1 1 6.12323e-17 3947.82 3133)">1.53 KB</text></g><g clip-path="url(#clip30)"><text fill="#595959" font-family="Calibri,Calibri_MSFontService,sans-serif" font-weight="400" font-size="41" transform="matrix(6.12323e-17 -1 1 6.12323e-17 4025.07 3133)">17.5 KB</text></g><g clip-path="url(#clip31)"><text fill="#595959" font-family="Calibri,Calibri_MSFontService,sans-serif" font-weight="400" font-size="41" transform="matrix(6.12323e-17 -1 1 6.12323e-17 4102.32 3364)">16 KB (min. Entropie)</text></g><g clip-path="url(#clip32)"><text fill="#595959" font-family="Calibri,Calibri_MSFontService,sans-serif" font-weight="400" font-size="41" transform="matrix(6.12323e-17 -1 1 6.12323e-17 4179.56 3255)">16.8 KB (binär)</text></g><g clip-path="url(#clip33)"><text fill="#595959" font-family="Calibri,Calibri_MSFontService,sans-serif" font-weight="400" font-size="41" transform="matrix(6.12323e-17 -1 1 6.12323e-17 4256.81 3134)">67 Byte</text></g><g clip-path="url(#clip34)"><text fill="#595959" font-family="Calibri,Calibri_MSFontService,sans-serif" font-weight="400" font-size="41" transform="matrix(6.12323e-17 -1 1 6.12323e-17 4334.06 3133)">1.53 KB</text></g><g clip-path="url(#clip35)"><text fill="#595959" font-family="Calibri,Calibri_MSFontService,sans-serif" font-weight="400" font-size="41" transform="matrix(6.12323e-17 -1 1 6.12323e-17 4411.3 3133)">17.5 KB</text></g><g clip-path="url(#clip36)"><text fill="#595959" font-family="Calibri,Calibri_MSFontService,sans-serif" font-weight="400" font-size="41" transform="matrix(6.12323e-17 -1 1 6.12323e-17 4488.55 3364)">16 KB (min. Entropie)</text></g><g clip-path="url(#clip37)"><text fill="#595959" font-family="Calibri,Calibri_MSFontService,sans-serif" font-weight="400" font-size="41" transform="matrix(6.12323e-17 -1 1 6.12323e-17 4565.8 3255)">16.8 KB (binär)</text></g><g clip-path="url(#clip38)"><text fill="#595959" font-family="Calibri,Calibri_MSFontService,sans-serif" font-weight="400" font-size="41" transform="matrix(6.12323e-17 -1 1 6.12323e-17 4643.04 3134)">67 Byte</text></g><g clip-path="url(#clip39)"><text fill="#595959" font-family="Calibri,Calibri_MSFontService,sans-serif" font-weight="400" font-size="41" transform="matrix(6.12323e-17 -1 1 6.12323e-17 4720.29 3133)">1.53 KB</text></g><g clip-path="url(#clip40)"><text fill="#595959" font-family="Calibri,Calibri_MSFontService,sans-serif" font-weight="400" font-size="41" transform="matrix(6.12323e-17 -1 1 6.12323e-17 4797.54 3133)">17.5 KB</text></g><g clip-path="url(#clip41)"><text fill="#595959" font-family="Calibri,Calibri_MSFontService,sans-serif" font-weight="400" font-size="41" transform="matrix(6.12323e-17 -1 1 6.12323e-17 4874.79 3364)">16 KB (min. Entropie)</text></g><g clip-path="url(#clip42)"><text fill="#595959" font-family="Calibri,Calibri_MSFontService,sans-serif" font-weight="400" font-size="41" transform="matrix(1 0 0 1 3198.89 3432)">jsteg</text></g><g clip-path="url(#clip43)"><text fill="#595959" font-family="Calibri,Calibri_MSFontService,sans-serif" font-weight="400" font-size="41" transform="matrix(1 0 0 1 3549.44 3432)">outguess</text></g><g clip-path="url(#clip44)"><text fill="#595959" font-family="Calibri,Calibri_MSFontService,sans-serif" font-weight="400" font-size="41" transform="matrix(1 0 0 1 3892.81 3432)">outguess-0.13</text></g><g clip-path="url(#clip45)"><text fill="#595959" font-family="Calibri,Calibri_MSFontService,sans-serif" font-weight="400" font-size="41" transform="matrix(1 0 0 1 4325.85 3432)">steghide</text></g><g clip-path="url(#clip46)"><text fill="#595959" font-family="Calibri,Calibri_MSFontService,sans-serif" font-weight="400" font-size="41" transform="matrix(1 0 0 1 4728.35 3432)">f5</text></g><g clip-path="url(#clip47)"><text fill="#595959" font-family="Calibri,Calibri_MSFontService,sans-serif" font-weight="400" font-size="64" transform="matrix(1 0 0 1 3307.5 2295)">durchschnittliche </text></g><g clip-path="url(#clip48)"><text fill="#595959" font-family="Calibri,Calibri_MSFontService,sans-serif" font-weight="700" font-size="64" transform="matrix(1 0 0 1 3770.4 2295)">Entropie</text></g><g clip-path="url(#clip49)"><text fill="#595959" font-family="Calibri,Calibri_MSFontService,sans-serif" font-weight="400" font-size="64" transform="matrix(1 0 0 1 4011.34 2295)">(bows2</text></g><g clip-path="url(#clip50)"><text fill="#595959" font-family="Calibri,Calibri_MSFontService,sans-serif" font-weight="400" font-size="64" transform="matrix(1 0 0 1 4201.03 2295)">-</text></g><g clip-path="url(#clip51)"><text fill="#595959" font-family="Calibri,Calibri_MSFontService,sans-serif" font-weight="400" font-size="64" transform="matrix(1 0 0 1 4220.67 2295)">Bilder)</text></g><g clip-path="url(#clip52)"><text fill="#595959" font-family="Calibri,Calibri_MSFontService,sans-serif" font-weight="400" font-size="46" transform="matrix(1 0 0 1 3778.67 2356)">in [0..1]</text></g><g clip-path="url(#clip53)"><rect x="3358.5" y="3497.5" width="22" height="22.9998" stroke="#333F50" stroke-width="3.4375" stroke-linejoin="round" stroke-miterlimit="10" fill="#8497B0"/></g><g clip-path="url(#clip54)"><text fill="#595959" font-family="Calibri,Calibri_MSFontService,sans-serif" font-weight="400" font-size="41" transform="matrix(1 0 0 1 3390.44 3520)">kein Schlüssel</text></g><g clip-path="url(#clip55)"><rect x="3680.5" y="3497.5" width="23" height="22.9998" stroke="#BF9000" stroke-width="3.4375" stroke-linejoin="round" stroke-miterlimit="10" fill="#FFD966"/></g><g clip-path="url(#clip56)"><text fill="#595959" font-family="Calibri,Calibri_MSFontService,sans-serif" font-weight="400" font-size="41" transform="matrix(1 0 0 1 3713.04 3520)">4 Byte Schlüssel</text></g><g clip-path="url(#clip57)"><rect x="4038.5" y="3497.5" width="23" height="22.9998" stroke="#548235" stroke-width="3.4375" stroke-linejoin="round" stroke-miterlimit="10" fill="#A9D18E"/></g><g clip-path="url(#clip58)"><text fill="#595959" font-family="Calibri,Calibri_MSFontService,sans-serif" font-weight="400" font-size="41" transform="matrix(1 0 0 1 4070.91 3520)">50 Byte Schlüssel</text></g><rect x="2750.5" y="2200.5" width="2200" height="1375" stroke="#D9D9D9" stroke-width="3.4375" stroke-linejoin="round" stroke-miterlimit="10" fill="none"/></g></svg>