<svg width="2203" height="1378" xmlns="http://www.w3.org/2000/svg" xmlns:xlink="http://www.w3.org/1999/xlink" xml:space="preserve" overflow="hidden"><defs><clipPath id="clip0"><rect x="2749" y="3643" width="2203" height="1378"/></clipPath><clipPath id="clip1"><rect x="2750" y="3643" width="2200" height="1375"/></clipPath><clipPath id="clip2"><rect x="2891" y="3869" width="2012" height="559"/></clipPath><clipPath id="clip3"><rect x="2891" y="3869" width="2012" height="559"/></clipPath><clipPath id="clip4"><rect x="2891" y="3869" width="2012" height="559"/></clipPath><clipPath id="clip5"><rect x="2750" y="3643" width="2200" height="1375"/></clipPath><clipPath id="clip6"><rect x="2750" y="3643" width="2200" height="1375"/></clipPath><clipPath id="clip7"><rect x="2750" y="3643" width="2200" height="1375"/></clipPath><clipPath id="clip8"><rect x="2750" y="3643" width="2200" height="1375"/></clipPath><clipPath id="clip9"><rect x="2750" y="3643" width="2200" height="1375"/></clipPath><clipPath id="clip10"><rect x="2750" y="3643" width="2200" height="1375"/></clipPath><clipPath id="clip11"><rect x="2750" y="3643" width="2200" height="1375"/></clipPath><clipPath id="clip12"><rect x="2750" y="3643" width="2200" height="1375"/></clipPath><clipPath id="clip13"><rect x="2750" y="3643" width="2200" height="1375"/></clipPath><clipPath id="clip14"><rect x="2750" y="3643" width="2200" height="1375"/></clipPath><clipPath id="clip15"><rect x="2750" y="3643" width="2200" height="1375"/></clipPath><clipPath id="clip16"><rect x="2750" y="3643" width="2200" height="1375"/></clipPath><clipPath id="clip17"><rect x="2750" y="3643" width="2200" height="1375"/></clipPath><clipPath id="clip18"><rect x="2750" y="3643" width="2200" height="1375"/></clipPath><clipPath id="clip19"><rect x="2750" y="3643" width="2200" height="1375"/></clipPath><clipPath id="clip20"><rect x="2750" y="3643" width="2200" height="1375"/></clipPath><clipPath id="clip21"><rect x="2750" y="3643" width="2200" height="1375"/></clipPath><clipPath id="clip22"><rect x="2750" y="3643" width="2200" height="1375"/></clipPath><clipPath id="clip23"><rect x="2750" y="3643" width="2200" height="1375"/></clipPath><clipPath id="clip24"><rect x="2750" y="3643" width="2200" height="1375"/></clipPath><clipPath id="clip25"><rect x="2750" y="3643" width="2200" height="1375"/></clipPath><clipPath id="clip26"><rect x="2750" y="3643" width="2200" height="1375"/></clipPath><clipPath id="clip27"><rect x="2750" y="3643" width="2200" height="1375"/></clipPath><clipPath id="clip28"><rect x="2750" y="3643" width="2200" height="1375"/></clipPath><clipPath id="clip29"><rect x="2750" y="3643" width="2200" height="1375"/></clipPath><clipPath id="clip30"><rect x="2750" y="3643" width="2200" height="1375"/></clipPath><clipPath id="clip31"><rect x="2750" y="3643" width="2200" height="1375"/></clipPath><clipPath id="clip32"><rect x="2750" y="3643" width="2200" height="1375"/></clipPath><clipPath id="clip33"><rect x="2750" y="3643" width="2200" height="1375"/></clipPath><clipPath id="clip34"><rect x="2750" y="3643" width="2200" height="1375"/></clipPath><clipPath id="clip35"><rect x="2750" y="3643" width="2200" height="1375"/></clipPath><clipPath id="clip36"><rect x="2750" y="3643" width="2200" height="1375"/></clipPath><clipPath id="clip37"><rect x="2750" y="3643" width="2200" height="1375"/></clipPath><clipPath id="clip38"><rect x="2750" y="3643" width="2200" height="1375"/></clipPath><clipPath id="clip39"><rect x="2750" y="3643" width="2200" height="1375"/></clipPath><clipPath id="clip40"><rect x="2750" y="3643" width="2200" height="1375"/></clipPath><clipPath id="clip41"><rect x="2750" y="3643" width="2200" height="1375"/></clipPath><clipPath id="clip42"><rect x="2750" y="3643" width="2200" height="1375"/></clipPath><clipPath id="clip43"><rect x="2750" y="3643" width="2200" height="1375"/></clipPath><clipPath id="clip44"><rect x="2750" y="3643" width="2200" height="1375"/></clipPath><clipPath id="clip45"><rect x="2750" y="3643" width="2200" height="1375"/></clipPath><clipPath id="clip46"><rect x="2750" y="3643" width="2200" height="1375"/></clipPath><clipPath id="clip47"><rect x="2750" y="3643" width="2200" height="1375"/></clipPath><clipPath id="clip48"><rect x="2750" y="3643" width="2200" height="1375"/></clipPath><clipPath id="clip49"><rect x="2750" y="3643" width="2200" height="1375"/></clipPath><clipPath id="clip50"><rect x="2750" y="3643" width="2200" height="1375"/></clipPath><clipPath id="clip51"><rect x="2750" y="3643" width="2200" height="1375"/></clipPath><clipPath id="clip52"><rect x="2750" y="3643" width="2200" height="1375"/></clipPath><clipPath id="clip53"><rect x="2750" y="3643" width="2200" height="1375"/></clipPath><clipPath id="clip54"><rect x="2750" y="3643" width="2200" height="1375"/></clipPath><clipPath id="clip55"><rect x="2750" y="3643" width="2200" height="1375"/></clipPath><clipPath id="clip56"><rect x="2750" y="3643" width="2200" height="1375"/></clipPath><clipPath id="clip57"><rect x="2750" y="3643" width="2200" height="1375"/></clipPath><clipPath id="clip58"><rect x="2750" y="3643" width="2200" height="1375"/></clipPath><clipPath id="clip59"><rect x="2750" y="3643" width="2200" height="1375"/></clipPath><clipPath id="clip60"><rect x="2750" y="3643" width="2200" height="1375"/></clipPath></defs><g clip-path="url(#clip0)" transform="translate(-2749 -3643)"><rect x="2750" y="3644" width="2200" height="1375" fill="#FFFFFF"/><g clip-path="url(#clip1)"><path d="M2891.5 4345.64 4899.5 4345.64M2891.5 4266.64 4899.5 4266.64M2891.5 4186.64 4899.5 4186.64M2891.5 4107.63 4899.5 4107.63M2891.5 4028.63 4899.5 4028.63M2891.5 3948.63 4899.5 3948.63M2891.5 3869.5 4899.5 3869.5" stroke="#D9D9D9" stroke-width="3.4375" stroke-linejoin="round" stroke-miterlimit="10" fill="none"/></g><g clip-path="url(#clip2)"><path d="M2905.6 4117.64 2919.6 4117.64 2919.6 4424.5 2905.6 4424.5ZM2983.6 4140.64 2996.6 4140.64 2996.6 4424.5 2983.6 4424.5ZM3060.6 4184.64 3073.6 4184.64 3073.6 4424.5 3060.6 4424.5ZM3137.6 4184.64 3151.6 4184.64 3151.6 4424.5 3137.6 4424.5ZM3214.61 4183.64 3228.61 4183.64 3228.61 4424.5 3214.61 4424.5ZM3292.61 4183.64 3305.61 4183.64 3305.61 4424.5 3292.61 4424.5ZM3369.61 4182.64 3382.61 4182.64 3382.61 4424.5 3369.61 4424.5ZM3446.61 4241.64 3460.61 4241.64 3460.61 4424.5 3446.61 4424.5ZM3523.62 4319.64 3537.62 4319.64 3537.62 4424.5 3523.62 4424.5ZM3601.62 3962.63 3614.62 3962.63 3614.62 4424.5 3601.62 4424.5ZM3678.62 3963.63 3691.62 3963.63 3691.62 4424.5 3678.62 4424.5ZM3755.62 3963.63 3768.62 3963.63 3768.62 4424.5 3755.62 4424.5ZM3832.63 4181.64 3846.63 4181.64 3846.63 4424.5 3832.63 4424.5ZM3910.63 4181.64 3923.63 4181.64 3923.63 4424.5 3910.63 4424.5ZM3987.63 3969.63 4000.63 3969.63 4000.63 4424.5 3987.63 4424.5ZM4064.63 3969.63 4077.63 3969.63 4077.63 4424.5 4064.63 4424.5ZM4141.64 3968.63 4155.64 3968.63 4155.64 4424.5 4141.64 4424.5Z" stroke="#333F50" stroke-width="3.4375" stroke-linejoin="round" stroke-miterlimit="10" fill="#8497B0"/></g><g clip-path="url(#clip3)"><path d="M3463.61 4241.64 3477.61 4241.64 3477.61 4424.5 3463.61 4424.5ZM3540.62 4319.64 3554.62 4319.64 3554.62 4424.5 3540.62 4424.5ZM3618.62 3962.63 3631.62 3962.63 3631.62 4424.5 3618.62 4424.5ZM3695.62 3963.63 3708.62 3963.63 3708.62 4424.5 3695.62 4424.5ZM3772.62 3963.63 3786.62 3963.63 3786.62 4424.5 3772.62 4424.5ZM3849.63 4181.64 3863.63 4181.64 3863.63 4424.5 3849.63 4424.5ZM3927.63 4180.64 3940.63 4180.64 3940.63 4424.5 3927.63 4424.5ZM4004.63 3969.63 4017.63 3969.63 4017.63 4424.5 4004.63 4424.5ZM4081.63 3970.63 4095.63 3970.63 4095.63 4424.5 4081.63 4424.5ZM4158.64 3969.63 4172.64 3969.63 4172.64 4424.5 4158.64 4424.5ZM4236.64 4117.64 4249.64 4117.64 4249.64 4424.5 4236.64 4424.5ZM4313.64 4117.64 4326.64 4117.64 4326.64 4424.5 4313.64 4424.5ZM4390.64 4117.64 4404.64 4117.64 4404.64 4424.5 4390.64 4424.5ZM4467.65 4117.64 4481.65 4117.64 4481.65 4424.5 4467.65 4424.5ZM4545.65 4117.64 4558.65 4117.64 4558.65 4424.5 4545.65 4424.5Z" stroke="#BF9000" stroke-width="3.4375" stroke-linejoin="round" stroke-miterlimit="10" fill="#FFD966"/></g><g clip-path="url(#clip4)"><path d="M3480.61 4241.64 3494.61 4241.64 3494.61 4424.5 3480.61 4424.5ZM3558.62 4320.64 3571.62 4320.64 3571.62 4424.5 3558.62 4424.5ZM3635.62 3962.63 3648.62 3962.63 3648.62 4424.5 3635.62 4424.5ZM3712.62 3963.63 3725.62 3963.63 3725.62 4424.5 3712.62 4424.5ZM3789.62 3963.63 3803.62 3963.63 3803.62 4424.5 3789.62 4424.5ZM3867.63 4181.64 3880.63 4181.64 3880.63 4424.5 3867.63 4424.5ZM3944.63 4180.64 3957.63 4180.64 3957.63 4424.5 3944.63 4424.5ZM4021.63 3968.63 4034.63 3968.63 4034.63 4424.5 4021.63 4424.5ZM4098.63 3968.63 4112.64 3968.63 4112.64 4424.5 4098.63 4424.5ZM4175.64 3969.63 4189.64 3969.63 4189.64 4424.5 4175.64 4424.5ZM4253.64 4117.64 4266.64 4117.64 4266.64 4424.5 4253.64 4424.5ZM4330.64 4117.64 4343.64 4117.64 4343.64 4424.5 4330.64 4424.5ZM4407.65 4117.64 4421.65 4117.64 4421.65 4424.5 4407.65 4424.5ZM4484.65 4117.64 4498.65 4117.64 4498.65 4424.5 4484.65 4424.5ZM4562.65 4117.64 4575.65 4117.64 4575.65 4424.5 4562.65 4424.5Z" stroke="#548235" stroke-width="3.4375" stroke-linejoin="round" stroke-miterlimit="10" fill="#A9D18E"/></g><g clip-path="url(#clip5)"><path d="M2891.5 4424.5 4899.5 4424.5" stroke="#D9D9D9" stroke-width="3.4375" stroke-linejoin="round" stroke-miterlimit="10" fill="none" fill-rule="evenodd"/></g><g clip-path="url(#clip6)"><path d="M2891.5 4424.5 2891.5 4811.5M3045.6 4424.5 3045.6 4811.5M3431.61 4424.5 3431.61 4811.5M3818.63 4424.5 3818.63 4811.5M4204.64 4424.5 4204.64 4811.5M4590.65 4424.5 4590.65 4811.5M4899.5 4424.5 4899.5 4811.5" stroke="#D9D9D9" stroke-width="3.4375" stroke-linejoin="round" stroke-miterlimit="10" fill="none"/></g><g clip-path="url(#clip7)"><path d="M2891.5 4811.5 2891.5 4890.5M3045.6 4811.5 3045.6 4890.5M3431.61 4811.5 3431.61 4890.5M3818.63 4811.5 3818.63 4890.5M4204.64 4811.5 4204.64 4890.5M4590.65 4811.5 4590.65 4890.5M4899.5 4811.5 4899.5 4890.5" stroke="#D9D9D9" stroke-width="3.4375" stroke-linejoin="round" stroke-miterlimit="10" fill="none"/></g><g clip-path="url(#clip8)"><text fill="#595959" font-family="Calibri,Calibri_MSFontService,sans-serif" font-weight="400" font-size="41" transform="matrix(1 0 0 1 2779.79 4436)">0.54</text></g><g clip-path="url(#clip9)"><text fill="#595959" font-family="Calibri,Calibri_MSFontService,sans-serif" font-weight="400" font-size="41" transform="matrix(1 0 0 1 2779.79 4357)">0.56</text></g><g clip-path="url(#clip10)"><text fill="#595959" font-family="Calibri,Calibri_MSFontService,sans-serif" font-weight="400" font-size="41" transform="matrix(1 0 0 1 2779.79 4278)">0.58</text></g><g clip-path="url(#clip11)"><text fill="#595959" font-family="Calibri,Calibri_MSFontService,sans-serif" font-weight="400" font-size="41" transform="matrix(1 0 0 1 2800.69 4198)">0.6</text></g><g clip-path="url(#clip12)"><text fill="#595959" font-family="Calibri,Calibri_MSFontService,sans-serif" font-weight="400" font-size="41" transform="matrix(1 0 0 1 2779.79 4119)">0.62</text></g><g clip-path="url(#clip13)"><text fill="#595959" font-family="Calibri,Calibri_MSFontService,sans-serif" font-weight="400" font-size="41" transform="matrix(1 0 0 1 2779.79 4040)">0.64</text></g><g clip-path="url(#clip14)"><text fill="#595959" font-family="Calibri,Calibri_MSFontService,sans-serif" font-weight="400" font-size="41" transform="matrix(1 0 0 1 2779.79 3961)">0.66</text></g><g clip-path="url(#clip15)"><text fill="#595959" font-family="Calibri,Calibri_MSFontService,sans-serif" font-weight="400" font-size="41" transform="matrix(1 0 0 1 2779.79 3881)">0.68</text></g><g clip-path="url(#clip16)"><text fill="#595959" font-family="Calibri,Calibri_MSFontService,sans-serif" font-weight="400" font-size="41" transform="matrix(6.12323e-17 -1 1 6.12323e-17 2943.61 4658)">Original-Bild</text></g><g clip-path="url(#clip17)"><text fill="#595959" font-family="Calibri,Calibri_MSFontService,sans-serif" font-weight="400" font-size="41" transform="matrix(6.12323e-17 -1 1 6.12323e-17 3020.86 4762)">JPEG-Kompression</text></g><g clip-path="url(#clip18)"><text fill="#595959" font-family="Calibri,Calibri_MSFontService,sans-serif" font-weight="400" font-size="41" transform="matrix(6.12323e-17 -1 1 6.12323e-17 3098.11 4578)">67 Byte</text></g><g clip-path="url(#clip19)"><text fill="#595959" font-family="Calibri,Calibri_MSFontService,sans-serif" font-weight="400" font-size="41" transform="matrix(6.12323e-17 -1 1 6.12323e-17 3175.35 4577)">1.53 KB</text></g><g clip-path="url(#clip20)"><text fill="#595959" font-family="Calibri,Calibri_MSFontService,sans-serif" font-weight="400" font-size="41" transform="matrix(6.12323e-17 -1 1 6.12323e-17 3252.6 4577)">17.5 KB</text></g><g clip-path="url(#clip21)"><text fill="#595959" font-family="Calibri,Calibri_MSFontService,sans-serif" font-weight="400" font-size="41" transform="matrix(6.12323e-17 -1 1 6.12323e-17 3329.85 4808)">16 KB (min. Entropie)</text></g><g clip-path="url(#clip22)"><text fill="#595959" font-family="Calibri,Calibri_MSFontService,sans-serif" font-weight="400" font-size="41" transform="matrix(6.12323e-17 -1 1 6.12323e-17 3407.09 4699)">16.8 KB (binär)</text></g><g clip-path="url(#clip23)"><text fill="#595959" font-family="Calibri,Calibri_MSFontService,sans-serif" font-weight="400" font-size="41" transform="matrix(6.12323e-17 -1 1 6.12323e-17 3484.34 4578)">67 Byte</text></g><g clip-path="url(#clip24)"><text fill="#595959" font-family="Calibri,Calibri_MSFontService,sans-serif" font-weight="400" font-size="41" transform="matrix(6.12323e-17 -1 1 6.12323e-17 3561.59 4577)">1.53 KB</text></g><g clip-path="url(#clip25)"><text fill="#595959" font-family="Calibri,Calibri_MSFontService,sans-serif" font-weight="400" font-size="41" transform="matrix(6.12323e-17 -1 1 6.12323e-17 3638.83 4577)">17.5 KB</text></g><g clip-path="url(#clip26)"><text fill="#595959" font-family="Calibri,Calibri_MSFontService,sans-serif" font-weight="400" font-size="41" transform="matrix(6.12323e-17 -1 1 6.12323e-17 3716.08 4808)">16 KB (min. Entropie)</text></g><g clip-path="url(#clip27)"><text fill="#595959" font-family="Calibri,Calibri_MSFontService,sans-serif" font-weight="400" font-size="41" transform="matrix(6.12323e-17 -1 1 6.12323e-17 3793.33 4699)">16.8 KB (binär)</text></g><g clip-path="url(#clip28)"><text fill="#595959" font-family="Calibri,Calibri_MSFontService,sans-serif" font-weight="400" font-size="41" transform="matrix(6.12323e-17 -1 1 6.12323e-17 3870.58 4578)">67 Byte</text></g><g clip-path="url(#clip29)"><text fill="#595959" font-family="Calibri,Calibri_MSFontService,sans-serif" font-weight="400" font-size="41" transform="matrix(6.12323e-17 -1 1 6.12323e-17 3947.82 4577)">1.53 KB</text></g><g clip-path="url(#clip30)"><text fill="#595959" font-family="Calibri,Calibri_MSFontService,sans-serif" font-weight="400" font-size="41" transform="matrix(6.12323e-17 -1 1 6.12323e-17 4025.07 4577)">17.5 KB</text></g><g clip-path="url(#clip31)"><text fill="#595959" font-family="Calibri,Calibri_MSFontService,sans-serif" font-weight="400" font-size="41" transform="matrix(6.12323e-17 -1 1 6.12323e-17 4102.32 4808)">16 KB (min. Entropie)</text></g><g clip-path="url(#clip32)"><text fill="#595959" font-family="Calibri,Calibri_MSFontService,sans-serif" font-weight="400" font-size="41" transform="matrix(6.12323e-17 -1 1 6.12323e-17 4179.56 4699)">16.8 KB (binär)</text></g><g clip-path="url(#clip33)"><text fill="#595959" font-family="Calibri,Calibri_MSFontService,sans-serif" font-weight="400" font-size="41" transform="matrix(6.12323e-17 -1 1 6.12323e-17 4256.81 4578)">67 Byte</text></g><g clip-path="url(#clip34)"><text fill="#595959" font-family="Calibri,Calibri_MSFontService,sans-serif" font-weight="400" font-size="41" transform="matrix(6.12323e-17 -1 1 6.12323e-17 4334.06 4577)">1.53 KB</text></g><g clip-path="url(#clip35)"><text fill="#595959" font-family="Calibri,Calibri_MSFontService,sans-serif" font-weight="400" font-size="41" transform="matrix(6.12323e-17 -1 1 6.12323e-17 4411.3 4577)">17.5 KB</text></g><g clip-path="url(#clip36)"><text fill="#595959" font-family="Calibri,Calibri_MSFontService,sans-serif" font-weight="400" font-size="41" transform="matrix(6.12323e-17 -1 1 6.12323e-17 4488.55 4808)">16 KB (min. Entropie)</text></g><g clip-path="url(#clip37)"><text fill="#595959" font-family="Calibri,Calibri_MSFontService,sans-serif" font-weight="400" font-size="41" transform="matrix(6.12323e-17 -1 1 6.12323e-17 4565.8 4699)">16.8 KB (binär)</text></g><g clip-path="url(#clip38)"><text fill="#595959" font-family="Calibri,Calibri_MSFontService,sans-serif" font-weight="400" font-size="41" transform="matrix(6.12323e-17 -1 1 6.12323e-17 4643.04 4578)">67 Byte</text></g><g clip-path="url(#clip39)"><text fill="#595959" font-family="Calibri,Calibri_MSFontService,sans-serif" font-weight="400" font-size="41" transform="matrix(6.12323e-17 -1 1 6.12323e-17 4720.29 4577)">1.53 KB</text></g><g clip-path="url(#clip40)"><text fill="#595959" font-family="Calibri,Calibri_MSFontService,sans-serif" font-weight="400" font-size="41" transform="matrix(6.12323e-17 -1 1 6.12323e-17 4797.54 4577)">17.5 KB</text></g><g clip-path="url(#clip41)"><text fill="#595959" font-family="Calibri,Calibri_MSFontService,sans-serif" font-weight="400" font-size="41" transform="matrix(6.12323e-17 -1 1 6.12323e-17 4874.79 4808)">16 KB (min. Entropie)</text></g><g clip-path="url(#clip42)"><text fill="#595959" font-family="Calibri,Calibri_MSFontService,sans-serif" font-weight="400" font-size="41" transform="matrix(1 0 0 1 3198.89 4876)">jsteg</text></g><g clip-path="url(#clip43)"><text fill="#595959" font-family="Calibri,Calibri_MSFontService,sans-serif" font-weight="400" font-size="41" transform="matrix(1 0 0 1 3549.44 4876)">outguess</text></g><g clip-path="url(#clip44)"><text fill="#595959" font-family="Calibri,Calibri_MSFontService,sans-serif" font-weight="400" font-size="41" transform="matrix(1 0 0 1 3892.81 4876)">outguess-0.13</text></g><g clip-path="url(#clip45)"><text fill="#595959" font-family="Calibri,Calibri_MSFontService,sans-serif" font-weight="400" font-size="41" transform="matrix(1 0 0 1 4325.85 4876)">steghide</text></g><g clip-path="url(#clip46)"><text fill="#595959" font-family="Calibri,Calibri_MSFontService,sans-serif" font-weight="400" font-size="41" transform="matrix(1 0 0 1 4728.35 4876)">f5</text></g><g clip-path="url(#clip47)"><text fill="#595959" font-family="Calibri,Calibri_MSFontService,sans-serif" font-weight="400" font-size="64" transform="matrix(1 0 0 1 3185.07 3739)">durchschnittliche </text></g><g clip-path="url(#clip48)"><text fill="#595959" font-family="Calibri,Calibri_MSFontService,sans-serif" font-weight="700" font-size="64" transform="matrix(1 0 0 1 3647.97 3739)">Entropie</text></g><g clip-path="url(#clip49)"><text fill="#595959" font-family="Calibri,Calibri_MSFontService,sans-serif" font-weight="400" font-size="64" transform="matrix(1 0 0 1 3888.91 3739)">(High</text></g><g clip-path="url(#clip50)"><text fill="#595959" font-family="Calibri,Calibri_MSFontService,sans-serif" font-weight="400" font-size="64" transform="matrix(1 0 0 1 4027.01 3739)">-</text></g><g clip-path="url(#clip51)"><text fill="#595959" font-family="Calibri,Calibri_MSFontService,sans-serif" font-weight="400" font-size="64" transform="matrix(1 0 0 1 4046.65 3739)">Resolution</text></g><g clip-path="url(#clip52)"><text fill="#595959" font-family="Calibri,Calibri_MSFontService,sans-serif" font-weight="400" font-size="64" transform="matrix(1 0 0 1 4323.46 3739)">-</text></g><g clip-path="url(#clip53)"><text fill="#595959" font-family="Calibri,Calibri_MSFontService,sans-serif" font-weight="400" font-size="64" transform="matrix(1 0 0 1 4343.1 3739)">Bilder)</text></g><g clip-path="url(#clip54)"><text fill="#595959" font-family="Calibri,Calibri_MSFontService,sans-serif" font-weight="400" font-size="46" transform="matrix(1 0 0 1 3778.66 3800)">in [0..1]</text></g><g clip-path="url(#clip55)"><rect x="3358.5" y="4941.5" width="22" height="22" stroke="#333F50" stroke-width="3.4375" stroke-linejoin="round" stroke-miterlimit="10" fill="#8497B0"/></g><g clip-path="url(#clip56)"><text fill="#595959" font-family="Calibri,Calibri_MSFontService,sans-serif" font-weight="400" font-size="41" transform="matrix(1 0 0 1 3390.44 4964)">kein Schlüssel</text></g><g clip-path="url(#clip57)"><rect x="3680.5" y="4941.5" width="23" height="22" stroke="#BF9000" stroke-width="3.4375" stroke-linejoin="round" stroke-miterlimit="10" fill="#FFD966"/></g><g clip-path="url(#clip58)"><text fill="#595959" font-family="Calibri,Calibri_MSFontService,sans-serif" font-weight="400" font-size="41" transform="matrix(1 0 0 1 3713.04 4964)">4 Byte Schlüssel</text></g><g clip-path="url(#clip59)"><rect x="4038.5" y="4941.5" width="23" height="22" stroke="#548235" stroke-width="3.4375" stroke-linejoin="round" stroke-miterlimit="10" fill="#A9D18E"/></g><g clip-path="url(#clip60)"><text fill="#595959" font-family="Calibri,Calibri_MSFontService,sans-serif" font-weight="400" font-size="41" transform="matrix(1 0 0 1 4070.91 4964)">50 Byte Schlüssel</text></g><rect x="2750.5" y="3644.5" width="2200" height="1375" stroke="#D9D9D9" stroke-width="3.4375" stroke-linejoin="round" stroke-miterlimit="10" fill="none"/></g></svg>