<svg width="2203" height="1376" xmlns="http://www.w3.org/2000/svg" xmlns:xlink="http://www.w3.org/1999/xlink" xml:space="preserve" overflow="hidden"><defs><clipPath id="clip0"><rect x="274" y="2201" width="2203" height="1376"/></clipPath><clipPath id="clip1"><rect x="275" y="2201" width="2200" height="1374"/></clipPath><clipPath id="clip2"><rect x="416" y="2427" width="2012" height="557"/></clipPath><clipPath id="clip3"><rect x="416" y="2427" width="2012" height="557"/></clipPath><clipPath id="clip4"><rect x="416" y="2427" width="2012" height="557"/></clipPath><clipPath id="clip5"><rect x="275" y="2201" width="2200" height="1374"/></clipPath><clipPath id="clip6"><rect x="275" y="2201" width="2200" height="1374"/></clipPath><clipPath id="clip7"><rect x="275" y="2201" width="2200" height="1374"/></clipPath><clipPath id="clip8"><rect x="275" y="2201" width="2200" height="1374"/></clipPath><clipPath id="clip9"><rect x="275" y="2201" width="2200" height="1374"/></clipPath><clipPath id="clip10"><rect x="275" y="2201" width="2200" height="1374"/></clipPath><clipPath id="clip11"><rect x="275" y="2201" width="2200" height="1374"/></clipPath><clipPath id="clip12"><rect x="275" y="2201" width="2200" height="1374"/></clipPath><clipPath id="clip13"><rect x="275" y="2201" width="2200" height="1374"/></clipPath><clipPath id="clip14"><rect x="275" y="2201" width="2200" height="1374"/></clipPath><clipPath id="clip15"><rect x="275" y="2201" width="2200" height="1374"/></clipPath><clipPath id="clip16"><rect x="275" y="2201" width="2200" height="1374"/></clipPath><clipPath id="clip17"><rect x="275" y="2201" width="2200" height="1374"/></clipPath><clipPath id="clip18"><rect x="275" y="2201" width="2200" height="1374"/></clipPath><clipPath id="clip19"><rect x="275" y="2201" width="2200" height="1374"/></clipPath><clipPath id="clip20"><rect x="275" y="2201" width="2200" height="1374"/></clipPath><clipPath id="clip21"><rect x="275" y="2201" width="2200" height="1374"/></clipPath><clipPath id="clip22"><rect x="275" y="2201" width="2200" height="1374"/></clipPath><clipPath id="clip23"><rect x="275" y="2201" width="2200" height="1374"/></clipPath><clipPath id="clip24"><rect x="275" y="2201" width="2200" height="1374"/></clipPath><clipPath id="clip25"><rect x="275" y="2201" width="2200" height="1374"/></clipPath><clipPath id="clip26"><rect x="275" y="2201" width="2200" height="1374"/></clipPath><clipPath id="clip27"><rect x="275" y="2201" width="2200" height="1374"/></clipPath><clipPath id="clip28"><rect x="275" y="2201" width="2200" height="1374"/></clipPath><clipPath id="clip29"><rect x="275" y="2201" width="2200" height="1374"/></clipPath><clipPath id="clip30"><rect x="275" y="2201" width="2200" height="1374"/></clipPath><clipPath id="clip31"><rect x="275" y="2201" width="2200" height="1374"/></clipPath><clipPath id="clip32"><rect x="275" y="2201" width="2200" height="1374"/></clipPath><clipPath id="clip33"><rect x="275" y="2201" width="2200" height="1374"/></clipPath><clipPath id="clip34"><rect x="275" y="2201" width="2200" height="1374"/></clipPath><clipPath id="clip35"><rect x="275" y="2201" width="2200" height="1374"/></clipPath><clipPath id="clip36"><rect x="275" y="2201" width="2200" height="1374"/></clipPath><clipPath id="clip37"><rect x="275" y="2201" width="2200" height="1374"/></clipPath><clipPath id="clip38"><rect x="275" y="2201" width="2200" height="1374"/></clipPath><clipPath id="clip39"><rect x="275" y="2201" width="2200" height="1374"/></clipPath><clipPath id="clip40"><rect x="275" y="2201" width="2200" height="1374"/></clipPath><clipPath id="clip41"><rect x="275" y="2201" width="2200" height="1374"/></clipPath><clipPath id="clip42"><rect x="275" y="2201" width="2200" height="1374"/></clipPath><clipPath id="clip43"><rect x="275" y="2201" width="2200" height="1374"/></clipPath><clipPath id="clip44"><rect x="275" y="2201" width="2200" height="1374"/></clipPath><clipPath id="clip45"><rect x="275" y="2201" width="2200" height="1374"/></clipPath><clipPath id="clip46"><rect x="275" y="2201" width="2200" height="1374"/></clipPath><clipPath id="clip47"><rect x="275" y="2201" width="2200" height="1374"/></clipPath><clipPath id="clip48"><rect x="275" y="2201" width="2200" height="1374"/></clipPath><clipPath id="clip49"><rect x="275" y="2201" width="2200" height="1374"/></clipPath><clipPath id="clip50"><rect x="275" y="2201" width="2200" height="1374"/></clipPath><clipPath id="clip51"><rect x="275" y="2201" width="2200" height="1374"/></clipPath><clipPath id="clip52"><rect x="275" y="2201" width="2200" height="1374"/></clipPath><clipPath id="clip53"><rect x="275" y="2201" width="2200" height="1374"/></clipPath><clipPath id="clip54"><rect x="275" y="2201" width="2200" height="1374"/></clipPath><clipPath id="clip55"><rect x="275" y="2201" width="2200" height="1374"/></clipPath><clipPath id="clip56"><rect x="275" y="2201" width="2200" height="1374"/></clipPath><clipPath id="clip57"><rect x="275" y="2201" width="2200" height="1374"/></clipPath><clipPath id="clip58"><rect x="275" y="2201" width="2200" height="1374"/></clipPath></defs><g clip-path="url(#clip0)" transform="translate(-274 -2201)"><rect x="275" y="2202" width="2200" height="1373" fill="#FFFFFF"/><g clip-path="url(#clip1)"><path d="M416.5 2901.6 2424.5 2901.6M416.5 2822.59 2424.5 2822.59M416.5 2743.59 2424.5 2743.59M416.5 2664.59 2424.5 2664.59M416.5 2585.58 2424.5 2585.58M416.5 2506.58 2424.5 2506.58M416.5 2427.5 2424.5 2427.5" stroke="#D9D9D9" stroke-width="3.4375" stroke-linejoin="round" stroke-miterlimit="10" fill="none"/></g><g clip-path="url(#clip2)"><path d="M430.514 2729.59 444.515 2729.59 444.515 2981.5 430.514 2981.5ZM508.517 2728.59 521.517 2728.59 521.517 2981.5 508.517 2981.5ZM585.519 2743.59 598.52 2743.59 598.52 2981.5 585.519 2981.5ZM662.522 2826.59 676.522 2826.59 676.522 2981.5 662.522 2981.5ZM739.524 2904.6 753.525 2904.6 753.525 2981.5 739.524 2981.5ZM817.527 2906.6 830.527 2906.6 830.527 2981.5 817.527 2981.5ZM894.53 2909.6 907.53 2909.6 907.53 2981.5 894.53 2981.5ZM971.532 2732.59 985.533 2732.59 985.533 2981.5 971.532 2981.5ZM1048.53 2649.59 1062.54 2649.59 1062.54 2981.5 1048.53 2981.5ZM1357.54 2728.59 1371.55 2728.59 1371.55 2981.5 1357.54 2981.5ZM1435.55 2635.59 1448.55 2635.59 1448.55 2981.5 1435.55 2981.5ZM2130.57 2691.59 2143.57 2691.59 2143.57 2981.5 2130.57 2981.5ZM2207.57 2694.59 2221.57 2694.59 2221.57 2981.5 2207.57 2981.5ZM2284.58 2707.59 2298.58 2707.59 2298.58 2981.5 2284.58 2981.5ZM2362.58 2707.59 2375.58 2707.59 2375.58 2981.5 2362.58 2981.5Z" stroke="#333F50" stroke-width="3.4375" stroke-linejoin="round" stroke-miterlimit="10" fill="#8497B0"/></g><g clip-path="url(#clip3)"><path d="M988.533 2732.59 1002.53 2732.59 1002.53 2981.5 988.533 2981.5ZM1065.54 2649.59 1079.54 2649.59 1079.54 2981.5 1065.54 2981.5ZM1374.55 2728.59 1388.55 2728.59 1388.55 2981.5 1374.55 2981.5ZM1452.55 2635.59 1465.55 2635.59 1465.55 2981.5 1452.55 2981.5ZM1761.56 2692.59 1774.56 2692.59 1774.56 2981.5 1761.56 2981.5ZM1838.56 2691.59 1851.56 2691.59 1851.56 2981.5 1838.56 2981.5ZM1915.56 2691.59 1929.56 2691.59 1929.56 2981.5 1915.56 2981.5ZM1992.57 2691.59 2006.57 2691.59 2006.57 2981.5 1992.57 2981.5ZM2070.57 2691.59 2083.57 2691.59 2083.57 2981.5 2070.57 2981.5ZM2147.57 2691.59 2160.57 2691.59 2160.57 2981.5 2147.57 2981.5ZM2224.57 2694.59 2238.57 2694.59 2238.57 2981.5 2224.57 2981.5ZM2301.58 2706.59 2315.58 2706.59 2315.58 2981.5 2301.58 2981.5ZM2379.58 2707.59 2392.58 2707.59 2392.58 2981.5 2379.58 2981.5Z" stroke="#BF9000" stroke-width="3.4375" stroke-linejoin="round" stroke-miterlimit="10" fill="#FFD966"/></g><g clip-path="url(#clip4)"><path d="M1005.53 2733.59 1019.53 2733.59 1019.53 2981.5 1005.53 2981.5ZM1083.54 2650.59 1096.54 2650.59 1096.54 2981.5 1083.54 2981.5ZM1392.55 2727.59 1405.55 2727.59 1405.55 2981.5 1392.55 2981.5ZM1469.55 2635.59 1482.55 2635.59 1482.55 2981.5 1469.55 2981.5ZM1778.56 2729.59 1791.56 2729.59 1791.56 2981.5 1778.56 2981.5ZM1855.56 2725.59 1869.56 2725.59 1869.56 2981.5 1855.56 2981.5ZM1932.56 2725.59 1946.56 2725.59 1946.56 2981.5 1932.56 2981.5ZM2010.57 2725.59 2023.57 2725.59 2023.57 2981.5 2010.57 2981.5ZM2087.57 2691.59 2100.57 2691.59 2100.57 2981.5 2087.57 2981.5ZM2164.57 2691.59 2178.57 2691.59 2178.57 2981.5 2164.57 2981.5ZM2241.57 2693.59 2255.57 2693.59 2255.57 2981.5 2241.57 2981.5ZM2319.58 2707.59 2332.58 2707.59 2332.58 2981.5 2319.58 2981.5ZM2396.58 2706.59 2409.58 2706.59 2409.58 2981.5 2396.58 2981.5Z" stroke="#548235" stroke-width="3.4375" stroke-linejoin="round" stroke-miterlimit="10" fill="#A9D18E"/></g><g clip-path="url(#clip5)"><path d="M416.5 2981.5 2424.5 2981.5" stroke="#D9D9D9" stroke-width="3.4375" stroke-linejoin="round" stroke-miterlimit="10" fill="none" fill-rule="evenodd"/></g><g clip-path="url(#clip6)"><path d="M416.5 2981.5 416.5 3367.5M570.519 2981.5 570.519 3367.5M956.532 2981.5 956.532 3367.5M1343.54 2981.5 1343.54 3367.5M1729.56 2981.5 1729.56 3367.5M2115.57 2981.5 2115.57 3367.5M2424.5 2981.5 2424.5 3367.5" stroke="#D9D9D9" stroke-width="3.4375" stroke-linejoin="round" stroke-miterlimit="10" fill="none"/></g><g clip-path="url(#clip7)"><path d="M416.5 3367.5 416.5 3447.5M570.519 3367.5 570.519 3447.5M956.532 3367.5 956.532 3447.5M1343.54 3367.5 1343.54 3447.5M1729.56 3367.5 1729.56 3447.5M2115.57 3367.5 2115.57 3447.5M2424.5 3367.5 2424.5 3447.5" stroke="#D9D9D9" stroke-width="3.4375" stroke-linejoin="round" stroke-miterlimit="10" fill="none"/></g><g clip-path="url(#clip8)"><text fill="#595959" font-family="Calibri,Calibri_MSFontService,sans-serif" font-weight="400" font-size="41" transform="matrix(1 0 0 1 304.792 2993)">0.86</text></g><g clip-path="url(#clip9)"><text fill="#595959" font-family="Calibri,Calibri_MSFontService,sans-serif" font-weight="400" font-size="41" transform="matrix(1 0 0 1 304.792 2914)">0.87</text></g><g clip-path="url(#clip10)"><text fill="#595959" font-family="Calibri,Calibri_MSFontService,sans-serif" font-weight="400" font-size="41" transform="matrix(1 0 0 1 304.792 2834)">0.88</text></g><g clip-path="url(#clip11)"><text fill="#595959" font-family="Calibri,Calibri_MSFontService,sans-serif" font-weight="400" font-size="41" transform="matrix(1 0 0 1 304.792 2755)">0.89</text></g><g clip-path="url(#clip12)"><text fill="#595959" font-family="Calibri,Calibri_MSFontService,sans-serif" font-weight="400" font-size="41" transform="matrix(1 0 0 1 325.692 2676)">0.9</text></g><g clip-path="url(#clip13)"><text fill="#595959" font-family="Calibri,Calibri_MSFontService,sans-serif" font-weight="400" font-size="41" transform="matrix(1 0 0 1 304.792 2597)">0.91</text></g><g clip-path="url(#clip14)"><text fill="#595959" font-family="Calibri,Calibri_MSFontService,sans-serif" font-weight="400" font-size="41" transform="matrix(1 0 0 1 304.792 2518)">0.92</text></g><g clip-path="url(#clip15)"><text fill="#595959" font-family="Calibri,Calibri_MSFontService,sans-serif" font-weight="400" font-size="41" transform="matrix(1 0 0 1 304.792 2439)">0.93</text></g><g clip-path="url(#clip16)"><text fill="#595959" font-family="Calibri,Calibri_MSFontService,sans-serif" font-weight="400" font-size="41" transform="matrix(6.12323e-17 -1 1 6.12323e-17 468.612 3214)">Original-Bild</text></g><g clip-path="url(#clip17)"><text fill="#595959" font-family="Calibri,Calibri_MSFontService,sans-serif" font-weight="400" font-size="41" transform="matrix(6.12323e-17 -1 1 6.12323e-17 545.859 3318)">JPEG-Kompression</text></g><g clip-path="url(#clip18)"><text fill="#595959" font-family="Calibri,Calibri_MSFontService,sans-serif" font-weight="400" font-size="41" transform="matrix(6.12323e-17 -1 1 6.12323e-17 623.106 3134)">67 Byte</text></g><g clip-path="url(#clip19)"><text fill="#595959" font-family="Calibri,Calibri_MSFontService,sans-serif" font-weight="400" font-size="41" transform="matrix(6.12323e-17 -1 1 6.12323e-17 700.353 3133)">1.53 KB</text></g><g clip-path="url(#clip20)"><text fill="#595959" font-family="Calibri,Calibri_MSFontService,sans-serif" font-weight="400" font-size="41" transform="matrix(6.12323e-17 -1 1 6.12323e-17 777.6 3133)">17.5 KB</text></g><g clip-path="url(#clip21)"><text fill="#595959" font-family="Calibri,Calibri_MSFontService,sans-serif" font-weight="400" font-size="41" transform="matrix(6.12323e-17 -1 1 6.12323e-17 854.847 3364)">16 KB (min. Entropie)</text></g><g clip-path="url(#clip22)"><text fill="#595959" font-family="Calibri,Calibri_MSFontService,sans-serif" font-weight="400" font-size="41" transform="matrix(6.12323e-17 -1 1 6.12323e-17 932.094 3255)">16.8 KB (binär)</text></g><g clip-path="url(#clip23)"><text fill="#595959" font-family="Calibri,Calibri_MSFontService,sans-serif" font-weight="400" font-size="41" transform="matrix(6.12323e-17 -1 1 6.12323e-17 1009.34 3134)">67 Byte</text></g><g clip-path="url(#clip24)"><text fill="#595959" font-family="Calibri,Calibri_MSFontService,sans-serif" font-weight="400" font-size="41" transform="matrix(6.12323e-17 -1 1 6.12323e-17 1086.59 3133)">1.53 KB</text></g><g clip-path="url(#clip25)"><text fill="#595959" font-family="Calibri,Calibri_MSFontService,sans-serif" font-weight="400" font-size="41" transform="matrix(6.12323e-17 -1 1 6.12323e-17 1163.83 3133)">17.5 KB</text></g><g clip-path="url(#clip26)"><text fill="#595959" font-family="Calibri,Calibri_MSFontService,sans-serif" font-weight="400" font-size="41" transform="matrix(6.12323e-17 -1 1 6.12323e-17 1241.08 3364)">16 KB (min. Entropie)</text></g><g clip-path="url(#clip27)"><text fill="#595959" font-family="Calibri,Calibri_MSFontService,sans-serif" font-weight="400" font-size="41" transform="matrix(6.12323e-17 -1 1 6.12323e-17 1318.33 3255)">16.8 KB (binär)</text></g><g clip-path="url(#clip28)"><text fill="#595959" font-family="Calibri,Calibri_MSFontService,sans-serif" font-weight="400" font-size="41" transform="matrix(6.12323e-17 -1 1 6.12323e-17 1395.58 3134)">67 Byte</text></g><g clip-path="url(#clip29)"><text fill="#595959" font-family="Calibri,Calibri_MSFontService,sans-serif" font-weight="400" font-size="41" transform="matrix(6.12323e-17 -1 1 6.12323e-17 1472.82 3133)">1.53 KB</text></g><g clip-path="url(#clip30)"><text fill="#595959" font-family="Calibri,Calibri_MSFontService,sans-serif" font-weight="400" font-size="41" transform="matrix(6.12323e-17 -1 1 6.12323e-17 1550.07 3133)">17.5 KB</text></g><g clip-path="url(#clip31)"><text fill="#595959" font-family="Calibri,Calibri_MSFontService,sans-serif" font-weight="400" font-size="41" transform="matrix(6.12323e-17 -1 1 6.12323e-17 1627.32 3364)">16 KB (min. Entropie)</text></g><g clip-path="url(#clip32)"><text fill="#595959" font-family="Calibri,Calibri_MSFontService,sans-serif" font-weight="400" font-size="41" transform="matrix(6.12323e-17 -1 1 6.12323e-17 1704.56 3255)">16.8 KB (binär)</text></g><g clip-path="url(#clip33)"><text fill="#595959" font-family="Calibri,Calibri_MSFontService,sans-serif" font-weight="400" font-size="41" transform="matrix(6.12323e-17 -1 1 6.12323e-17 1781.81 3134)">67 Byte</text></g><g clip-path="url(#clip34)"><text fill="#595959" font-family="Calibri,Calibri_MSFontService,sans-serif" font-weight="400" font-size="41" transform="matrix(6.12323e-17 -1 1 6.12323e-17 1859.06 3133)">1.53 KB</text></g><g clip-path="url(#clip35)"><text fill="#595959" font-family="Calibri,Calibri_MSFontService,sans-serif" font-weight="400" font-size="41" transform="matrix(6.12323e-17 -1 1 6.12323e-17 1936.3 3133)">17.5 KB</text></g><g clip-path="url(#clip36)"><text fill="#595959" font-family="Calibri,Calibri_MSFontService,sans-serif" font-weight="400" font-size="41" transform="matrix(6.12323e-17 -1 1 6.12323e-17 2013.55 3364)">16 KB (min. Entropie)</text></g><g clip-path="url(#clip37)"><text fill="#595959" font-family="Calibri,Calibri_MSFontService,sans-serif" font-weight="400" font-size="41" transform="matrix(6.12323e-17 -1 1 6.12323e-17 2090.8 3255)">16.8 KB (binär)</text></g><g clip-path="url(#clip38)"><text fill="#595959" font-family="Calibri,Calibri_MSFontService,sans-serif" font-weight="400" font-size="41" transform="matrix(6.12323e-17 -1 1 6.12323e-17 2168.04 3134)">67 Byte</text></g><g clip-path="url(#clip39)"><text fill="#595959" font-family="Calibri,Calibri_MSFontService,sans-serif" font-weight="400" font-size="41" transform="matrix(6.12323e-17 -1 1 6.12323e-17 2245.29 3133)">1.53 KB</text></g><g clip-path="url(#clip40)"><text fill="#595959" font-family="Calibri,Calibri_MSFontService,sans-serif" font-weight="400" font-size="41" transform="matrix(6.12323e-17 -1 1 6.12323e-17 2322.54 3133)">17.5 KB</text></g><g clip-path="url(#clip41)"><text fill="#595959" font-family="Calibri,Calibri_MSFontService,sans-serif" font-weight="400" font-size="41" transform="matrix(6.12323e-17 -1 1 6.12323e-17 2399.79 3364)">16 KB (min. Entropie)</text></g><g clip-path="url(#clip42)"><text fill="#595959" font-family="Calibri,Calibri_MSFontService,sans-serif" font-weight="400" font-size="41" transform="matrix(1 0 0 1 723.887 3432)">jsteg</text></g><g clip-path="url(#clip43)"><text fill="#595959" font-family="Calibri,Calibri_MSFontService,sans-serif" font-weight="400" font-size="41" transform="matrix(1 0 0 1 1074.44 3432)">outguess</text></g><g clip-path="url(#clip44)"><text fill="#595959" font-family="Calibri,Calibri_MSFontService,sans-serif" font-weight="400" font-size="41" transform="matrix(1 0 0 1 1417.81 3432)">outguess-0.13</text></g><g clip-path="url(#clip45)"><text fill="#595959" font-family="Calibri,Calibri_MSFontService,sans-serif" font-weight="400" font-size="41" transform="matrix(1 0 0 1 1850.85 3432)">steghide</text></g><g clip-path="url(#clip46)"><text fill="#595959" font-family="Calibri,Calibri_MSFontService,sans-serif" font-weight="400" font-size="41" transform="matrix(1 0 0 1 2253.35 3432)">f5</text></g><g clip-path="url(#clip47)"><text fill="#595959" font-family="Calibri,Calibri_MSFontService,sans-serif" font-weight="400" font-size="64" transform="matrix(1 0 0 1 821.31 2297)">durchschnittliche </text></g><g clip-path="url(#clip48)"><text fill="#595959" font-family="Calibri,Calibri_MSFontService,sans-serif" font-weight="700" font-size="64" transform="matrix(1 0 0 1 1284.2 2297)">Entropie</text></g><g clip-path="url(#clip49)"><text fill="#595959" font-family="Calibri,Calibri_MSFontService,sans-serif" font-weight="400" font-size="64" transform="matrix(1 0 0 1 1525.15 2297)">(alaska2</text></g><g clip-path="url(#clip50)"><text fill="#595959" font-family="Calibri,Calibri_MSFontService,sans-serif" font-weight="400" font-size="64" transform="matrix(1 0 0 1 1737.22 2297)">-</text></g><g clip-path="url(#clip51)"><text fill="#595959" font-family="Calibri,Calibri_MSFontService,sans-serif" font-weight="400" font-size="64" transform="matrix(1 0 0 1 1756.86 2297)">Bilder)</text></g><g clip-path="url(#clip52)"><text fill="#595959" font-family="Calibri,Calibri_MSFontService,sans-serif" font-weight="400" font-size="46" transform="matrix(1 0 0 1 1303.66 2358)">in [0..1]</text></g><g clip-path="url(#clip53)"><rect x="883.5" y="3497.5" width="22" height="22.9998" stroke="#333F50" stroke-width="3.4375" stroke-linejoin="round" stroke-miterlimit="10" fill="#8497B0"/></g><g clip-path="url(#clip54)"><text fill="#595959" font-family="Calibri,Calibri_MSFontService,sans-serif" font-weight="400" font-size="41" transform="matrix(1 0 0 1 915.444 3520)">kein Schlüssel</text></g><g clip-path="url(#clip55)"><rect x="1205.5" y="3497.5" width="23" height="22.9998" stroke="#BF9000" stroke-width="3.4375" stroke-linejoin="round" stroke-miterlimit="10" fill="#FFD966"/></g><g clip-path="url(#clip56)"><text fill="#595959" font-family="Calibri,Calibri_MSFontService,sans-serif" font-weight="400" font-size="41" transform="matrix(1 0 0 1 1238.04 3520)">4 Byte Schlüssel</text></g><g clip-path="url(#clip57)"><rect x="1563.5" y="3497.5" width="23" height="22.9998" stroke="#548235" stroke-width="3.4375" stroke-linejoin="round" stroke-miterlimit="10" fill="#A9D18E"/></g><g clip-path="url(#clip58)"><text fill="#595959" font-family="Calibri,Calibri_MSFontService,sans-serif" font-weight="400" font-size="41" transform="matrix(1 0 0 1 1595.91 3520)">50 Byte Schlüssel</text></g><rect x="275.5" y="2202.5" width="2200" height="1373" stroke="#D9D9D9" stroke-width="3.4375" stroke-linejoin="round" stroke-miterlimit="10" fill="none"/></g></svg>