<svg width="2203" height="1378" xmlns="http://www.w3.org/2000/svg" xmlns:xlink="http://www.w3.org/1999/xlink" xml:space="preserve" overflow="hidden"><defs><clipPath id="clip0"><rect x="274" y="3574" width="2203" height="1378"/></clipPath><clipPath id="clip1"><rect x="275" y="3575" width="2200" height="1375"/></clipPath><clipPath id="clip2"><rect x="395" y="3744" width="2033" height="615"/></clipPath><clipPath id="clip3"><rect x="395" y="3744" width="2033" height="615"/></clipPath><clipPath id="clip4"><rect x="395" y="3744" width="2033" height="615"/></clipPath><clipPath id="clip5"><rect x="275" y="3575" width="2200" height="1375"/></clipPath><clipPath id="clip6"><rect x="275" y="3575" width="2200" height="1375"/></clipPath><clipPath id="clip7"><rect x="275" y="3575" width="2200" height="1375"/></clipPath><clipPath id="clip8"><rect x="275" y="3575" width="2200" height="1375"/></clipPath><clipPath id="clip9"><rect x="275" y="3575" width="2200" height="1375"/></clipPath><clipPath id="clip10"><rect x="275" y="3575" width="2200" height="1375"/></clipPath><clipPath id="clip11"><rect x="275" y="3575" width="2200" height="1375"/></clipPath><clipPath id="clip12"><rect x="275" y="3575" width="2200" height="1375"/></clipPath><clipPath id="clip13"><rect x="275" y="3575" width="2200" height="1375"/></clipPath><clipPath id="clip14"><rect x="275" y="3575" width="2200" height="1375"/></clipPath><clipPath id="clip15"><rect x="275" y="3575" width="2200" height="1375"/></clipPath><clipPath id="clip16"><rect x="275" y="3575" width="2200" height="1375"/></clipPath><clipPath id="clip17"><rect x="275" y="3575" width="2200" height="1375"/></clipPath><clipPath id="clip18"><rect x="275" y="3575" width="2200" height="1375"/></clipPath><clipPath id="clip19"><rect x="275" y="3575" width="2200" height="1375"/></clipPath><clipPath id="clip20"><rect x="275" y="3575" width="2200" height="1375"/></clipPath><clipPath id="clip21"><rect x="275" y="3575" width="2200" height="1375"/></clipPath><clipPath id="clip22"><rect x="275" y="3575" width="2200" height="1375"/></clipPath><clipPath id="clip23"><rect x="275" y="3575" width="2200" height="1375"/></clipPath><clipPath id="clip24"><rect x="275" y="3575" width="2200" height="1375"/></clipPath><clipPath id="clip25"><rect x="275" y="3575" width="2200" height="1375"/></clipPath><clipPath id="clip26"><rect x="275" y="3575" width="2200" height="1375"/></clipPath><clipPath id="clip27"><rect x="275" y="3575" width="2200" height="1375"/></clipPath><clipPath id="clip28"><rect x="275" y="3575" width="2200" height="1375"/></clipPath><clipPath id="clip29"><rect x="275" y="3575" width="2200" height="1375"/></clipPath><clipPath id="clip30"><rect x="275" y="3575" width="2200" height="1375"/></clipPath><clipPath id="clip31"><rect x="275" y="3575" width="2200" height="1375"/></clipPath><clipPath id="clip32"><rect x="275" y="3575" width="2200" height="1375"/></clipPath><clipPath id="clip33"><rect x="275" y="3575" width="2200" height="1375"/></clipPath><clipPath id="clip34"><rect x="275" y="3575" width="2200" height="1375"/></clipPath><clipPath id="clip35"><rect x="275" y="3575" width="2200" height="1375"/></clipPath><clipPath id="clip36"><rect x="275" y="3575" width="2200" height="1375"/></clipPath><clipPath id="clip37"><rect x="275" y="3575" width="2200" height="1375"/></clipPath><clipPath id="clip38"><rect x="275" y="3575" width="2200" height="1375"/></clipPath><clipPath id="clip39"><rect x="275" y="3575" width="2200" height="1375"/></clipPath><clipPath id="clip40"><rect x="275" y="3575" width="2200" height="1375"/></clipPath><clipPath id="clip41"><rect x="275" y="3575" width="2200" height="1375"/></clipPath><clipPath id="clip42"><rect x="275" y="3575" width="2200" height="1375"/></clipPath><clipPath id="clip43"><rect x="275" y="3575" width="2200" height="1375"/></clipPath><clipPath id="clip44"><rect x="275" y="3575" width="2200" height="1375"/></clipPath><clipPath id="clip45"><rect x="275" y="3575" width="2200" height="1375"/></clipPath><clipPath id="clip46"><rect x="275" y="3575" width="2200" height="1375"/></clipPath><clipPath id="clip47"><rect x="275" y="3575" width="2200" height="1375"/></clipPath><clipPath id="clip48"><rect x="275" y="3575" width="2200" height="1375"/></clipPath><clipPath id="clip49"><rect x="275" y="3575" width="2200" height="1375"/></clipPath><clipPath id="clip50"><rect x="275" y="3575" width="2200" height="1375"/></clipPath><clipPath id="clip51"><rect x="275" y="3575" width="2200" height="1375"/></clipPath><clipPath id="clip52"><rect x="275" y="3575" width="2200" height="1375"/></clipPath><clipPath id="clip53"><rect x="275" y="3575" width="2200" height="1375"/></clipPath><clipPath id="clip54"><rect x="275" y="3575" width="2200" height="1375"/></clipPath><clipPath id="clip55"><rect x="275" y="3575" width="2200" height="1375"/></clipPath><clipPath id="clip56"><rect x="275" y="3575" width="2200" height="1375"/></clipPath><clipPath id="clip57"><rect x="275" y="3575" width="2200" height="1375"/></clipPath><clipPath id="clip58"><rect x="275" y="3575" width="2200" height="1375"/></clipPath><clipPath id="clip59"><rect x="275" y="3575" width="2200" height="1375"/></clipPath><clipPath id="clip60"><rect x="275" y="3575" width="2200" height="1375"/></clipPath><clipPath id="clip61"><rect x="275" y="3575" width="2200" height="1375"/></clipPath><clipPath id="clip62"><rect x="275" y="3575" width="2200" height="1375"/></clipPath><clipPath id="clip63"><rect x="275" y="3575" width="2200" height="1375"/></clipPath></defs><g clip-path="url(#clip0)" transform="translate(-274 -3574)"><rect x="275" y="3575" width="2200" height="1375" fill="#FFFFFF"/><g clip-path="url(#clip1)"><path d="M395.5 4294.64 2424.5 4294.64M395.5 4233.64 2424.5 4233.64M395.5 4172.64 2424.5 4172.64M395.5 4111.64 2424.5 4111.64M395.5 4050.63 2424.5 4050.63M395.5 3989.63 2424.5 3989.63M395.5 3928.63 2424.5 3928.63M395.5 3867.63 2424.5 3867.63M395.5 3805.62 2424.5 3805.62M395.5 3744.5 2424.5 3744.5" stroke="#D9D9D9" stroke-width="3.4375" stroke-linejoin="round" stroke-miterlimit="10" fill="none"/></g><g clip-path="url(#clip2)"><path d="M410.514 4207.64 424.514 4207.64 424.514 4356.5 410.514 4356.5ZM491.516 4267.64 506.517 4267.64 506.517 4356.5 491.516 4356.5ZM573.519 4270.64 587.519 4270.64 587.519 4356.5 573.519 4356.5ZM654.522 4278.64 668.522 4278.64 668.522 4356.5 654.522 4356.5ZM735.524 4277.64 749.525 4277.64 749.525 4356.5 735.524 4356.5ZM816.527 4276.64 830.527 4276.64 830.527 4356.5 816.527 4356.5ZM897.53 4266.64 911.53 4266.64 911.53 4356.5 897.53 4356.5ZM978.532 4272.64 993.533 4272.64 993.533 4356.5 978.532 4356.5ZM1060.53 4302.64 1074.54 4302.64 1074.54 4356.5 1060.53 4356.5ZM1141.54 4301.64 1155.54 4301.64 1155.54 4356.5 1141.54 4356.5ZM1222.54 4301.64 1236.54 4301.64 1236.54 4356.5 1222.54 4356.5ZM1303.54 4269.64 1317.54 4269.64 1317.54 4356.5 1303.54 4356.5ZM1384.55 4276.64 1398.55 4276.64 1398.55 4356.5 1384.55 4356.5ZM1465.55 4293.64 1480.55 4293.64 1480.55 4356.5 1465.55 4356.5ZM1547.55 4292.64 1561.55 4292.64 1561.55 4356.5 1547.55 4356.5ZM1628.55 4292.64 1642.55 4292.64 1642.55 4356.5 1628.55 4356.5ZM2115.57 4274.64 2129.57 4274.64 2129.57 4356.5 2115.57 4356.5ZM2196.57 4282.64 2210.57 4282.64 2210.57 4356.5 2196.57 4356.5ZM2277.57 4312.64 2291.58 4312.64 2291.58 4356.5 2277.57 4356.5ZM2358.58 4312.64 2373.58 4312.64 2373.58 4356.5 2358.58 4356.5Z" stroke="#333F50" stroke-width="3.4375" stroke-linejoin="round" stroke-miterlimit="10" fill="#8497B0"/></g><g clip-path="url(#clip3)"><path d="M915.53 4266.64 929.531 4266.64 929.531 4356.5 915.53 4356.5ZM996.533 4272.64 1011.53 4272.64 1011.53 4356.5 996.533 4356.5ZM1078.54 4302.64 1092.54 4302.64 1092.54 4356.5 1078.54 4356.5ZM1159.54 4301.64 1173.54 4301.64 1173.54 4356.5 1159.54 4356.5ZM1240.54 4301.64 1254.54 4301.64 1254.54 4356.5 1240.54 4356.5ZM1321.54 4269.64 1335.54 4269.64 1335.54 4356.5 1321.54 4356.5ZM1402.55 4276.64 1416.55 4276.64 1416.55 4356.5 1402.55 4356.5ZM1483.55 4293.64 1498.55 4293.64 1498.55 4356.5 1483.55 4356.5ZM1565.55 4292.64 1579.55 4292.64 1579.55 4356.5 1565.55 4356.5ZM1646.55 4292.64 1660.55 4292.64 1660.55 4356.5 1646.55 4356.5ZM1727.56 3746.62 1741.56 3746.62 1741.56 4356.5 1727.56 4356.5ZM1808.56 3751.62 1822.56 3751.62 1822.56 4356.5 1808.56 4356.5ZM1889.56 3754.62 1903.56 3754.62 1903.56 4356.5 1889.56 4356.5ZM1970.56 3746.62 1985.57 3746.62 1985.57 4356.5 1970.56 4356.5ZM2052.57 3771.62 2066.57 3771.62 2066.57 4356.5 2052.57 4356.5ZM2133.57 4274.64 2147.57 4274.64 2147.57 4356.5 2133.57 4356.5ZM2214.57 4282.64 2228.57 4282.64 2228.57 4356.5 2214.57 4356.5ZM2295.58 4312.64 2309.58 4312.64 2309.58 4356.5 2295.58 4356.5ZM2376.58 4312.64 2391.58 4312.64 2391.58 4356.5 2376.58 4356.5Z" stroke="#BF9000" stroke-width="3.4375" stroke-linejoin="round" stroke-miterlimit="10" fill="#FFD966"/></g><g clip-path="url(#clip4)"><path d="M933.531 4266.64 947.531 4266.64 947.531 4356.5 933.531 4356.5ZM1014.53 4271.64 1029.53 4271.64 1029.53 4356.5 1014.53 4356.5ZM1096.54 4302.64 1110.54 4302.64 1110.54 4356.5 1096.54 4356.5ZM1177.54 4301.64 1191.54 4301.64 1191.54 4356.5 1177.54 4356.5ZM1258.54 4301.64 1272.54 4301.64 1272.54 4356.5 1258.54 4356.5ZM1339.54 4269.64 1353.54 4269.64 1353.54 4356.5 1339.54 4356.5ZM1420.55 4276.64 1434.55 4276.64 1434.55 4356.5 1420.55 4356.5ZM1501.55 4293.64 1516.55 4293.64 1516.55 4356.5 1501.55 4356.5ZM1583.55 4292.64 1597.55 4292.64 1597.55 4356.5 1583.55 4356.5ZM1664.55 4292.64 1678.56 4292.64 1678.56 4356.5 1664.55 4356.5ZM1745.56 3746.62 1759.56 3746.62 1759.56 4356.5 1745.56 4356.5ZM1826.56 3751.62 1840.56 3751.62 1840.56 4356.5 1826.56 4356.5ZM1907.56 3754.62 1921.56 3754.62 1921.56 4356.5 1907.56 4356.5ZM1988.57 3746.62 2003.57 3746.62 2003.57 4356.5 1988.57 4356.5ZM2070.57 3771.62 2084.57 3771.62 2084.57 4356.5 2070.57 4356.5ZM2151.57 4274.64 2165.57 4274.64 2165.57 4356.5 2151.57 4356.5ZM2232.57 4282.64 2246.57 4282.64 2246.57 4356.5 2232.57 4356.5ZM2313.58 4312.64 2327.58 4312.64 2327.58 4356.5 2313.58 4356.5ZM2394.58 4312.64 2408.58 4312.64 2408.58 4356.5 2394.58 4356.5Z" stroke="#548235" stroke-width="3.4375" stroke-linejoin="round" stroke-miterlimit="10" fill="#A9D18E"/></g><g clip-path="url(#clip5)"><path d="M395.5 4356.5 2424.5 4356.5" stroke="#D9D9D9" stroke-width="3.4375" stroke-linejoin="round" stroke-miterlimit="10" fill="none" fill-rule="evenodd"/></g><g clip-path="url(#clip6)"><path d="M395.5 4356.5 395.5 4742.5M476.516 4356.5 476.516 4742.5M882.529 4356.5 882.529 4742.5M1288.54 4356.5 1288.54 4742.5M1693.56 4356.5 1693.56 4742.5M2099.57 4356.5 2099.57 4742.5M2424.5 4356.5 2424.5 4742.5" stroke="#D9D9D9" stroke-width="3.4375" stroke-linejoin="round" stroke-miterlimit="10" fill="none"/></g><g clip-path="url(#clip7)"><path d="M395.5 4742.5 395.5 4822.5M476.516 4742.5 476.516 4822.5M882.529 4742.5 882.529 4822.5M1288.54 4742.5 1288.54 4822.5M1693.56 4742.5 1693.56 4822.5M2099.57 4742.5 2099.57 4822.5M2424.5 4742.5 2424.5 4822.5" stroke="#D9D9D9" stroke-width="3.4375" stroke-linejoin="round" stroke-miterlimit="10" fill="none"/></g><g clip-path="url(#clip8)"><text fill="#595959" font-family="Calibri,Calibri_MSFontService,sans-serif" font-weight="400" font-size="41" transform="matrix(1 0 0 1 336.096 4368)">0</text></g><g clip-path="url(#clip9)"><text fill="#595959" font-family="Calibri,Calibri_MSFontService,sans-serif" font-weight="400" font-size="41" transform="matrix(1 0 0 1 304.792 4306)">0.1</text></g><g clip-path="url(#clip10)"><text fill="#595959" font-family="Calibri,Calibri_MSFontService,sans-serif" font-weight="400" font-size="41" transform="matrix(1 0 0 1 304.792 4245)">0.2</text></g><g clip-path="url(#clip11)"><text fill="#595959" font-family="Calibri,Calibri_MSFontService,sans-serif" font-weight="400" font-size="41" transform="matrix(1 0 0 1 304.792 4184)">0.3</text></g><g clip-path="url(#clip12)"><text fill="#595959" font-family="Calibri,Calibri_MSFontService,sans-serif" font-weight="400" font-size="41" transform="matrix(1 0 0 1 304.792 4123)">0.4</text></g><g clip-path="url(#clip13)"><text fill="#595959" font-family="Calibri,Calibri_MSFontService,sans-serif" font-weight="400" font-size="41" transform="matrix(1 0 0 1 304.792 4062)">0.5</text></g><g clip-path="url(#clip14)"><text fill="#595959" font-family="Calibri,Calibri_MSFontService,sans-serif" font-weight="400" font-size="41" transform="matrix(1 0 0 1 304.792 4001)">0.6</text></g><g clip-path="url(#clip15)"><text fill="#595959" font-family="Calibri,Calibri_MSFontService,sans-serif" font-weight="400" font-size="41" transform="matrix(1 0 0 1 304.792 3940)">0.7</text></g><g clip-path="url(#clip16)"><text fill="#595959" font-family="Calibri,Calibri_MSFontService,sans-serif" font-weight="400" font-size="41" transform="matrix(1 0 0 1 304.792 3879)">0.8</text></g><g clip-path="url(#clip17)"><text fill="#595959" font-family="Calibri,Calibri_MSFontService,sans-serif" font-weight="400" font-size="41" transform="matrix(1 0 0 1 304.792 3818)">0.9</text></g><g clip-path="url(#clip18)"><text fill="#595959" font-family="Calibri,Calibri_MSFontService,sans-serif" font-weight="400" font-size="41" transform="matrix(1 0 0 1 336.096 3757)">1</text></g><g clip-path="url(#clip19)"><text fill="#595959" font-family="Calibri,Calibri_MSFontService,sans-serif" font-weight="400" font-size="41" transform="matrix(6.12323e-17 -1 1 6.12323e-17 449.675 4693)">JPEG-Kompression</text></g><g clip-path="url(#clip20)"><text fill="#595959" font-family="Calibri,Calibri_MSFontService,sans-serif" font-weight="400" font-size="41" transform="matrix(6.12323e-17 -1 1 6.12323e-17 530.848 4509)">67 Byte</text></g><g clip-path="url(#clip21)"><text fill="#595959" font-family="Calibri,Calibri_MSFontService,sans-serif" font-weight="400" font-size="41" transform="matrix(6.12323e-17 -1 1 6.12323e-17 612.021 4508)">1.53 KB</text></g><g clip-path="url(#clip22)"><text fill="#595959" font-family="Calibri,Calibri_MSFontService,sans-serif" font-weight="400" font-size="41" transform="matrix(6.12323e-17 -1 1 6.12323e-17 693.194 4508)">17.5 KB</text></g><g clip-path="url(#clip23)"><text fill="#595959" font-family="Calibri,Calibri_MSFontService,sans-serif" font-weight="400" font-size="41" transform="matrix(6.12323e-17 -1 1 6.12323e-17 774.366 4739)">16 KB (min. Entropie)</text></g><g clip-path="url(#clip24)"><text fill="#595959" font-family="Calibri,Calibri_MSFontService,sans-serif" font-weight="400" font-size="41" transform="matrix(6.12323e-17 -1 1 6.12323e-17 855.539 4630)">16.8 KB (binär)</text></g><g clip-path="url(#clip25)"><text fill="#595959" font-family="Calibri,Calibri_MSFontService,sans-serif" font-weight="400" font-size="41" transform="matrix(6.12323e-17 -1 1 6.12323e-17 936.712 4509)">67 Byte</text></g><g clip-path="url(#clip26)"><text fill="#595959" font-family="Calibri,Calibri_MSFontService,sans-serif" font-weight="400" font-size="41" transform="matrix(6.12323e-17 -1 1 6.12323e-17 1017.89 4508)">1.53 KB</text></g><g clip-path="url(#clip27)"><text fill="#595959" font-family="Calibri,Calibri_MSFontService,sans-serif" font-weight="400" font-size="41" transform="matrix(6.12323e-17 -1 1 6.12323e-17 1099.06 4508)">17.5 KB</text></g><g clip-path="url(#clip28)"><text fill="#595959" font-family="Calibri,Calibri_MSFontService,sans-serif" font-weight="400" font-size="41" transform="matrix(6.12323e-17 -1 1 6.12323e-17 1180.23 4739)">16 KB (min. Entropie)</text></g><g clip-path="url(#clip29)"><text fill="#595959" font-family="Calibri,Calibri_MSFontService,sans-serif" font-weight="400" font-size="41" transform="matrix(6.12323e-17 -1 1 6.12323e-17 1261.4 4630)">16.8 KB (binär)</text></g><g clip-path="url(#clip30)"><text fill="#595959" font-family="Calibri,Calibri_MSFontService,sans-serif" font-weight="400" font-size="41" transform="matrix(6.12323e-17 -1 1 6.12323e-17 1342.58 4509)">67 Byte</text></g><g clip-path="url(#clip31)"><text fill="#595959" font-family="Calibri,Calibri_MSFontService,sans-serif" font-weight="400" font-size="41" transform="matrix(6.12323e-17 -1 1 6.12323e-17 1423.75 4508)">1.53 KB</text></g><g clip-path="url(#clip32)"><text fill="#595959" font-family="Calibri,Calibri_MSFontService,sans-serif" font-weight="400" font-size="41" transform="matrix(6.12323e-17 -1 1 6.12323e-17 1504.92 4508)">17.5 KB</text></g><g clip-path="url(#clip33)"><text fill="#595959" font-family="Calibri,Calibri_MSFontService,sans-serif" font-weight="400" font-size="41" transform="matrix(6.12323e-17 -1 1 6.12323e-17 1586.09 4739)">16 KB (min. Entropie)</text></g><g clip-path="url(#clip34)"><text fill="#595959" font-family="Calibri,Calibri_MSFontService,sans-serif" font-weight="400" font-size="41" transform="matrix(6.12323e-17 -1 1 6.12323e-17 1667.27 4630)">16.8 KB (binär)</text></g><g clip-path="url(#clip35)"><text fill="#595959" font-family="Calibri,Calibri_MSFontService,sans-serif" font-weight="400" font-size="41" transform="matrix(6.12323e-17 -1 1 6.12323e-17 1748.44 4509)">67 Byte</text></g><g clip-path="url(#clip36)"><text fill="#595959" font-family="Calibri,Calibri_MSFontService,sans-serif" font-weight="400" font-size="41" transform="matrix(6.12323e-17 -1 1 6.12323e-17 1829.61 4508)">1.53 KB</text></g><g clip-path="url(#clip37)"><text fill="#595959" font-family="Calibri,Calibri_MSFontService,sans-serif" font-weight="400" font-size="41" transform="matrix(6.12323e-17 -1 1 6.12323e-17 1910.79 4508)">17.5 KB</text></g><g clip-path="url(#clip38)"><text fill="#595959" font-family="Calibri,Calibri_MSFontService,sans-serif" font-weight="400" font-size="41" transform="matrix(6.12323e-17 -1 1 6.12323e-17 1991.96 4739)">16 KB (min. Entropie)</text></g><g clip-path="url(#clip39)"><text fill="#595959" font-family="Calibri,Calibri_MSFontService,sans-serif" font-weight="400" font-size="41" transform="matrix(6.12323e-17 -1 1 6.12323e-17 2073.13 4630)">16.8 KB (binär)</text></g><g clip-path="url(#clip40)"><text fill="#595959" font-family="Calibri,Calibri_MSFontService,sans-serif" font-weight="400" font-size="41" transform="matrix(6.12323e-17 -1 1 6.12323e-17 2154.3 4509)">67 Byte</text></g><g clip-path="url(#clip41)"><text fill="#595959" font-family="Calibri,Calibri_MSFontService,sans-serif" font-weight="400" font-size="41" transform="matrix(6.12323e-17 -1 1 6.12323e-17 2235.48 4508)">1.53 KB</text></g><g clip-path="url(#clip42)"><text fill="#595959" font-family="Calibri,Calibri_MSFontService,sans-serif" font-weight="400" font-size="41" transform="matrix(6.12323e-17 -1 1 6.12323e-17 2316.65 4508)">17.5 KB</text></g><g clip-path="url(#clip43)"><text fill="#595959" font-family="Calibri,Calibri_MSFontService,sans-serif" font-weight="400" font-size="41" transform="matrix(6.12323e-17 -1 1 6.12323e-17 2397.82 4739)">16 KB (min. Entropie)</text></g><g clip-path="url(#clip44)"><text fill="#595959" font-family="Calibri,Calibri_MSFontService,sans-serif" font-weight="400" font-size="41" transform="matrix(1 0 0 1 639.481 4807)">jsteg</text></g><g clip-path="url(#clip45)"><text fill="#595959" font-family="Calibri,Calibri_MSFontService,sans-serif" font-weight="400" font-size="41" transform="matrix(1 0 0 1 1009.66 4807)">outguess</text></g><g clip-path="url(#clip46)"><text fill="#595959" font-family="Calibri,Calibri_MSFontService,sans-serif" font-weight="400" font-size="41" transform="matrix(1 0 0 1 1372.66 4807)">outguess-0.13</text></g><g clip-path="url(#clip47)"><text fill="#595959" font-family="Calibri,Calibri_MSFontService,sans-serif" font-weight="400" font-size="41" transform="matrix(1 0 0 1 1825.33 4807)">steghide</text></g><g clip-path="url(#clip48)"><text fill="#595959" font-family="Calibri,Calibri_MSFontService,sans-serif" font-weight="400" font-size="41" transform="matrix(1 0 0 1 2245.5 4807)">f5</text></g><g clip-path="url(#clip49)"><text fill="#595959" font-family="Calibri,Calibri_MSFontService,sans-serif" font-weight="400" font-size="64" transform="matrix(1 0 0 1 564.288 3670)">schwarz</text></g><g clip-path="url(#clip50)"><text fill="#595959" font-family="Calibri,Calibri_MSFontService,sans-serif" font-weight="400" font-size="64" transform="matrix(1 0 0 1 773.403 3670)">-</text></g><g clip-path="url(#clip51)"><text fill="#595959" font-family="Calibri,Calibri_MSFontService,sans-serif" font-weight="400" font-size="64" transform="matrix(1 0 0 1 793.042 3670)">weiß</text></g><g clip-path="url(#clip52)"><text fill="#595959" font-family="Calibri,Calibri_MSFontService,sans-serif" font-weight="400" font-size="64" transform="matrix(1 0 0 1 918.855 3670)">-</text></g><g clip-path="url(#clip53)"><text fill="#595959" font-family="Calibri,Calibri_MSFontService,sans-serif" font-weight="400" font-size="64" transform="matrix(1 0 0 1 938.495 3670)">Verhältnis im </text></g><g clip-path="url(#clip54)"><text fill="#595959" font-family="Calibri,Calibri_MSFontService,sans-serif" font-weight="700" font-size="64" transform="matrix(1 0 0 1 1295.24 3670)">Differenzbild</text></g><g clip-path="url(#clip55)"><text fill="#595959" font-family="Calibri,Calibri_MSFontService,sans-serif" font-weight="400" font-size="64" transform="matrix(1 0 0 1 1652.53 3670)">(Smartphone</text></g><g clip-path="url(#clip56)"><text fill="#595959" font-family="Calibri,Calibri_MSFontService,sans-serif" font-weight="400" font-size="64" transform="matrix(1 0 0 1 1994.24 3670)">-</text></g><g clip-path="url(#clip57)"><text fill="#595959" font-family="Calibri,Calibri_MSFontService,sans-serif" font-weight="400" font-size="64" transform="matrix(1 0 0 1 2013.88 3670)">Bilder)</text></g><g clip-path="url(#clip58)"><rect x="883.5" y="4872.5" width="22" height="22.9995" stroke="#333F50" stroke-width="3.4375" stroke-linejoin="round" stroke-miterlimit="10" fill="#8497B0"/></g><g clip-path="url(#clip59)"><text fill="#595959" font-family="Calibri,Calibri_MSFontService,sans-serif" font-weight="400" font-size="41" transform="matrix(1 0 0 1 915.444 4895)">kein Schlüssel</text></g><g clip-path="url(#clip60)"><rect x="1205.5" y="4872.5" width="23" height="22.9995" stroke="#BF9000" stroke-width="3.4375" stroke-linejoin="round" stroke-miterlimit="10" fill="#FFD966"/></g><g clip-path="url(#clip61)"><text fill="#595959" font-family="Calibri,Calibri_MSFontService,sans-serif" font-weight="400" font-size="41" transform="matrix(1 0 0 1 1238.04 4895)">4 Byte Schlüssel</text></g><g clip-path="url(#clip62)"><rect x="1563.5" y="4872.5" width="23" height="22.9995" stroke="#548235" stroke-width="3.4375" stroke-linejoin="round" stroke-miterlimit="10" fill="#A9D18E"/></g><g clip-path="url(#clip63)"><text fill="#595959" font-family="Calibri,Calibri_MSFontService,sans-serif" font-weight="400" font-size="41" transform="matrix(1 0 0 1 1595.91 4895)">50 Byte Schlüssel</text></g><rect x="275.5" y="3575.5" width="2200" height="1375" stroke="#D9D9D9" stroke-width="3.4375" stroke-linejoin="round" stroke-miterlimit="10" fill="none"/></g></svg>