<svg width="2203" height="1378" xmlns="http://www.w3.org/2000/svg" xmlns:xlink="http://www.w3.org/1999/xlink" xml:space="preserve" overflow="hidden"><defs><clipPath id="clip0"><rect x="2749" y="3643" width="2203" height="1378"/></clipPath><clipPath id="clip1"><rect x="2750" y="3643" width="2200" height="1375"/></clipPath><clipPath id="clip2"><rect x="2901" y="3869" width="2002" height="559"/></clipPath><clipPath id="clip3"><rect x="2901" y="3869" width="2002" height="559"/></clipPath><clipPath id="clip4"><rect x="2901" y="3869" width="2002" height="559"/></clipPath><clipPath id="clip5"><rect x="2750" y="3643" width="2200" height="1375"/></clipPath><clipPath id="clip6"><rect x="2750" y="3643" width="2200" height="1375"/></clipPath><clipPath id="clip7"><rect x="2750" y="3643" width="2200" height="1375"/></clipPath><clipPath id="clip8"><rect x="2750" y="3643" width="2200" height="1375"/></clipPath><clipPath id="clip9"><rect x="2750" y="3643" width="2200" height="1375"/></clipPath><clipPath id="clip10"><rect x="2750" y="3643" width="2200" height="1375"/></clipPath><clipPath id="clip11"><rect x="2750" y="3643" width="2200" height="1375"/></clipPath><clipPath id="clip12"><rect x="2750" y="3643" width="2200" height="1375"/></clipPath><clipPath id="clip13"><rect x="2750" y="3643" width="2200" height="1375"/></clipPath><clipPath id="clip14"><rect x="2750" y="3643" width="2200" height="1375"/></clipPath><clipPath id="clip15"><rect x="2750" y="3643" width="2200" height="1375"/></clipPath><clipPath id="clip16"><rect x="2750" y="3643" width="2200" height="1375"/></clipPath><clipPath id="clip17"><rect x="2750" y="3643" width="2200" height="1375"/></clipPath><clipPath id="clip18"><rect x="2750" y="3643" width="2200" height="1375"/></clipPath><clipPath id="clip19"><rect x="2750" y="3643" width="2200" height="1375"/></clipPath><clipPath id="clip20"><rect x="2750" y="3643" width="2200" height="1375"/></clipPath><clipPath id="clip21"><rect x="2750" y="3643" width="2200" height="1375"/></clipPath><clipPath id="clip22"><rect x="2750" y="3643" width="2200" height="1375"/></clipPath><clipPath id="clip23"><rect x="2750" y="3643" width="2200" height="1375"/></clipPath><clipPath id="clip24"><rect x="2750" y="3643" width="2200" height="1375"/></clipPath><clipPath id="clip25"><rect x="2750" y="3643" width="2200" height="1375"/></clipPath><clipPath id="clip26"><rect x="2750" y="3643" width="2200" height="1375"/></clipPath><clipPath id="clip27"><rect x="2750" y="3643" width="2200" height="1375"/></clipPath><clipPath id="clip28"><rect x="2750" y="3643" width="2200" height="1375"/></clipPath><clipPath id="clip29"><rect x="2750" y="3643" width="2200" height="1375"/></clipPath><clipPath id="clip30"><rect x="2750" y="3643" width="2200" height="1375"/></clipPath><clipPath id="clip31"><rect x="2750" y="3643" width="2200" height="1375"/></clipPath><clipPath id="clip32"><rect x="2750" y="3643" width="2200" height="1375"/></clipPath><clipPath id="clip33"><rect x="2750" y="3643" width="2200" height="1375"/></clipPath><clipPath id="clip34"><rect x="2750" y="3643" width="2200" height="1375"/></clipPath><clipPath id="clip35"><rect x="2750" y="3643" width="2200" height="1375"/></clipPath><clipPath id="clip36"><rect x="2750" y="3643" width="2200" height="1375"/></clipPath><clipPath id="clip37"><rect x="2750" y="3643" width="2200" height="1375"/></clipPath><clipPath id="clip38"><rect x="2750" y="3643" width="2200" height="1375"/></clipPath><clipPath id="clip39"><rect x="2750" y="3643" width="2200" height="1375"/></clipPath><clipPath id="clip40"><rect x="2750" y="3643" width="2200" height="1375"/></clipPath><clipPath id="clip41"><rect x="2750" y="3643" width="2200" height="1375"/></clipPath><clipPath id="clip42"><rect x="2750" y="3643" width="2200" height="1375"/></clipPath><clipPath id="clip43"><rect x="2750" y="3643" width="2200" height="1375"/></clipPath><clipPath id="clip44"><rect x="2750" y="3643" width="2200" height="1375"/></clipPath><clipPath id="clip45"><rect x="2750" y="3643" width="2200" height="1375"/></clipPath><clipPath id="clip46"><rect x="2750" y="3643" width="2200" height="1375"/></clipPath><clipPath id="clip47"><rect x="2750" y="3643" width="2200" height="1375"/></clipPath><clipPath id="clip48"><rect x="2750" y="3643" width="2200" height="1375"/></clipPath><clipPath id="clip49"><rect x="2750" y="3643" width="2200" height="1375"/></clipPath><clipPath id="clip50"><rect x="2750" y="3643" width="2200" height="1375"/></clipPath><clipPath id="clip51"><rect x="2750" y="3643" width="2200" height="1375"/></clipPath><clipPath id="clip52"><rect x="2750" y="3643" width="2200" height="1375"/></clipPath><clipPath id="clip53"><rect x="2750" y="3643" width="2200" height="1375"/></clipPath><clipPath id="clip54"><rect x="2750" y="3643" width="2200" height="1375"/></clipPath><clipPath id="clip55"><rect x="2750" y="3643" width="2200" height="1375"/></clipPath><clipPath id="clip56"><rect x="2750" y="3643" width="2200" height="1375"/></clipPath><clipPath id="clip57"><rect x="2750" y="3643" width="2200" height="1375"/></clipPath><clipPath id="clip58"><rect x="2750" y="3643" width="2200" height="1375"/></clipPath><clipPath id="clip59"><rect x="2750" y="3643" width="2200" height="1375"/></clipPath><clipPath id="clip60"><rect x="2750" y="3643" width="2200" height="1375"/></clipPath></defs><g clip-path="url(#clip0)" transform="translate(-2749 -3643)"><rect x="2750" y="3644" width="2200" height="1375" fill="#FFFFFF"/><g clip-path="url(#clip1)"><path d="M2901.5 4345.64 4899.5 4345.64M2901.5 4266.64 4899.5 4266.64M2901.5 4186.64 4899.5 4186.64M2901.5 4107.63 4899.5 4107.63M2901.5 4028.63 4899.5 4028.63M2901.5 3948.63 4899.5 3948.63M2901.5 3869.5 4899.5 3869.5" stroke="#D9D9D9" stroke-width="3.4375" stroke-linejoin="round" stroke-miterlimit="10" fill="none"/></g><g clip-path="url(#clip2)"><path d="M2916.6 3946.63 2929.6 3946.63 2929.6 4424.5 2916.6 4424.5ZM2993.6 4266.64 3006.6 4266.64 3006.6 4424.5 2993.6 4424.5ZM3069.6 4334.64 3083.6 4334.64 3083.6 4424.5 3069.6 4424.5ZM3146.6 4334.64 3160.6 4334.64 3160.6 4424.5 3146.6 4424.5ZM3223.61 4335.64 3237.61 4335.64 3237.61 4424.5 3223.61 4424.5ZM3300.61 4335.64 3313.61 4335.64 3313.61 4424.5 3300.61 4424.5ZM3377.61 4335.64 3390.61 4335.64 3390.61 4424.5 3377.61 4424.5ZM3454.61 4347.64 3467.61 4347.64 3467.61 4424.5 3454.61 4424.5ZM3530.62 4344.64 3544.62 4344.64 3544.62 4424.5 3530.62 4424.5ZM3607.62 4317.64 3621.62 4317.64 3621.62 4424.5 3607.62 4424.5ZM3684.62 4317.64 3698.62 4317.64 3698.62 4424.5 3684.62 4424.5ZM3761.62 4317.64 3774.62 4317.64 3774.62 4424.5 3761.62 4424.5ZM3838.63 4334.64 3851.63 4334.64 3851.63 4424.5 3838.63 4424.5ZM3915.63 4334.64 3928.63 4334.64 3928.63 4424.5 3915.63 4424.5ZM3992.63 4318.64 4005.63 4318.64 4005.63 4424.5 3992.63 4424.5ZM4068.63 4318.64 4082.63 4318.64 4082.63 4424.5 4068.63 4424.5ZM4145.64 4318.64 4159.64 4318.64 4159.64 4424.5 4145.64 4424.5Z" stroke="#333F50" stroke-width="3.4375" stroke-linejoin="round" stroke-miterlimit="10" fill="#8497B0"/></g><g clip-path="url(#clip3)"><path d="M3471.61 4347.64 3484.61 4347.64 3484.61 4424.5 3471.61 4424.5ZM3548.62 4344.64 3561.62 4344.64 3561.62 4424.5 3548.62 4424.5ZM3624.62 4317.64 3638.62 4317.64 3638.62 4424.5 3624.62 4424.5ZM3701.62 4317.64 3715.62 4317.64 3715.62 4424.5 3701.62 4424.5ZM3778.62 4317.64 3791.62 4317.64 3791.62 4424.5 3778.62 4424.5ZM3855.63 4334.64 3868.63 4334.64 3868.63 4424.5 3855.63 4424.5ZM3932.63 4334.64 3945.63 4334.64 3945.63 4424.5 3932.63 4424.5ZM4009.63 4318.64 4022.63 4318.64 4022.63 4424.5 4009.63 4424.5ZM4085.63 4318.64 4099.63 4318.64 4099.63 4424.5 4085.63 4424.5ZM4162.64 4318.64 4176.64 4318.64 4176.64 4424.5 4162.64 4424.5ZM4239.64 3922.63 4252.64 3922.63 4252.64 4424.5 4239.64 4424.5ZM4316.64 3922.63 4329.64 3922.63 4329.64 4424.5 4316.64 4424.5ZM4393.64 3922.63 4406.64 3922.63 4406.64 4424.5 4393.64 4424.5ZM4470.65 3922.63 4483.65 3922.63 4483.65 4424.5 4470.65 4424.5ZM4546.65 3922.63 4560.65 3922.63 4560.65 4424.5 4546.65 4424.5Z" stroke="#BF9000" stroke-width="3.4375" stroke-linejoin="round" stroke-miterlimit="10" fill="#FFD966"/></g><g clip-path="url(#clip4)"><path d="M3488.61 4347.64 3501.61 4347.64 3501.61 4424.5 3488.61 4424.5ZM3565.62 4344.64 3578.62 4344.64 3578.62 4424.5 3565.62 4424.5ZM3641.62 4317.64 3655.62 4317.64 3655.62 4424.5 3641.62 4424.5ZM3718.62 4317.64 3732.62 4317.64 3732.62 4424.5 3718.62 4424.5ZM3795.62 4317.64 3808.62 4317.64 3808.62 4424.5 3795.62 4424.5ZM3872.63 4334.64 3885.63 4334.64 3885.63 4424.5 3872.63 4424.5ZM3949.63 4334.64 3962.63 4334.64 3962.63 4424.5 3949.63 4424.5ZM4026.63 4318.64 4039.63 4318.64 4039.63 4424.5 4026.63 4424.5ZM4102.63 4318.64 4116.64 4318.64 4116.64 4424.5 4102.63 4424.5ZM4179.64 4318.64 4193.64 4318.64 4193.64 4424.5 4179.64 4424.5ZM4256.64 3922.63 4270.64 3922.63 4270.64 4424.5 4256.64 4424.5ZM4333.64 3922.63 4346.64 3922.63 4346.64 4424.5 4333.64 4424.5ZM4410.64 3922.63 4423.65 3922.63 4423.65 4424.5 4410.64 4424.5ZM4487.65 3922.63 4500.65 3922.63 4500.65 4424.5 4487.65 4424.5ZM4563.65 3922.63 4577.65 3922.63 4577.65 4424.5 4563.65 4424.5Z" stroke="#548235" stroke-width="3.4375" stroke-linejoin="round" stroke-miterlimit="10" fill="#A9D18E"/></g><g clip-path="url(#clip5)"><path d="M2901.5 4424.5 4899.5 4424.5" stroke="#D9D9D9" stroke-width="3.4375" stroke-linejoin="round" stroke-miterlimit="10" fill="none" fill-rule="evenodd"/></g><g clip-path="url(#clip6)"><path d="M2901.5 4424.5 2901.5 4811.5M3055.6 4424.5 3055.6 4811.5M3439.61 4424.5 3439.61 4811.5M3823.63 4424.5 3823.63 4811.5M4207.64 4424.5 4207.64 4811.5M4592.65 4424.5 4592.65 4811.5M4899.5 4424.5 4899.5 4811.5" stroke="#D9D9D9" stroke-width="3.4375" stroke-linejoin="round" stroke-miterlimit="10" fill="none"/></g><g clip-path="url(#clip7)"><path d="M2901.5 4811.5 2901.5 4890.5M3055.6 4811.5 3055.6 4890.5M3439.61 4811.5 3439.61 4890.5M3823.63 4811.5 3823.63 4890.5M4207.64 4811.5 4207.64 4890.5M4592.65 4811.5 4592.65 4890.5M4899.5 4811.5 4899.5 4890.5" stroke="#D9D9D9" stroke-width="3.4375" stroke-linejoin="round" stroke-miterlimit="10" fill="none"/></g><g clip-path="url(#clip8)"><text fill="#595959" font-family="Calibri,Calibri_MSFontService,sans-serif" font-weight="400" font-size="41" transform="matrix(1 0 0 1 2842.49 4436)">0</text></g><g clip-path="url(#clip9)"><text fill="#595959" font-family="Calibri,Calibri_MSFontService,sans-serif" font-weight="400" font-size="41" transform="matrix(1 0 0 1 2779.79 4357)">1000</text></g><g clip-path="url(#clip10)"><text fill="#595959" font-family="Calibri,Calibri_MSFontService,sans-serif" font-weight="400" font-size="41" transform="matrix(1 0 0 1 2779.79 4278)">2000</text></g><g clip-path="url(#clip11)"><text fill="#595959" font-family="Calibri,Calibri_MSFontService,sans-serif" font-weight="400" font-size="41" transform="matrix(1 0 0 1 2779.79 4198)">3000</text></g><g clip-path="url(#clip12)"><text fill="#595959" font-family="Calibri,Calibri_MSFontService,sans-serif" font-weight="400" font-size="41" transform="matrix(1 0 0 1 2779.79 4119)">4000</text></g><g clip-path="url(#clip13)"><text fill="#595959" font-family="Calibri,Calibri_MSFontService,sans-serif" font-weight="400" font-size="41" transform="matrix(1 0 0 1 2779.79 4040)">5000</text></g><g clip-path="url(#clip14)"><text fill="#595959" font-family="Calibri,Calibri_MSFontService,sans-serif" font-weight="400" font-size="41" transform="matrix(1 0 0 1 2779.79 3961)">6000</text></g><g clip-path="url(#clip15)"><text fill="#595959" font-family="Calibri,Calibri_MSFontService,sans-serif" font-weight="400" font-size="41" transform="matrix(1 0 0 1 2779.79 3881)">7000</text></g><g clip-path="url(#clip16)"><text fill="#595959" font-family="Calibri,Calibri_MSFontService,sans-serif" font-weight="400" font-size="41" transform="matrix(6.12323e-17 -1 1 6.12323e-17 2953.91 4658)">Original-Bild</text></g><g clip-path="url(#clip17)"><text fill="#595959" font-family="Calibri,Calibri_MSFontService,sans-serif" font-weight="400" font-size="41" transform="matrix(6.12323e-17 -1 1 6.12323e-17 3030.75 4762)">JPEG-Kompression</text></g><g clip-path="url(#clip18)"><text fill="#595959" font-family="Calibri,Calibri_MSFontService,sans-serif" font-weight="400" font-size="41" transform="matrix(6.12323e-17 -1 1 6.12323e-17 3107.59 4578)">67 Byte</text></g><g clip-path="url(#clip19)"><text fill="#595959" font-family="Calibri,Calibri_MSFontService,sans-serif" font-weight="400" font-size="41" transform="matrix(6.12323e-17 -1 1 6.12323e-17 3184.44 4577)">1.53 KB</text></g><g clip-path="url(#clip20)"><text fill="#595959" font-family="Calibri,Calibri_MSFontService,sans-serif" font-weight="400" font-size="41" transform="matrix(6.12323e-17 -1 1 6.12323e-17 3261.28 4577)">17.5 KB</text></g><g clip-path="url(#clip21)"><text fill="#595959" font-family="Calibri,Calibri_MSFontService,sans-serif" font-weight="400" font-size="41" transform="matrix(6.12323e-17 -1 1 6.12323e-17 3338.12 4808)">16 KB (min. Entropie)</text></g><g clip-path="url(#clip22)"><text fill="#595959" font-family="Calibri,Calibri_MSFontService,sans-serif" font-weight="400" font-size="41" transform="matrix(6.12323e-17 -1 1 6.12323e-17 3414.97 4699)">16.8 KB (binär)</text></g><g clip-path="url(#clip23)"><text fill="#595959" font-family="Calibri,Calibri_MSFontService,sans-serif" font-weight="400" font-size="41" transform="matrix(6.12323e-17 -1 1 6.12323e-17 3491.81 4578)">67 Byte</text></g><g clip-path="url(#clip24)"><text fill="#595959" font-family="Calibri,Calibri_MSFontService,sans-serif" font-weight="400" font-size="41" transform="matrix(6.12323e-17 -1 1 6.12323e-17 3568.65 4577)">1.53 KB</text></g><g clip-path="url(#clip25)"><text fill="#595959" font-family="Calibri,Calibri_MSFontService,sans-serif" font-weight="400" font-size="41" transform="matrix(6.12323e-17 -1 1 6.12323e-17 3645.5 4577)">17.5 KB</text></g><g clip-path="url(#clip26)"><text fill="#595959" font-family="Calibri,Calibri_MSFontService,sans-serif" font-weight="400" font-size="41" transform="matrix(6.12323e-17 -1 1 6.12323e-17 3722.34 4808)">16 KB (min. Entropie)</text></g><g clip-path="url(#clip27)"><text fill="#595959" font-family="Calibri,Calibri_MSFontService,sans-serif" font-weight="400" font-size="41" transform="matrix(6.12323e-17 -1 1 6.12323e-17 3799.18 4699)">16.8 KB (binär)</text></g><g clip-path="url(#clip28)"><text fill="#595959" font-family="Calibri,Calibri_MSFontService,sans-serif" font-weight="400" font-size="41" transform="matrix(6.12323e-17 -1 1 6.12323e-17 3876.02 4578)">67 Byte</text></g><g clip-path="url(#clip29)"><text fill="#595959" font-family="Calibri,Calibri_MSFontService,sans-serif" font-weight="400" font-size="41" transform="matrix(6.12323e-17 -1 1 6.12323e-17 3952.87 4577)">1.53 KB</text></g><g clip-path="url(#clip30)"><text fill="#595959" font-family="Calibri,Calibri_MSFontService,sans-serif" font-weight="400" font-size="41" transform="matrix(6.12323e-17 -1 1 6.12323e-17 4029.71 4577)">17.5 KB</text></g><g clip-path="url(#clip31)"><text fill="#595959" font-family="Calibri,Calibri_MSFontService,sans-serif" font-weight="400" font-size="41" transform="matrix(6.12323e-17 -1 1 6.12323e-17 4106.55 4808)">16 KB (min. Entropie)</text></g><g clip-path="url(#clip32)"><text fill="#595959" font-family="Calibri,Calibri_MSFontService,sans-serif" font-weight="400" font-size="41" transform="matrix(6.12323e-17 -1 1 6.12323e-17 4183.4 4699)">16.8 KB (binär)</text></g><g clip-path="url(#clip33)"><text fill="#595959" font-family="Calibri,Calibri_MSFontService,sans-serif" font-weight="400" font-size="41" transform="matrix(6.12323e-17 -1 1 6.12323e-17 4260.24 4578)">67 Byte</text></g><g clip-path="url(#clip34)"><text fill="#595959" font-family="Calibri,Calibri_MSFontService,sans-serif" font-weight="400" font-size="41" transform="matrix(6.12323e-17 -1 1 6.12323e-17 4337.08 4577)">1.53 KB</text></g><g clip-path="url(#clip35)"><text fill="#595959" font-family="Calibri,Calibri_MSFontService,sans-serif" font-weight="400" font-size="41" transform="matrix(6.12323e-17 -1 1 6.12323e-17 4413.93 4577)">17.5 KB</text></g><g clip-path="url(#clip36)"><text fill="#595959" font-family="Calibri,Calibri_MSFontService,sans-serif" font-weight="400" font-size="41" transform="matrix(6.12323e-17 -1 1 6.12323e-17 4490.77 4808)">16 KB (min. Entropie)</text></g><g clip-path="url(#clip37)"><text fill="#595959" font-family="Calibri,Calibri_MSFontService,sans-serif" font-weight="400" font-size="41" transform="matrix(6.12323e-17 -1 1 6.12323e-17 4567.61 4699)">16.8 KB (binär)</text></g><g clip-path="url(#clip38)"><text fill="#595959" font-family="Calibri,Calibri_MSFontService,sans-serif" font-weight="400" font-size="41" transform="matrix(6.12323e-17 -1 1 6.12323e-17 4644.46 4578)">67 Byte</text></g><g clip-path="url(#clip39)"><text fill="#595959" font-family="Calibri,Calibri_MSFontService,sans-serif" font-weight="400" font-size="41" transform="matrix(6.12323e-17 -1 1 6.12323e-17 4721.3 4577)">1.53 KB</text></g><g clip-path="url(#clip40)"><text fill="#595959" font-family="Calibri,Calibri_MSFontService,sans-serif" font-weight="400" font-size="41" transform="matrix(6.12323e-17 -1 1 6.12323e-17 4798.14 4577)">17.5 KB</text></g><g clip-path="url(#clip41)"><text fill="#595959" font-family="Calibri,Calibri_MSFontService,sans-serif" font-weight="400" font-size="41" transform="matrix(6.12323e-17 -1 1 6.12323e-17 4874.99 4808)">16 KB (min. Entropie)</text></g><g clip-path="url(#clip42)"><text fill="#595959" font-family="Calibri,Calibri_MSFontService,sans-serif" font-weight="400" font-size="41" transform="matrix(1 0 0 1 3207.57 4876)">jsteg</text></g><g clip-path="url(#clip43)"><text fill="#595959" font-family="Calibri,Calibri_MSFontService,sans-serif" font-weight="400" font-size="41" transform="matrix(1 0 0 1 3556.1 4876)">outguess</text></g><g clip-path="url(#clip44)"><text fill="#595959" font-family="Calibri,Calibri_MSFontService,sans-serif" font-weight="400" font-size="41" transform="matrix(1 0 0 1 3897.45 4876)">outguess-0.13</text></g><g clip-path="url(#clip45)"><text fill="#595959" font-family="Calibri,Calibri_MSFontService,sans-serif" font-weight="400" font-size="41" transform="matrix(1 0 0 1 4328.48 4876)">steghide</text></g><g clip-path="url(#clip46)"><text fill="#595959" font-family="Calibri,Calibri_MSFontService,sans-serif" font-weight="400" font-size="41" transform="matrix(1 0 0 1 4729.16 4876)">f5</text></g><g clip-path="url(#clip47)"><text fill="#595959" font-family="Calibri,Calibri_MSFontService,sans-serif" font-weight="400" font-size="64" transform="matrix(1 0 0 1 3150.33 3739)">durchschnittliche </text></g><g clip-path="url(#clip48)"><text fill="#595959" font-family="Calibri,Calibri_MSFontService,sans-serif" font-weight="700" font-size="64" transform="matrix(1 0 0 1 3613.22 3739)">Dateigröße</text></g><g clip-path="url(#clip49)"><text fill="#595959" font-family="Calibri,Calibri_MSFontService,sans-serif" font-weight="400" font-size="64" transform="matrix(1 0 0 1 3923.65 3739)">(High</text></g><g clip-path="url(#clip50)"><text fill="#595959" font-family="Calibri,Calibri_MSFontService,sans-serif" font-weight="400" font-size="64" transform="matrix(1 0 0 1 4061.75 3739)">-</text></g><g clip-path="url(#clip51)"><text fill="#595959" font-family="Calibri,Calibri_MSFontService,sans-serif" font-weight="400" font-size="64" transform="matrix(1 0 0 1 4081.39 3739)">Resolution</text></g><g clip-path="url(#clip52)"><text fill="#595959" font-family="Calibri,Calibri_MSFontService,sans-serif" font-weight="400" font-size="64" transform="matrix(1 0 0 1 4358.2 3739)">-</text></g><g clip-path="url(#clip53)"><text fill="#595959" font-family="Calibri,Calibri_MSFontService,sans-serif" font-weight="400" font-size="64" transform="matrix(1 0 0 1 4377.84 3739)">Bilder)</text></g><g clip-path="url(#clip54)"><text fill="#595959" font-family="Calibri,Calibri_MSFontService,sans-serif" font-weight="400" font-size="46" transform="matrix(1 0 0 1 3803.13 3800)">in KB</text></g><g clip-path="url(#clip55)"><rect x="3358.5" y="4941.5" width="22" height="22" stroke="#333F50" stroke-width="3.4375" stroke-linejoin="round" stroke-miterlimit="10" fill="#8497B0"/></g><g clip-path="url(#clip56)"><text fill="#595959" font-family="Calibri,Calibri_MSFontService,sans-serif" font-weight="400" font-size="41" transform="matrix(1 0 0 1 3390.44 4964)">kein Schlüssel</text></g><g clip-path="url(#clip57)"><rect x="3680.5" y="4941.5" width="23" height="22" stroke="#BF9000" stroke-width="3.4375" stroke-linejoin="round" stroke-miterlimit="10" fill="#FFD966"/></g><g clip-path="url(#clip58)"><text fill="#595959" font-family="Calibri,Calibri_MSFontService,sans-serif" font-weight="400" font-size="41" transform="matrix(1 0 0 1 3713.04 4964)">4 Byte Schlüssel</text></g><g clip-path="url(#clip59)"><rect x="4038.5" y="4941.5" width="23" height="22" stroke="#548235" stroke-width="3.4375" stroke-linejoin="round" stroke-miterlimit="10" fill="#A9D18E"/></g><g clip-path="url(#clip60)"><text fill="#595959" font-family="Calibri,Calibri_MSFontService,sans-serif" font-weight="400" font-size="41" transform="matrix(1 0 0 1 4070.91 4964)">50 Byte Schlüssel</text></g><rect x="2750.5" y="3644.5" width="2200" height="1375" stroke="#D9D9D9" stroke-width="3.4375" stroke-linejoin="round" stroke-miterlimit="10" fill="none"/></g></svg>