<svg width="2203" height="1376" xmlns="http://www.w3.org/2000/svg" xmlns:xlink="http://www.w3.org/1999/xlink" xml:space="preserve" overflow="hidden"><defs><clipPath id="clip0"><rect x="274" y="2132" width="2203" height="1376"/></clipPath><clipPath id="clip1"><rect x="275" y="2132" width="2200" height="1374"/></clipPath><clipPath id="clip2"><rect x="395" y="2381" width="2033" height="534"/></clipPath><clipPath id="clip3"><rect x="395" y="2381" width="2033" height="534"/></clipPath><clipPath id="clip4"><rect x="395" y="2381" width="2033" height="534"/></clipPath><clipPath id="clip5"><rect x="275" y="2132" width="2200" height="1374"/></clipPath><clipPath id="clip6"><rect x="275" y="2132" width="2200" height="1374"/></clipPath><clipPath id="clip7"><rect x="275" y="2132" width="2200" height="1374"/></clipPath><clipPath id="clip8"><rect x="275" y="2132" width="2200" height="1374"/></clipPath><clipPath id="clip9"><rect x="275" y="2132" width="2200" height="1374"/></clipPath><clipPath id="clip10"><rect x="275" y="2132" width="2200" height="1374"/></clipPath><clipPath id="clip11"><rect x="275" y="2132" width="2200" height="1374"/></clipPath><clipPath id="clip12"><rect x="275" y="2132" width="2200" height="1374"/></clipPath><clipPath id="clip13"><rect x="275" y="2132" width="2200" height="1374"/></clipPath><clipPath id="clip14"><rect x="275" y="2132" width="2200" height="1374"/></clipPath><clipPath id="clip15"><rect x="275" y="2132" width="2200" height="1374"/></clipPath><clipPath id="clip16"><rect x="275" y="2132" width="2200" height="1374"/></clipPath><clipPath id="clip17"><rect x="275" y="2132" width="2200" height="1374"/></clipPath><clipPath id="clip18"><rect x="275" y="2132" width="2200" height="1374"/></clipPath><clipPath id="clip19"><rect x="275" y="2132" width="2200" height="1374"/></clipPath><clipPath id="clip20"><rect x="275" y="2132" width="2200" height="1374"/></clipPath><clipPath id="clip21"><rect x="275" y="2132" width="2200" height="1374"/></clipPath><clipPath id="clip22"><rect x="275" y="2132" width="2200" height="1374"/></clipPath><clipPath id="clip23"><rect x="275" y="2132" width="2200" height="1374"/></clipPath><clipPath id="clip24"><rect x="275" y="2132" width="2200" height="1374"/></clipPath><clipPath id="clip25"><rect x="275" y="2132" width="2200" height="1374"/></clipPath><clipPath id="clip26"><rect x="275" y="2132" width="2200" height="1374"/></clipPath><clipPath id="clip27"><rect x="275" y="2132" width="2200" height="1374"/></clipPath><clipPath id="clip28"><rect x="275" y="2132" width="2200" height="1374"/></clipPath><clipPath id="clip29"><rect x="275" y="2132" width="2200" height="1374"/></clipPath><clipPath id="clip30"><rect x="275" y="2132" width="2200" height="1374"/></clipPath><clipPath id="clip31"><rect x="275" y="2132" width="2200" height="1374"/></clipPath><clipPath id="clip32"><rect x="275" y="2132" width="2200" height="1374"/></clipPath><clipPath id="clip33"><rect x="275" y="2132" width="2200" height="1374"/></clipPath><clipPath id="clip34"><rect x="275" y="2132" width="2200" height="1374"/></clipPath><clipPath id="clip35"><rect x="275" y="2132" width="2200" height="1374"/></clipPath><clipPath id="clip36"><rect x="275" y="2132" width="2200" height="1374"/></clipPath><clipPath id="clip37"><rect x="275" y="2132" width="2200" height="1374"/></clipPath><clipPath id="clip38"><rect x="275" y="2132" width="2200" height="1374"/></clipPath><clipPath id="clip39"><rect x="275" y="2132" width="2200" height="1374"/></clipPath><clipPath id="clip40"><rect x="275" y="2132" width="2200" height="1374"/></clipPath><clipPath id="clip41"><rect x="275" y="2132" width="2200" height="1374"/></clipPath><clipPath id="clip42"><rect x="275" y="2132" width="2200" height="1374"/></clipPath><clipPath id="clip43"><rect x="275" y="2132" width="2200" height="1374"/></clipPath><clipPath id="clip44"><rect x="275" y="2132" width="2200" height="1374"/></clipPath><clipPath id="clip45"><rect x="275" y="2132" width="2200" height="1374"/></clipPath><clipPath id="clip46"><rect x="275" y="2132" width="2200" height="1374"/></clipPath><clipPath id="clip47"><rect x="275" y="2132" width="2200" height="1374"/></clipPath><clipPath id="clip48"><rect x="275" y="2132" width="2200" height="1374"/></clipPath><clipPath id="clip49"><rect x="275" y="2132" width="2200" height="1374"/></clipPath><clipPath id="clip50"><rect x="275" y="2132" width="2200" height="1374"/></clipPath><clipPath id="clip51"><rect x="275" y="2132" width="2200" height="1374"/></clipPath><clipPath id="clip52"><rect x="275" y="2132" width="2200" height="1374"/></clipPath><clipPath id="clip53"><rect x="275" y="2132" width="2200" height="1374"/></clipPath><clipPath id="clip54"><rect x="275" y="2132" width="2200" height="1374"/></clipPath><clipPath id="clip55"><rect x="275" y="2132" width="2200" height="1374"/></clipPath><clipPath id="clip56"><rect x="275" y="2132" width="2200" height="1374"/></clipPath><clipPath id="clip57"><rect x="275" y="2132" width="2200" height="1374"/></clipPath><clipPath id="clip58"><rect x="275" y="2132" width="2200" height="1374"/></clipPath><clipPath id="clip59"><rect x="275" y="2132" width="2200" height="1374"/></clipPath><clipPath id="clip60"><rect x="275" y="2132" width="2200" height="1374"/></clipPath><clipPath id="clip61"><rect x="275" y="2132" width="2200" height="1374"/></clipPath><clipPath id="clip62"><rect x="275" y="2132" width="2200" height="1374"/></clipPath><clipPath id="clip63"><rect x="275" y="2132" width="2200" height="1374"/></clipPath><clipPath id="clip64"><rect x="275" y="2132" width="2200" height="1374"/></clipPath></defs><g clip-path="url(#clip0)" transform="translate(-274 -2132)"><rect x="275" y="2133" width="2200" height="1373" fill="#FFFFFF"/><g clip-path="url(#clip1)"><path d="M395.5 2859.59 2424.5 2859.59M395.5 2805.59 2424.5 2805.59M395.5 2752.59 2424.5 2752.59M395.5 2699.59 2424.5 2699.59M395.5 2646.59 2424.5 2646.59M395.5 2593.59 2424.5 2593.59M395.5 2540.58 2424.5 2540.58M395.5 2487.58 2424.5 2487.58M395.5 2434.58 2424.5 2434.58M395.5 2381.5 2424.5 2381.5" stroke="#D9D9D9" stroke-width="3.4375" stroke-linejoin="round" stroke-miterlimit="10" fill="none"/></g><g clip-path="url(#clip2)"><path d="M410.514 2787.59 424.514 2787.59 424.514 2912.5 410.514 2912.5ZM491.516 2807.59 506.517 2807.59 506.517 2912.5 491.516 2912.5ZM573.519 2836.59 587.519 2836.59 587.519 2912.5 573.519 2912.5ZM897.53 2809.59 911.53 2809.59 911.53 2912.5 897.53 2912.5ZM978.532 2850.59 993.533 2850.59 993.533 2912.5 978.532 2912.5ZM1303.54 2808.59 1317.54 2808.59 1317.54 2912.5 1303.54 2912.5ZM1384.55 2847.59 1398.55 2847.59 1398.55 2912.5 1384.55 2912.5ZM1709.56 2408.58 1723.56 2408.58 1723.56 2912.5 1709.56 2912.5ZM1790.56 2478.58 1804.56 2478.58 1804.56 2912.5 1790.56 2912.5ZM1871.56 2518.58 1885.56 2518.58 1885.56 2912.5 1871.56 2912.5ZM1952.56 2405.58 1967.56 2405.58 1967.56 2912.5 1952.56 2912.5ZM2034.57 2651.59 2048.57 2651.59 2048.57 2912.5 2034.57 2912.5ZM2115.57 2845.59 2129.57 2845.59 2129.57 2912.5 2115.57 2912.5ZM2196.57 2849.59 2210.57 2849.59 2210.57 2912.5 2196.57 2912.5ZM2277.57 2858.59 2291.58 2858.59 2291.58 2912.5 2277.57 2912.5ZM2358.58 2858.59 2373.58 2858.59 2373.58 2912.5 2358.58 2912.5Z" stroke="#CC0000" stroke-width="3.4375" stroke-linejoin="round" stroke-miterlimit="10" fill="#FF5050"/></g><g clip-path="url(#clip3)"><path d="M428.514 2777.59 442.515 2777.59 442.515 2912.5 428.514 2912.5ZM509.517 2794.59 524.517 2794.59 524.517 2912.5 509.517 2912.5ZM591.52 2824.59 605.52 2824.59 605.52 2912.5 591.52 2912.5ZM915.53 2795.59 929.531 2795.59 929.531 2912.5 915.53 2912.5ZM996.533 2837.59 1011.53 2837.59 1011.53 2912.5 996.533 2912.5ZM1321.54 2794.59 1335.54 2794.59 1335.54 2912.5 1321.54 2912.5ZM1402.55 2835.59 1416.55 2835.59 1416.55 2912.5 1402.55 2912.5ZM1727.56 2410.58 1741.56 2410.58 1741.56 2912.5 1727.56 2912.5ZM1808.56 2482.58 1822.56 2482.58 1822.56 2912.5 1808.56 2912.5ZM1889.56 2522.58 1903.56 2522.58 1903.56 2912.5 1889.56 2912.5ZM1970.56 2407.58 1985.57 2407.58 1985.57 2912.5 1970.56 2912.5ZM2052.57 2650.59 2066.57 2650.59 2066.57 2912.5 2052.57 2912.5ZM2133.57 2829.59 2147.57 2829.59 2147.57 2912.5 2133.57 2912.5ZM2214.57 2835.59 2228.57 2835.59 2228.57 2912.5 2214.57 2912.5ZM2295.58 2847.59 2309.58 2847.59 2309.58 2912.5 2295.58 2912.5ZM2376.58 2847.59 2391.58 2847.59 2391.58 2912.5 2376.58 2912.5Z" stroke="#548235" stroke-width="3.4375" stroke-linejoin="round" stroke-miterlimit="10" fill="#A9D18E"/></g><g clip-path="url(#clip4)"><path d="M446.515 2792.59 460.515 2792.59 460.515 2912.5 446.515 2912.5ZM527.517 2812.59 542.518 2812.59 542.518 2912.5 527.517 2912.5ZM609.52 2842.59 623.521 2842.59 623.521 2912.5 609.52 2912.5ZM933.531 2814.59 947.531 2814.59 947.531 2912.5 933.531 2912.5ZM1014.53 2857.59 1029.53 2857.59 1029.53 2912.5 1014.53 2912.5ZM1339.54 2813.59 1353.54 2813.59 1353.54 2912.5 1339.54 2912.5ZM1420.55 2854.59 1434.55 2854.59 1434.55 2912.5 1420.55 2912.5ZM1745.56 2409.58 1759.56 2409.58 1759.56 2912.5 1745.56 2912.5ZM1826.56 2479.58 1840.56 2479.58 1840.56 2912.5 1826.56 2912.5ZM1907.56 2519.58 1921.56 2519.58 1921.56 2912.5 1907.56 2912.5ZM1988.57 2406.58 2003.57 2406.58 2003.57 2912.5 1988.57 2912.5ZM2070.57 2654.59 2084.57 2654.59 2084.57 2912.5 2070.57 2912.5ZM2151.57 2853.59 2165.57 2853.59 2165.57 2912.5 2151.57 2912.5ZM2232.57 2856.59 2246.57 2856.59 2246.57 2912.5 2232.57 2912.5ZM2313.58 2863.59 2327.58 2863.59 2327.58 2912.5 2313.58 2912.5ZM2394.58 2863.59 2408.58 2863.59 2408.58 2912.5 2394.58 2912.5Z" stroke="#2F5597" stroke-width="3.4375" stroke-linejoin="round" stroke-miterlimit="10" fill="#8FAADC"/></g><g clip-path="url(#clip5)"><path d="M395.5 2912.5 2424.5 2912.5" stroke="#D9D9D9" stroke-width="3.4375" stroke-linejoin="round" stroke-miterlimit="10" fill="none" fill-rule="evenodd"/></g><g clip-path="url(#clip6)"><path d="M395.5 2912.5 395.5 3298.5M476.516 2912.5 476.516 3298.5M882.529 2912.5 882.529 3298.5M1288.54 2912.5 1288.54 3298.5M1693.56 2912.5 1693.56 3298.5M2099.57 2912.5 2099.57 3298.5M2424.5 2912.5 2424.5 3298.5" stroke="#D9D9D9" stroke-width="3.4375" stroke-linejoin="round" stroke-miterlimit="10" fill="none"/></g><g clip-path="url(#clip7)"><path d="M395.5 3298.5 395.5 3378.5M476.516 3298.5 476.516 3378.5M882.529 3298.5 882.529 3378.5M1288.54 3298.5 1288.54 3378.5M1693.56 3298.5 1693.56 3378.5M2099.57 3298.5 2099.57 3378.5M2424.5 3298.5 2424.5 3378.5" stroke="#D9D9D9" stroke-width="3.4375" stroke-linejoin="round" stroke-miterlimit="10" fill="none"/></g><g clip-path="url(#clip8)"><text fill="#595959" font-family="Calibri,Calibri_MSFontService,sans-serif" font-weight="400" font-size="41" transform="matrix(1 0 0 1 336.096 2924)">0</text></g><g clip-path="url(#clip9)"><text fill="#595959" font-family="Calibri,Calibri_MSFontService,sans-serif" font-weight="400" font-size="41" transform="matrix(1 0 0 1 304.792 2871)">0.1</text></g><g clip-path="url(#clip10)"><text fill="#595959" font-family="Calibri,Calibri_MSFontService,sans-serif" font-weight="400" font-size="41" transform="matrix(1 0 0 1 304.792 2818)">0.2</text></g><g clip-path="url(#clip11)"><text fill="#595959" font-family="Calibri,Calibri_MSFontService,sans-serif" font-weight="400" font-size="41" transform="matrix(1 0 0 1 304.792 2765)">0.3</text></g><g clip-path="url(#clip12)"><text fill="#595959" font-family="Calibri,Calibri_MSFontService,sans-serif" font-weight="400" font-size="41" transform="matrix(1 0 0 1 304.792 2711)">0.4</text></g><g clip-path="url(#clip13)"><text fill="#595959" font-family="Calibri,Calibri_MSFontService,sans-serif" font-weight="400" font-size="41" transform="matrix(1 0 0 1 304.792 2658)">0.5</text></g><g clip-path="url(#clip14)"><text fill="#595959" font-family="Calibri,Calibri_MSFontService,sans-serif" font-weight="400" font-size="41" transform="matrix(1 0 0 1 304.792 2605)">0.6</text></g><g clip-path="url(#clip15)"><text fill="#595959" font-family="Calibri,Calibri_MSFontService,sans-serif" font-weight="400" font-size="41" transform="matrix(1 0 0 1 304.792 2552)">0.7</text></g><g clip-path="url(#clip16)"><text fill="#595959" font-family="Calibri,Calibri_MSFontService,sans-serif" font-weight="400" font-size="41" transform="matrix(1 0 0 1 304.792 2499)">0.8</text></g><g clip-path="url(#clip17)"><text fill="#595959" font-family="Calibri,Calibri_MSFontService,sans-serif" font-weight="400" font-size="41" transform="matrix(1 0 0 1 304.792 2446)">0.9</text></g><g clip-path="url(#clip18)"><text fill="#595959" font-family="Calibri,Calibri_MSFontService,sans-serif" font-weight="400" font-size="41" transform="matrix(1 0 0 1 336.096 2393)">1</text></g><g clip-path="url(#clip19)"><text fill="#595959" font-family="Calibri,Calibri_MSFontService,sans-serif" font-weight="400" font-size="41" transform="matrix(6.12323e-17 -1 1 6.12323e-17 449.675 3250)">JPEG-Kompression</text></g><g clip-path="url(#clip20)"><text fill="#595959" font-family="Calibri,Calibri_MSFontService,sans-serif" font-weight="400" font-size="41" transform="matrix(6.12323e-17 -1 1 6.12323e-17 530.848 3065)">67 Byte</text></g><g clip-path="url(#clip21)"><text fill="#595959" font-family="Calibri,Calibri_MSFontService,sans-serif" font-weight="400" font-size="41" transform="matrix(6.12323e-17 -1 1 6.12323e-17 612.021 3065)">1.53 KB</text></g><g clip-path="url(#clip22)"><text fill="#595959" font-family="Calibri,Calibri_MSFontService,sans-serif" font-weight="400" font-size="41" transform="matrix(6.12323e-17 -1 1 6.12323e-17 693.194 3065)">17.5 KB</text></g><g clip-path="url(#clip23)"><text fill="#595959" font-family="Calibri,Calibri_MSFontService,sans-serif" font-weight="400" font-size="41" transform="matrix(6.12323e-17 -1 1 6.12323e-17 774.366 3295)">16 KB (min. Entropie)</text></g><g clip-path="url(#clip24)"><text fill="#595959" font-family="Calibri,Calibri_MSFontService,sans-serif" font-weight="400" font-size="41" transform="matrix(6.12323e-17 -1 1 6.12323e-17 855.539 3186)">16.8 KB (binär)</text></g><g clip-path="url(#clip25)"><text fill="#595959" font-family="Calibri,Calibri_MSFontService,sans-serif" font-weight="400" font-size="41" transform="matrix(6.12323e-17 -1 1 6.12323e-17 936.712 3065)">67 Byte</text></g><g clip-path="url(#clip26)"><text fill="#595959" font-family="Calibri,Calibri_MSFontService,sans-serif" font-weight="400" font-size="41" transform="matrix(6.12323e-17 -1 1 6.12323e-17 1017.89 3065)">1.53 KB</text></g><g clip-path="url(#clip27)"><text fill="#595959" font-family="Calibri,Calibri_MSFontService,sans-serif" font-weight="400" font-size="41" transform="matrix(6.12323e-17 -1 1 6.12323e-17 1099.06 3065)">17.5 KB</text></g><g clip-path="url(#clip28)"><text fill="#595959" font-family="Calibri,Calibri_MSFontService,sans-serif" font-weight="400" font-size="41" transform="matrix(6.12323e-17 -1 1 6.12323e-17 1180.23 3295)">16 KB (min. Entropie)</text></g><g clip-path="url(#clip29)"><text fill="#595959" font-family="Calibri,Calibri_MSFontService,sans-serif" font-weight="400" font-size="41" transform="matrix(6.12323e-17 -1 1 6.12323e-17 1261.4 3186)">16.8 KB (binär)</text></g><g clip-path="url(#clip30)"><text fill="#595959" font-family="Calibri,Calibri_MSFontService,sans-serif" font-weight="400" font-size="41" transform="matrix(6.12323e-17 -1 1 6.12323e-17 1342.58 3065)">67 Byte</text></g><g clip-path="url(#clip31)"><text fill="#595959" font-family="Calibri,Calibri_MSFontService,sans-serif" font-weight="400" font-size="41" transform="matrix(6.12323e-17 -1 1 6.12323e-17 1423.75 3065)">1.53 KB</text></g><g clip-path="url(#clip32)"><text fill="#595959" font-family="Calibri,Calibri_MSFontService,sans-serif" font-weight="400" font-size="41" transform="matrix(6.12323e-17 -1 1 6.12323e-17 1504.92 3065)">17.5 KB</text></g><g clip-path="url(#clip33)"><text fill="#595959" font-family="Calibri,Calibri_MSFontService,sans-serif" font-weight="400" font-size="41" transform="matrix(6.12323e-17 -1 1 6.12323e-17 1586.09 3295)">16 KB (min. Entropie)</text></g><g clip-path="url(#clip34)"><text fill="#595959" font-family="Calibri,Calibri_MSFontService,sans-serif" font-weight="400" font-size="41" transform="matrix(6.12323e-17 -1 1 6.12323e-17 1667.27 3186)">16.8 KB (binär)</text></g><g clip-path="url(#clip35)"><text fill="#595959" font-family="Calibri,Calibri_MSFontService,sans-serif" font-weight="400" font-size="41" transform="matrix(6.12323e-17 -1 1 6.12323e-17 1748.44 3065)">67 Byte</text></g><g clip-path="url(#clip36)"><text fill="#595959" font-family="Calibri,Calibri_MSFontService,sans-serif" font-weight="400" font-size="41" transform="matrix(6.12323e-17 -1 1 6.12323e-17 1829.61 3065)">1.53 KB</text></g><g clip-path="url(#clip37)"><text fill="#595959" font-family="Calibri,Calibri_MSFontService,sans-serif" font-weight="400" font-size="41" transform="matrix(6.12323e-17 -1 1 6.12323e-17 1910.79 3065)">17.5 KB</text></g><g clip-path="url(#clip38)"><text fill="#595959" font-family="Calibri,Calibri_MSFontService,sans-serif" font-weight="400" font-size="41" transform="matrix(6.12323e-17 -1 1 6.12323e-17 1991.96 3295)">16 KB (min. Entropie)</text></g><g clip-path="url(#clip39)"><text fill="#595959" font-family="Calibri,Calibri_MSFontService,sans-serif" font-weight="400" font-size="41" transform="matrix(6.12323e-17 -1 1 6.12323e-17 2073.13 3186)">16.8 KB (binär)</text></g><g clip-path="url(#clip40)"><text fill="#595959" font-family="Calibri,Calibri_MSFontService,sans-serif" font-weight="400" font-size="41" transform="matrix(6.12323e-17 -1 1 6.12323e-17 2154.3 3065)">67 Byte</text></g><g clip-path="url(#clip41)"><text fill="#595959" font-family="Calibri,Calibri_MSFontService,sans-serif" font-weight="400" font-size="41" transform="matrix(6.12323e-17 -1 1 6.12323e-17 2235.48 3065)">1.53 KB</text></g><g clip-path="url(#clip42)"><text fill="#595959" font-family="Calibri,Calibri_MSFontService,sans-serif" font-weight="400" font-size="41" transform="matrix(6.12323e-17 -1 1 6.12323e-17 2316.65 3065)">17.5 KB</text></g><g clip-path="url(#clip43)"><text fill="#595959" font-family="Calibri,Calibri_MSFontService,sans-serif" font-weight="400" font-size="41" transform="matrix(6.12323e-17 -1 1 6.12323e-17 2397.82 3295)">16 KB (min. Entropie)</text></g><g clip-path="url(#clip44)"><text fill="#595959" font-family="Calibri,Calibri_MSFontService,sans-serif" font-weight="400" font-size="41" transform="matrix(1 0 0 1 639.481 3364)">jsteg</text></g><g clip-path="url(#clip45)"><text fill="#595959" font-family="Calibri,Calibri_MSFontService,sans-serif" font-weight="400" font-size="41" transform="matrix(1 0 0 1 1009.66 3364)">outguess</text></g><g clip-path="url(#clip46)"><text fill="#595959" font-family="Calibri,Calibri_MSFontService,sans-serif" font-weight="400" font-size="41" transform="matrix(1 0 0 1 1372.66 3364)">outguess-0.13</text></g><g clip-path="url(#clip47)"><text fill="#595959" font-family="Calibri,Calibri_MSFontService,sans-serif" font-weight="400" font-size="41" transform="matrix(1 0 0 1 1825.33 3364)">steghide</text></g><g clip-path="url(#clip48)"><text fill="#595959" font-family="Calibri,Calibri_MSFontService,sans-serif" font-weight="400" font-size="41" transform="matrix(1 0 0 1 2245.5 3364)">f5</text></g><g clip-path="url(#clip49)"><text fill="#595959" font-family="Calibri,Calibri_MSFontService,sans-serif" font-weight="400" font-size="64" transform="matrix(1 0 0 1 561.917 2228)">schwarz</text></g><g clip-path="url(#clip50)"><text fill="#595959" font-family="Calibri,Calibri_MSFontService,sans-serif" font-weight="400" font-size="64" transform="matrix(1 0 0 1 771.031 2228)">-</text></g><g clip-path="url(#clip51)"><text fill="#595959" font-family="Calibri,Calibri_MSFontService,sans-serif" font-weight="400" font-size="64" transform="matrix(1 0 0 1 790.671 2228)">weiß</text></g><g clip-path="url(#clip52)"><text fill="#595959" font-family="Calibri,Calibri_MSFontService,sans-serif" font-weight="400" font-size="64" transform="matrix(1 0 0 1 916.483 2228)">-</text></g><g clip-path="url(#clip53)"><text fill="#595959" font-family="Calibri,Calibri_MSFontService,sans-serif" font-weight="400" font-size="64" transform="matrix(1 0 0 1 936.123 2228)">Verhältnis im </text></g><g clip-path="url(#clip54)"><text fill="#595959" font-family="Calibri,Calibri_MSFontService,sans-serif" font-weight="700" font-size="64" transform="matrix(1 0 0 1 1292.87 2228)">Differenzbild</text></g><g clip-path="url(#clip55)"><text fill="#595959" font-family="Calibri,Calibri_MSFontService,sans-serif" font-weight="400" font-size="64" transform="matrix(1 0 0 1 1650.16 2228)">einzelner Farbkanäle </text></g><g clip-path="url(#clip56)"><text fill="#595959" font-family="Calibri,Calibri_MSFontService,sans-serif" font-weight="400" font-size="64" transform="matrix(1 0 0 1 1173.22 2306)">(alaska2</text></g><g clip-path="url(#clip57)"><text fill="#595959" font-family="Calibri,Calibri_MSFontService,sans-serif" font-weight="400" font-size="64" transform="matrix(1 0 0 1 1385.29 2306)">-</text></g><g clip-path="url(#clip58)"><text fill="#595959" font-family="Calibri,Calibri_MSFontService,sans-serif" font-weight="400" font-size="64" transform="matrix(1 0 0 1 1404.93 2306)">Bilder)</text></g><g clip-path="url(#clip59)"><rect x="1205.5" y="3428.5" width="22" height="23" stroke="#CC0000" stroke-width="3.4375" stroke-linejoin="round" stroke-miterlimit="10" fill="#FF5050"/></g><g clip-path="url(#clip60)"><text fill="#595959" font-family="Calibri,Calibri_MSFontService,sans-serif" font-weight="400" font-size="41" transform="matrix(1 0 0 1 1237.43 3452)">rot</text></g><g clip-path="url(#clip61)"><rect x="1317.5" y="3428.5" width="22" height="23" stroke="#548235" stroke-width="3.4375" stroke-linejoin="round" stroke-miterlimit="10" fill="#A9D18E"/></g><g clip-path="url(#clip62)"><text fill="#595959" font-family="Calibri,Calibri_MSFontService,sans-serif" font-weight="400" font-size="41" transform="matrix(1 0 0 1 1349.48 3452)">grün</text></g><g clip-path="url(#clip63)"><rect x="1456.5" y="3428.5" width="23" height="23" stroke="#2F5597" stroke-width="3.4375" stroke-linejoin="round" stroke-miterlimit="10" fill="#8FAADC"/></g><g clip-path="url(#clip64)"><text fill="#595959" font-family="Calibri,Calibri_MSFontService,sans-serif" font-weight="400" font-size="41" transform="matrix(1 0 0 1 1488.74 3452)">blau</text></g><rect x="275.5" y="2133.5" width="2200" height="1373" stroke="#D9D9D9" stroke-width="3.4375" stroke-linejoin="round" stroke-miterlimit="10" fill="none"/></g></svg>