<svg width="2203" height="1376" xmlns="http://www.w3.org/2000/svg" xmlns:xlink="http://www.w3.org/1999/xlink" xml:space="preserve" overflow="hidden"><defs><clipPath id="clip0"><rect x="274" y="2132" width="2203" height="1376"/></clipPath><clipPath id="clip1"><rect x="275" y="2132" width="2200" height="1374"/></clipPath><clipPath id="clip2"><rect x="416" y="2302" width="2012" height="613"/></clipPath><clipPath id="clip3"><rect x="416" y="2302" width="2012" height="613"/></clipPath><clipPath id="clip4"><rect x="416" y="2302" width="2012" height="613"/></clipPath><clipPath id="clip5"><rect x="275" y="2132" width="2200" height="1374"/></clipPath><clipPath id="clip6"><rect x="275" y="2132" width="2200" height="1374"/></clipPath><clipPath id="clip7"><rect x="275" y="2132" width="2200" height="1374"/></clipPath><clipPath id="clip8"><rect x="275" y="2132" width="2200" height="1374"/></clipPath><clipPath id="clip9"><rect x="275" y="2132" width="2200" height="1374"/></clipPath><clipPath id="clip10"><rect x="275" y="2132" width="2200" height="1374"/></clipPath><clipPath id="clip11"><rect x="275" y="2132" width="2200" height="1374"/></clipPath><clipPath id="clip12"><rect x="275" y="2132" width="2200" height="1374"/></clipPath><clipPath id="clip13"><rect x="275" y="2132" width="2200" height="1374"/></clipPath><clipPath id="clip14"><rect x="275" y="2132" width="2200" height="1374"/></clipPath><clipPath id="clip15"><rect x="275" y="2132" width="2200" height="1374"/></clipPath><clipPath id="clip16"><rect x="275" y="2132" width="2200" height="1374"/></clipPath><clipPath id="clip17"><rect x="275" y="2132" width="2200" height="1374"/></clipPath><clipPath id="clip18"><rect x="275" y="2132" width="2200" height="1374"/></clipPath><clipPath id="clip19"><rect x="275" y="2132" width="2200" height="1374"/></clipPath><clipPath id="clip20"><rect x="275" y="2132" width="2200" height="1374"/></clipPath><clipPath id="clip21"><rect x="275" y="2132" width="2200" height="1374"/></clipPath><clipPath id="clip22"><rect x="275" y="2132" width="2200" height="1374"/></clipPath><clipPath id="clip23"><rect x="275" y="2132" width="2200" height="1374"/></clipPath><clipPath id="clip24"><rect x="275" y="2132" width="2200" height="1374"/></clipPath><clipPath id="clip25"><rect x="275" y="2132" width="2200" height="1374"/></clipPath><clipPath id="clip26"><rect x="275" y="2132" width="2200" height="1374"/></clipPath><clipPath id="clip27"><rect x="275" y="2132" width="2200" height="1374"/></clipPath><clipPath id="clip28"><rect x="275" y="2132" width="2200" height="1374"/></clipPath><clipPath id="clip29"><rect x="275" y="2132" width="2200" height="1374"/></clipPath><clipPath id="clip30"><rect x="275" y="2132" width="2200" height="1374"/></clipPath><clipPath id="clip31"><rect x="275" y="2132" width="2200" height="1374"/></clipPath><clipPath id="clip32"><rect x="275" y="2132" width="2200" height="1374"/></clipPath><clipPath id="clip33"><rect x="275" y="2132" width="2200" height="1374"/></clipPath><clipPath id="clip34"><rect x="275" y="2132" width="2200" height="1374"/></clipPath><clipPath id="clip35"><rect x="275" y="2132" width="2200" height="1374"/></clipPath><clipPath id="clip36"><rect x="275" y="2132" width="2200" height="1374"/></clipPath><clipPath id="clip37"><rect x="275" y="2132" width="2200" height="1374"/></clipPath><clipPath id="clip38"><rect x="275" y="2132" width="2200" height="1374"/></clipPath><clipPath id="clip39"><rect x="275" y="2132" width="2200" height="1374"/></clipPath><clipPath id="clip40"><rect x="275" y="2132" width="2200" height="1374"/></clipPath><clipPath id="clip41"><rect x="275" y="2132" width="2200" height="1374"/></clipPath><clipPath id="clip42"><rect x="275" y="2132" width="2200" height="1374"/></clipPath><clipPath id="clip43"><rect x="275" y="2132" width="2200" height="1374"/></clipPath><clipPath id="clip44"><rect x="275" y="2132" width="2200" height="1374"/></clipPath><clipPath id="clip45"><rect x="275" y="2132" width="2200" height="1374"/></clipPath><clipPath id="clip46"><rect x="275" y="2132" width="2200" height="1374"/></clipPath><clipPath id="clip47"><rect x="275" y="2132" width="2200" height="1374"/></clipPath><clipPath id="clip48"><rect x="275" y="2132" width="2200" height="1374"/></clipPath><clipPath id="clip49"><rect x="275" y="2132" width="2200" height="1374"/></clipPath><clipPath id="clip50"><rect x="275" y="2132" width="2200" height="1374"/></clipPath><clipPath id="clip51"><rect x="275" y="2132" width="2200" height="1374"/></clipPath><clipPath id="clip52"><rect x="275" y="2132" width="2200" height="1374"/></clipPath><clipPath id="clip53"><rect x="275" y="2132" width="2200" height="1374"/></clipPath><clipPath id="clip54"><rect x="275" y="2132" width="2200" height="1374"/></clipPath><clipPath id="clip55"><rect x="275" y="2132" width="2200" height="1374"/></clipPath><clipPath id="clip56"><rect x="275" y="2132" width="2200" height="1374"/></clipPath></defs><g clip-path="url(#clip0)" transform="translate(-274 -2132)"><rect x="275" y="2133" width="2200" height="1373" fill="#FFFFFF"/><g clip-path="url(#clip1)"><path d="M416.5 2825.59 2424.5 2825.59M416.5 2738.59 2424.5 2738.59M416.5 2651.59 2424.5 2651.59M416.5 2564.58 2424.5 2564.58M416.5 2476.58 2424.5 2476.58M416.5 2389.58 2424.5 2389.58M416.5 2302.5 2424.5 2302.5" stroke="#D9D9D9" stroke-width="3.4375" stroke-linejoin="round" stroke-miterlimit="10" fill="none"/></g><g clip-path="url(#clip2)"><path d="M431.514 2634.59 445.515 2634.59 445.515 2912.5 431.514 2912.5ZM511.517 2650.59 525.517 2650.59 525.517 2912.5 511.517 2912.5ZM592.52 2741.59 606.52 2741.59 606.52 2912.5 592.52 2912.5ZM672.522 2828.59 686.523 2828.59 686.523 2912.5 672.522 2912.5ZM752.525 2830.59 766.525 2830.59 766.525 2912.5 752.525 2912.5ZM833.528 2833.59 847.528 2833.59 847.528 2912.5 833.528 2912.5ZM913.53 2639.59 927.531 2639.59 927.531 2912.5 913.53 2912.5ZM993.533 2547.58 1007.53 2547.58 1007.53 2912.5 993.533 2912.5ZM1315.54 2633.59 1329.54 2633.59 1329.54 2912.5 1315.54 2912.5ZM1395.55 2531.58 1409.55 2531.58 1409.55 2912.5 1395.55 2912.5ZM2118.57 2593.59 2132.57 2593.59 2132.57 2912.5 2118.57 2912.5ZM2198.57 2596.59 2212.57 2596.59 2212.57 2912.5 2198.57 2912.5ZM2279.57 2610.59 2293.58 2610.59 2293.58 2912.5 2279.57 2912.5ZM2359.58 2611.59 2373.58 2611.59 2373.58 2912.5 2359.58 2912.5Z" stroke="#333F50" stroke-width="3.4375" stroke-linejoin="round" stroke-miterlimit="10" fill="#8497B0"/></g><g clip-path="url(#clip3)"><path d="M931.531 2638.59 945.531 2638.59 945.531 2912.5 931.531 2912.5ZM1011.53 2547.58 1025.53 2547.58 1025.53 2912.5 1011.53 2912.5ZM1332.54 2633.59 1347.54 2633.59 1347.54 2912.5 1332.54 2912.5ZM1413.55 2531.58 1427.55 2531.58 1427.55 2912.5 1413.55 2912.5ZM1734.56 2594.59 1748.56 2594.59 1748.56 2912.5 1734.56 2912.5ZM1814.56 2594.59 1829.56 2594.59 1829.56 2912.5 1814.56 2912.5ZM1895.56 2593.59 1909.56 2593.59 1909.56 2912.5 1895.56 2912.5ZM1975.56 2593.59 1989.57 2593.59 1989.57 2912.5 1975.56 2912.5ZM2055.57 2594.59 2070.57 2594.59 2070.57 2912.5 2055.57 2912.5ZM2136.57 2593.59 2150.57 2593.59 2150.57 2912.5 2136.57 2912.5ZM2216.57 2596.59 2230.57 2596.59 2230.57 2912.5 2216.57 2912.5ZM2296.58 2610.59 2311.58 2610.59 2311.58 2912.5 2296.58 2912.5ZM2377.58 2611.59 2391.58 2611.59 2391.58 2912.5 2377.58 2912.5Z" stroke="#BF9000" stroke-width="3.4375" stroke-linejoin="round" stroke-miterlimit="10" fill="#FFD966"/></g><g clip-path="url(#clip4)"><path d="M949.531 2639.59 963.532 2639.59 963.532 2912.5 949.531 2912.5ZM1029.53 2547.58 1043.53 2547.58 1043.53 2912.5 1029.53 2912.5ZM1350.54 2633.59 1364.54 2633.59 1364.54 2912.5 1350.54 2912.5ZM1431.55 2531.58 1445.55 2531.58 1445.55 2912.5 1431.55 2912.5ZM1752.56 2634.59 1766.56 2634.59 1766.56 2912.5 1752.56 2912.5ZM1832.56 2630.59 1846.56 2630.59 1846.56 2912.5 1832.56 2912.5ZM1913.56 2630.59 1927.56 2630.59 1927.56 2912.5 1913.56 2912.5ZM1993.57 2631.59 2007.57 2631.59 2007.57 2912.5 1993.57 2912.5ZM2073.57 2594.59 2087.57 2594.59 2087.57 2912.5 2073.57 2912.5ZM2154.57 2593.59 2168.57 2593.59 2168.57 2912.5 2154.57 2912.5ZM2234.57 2596.59 2248.57 2596.59 2248.57 2912.5 2234.57 2912.5ZM2314.58 2610.59 2328.58 2610.59 2328.58 2912.5 2314.58 2912.5ZM2395.58 2610.59 2409.58 2610.59 2409.58 2912.5 2395.58 2912.5Z" stroke="#548235" stroke-width="3.4375" stroke-linejoin="round" stroke-miterlimit="10" fill="#A9D18E"/></g><g clip-path="url(#clip5)"><path d="M416.5 2912.5 2424.5 2912.5" stroke="#D9D9D9" stroke-width="3.4375" stroke-linejoin="round" stroke-miterlimit="10" fill="none" fill-rule="evenodd"/></g><g clip-path="url(#clip6)"><path d="M416.5 2912.5 416.5 3298.5M496.516 2912.5 496.516 3298.5M898.53 2912.5 898.53 3298.5M1299.54 2912.5 1299.54 3298.5M1701.56 2912.5 1701.56 3298.5M2103.57 2912.5 2103.57 3298.5M2424.5 2912.5 2424.5 3298.5" stroke="#D9D9D9" stroke-width="3.4375" stroke-linejoin="round" stroke-miterlimit="10" fill="none"/></g><g clip-path="url(#clip7)"><path d="M416.5 3298.5 416.5 3378.5M496.516 3298.5 496.516 3378.5M898.53 3298.5 898.53 3378.5M1299.54 3298.5 1299.54 3378.5M1701.56 3298.5 1701.56 3378.5M2103.57 3298.5 2103.57 3378.5M2424.5 3298.5 2424.5 3378.5" stroke="#D9D9D9" stroke-width="3.4375" stroke-linejoin="round" stroke-miterlimit="10" fill="none"/></g><g clip-path="url(#clip8)"><text fill="#595959" font-family="Calibri,Calibri_MSFontService,sans-serif" font-weight="400" font-size="41" transform="matrix(1 0 0 1 304.792 2924)">0.86</text></g><g clip-path="url(#clip9)"><text fill="#595959" font-family="Calibri,Calibri_MSFontService,sans-serif" font-weight="400" font-size="41" transform="matrix(1 0 0 1 304.792 2837)">0.87</text></g><g clip-path="url(#clip10)"><text fill="#595959" font-family="Calibri,Calibri_MSFontService,sans-serif" font-weight="400" font-size="41" transform="matrix(1 0 0 1 304.792 2750)">0.88</text></g><g clip-path="url(#clip11)"><text fill="#595959" font-family="Calibri,Calibri_MSFontService,sans-serif" font-weight="400" font-size="41" transform="matrix(1 0 0 1 304.792 2663)">0.89</text></g><g clip-path="url(#clip12)"><text fill="#595959" font-family="Calibri,Calibri_MSFontService,sans-serif" font-weight="400" font-size="41" transform="matrix(1 0 0 1 325.692 2576)">0.9</text></g><g clip-path="url(#clip13)"><text fill="#595959" font-family="Calibri,Calibri_MSFontService,sans-serif" font-weight="400" font-size="41" transform="matrix(1 0 0 1 304.792 2489)">0.91</text></g><g clip-path="url(#clip14)"><text fill="#595959" font-family="Calibri,Calibri_MSFontService,sans-serif" font-weight="400" font-size="41" transform="matrix(1 0 0 1 304.792 2402)">0.92</text></g><g clip-path="url(#clip15)"><text fill="#595959" font-family="Calibri,Calibri_MSFontService,sans-serif" font-weight="400" font-size="41" transform="matrix(1 0 0 1 304.792 2315)">0.93</text></g><g clip-path="url(#clip16)"><text fill="#595959" font-family="Calibri,Calibri_MSFontService,sans-serif" font-weight="400" font-size="41" transform="matrix(6.12323e-17 -1 1 6.12323e-17 470.157 3145)">Original-Bild</text></g><g clip-path="url(#clip17)"><text fill="#595959" font-family="Calibri,Calibri_MSFontService,sans-serif" font-weight="400" font-size="41" transform="matrix(6.12323e-17 -1 1 6.12323e-17 550.494 3065)">67 Byte</text></g><g clip-path="url(#clip18)"><text fill="#595959" font-family="Calibri,Calibri_MSFontService,sans-serif" font-weight="400" font-size="41" transform="matrix(6.12323e-17 -1 1 6.12323e-17 630.831 3065)">1.53 KB</text></g><g clip-path="url(#clip19)"><text fill="#595959" font-family="Calibri,Calibri_MSFontService,sans-serif" font-weight="400" font-size="41" transform="matrix(6.12323e-17 -1 1 6.12323e-17 711.168 3065)">17.5 KB</text></g><g clip-path="url(#clip20)"><text fill="#595959" font-family="Calibri,Calibri_MSFontService,sans-serif" font-weight="400" font-size="41" transform="matrix(6.12323e-17 -1 1 6.12323e-17 791.504 3295)">16 KB (min. Entropie)</text></g><g clip-path="url(#clip21)"><text fill="#595959" font-family="Calibri,Calibri_MSFontService,sans-serif" font-weight="400" font-size="41" transform="matrix(6.12323e-17 -1 1 6.12323e-17 871.841 3186)">16.8 KB (binär)</text></g><g clip-path="url(#clip22)"><text fill="#595959" font-family="Calibri,Calibri_MSFontService,sans-serif" font-weight="400" font-size="41" transform="matrix(6.12323e-17 -1 1 6.12323e-17 952.178 3065)">67 Byte</text></g><g clip-path="url(#clip23)"><text fill="#595959" font-family="Calibri,Calibri_MSFontService,sans-serif" font-weight="400" font-size="41" transform="matrix(6.12323e-17 -1 1 6.12323e-17 1032.51 3065)">1.53 KB</text></g><g clip-path="url(#clip24)"><text fill="#595959" font-family="Calibri,Calibri_MSFontService,sans-serif" font-weight="400" font-size="41" transform="matrix(6.12323e-17 -1 1 6.12323e-17 1112.85 3065)">17.5 KB</text></g><g clip-path="url(#clip25)"><text fill="#595959" font-family="Calibri,Calibri_MSFontService,sans-serif" font-weight="400" font-size="41" transform="matrix(6.12323e-17 -1 1 6.12323e-17 1193.19 3295)">16 KB (min. Entropie)</text></g><g clip-path="url(#clip26)"><text fill="#595959" font-family="Calibri,Calibri_MSFontService,sans-serif" font-weight="400" font-size="41" transform="matrix(6.12323e-17 -1 1 6.12323e-17 1273.53 3186)">16.8 KB (binär)</text></g><g clip-path="url(#clip27)"><text fill="#595959" font-family="Calibri,Calibri_MSFontService,sans-serif" font-weight="400" font-size="41" transform="matrix(6.12323e-17 -1 1 6.12323e-17 1353.86 3065)">67 Byte</text></g><g clip-path="url(#clip28)"><text fill="#595959" font-family="Calibri,Calibri_MSFontService,sans-serif" font-weight="400" font-size="41" transform="matrix(6.12323e-17 -1 1 6.12323e-17 1434.2 3065)">1.53 KB</text></g><g clip-path="url(#clip29)"><text fill="#595959" font-family="Calibri,Calibri_MSFontService,sans-serif" font-weight="400" font-size="41" transform="matrix(6.12323e-17 -1 1 6.12323e-17 1514.54 3065)">17.5 KB</text></g><g clip-path="url(#clip30)"><text fill="#595959" font-family="Calibri,Calibri_MSFontService,sans-serif" font-weight="400" font-size="41" transform="matrix(6.12323e-17 -1 1 6.12323e-17 1594.87 3295)">16 KB (min. Entropie)</text></g><g clip-path="url(#clip31)"><text fill="#595959" font-family="Calibri,Calibri_MSFontService,sans-serif" font-weight="400" font-size="41" transform="matrix(6.12323e-17 -1 1 6.12323e-17 1675.21 3186)">16.8 KB (binär)</text></g><g clip-path="url(#clip32)"><text fill="#595959" font-family="Calibri,Calibri_MSFontService,sans-serif" font-weight="400" font-size="41" transform="matrix(6.12323e-17 -1 1 6.12323e-17 1755.55 3065)">67 Byte</text></g><g clip-path="url(#clip33)"><text fill="#595959" font-family="Calibri,Calibri_MSFontService,sans-serif" font-weight="400" font-size="41" transform="matrix(6.12323e-17 -1 1 6.12323e-17 1835.88 3065)">1.53 KB</text></g><g clip-path="url(#clip34)"><text fill="#595959" font-family="Calibri,Calibri_MSFontService,sans-serif" font-weight="400" font-size="41" transform="matrix(6.12323e-17 -1 1 6.12323e-17 1916.22 3065)">17.5 KB</text></g><g clip-path="url(#clip35)"><text fill="#595959" font-family="Calibri,Calibri_MSFontService,sans-serif" font-weight="400" font-size="41" transform="matrix(6.12323e-17 -1 1 6.12323e-17 1996.56 3295)">16 KB (min. Entropie)</text></g><g clip-path="url(#clip36)"><text fill="#595959" font-family="Calibri,Calibri_MSFontService,sans-serif" font-weight="400" font-size="41" transform="matrix(6.12323e-17 -1 1 6.12323e-17 2076.89 3186)">16.8 KB (binär)</text></g><g clip-path="url(#clip37)"><text fill="#595959" font-family="Calibri,Calibri_MSFontService,sans-serif" font-weight="400" font-size="41" transform="matrix(6.12323e-17 -1 1 6.12323e-17 2157.23 3065)">67 Byte</text></g><g clip-path="url(#clip38)"><text fill="#595959" font-family="Calibri,Calibri_MSFontService,sans-serif" font-weight="400" font-size="41" transform="matrix(6.12323e-17 -1 1 6.12323e-17 2237.57 3065)">1.53 KB</text></g><g clip-path="url(#clip39)"><text fill="#595959" font-family="Calibri,Calibri_MSFontService,sans-serif" font-weight="400" font-size="41" transform="matrix(6.12323e-17 -1 1 6.12323e-17 2317.9 3065)">17.5 KB</text></g><g clip-path="url(#clip40)"><text fill="#595959" font-family="Calibri,Calibri_MSFontService,sans-serif" font-weight="400" font-size="41" transform="matrix(6.12323e-17 -1 1 6.12323e-17 2398.24 3295)">16 KB (min. Entropie)</text></g><g clip-path="url(#clip41)"><text fill="#595959" font-family="Calibri,Calibri_MSFontService,sans-serif" font-weight="400" font-size="41" transform="matrix(1 0 0 1 657.455 3364)">jsteg</text></g><g clip-path="url(#clip42)"><text fill="#595959" font-family="Calibri,Calibri_MSFontService,sans-serif" font-weight="400" font-size="41" transform="matrix(1 0 0 1 1023.46 3364)">outguess</text></g><g clip-path="url(#clip43)"><text fill="#595959" font-family="Calibri,Calibri_MSFontService,sans-serif" font-weight="400" font-size="41" transform="matrix(1 0 0 1 1382.28 3364)">outguess-0.13</text></g><g clip-path="url(#clip44)"><text fill="#595959" font-family="Calibri,Calibri_MSFontService,sans-serif" font-weight="400" font-size="41" transform="matrix(1 0 0 1 1830.77 3364)">steghide</text></g><g clip-path="url(#clip45)"><text fill="#595959" font-family="Calibri,Calibri_MSFontService,sans-serif" font-weight="400" font-size="41" transform="matrix(1 0 0 1 2247.17 3364)">f5</text></g><g clip-path="url(#clip46)"><text fill="#595959" font-family="Calibri,Calibri_MSFontService,sans-serif" font-weight="400" font-size="64" transform="matrix(1 0 0 1 902.733 2228)">durchschn. </text></g><g clip-path="url(#clip47)"><text fill="#595959" font-family="Calibri,Calibri_MSFontService,sans-serif" font-weight="700" font-size="64" transform="matrix(1 0 0 1 1202.78 2228)">Entropie</text></g><g clip-path="url(#clip48)"><text fill="#595959" font-family="Calibri,Calibri_MSFontService,sans-serif" font-weight="400" font-size="64" transform="matrix(1 0 0 1 1443.73 2228)">(alaska2</text></g><g clip-path="url(#clip49)"><text fill="#595959" font-family="Calibri,Calibri_MSFontService,sans-serif" font-weight="400" font-size="64" transform="matrix(1 0 0 1 1655.8 2228)">-</text></g><g clip-path="url(#clip50)"><text fill="#595959" font-family="Calibri,Calibri_MSFontService,sans-serif" font-weight="400" font-size="64" transform="matrix(1 0 0 1 1675.44 2228)">Bilder)</text></g><g clip-path="url(#clip51)"><rect x="883.5" y="3428.5" width="22" height="23" stroke="#333F50" stroke-width="3.4375" stroke-linejoin="round" stroke-miterlimit="10" fill="#8497B0"/></g><g clip-path="url(#clip52)"><text fill="#595959" font-family="Calibri,Calibri_MSFontService,sans-serif" font-weight="400" font-size="41" transform="matrix(1 0 0 1 915.444 3452)">kein Schlüssel</text></g><g clip-path="url(#clip53)"><rect x="1205.5" y="3428.5" width="23" height="23" stroke="#BF9000" stroke-width="3.4375" stroke-linejoin="round" stroke-miterlimit="10" fill="#FFD966"/></g><g clip-path="url(#clip54)"><text fill="#595959" font-family="Calibri,Calibri_MSFontService,sans-serif" font-weight="400" font-size="41" transform="matrix(1 0 0 1 1238.04 3452)">4 Byte Schlüssel</text></g><g clip-path="url(#clip55)"><rect x="1563.5" y="3428.5" width="23" height="23" stroke="#548235" stroke-width="3.4375" stroke-linejoin="round" stroke-miterlimit="10" fill="#A9D18E"/></g><g clip-path="url(#clip56)"><text fill="#595959" font-family="Calibri,Calibri_MSFontService,sans-serif" font-weight="400" font-size="41" transform="matrix(1 0 0 1 1595.91 3452)">50 Byte Schlüssel</text></g><rect x="275.5" y="2133.5" width="2200" height="1373" stroke="#D9D9D9" stroke-width="3.4375" stroke-linejoin="round" stroke-miterlimit="10" fill="none"/></g></svg>