<svg width="2203" height="1378" xmlns="http://www.w3.org/2000/svg" xmlns:xlink="http://www.w3.org/1999/xlink" xml:space="preserve" overflow="hidden"><defs><clipPath id="clip0"><rect x="2749" y="3574" width="2203" height="1378"/></clipPath><clipPath id="clip1"><rect x="2750" y="3575" width="2200" height="1375"/></clipPath><clipPath id="clip2"><rect x="2870" y="3744" width="2033" height="615"/></clipPath><clipPath id="clip3"><rect x="2870" y="3744" width="2033" height="615"/></clipPath><clipPath id="clip4"><rect x="2870" y="3744" width="2033" height="615"/></clipPath><clipPath id="clip5"><rect x="2750" y="3575" width="2200" height="1375"/></clipPath><clipPath id="clip6"><rect x="2750" y="3575" width="2200" height="1375"/></clipPath><clipPath id="clip7"><rect x="2750" y="3575" width="2200" height="1375"/></clipPath><clipPath id="clip8"><rect x="2750" y="3575" width="2200" height="1375"/></clipPath><clipPath id="clip9"><rect x="2750" y="3575" width="2200" height="1375"/></clipPath><clipPath id="clip10"><rect x="2750" y="3575" width="2200" height="1375"/></clipPath><clipPath id="clip11"><rect x="2750" y="3575" width="2200" height="1375"/></clipPath><clipPath id="clip12"><rect x="2750" y="3575" width="2200" height="1375"/></clipPath><clipPath id="clip13"><rect x="2750" y="3575" width="2200" height="1375"/></clipPath><clipPath id="clip14"><rect x="2750" y="3575" width="2200" height="1375"/></clipPath><clipPath id="clip15"><rect x="2750" y="3575" width="2200" height="1375"/></clipPath><clipPath id="clip16"><rect x="2750" y="3575" width="2200" height="1375"/></clipPath><clipPath id="clip17"><rect x="2750" y="3575" width="2200" height="1375"/></clipPath><clipPath id="clip18"><rect x="2750" y="3575" width="2200" height="1375"/></clipPath><clipPath id="clip19"><rect x="2750" y="3575" width="2200" height="1375"/></clipPath><clipPath id="clip20"><rect x="2750" y="3575" width="2200" height="1375"/></clipPath><clipPath id="clip21"><rect x="2750" y="3575" width="2200" height="1375"/></clipPath><clipPath id="clip22"><rect x="2750" y="3575" width="2200" height="1375"/></clipPath><clipPath id="clip23"><rect x="2750" y="3575" width="2200" height="1375"/></clipPath><clipPath id="clip24"><rect x="2750" y="3575" width="2200" height="1375"/></clipPath><clipPath id="clip25"><rect x="2750" y="3575" width="2200" height="1375"/></clipPath><clipPath id="clip26"><rect x="2750" y="3575" width="2200" height="1375"/></clipPath><clipPath id="clip27"><rect x="2750" y="3575" width="2200" height="1375"/></clipPath><clipPath id="clip28"><rect x="2750" y="3575" width="2200" height="1375"/></clipPath><clipPath id="clip29"><rect x="2750" y="3575" width="2200" height="1375"/></clipPath><clipPath id="clip30"><rect x="2750" y="3575" width="2200" height="1375"/></clipPath><clipPath id="clip31"><rect x="2750" y="3575" width="2200" height="1375"/></clipPath><clipPath id="clip32"><rect x="2750" y="3575" width="2200" height="1375"/></clipPath><clipPath id="clip33"><rect x="2750" y="3575" width="2200" height="1375"/></clipPath><clipPath id="clip34"><rect x="2750" y="3575" width="2200" height="1375"/></clipPath><clipPath id="clip35"><rect x="2750" y="3575" width="2200" height="1375"/></clipPath><clipPath id="clip36"><rect x="2750" y="3575" width="2200" height="1375"/></clipPath><clipPath id="clip37"><rect x="2750" y="3575" width="2200" height="1375"/></clipPath><clipPath id="clip38"><rect x="2750" y="3575" width="2200" height="1375"/></clipPath><clipPath id="clip39"><rect x="2750" y="3575" width="2200" height="1375"/></clipPath><clipPath id="clip40"><rect x="2750" y="3575" width="2200" height="1375"/></clipPath><clipPath id="clip41"><rect x="2750" y="3575" width="2200" height="1375"/></clipPath><clipPath id="clip42"><rect x="2750" y="3575" width="2200" height="1375"/></clipPath><clipPath id="clip43"><rect x="2750" y="3575" width="2200" height="1375"/></clipPath><clipPath id="clip44"><rect x="2750" y="3575" width="2200" height="1375"/></clipPath><clipPath id="clip45"><rect x="2750" y="3575" width="2200" height="1375"/></clipPath><clipPath id="clip46"><rect x="2750" y="3575" width="2200" height="1375"/></clipPath><clipPath id="clip47"><rect x="2750" y="3575" width="2200" height="1375"/></clipPath><clipPath id="clip48"><rect x="2750" y="3575" width="2200" height="1375"/></clipPath><clipPath id="clip49"><rect x="2750" y="3575" width="2200" height="1375"/></clipPath><clipPath id="clip50"><rect x="2750" y="3575" width="2200" height="1375"/></clipPath><clipPath id="clip51"><rect x="2750" y="3575" width="2200" height="1375"/></clipPath><clipPath id="clip52"><rect x="2750" y="3575" width="2200" height="1375"/></clipPath><clipPath id="clip53"><rect x="2750" y="3575" width="2200" height="1375"/></clipPath><clipPath id="clip54"><rect x="2750" y="3575" width="2200" height="1375"/></clipPath><clipPath id="clip55"><rect x="2750" y="3575" width="2200" height="1375"/></clipPath><clipPath id="clip56"><rect x="2750" y="3575" width="2200" height="1375"/></clipPath><clipPath id="clip57"><rect x="2750" y="3575" width="2200" height="1375"/></clipPath><clipPath id="clip58"><rect x="2750" y="3575" width="2200" height="1375"/></clipPath><clipPath id="clip59"><rect x="2750" y="3575" width="2200" height="1375"/></clipPath><clipPath id="clip60"><rect x="2750" y="3575" width="2200" height="1375"/></clipPath><clipPath id="clip61"><rect x="2750" y="3575" width="2200" height="1375"/></clipPath><clipPath id="clip62"><rect x="2750" y="3575" width="2200" height="1375"/></clipPath><clipPath id="clip63"><rect x="2750" y="3575" width="2200" height="1375"/></clipPath><clipPath id="clip64"><rect x="2750" y="3575" width="2200" height="1375"/></clipPath><clipPath id="clip65"><rect x="2750" y="3575" width="2200" height="1375"/></clipPath></defs><g clip-path="url(#clip0)" transform="translate(-2749 -3574)"><rect x="2750" y="3575" width="2200" height="1375" fill="#FFFFFF"/><g clip-path="url(#clip1)"><path d="M2870.5 4294.64 4899.5 4294.64M2870.5 4233.64 4899.5 4233.64M2870.5 4172.64 4899.5 4172.64M2870.5 4111.64 4899.5 4111.64M2870.5 4050.63 4899.5 4050.63M2870.5 3989.63 4899.5 3989.63M2870.5 3928.63 4899.5 3928.63M2870.5 3867.63 4899.5 3867.63M2870.5 3805.62 4899.5 3805.62M2870.5 3744.5 4899.5 3744.5" stroke="#D9D9D9" stroke-width="3.4375" stroke-linejoin="round" stroke-miterlimit="10" fill="none"/></g><g clip-path="url(#clip2)"><path d="M2885.59 4136.64 2899.6 4136.64 2899.6 4356.5 2885.59 4356.5ZM2966.6 4258.64 2981.6 4258.64 2981.6 4356.5 2966.6 4356.5ZM3048.6 4258.64 3062.6 4258.64 3062.6 4356.5 3048.6 4356.5ZM3129.6 4258.64 3143.6 4258.64 3143.6 4356.5 3129.6 4356.5ZM3210.61 4258.64 3224.61 4258.64 3224.61 4356.5 3210.61 4356.5ZM3291.61 4258.64 3305.61 4258.64 3305.61 4356.5 3291.61 4356.5ZM3372.61 4236.64 3386.61 4236.64 3386.61 4356.5 3372.61 4356.5ZM3453.61 4200.64 3468.61 4200.64 3468.61 4356.5 3453.61 4356.5ZM3535.62 4164.64 3549.62 4164.64 3549.62 4356.5 3535.62 4356.5ZM3616.62 4163.64 3630.62 4163.64 3630.62 4356.5 3616.62 4356.5ZM3697.62 4163.64 3711.62 4163.64 3711.62 4356.5 3697.62 4356.5ZM3778.62 4257.64 3792.62 4257.64 3792.62 4356.5 3778.62 4356.5ZM3859.63 4257.64 3873.63 4257.64 3873.63 4356.5 3859.63 4356.5ZM3940.63 4249.64 3955.63 4249.64 3955.63 4356.5 3940.63 4356.5ZM4022.63 4248.64 4036.63 4248.64 4036.63 4356.5 4022.63 4356.5ZM4103.63 4249.64 4117.64 4249.64 4117.64 4356.5 4103.63 4356.5Z" stroke="#333F50" stroke-width="3.4375" stroke-linejoin="round" stroke-miterlimit="10" fill="#8497B0"/></g><g clip-path="url(#clip3)"><path d="M3390.61 4236.64 3404.61 4236.64 3404.61 4356.5 3390.61 4356.5ZM3471.61 4200.64 3486.61 4200.64 3486.61 4356.5 3471.61 4356.5ZM3553.62 4164.64 3567.62 4164.64 3567.62 4356.5 3553.62 4356.5ZM3634.62 4163.64 3648.62 4163.64 3648.62 4356.5 3634.62 4356.5ZM3715.62 4163.64 3729.62 4163.64 3729.62 4356.5 3715.62 4356.5ZM3796.62 4257.64 3810.63 4257.64 3810.63 4356.5 3796.62 4356.5ZM3877.63 4257.64 3891.63 4257.64 3891.63 4356.5 3877.63 4356.5ZM3958.63 4249.64 3973.63 4249.64 3973.63 4356.5 3958.63 4356.5ZM4040.63 4248.64 4054.63 4248.64 4054.63 4356.5 4040.63 4356.5ZM4121.64 4249.64 4135.64 4249.64 4135.64 4356.5 4121.64 4356.5ZM4202.64 3745.62 4216.64 3745.62 4216.64 4356.5 4202.64 4356.5ZM4283.64 3745.62 4297.64 3745.62 4297.64 4356.5 4283.64 4356.5ZM4364.64 3746.62 4378.64 3746.62 4378.64 4356.5 4364.64 4356.5ZM4445.65 3745.62 4460.65 3745.62 4460.65 4356.5 4445.65 4356.5ZM4527.65 3749.62 4541.65 3749.62 4541.65 4356.5 4527.65 4356.5Z" stroke="#BF9000" stroke-width="3.4375" stroke-linejoin="round" stroke-miterlimit="10" fill="#FFD966"/></g><g clip-path="url(#clip4)"><path d="M3408.61 4236.64 3422.61 4236.64 3422.61 4356.5 3408.61 4356.5ZM3489.61 4200.64 3504.62 4200.64 3504.62 4356.5 3489.61 4356.5ZM3571.62 4164.64 3585.62 4164.64 3585.62 4356.5 3571.62 4356.5ZM3652.62 4163.64 3666.62 4163.64 3666.62 4356.5 3652.62 4356.5ZM3733.62 4163.64 3747.62 4163.64 3747.62 4356.5 3733.62 4356.5ZM3814.63 4257.64 3828.63 4257.64 3828.63 4356.5 3814.63 4356.5ZM3895.63 4257.64 3909.63 4257.64 3909.63 4356.5 3895.63 4356.5ZM3976.63 4249.64 3991.63 4249.64 3991.63 4356.5 3976.63 4356.5ZM4058.63 4248.64 4072.63 4248.64 4072.63 4356.5 4058.63 4356.5ZM4139.64 4249.64 4153.64 4249.64 4153.64 4356.5 4139.64 4356.5ZM4220.64 3745.62 4234.64 3745.62 4234.64 4356.5 4220.64 4356.5ZM4301.64 3745.62 4315.64 3745.62 4315.64 4356.5 4301.64 4356.5ZM4382.64 3746.62 4396.64 3746.62 4396.64 4356.5 4382.64 4356.5ZM4463.65 3745.62 4478.65 3745.62 4478.65 4356.5 4463.65 4356.5ZM4545.65 3749.62 4559.65 3749.62 4559.65 4356.5 4545.65 4356.5Z" stroke="#548235" stroke-width="3.4375" stroke-linejoin="round" stroke-miterlimit="10" fill="#A9D18E"/></g><g clip-path="url(#clip5)"><path d="M2870.5 4356.5 4899.5 4356.5" stroke="#D9D9D9" stroke-width="3.4375" stroke-linejoin="round" stroke-miterlimit="10" fill="none" fill-rule="evenodd"/></g><g clip-path="url(#clip6)"><path d="M2870.5 4356.5 2870.5 4742.5M2951.6 4356.5 2951.6 4742.5M3357.61 4356.5 3357.61 4742.5M3763.62 4356.5 3763.62 4742.5M4168.64 4356.5 4168.64 4742.5M4574.65 4356.5 4574.65 4742.5M4899.5 4356.5 4899.5 4742.5" stroke="#D9D9D9" stroke-width="3.4375" stroke-linejoin="round" stroke-miterlimit="10" fill="none"/></g><g clip-path="url(#clip7)"><path d="M2870.5 4742.5 2870.5 4822.5M2951.6 4742.5 2951.6 4822.5M3357.61 4742.5 3357.61 4822.5M3763.62 4742.5 3763.62 4822.5M4168.64 4742.5 4168.64 4822.5M4574.65 4742.5 4574.65 4822.5M4899.5 4742.5 4899.5 4822.5" stroke="#D9D9D9" stroke-width="3.4375" stroke-linejoin="round" stroke-miterlimit="10" fill="none"/></g><g clip-path="url(#clip8)"><text fill="#595959" font-family="Calibri,Calibri_MSFontService,sans-serif" font-weight="400" font-size="41" transform="matrix(1 0 0 1 2811.1 4368)">0</text></g><g clip-path="url(#clip9)"><text fill="#595959" font-family="Calibri,Calibri_MSFontService,sans-serif" font-weight="400" font-size="41" transform="matrix(1 0 0 1 2779.79 4306)">0.1</text></g><g clip-path="url(#clip10)"><text fill="#595959" font-family="Calibri,Calibri_MSFontService,sans-serif" font-weight="400" font-size="41" transform="matrix(1 0 0 1 2779.79 4245)">0.2</text></g><g clip-path="url(#clip11)"><text fill="#595959" font-family="Calibri,Calibri_MSFontService,sans-serif" font-weight="400" font-size="41" transform="matrix(1 0 0 1 2779.79 4184)">0.3</text></g><g clip-path="url(#clip12)"><text fill="#595959" font-family="Calibri,Calibri_MSFontService,sans-serif" font-weight="400" font-size="41" transform="matrix(1 0 0 1 2779.79 4123)">0.4</text></g><g clip-path="url(#clip13)"><text fill="#595959" font-family="Calibri,Calibri_MSFontService,sans-serif" font-weight="400" font-size="41" transform="matrix(1 0 0 1 2779.79 4062)">0.5</text></g><g clip-path="url(#clip14)"><text fill="#595959" font-family="Calibri,Calibri_MSFontService,sans-serif" font-weight="400" font-size="41" transform="matrix(1 0 0 1 2779.79 4001)">0.6</text></g><g clip-path="url(#clip15)"><text fill="#595959" font-family="Calibri,Calibri_MSFontService,sans-serif" font-weight="400" font-size="41" transform="matrix(1 0 0 1 2779.79 3940)">0.7</text></g><g clip-path="url(#clip16)"><text fill="#595959" font-family="Calibri,Calibri_MSFontService,sans-serif" font-weight="400" font-size="41" transform="matrix(1 0 0 1 2779.79 3879)">0.8</text></g><g clip-path="url(#clip17)"><text fill="#595959" font-family="Calibri,Calibri_MSFontService,sans-serif" font-weight="400" font-size="41" transform="matrix(1 0 0 1 2779.79 3818)">0.9</text></g><g clip-path="url(#clip18)"><text fill="#595959" font-family="Calibri,Calibri_MSFontService,sans-serif" font-weight="400" font-size="41" transform="matrix(1 0 0 1 2811.1 3757)">1</text></g><g clip-path="url(#clip19)"><text fill="#595959" font-family="Calibri,Calibri_MSFontService,sans-serif" font-weight="400" font-size="41" transform="matrix(6.12323e-17 -1 1 6.12323e-17 2924.68 4693)">JPEG-Kompression</text></g><g clip-path="url(#clip20)"><text fill="#595959" font-family="Calibri,Calibri_MSFontService,sans-serif" font-weight="400" font-size="41" transform="matrix(6.12323e-17 -1 1 6.12323e-17 3005.85 4509)">67 Byte</text></g><g clip-path="url(#clip21)"><text fill="#595959" font-family="Calibri,Calibri_MSFontService,sans-serif" font-weight="400" font-size="41" transform="matrix(6.12323e-17 -1 1 6.12323e-17 3087.02 4508)">1.53 KB</text></g><g clip-path="url(#clip22)"><text fill="#595959" font-family="Calibri,Calibri_MSFontService,sans-serif" font-weight="400" font-size="41" transform="matrix(6.12323e-17 -1 1 6.12323e-17 3168.19 4508)">17.5 KB</text></g><g clip-path="url(#clip23)"><text fill="#595959" font-family="Calibri,Calibri_MSFontService,sans-serif" font-weight="400" font-size="41" transform="matrix(6.12323e-17 -1 1 6.12323e-17 3249.37 4739)">16 KB (min. Entropie)</text></g><g clip-path="url(#clip24)"><text fill="#595959" font-family="Calibri,Calibri_MSFontService,sans-serif" font-weight="400" font-size="41" transform="matrix(6.12323e-17 -1 1 6.12323e-17 3330.54 4630)">16.8 KB (binär)</text></g><g clip-path="url(#clip25)"><text fill="#595959" font-family="Calibri,Calibri_MSFontService,sans-serif" font-weight="400" font-size="41" transform="matrix(6.12323e-17 -1 1 6.12323e-17 3411.71 4509)">67 Byte</text></g><g clip-path="url(#clip26)"><text fill="#595959" font-family="Calibri,Calibri_MSFontService,sans-serif" font-weight="400" font-size="41" transform="matrix(6.12323e-17 -1 1 6.12323e-17 3492.88 4508)">1.53 KB</text></g><g clip-path="url(#clip27)"><text fill="#595959" font-family="Calibri,Calibri_MSFontService,sans-serif" font-weight="400" font-size="41" transform="matrix(6.12323e-17 -1 1 6.12323e-17 3574.06 4508)">17.5 KB</text></g><g clip-path="url(#clip28)"><text fill="#595959" font-family="Calibri,Calibri_MSFontService,sans-serif" font-weight="400" font-size="41" transform="matrix(6.12323e-17 -1 1 6.12323e-17 3655.23 4739)">16 KB (min. Entropie)</text></g><g clip-path="url(#clip29)"><text fill="#595959" font-family="Calibri,Calibri_MSFontService,sans-serif" font-weight="400" font-size="41" transform="matrix(6.12323e-17 -1 1 6.12323e-17 3736.4 4630)">16.8 KB (binär)</text></g><g clip-path="url(#clip30)"><text fill="#595959" font-family="Calibri,Calibri_MSFontService,sans-serif" font-weight="400" font-size="41" transform="matrix(6.12323e-17 -1 1 6.12323e-17 3817.58 4509)">67 Byte</text></g><g clip-path="url(#clip31)"><text fill="#595959" font-family="Calibri,Calibri_MSFontService,sans-serif" font-weight="400" font-size="41" transform="matrix(6.12323e-17 -1 1 6.12323e-17 3898.75 4508)">1.53 KB</text></g><g clip-path="url(#clip32)"><text fill="#595959" font-family="Calibri,Calibri_MSFontService,sans-serif" font-weight="400" font-size="41" transform="matrix(6.12323e-17 -1 1 6.12323e-17 3979.92 4508)">17.5 KB</text></g><g clip-path="url(#clip33)"><text fill="#595959" font-family="Calibri,Calibri_MSFontService,sans-serif" font-weight="400" font-size="41" transform="matrix(6.12323e-17 -1 1 6.12323e-17 4061.09 4739)">16 KB (min. Entropie)</text></g><g clip-path="url(#clip34)"><text fill="#595959" font-family="Calibri,Calibri_MSFontService,sans-serif" font-weight="400" font-size="41" transform="matrix(6.12323e-17 -1 1 6.12323e-17 4142.27 4630)">16.8 KB (binär)</text></g><g clip-path="url(#clip35)"><text fill="#595959" font-family="Calibri,Calibri_MSFontService,sans-serif" font-weight="400" font-size="41" transform="matrix(6.12323e-17 -1 1 6.12323e-17 4223.44 4509)">67 Byte</text></g><g clip-path="url(#clip36)"><text fill="#595959" font-family="Calibri,Calibri_MSFontService,sans-serif" font-weight="400" font-size="41" transform="matrix(6.12323e-17 -1 1 6.12323e-17 4304.61 4508)">1.53 KB</text></g><g clip-path="url(#clip37)"><text fill="#595959" font-family="Calibri,Calibri_MSFontService,sans-serif" font-weight="400" font-size="41" transform="matrix(6.12323e-17 -1 1 6.12323e-17 4385.79 4508)">17.5 KB</text></g><g clip-path="url(#clip38)"><text fill="#595959" font-family="Calibri,Calibri_MSFontService,sans-serif" font-weight="400" font-size="41" transform="matrix(6.12323e-17 -1 1 6.12323e-17 4466.96 4739)">16 KB (min. Entropie)</text></g><g clip-path="url(#clip39)"><text fill="#595959" font-family="Calibri,Calibri_MSFontService,sans-serif" font-weight="400" font-size="41" transform="matrix(6.12323e-17 -1 1 6.12323e-17 4548.13 4630)">16.8 KB (binär)</text></g><g clip-path="url(#clip40)"><text fill="#595959" font-family="Calibri,Calibri_MSFontService,sans-serif" font-weight="400" font-size="41" transform="matrix(6.12323e-17 -1 1 6.12323e-17 4629.3 4509)">67 Byte</text></g><g clip-path="url(#clip41)"><text fill="#595959" font-family="Calibri,Calibri_MSFontService,sans-serif" font-weight="400" font-size="41" transform="matrix(6.12323e-17 -1 1 6.12323e-17 4710.48 4508)">1.53 KB</text></g><g clip-path="url(#clip42)"><text fill="#595959" font-family="Calibri,Calibri_MSFontService,sans-serif" font-weight="400" font-size="41" transform="matrix(6.12323e-17 -1 1 6.12323e-17 4791.65 4508)">17.5 KB</text></g><g clip-path="url(#clip43)"><text fill="#595959" font-family="Calibri,Calibri_MSFontService,sans-serif" font-weight="400" font-size="41" transform="matrix(6.12323e-17 -1 1 6.12323e-17 4872.82 4739)">16 KB (min. Entropie)</text></g><g clip-path="url(#clip44)"><text fill="#595959" font-family="Calibri,Calibri_MSFontService,sans-serif" font-weight="400" font-size="41" transform="matrix(1 0 0 1 3114.48 4807)">jsteg</text></g><g clip-path="url(#clip45)"><text fill="#595959" font-family="Calibri,Calibri_MSFontService,sans-serif" font-weight="400" font-size="41" transform="matrix(1 0 0 1 3484.66 4807)">outguess</text></g><g clip-path="url(#clip46)"><text fill="#595959" font-family="Calibri,Calibri_MSFontService,sans-serif" font-weight="400" font-size="41" transform="matrix(1 0 0 1 3847.66 4807)">outguess-0.13</text></g><g clip-path="url(#clip47)"><text fill="#595959" font-family="Calibri,Calibri_MSFontService,sans-serif" font-weight="400" font-size="41" transform="matrix(1 0 0 1 4300.33 4807)">steghide</text></g><g clip-path="url(#clip48)"><text fill="#595959" font-family="Calibri,Calibri_MSFontService,sans-serif" font-weight="400" font-size="41" transform="matrix(1 0 0 1 4720.5 4807)">f5</text></g><g clip-path="url(#clip49)"><text fill="#595959" font-family="Calibri,Calibri_MSFontService,sans-serif" font-weight="400" font-size="64" transform="matrix(1 0 0 1 2992.87 3670)">schwarz</text></g><g clip-path="url(#clip50)"><text fill="#595959" font-family="Calibri,Calibri_MSFontService,sans-serif" font-weight="400" font-size="64" transform="matrix(1 0 0 1 3201.99 3670)">-</text></g><g clip-path="url(#clip51)"><text fill="#595959" font-family="Calibri,Calibri_MSFontService,sans-serif" font-weight="400" font-size="64" transform="matrix(1 0 0 1 3221.62 3670)">weiß</text></g><g clip-path="url(#clip52)"><text fill="#595959" font-family="Calibri,Calibri_MSFontService,sans-serif" font-weight="400" font-size="64" transform="matrix(1 0 0 1 3347.44 3670)">-</text></g><g clip-path="url(#clip53)"><text fill="#595959" font-family="Calibri,Calibri_MSFontService,sans-serif" font-weight="400" font-size="64" transform="matrix(1 0 0 1 3367.08 3670)">Verhältnis im </text></g><g clip-path="url(#clip54)"><text fill="#595959" font-family="Calibri,Calibri_MSFontService,sans-serif" font-weight="700" font-size="64" transform="matrix(1 0 0 1 3723.82 3670)">Differenzbild</text></g><g clip-path="url(#clip55)"><text fill="#595959" font-family="Calibri,Calibri_MSFontService,sans-serif" font-weight="400" font-size="64" transform="matrix(1 0 0 1 4081.11 3670)">(High</text></g><g clip-path="url(#clip56)"><text fill="#595959" font-family="Calibri,Calibri_MSFontService,sans-serif" font-weight="400" font-size="64" transform="matrix(1 0 0 1 4219.21 3670)">-</text></g><g clip-path="url(#clip57)"><text fill="#595959" font-family="Calibri,Calibri_MSFontService,sans-serif" font-weight="400" font-size="64" transform="matrix(1 0 0 1 4238.85 3670)">Resolution</text></g><g clip-path="url(#clip58)"><text fill="#595959" font-family="Calibri,Calibri_MSFontService,sans-serif" font-weight="400" font-size="64" transform="matrix(1 0 0 1 4515.66 3670)">-</text></g><g clip-path="url(#clip59)"><text fill="#595959" font-family="Calibri,Calibri_MSFontService,sans-serif" font-weight="400" font-size="64" transform="matrix(1 0 0 1 4535.3 3670)">Bilder)</text></g><g clip-path="url(#clip60)"><rect x="3358.5" y="4872.5" width="22" height="22.9995" stroke="#333F50" stroke-width="3.4375" stroke-linejoin="round" stroke-miterlimit="10" fill="#8497B0"/></g><g clip-path="url(#clip61)"><text fill="#595959" font-family="Calibri,Calibri_MSFontService,sans-serif" font-weight="400" font-size="41" transform="matrix(1 0 0 1 3390.44 4895)">kein Schlüssel</text></g><g clip-path="url(#clip62)"><rect x="3680.5" y="4872.5" width="23" height="22.9995" stroke="#BF9000" stroke-width="3.4375" stroke-linejoin="round" stroke-miterlimit="10" fill="#FFD966"/></g><g clip-path="url(#clip63)"><text fill="#595959" font-family="Calibri,Calibri_MSFontService,sans-serif" font-weight="400" font-size="41" transform="matrix(1 0 0 1 3713.04 4895)">4 Byte Schlüssel</text></g><g clip-path="url(#clip64)"><rect x="4038.5" y="4872.5" width="23" height="22.9995" stroke="#548235" stroke-width="3.4375" stroke-linejoin="round" stroke-miterlimit="10" fill="#A9D18E"/></g><g clip-path="url(#clip65)"><text fill="#595959" font-family="Calibri,Calibri_MSFontService,sans-serif" font-weight="400" font-size="41" transform="matrix(1 0 0 1 4070.91 4895)">50 Byte Schlüssel</text></g><rect x="2750.5" y="3575.5" width="2200" height="1375" stroke="#D9D9D9" stroke-width="3.4375" stroke-linejoin="round" stroke-miterlimit="10" fill="none"/></g></svg>