<svg width="2203" height="1376" xmlns="http://www.w3.org/2000/svg" xmlns:xlink="http://www.w3.org/1999/xlink" xml:space="preserve" overflow="hidden"><defs><clipPath id="clip0"><rect x="274" y="2132" width="2203" height="1376"/></clipPath><clipPath id="clip1"><rect x="275" y="2132" width="2200" height="1374"/></clipPath><clipPath id="clip2"><rect x="405" y="2358" width="2023" height="557"/></clipPath><clipPath id="clip3"><rect x="405" y="2358" width="2023" height="557"/></clipPath><clipPath id="clip4"><rect x="405" y="2358" width="2023" height="557"/></clipPath><clipPath id="clip5"><rect x="275" y="2132" width="2200" height="1374"/></clipPath><clipPath id="clip6"><rect x="275" y="2132" width="2200" height="1374"/></clipPath><clipPath id="clip7"><rect x="275" y="2132" width="2200" height="1374"/></clipPath><clipPath id="clip8"><rect x="275" y="2132" width="2200" height="1374"/></clipPath><clipPath id="clip9"><rect x="275" y="2132" width="2200" height="1374"/></clipPath><clipPath id="clip10"><rect x="275" y="2132" width="2200" height="1374"/></clipPath><clipPath id="clip11"><rect x="275" y="2132" width="2200" height="1374"/></clipPath><clipPath id="clip12"><rect x="275" y="2132" width="2200" height="1374"/></clipPath><clipPath id="clip13"><rect x="275" y="2132" width="2200" height="1374"/></clipPath><clipPath id="clip14"><rect x="275" y="2132" width="2200" height="1374"/></clipPath><clipPath id="clip15"><rect x="275" y="2132" width="2200" height="1374"/></clipPath><clipPath id="clip16"><rect x="275" y="2132" width="2200" height="1374"/></clipPath><clipPath id="clip17"><rect x="275" y="2132" width="2200" height="1374"/></clipPath><clipPath id="clip18"><rect x="275" y="2132" width="2200" height="1374"/></clipPath><clipPath id="clip19"><rect x="275" y="2132" width="2200" height="1374"/></clipPath><clipPath id="clip20"><rect x="275" y="2132" width="2200" height="1374"/></clipPath><clipPath id="clip21"><rect x="275" y="2132" width="2200" height="1374"/></clipPath><clipPath id="clip22"><rect x="275" y="2132" width="2200" height="1374"/></clipPath><clipPath id="clip23"><rect x="275" y="2132" width="2200" height="1374"/></clipPath><clipPath id="clip24"><rect x="275" y="2132" width="2200" height="1374"/></clipPath><clipPath id="clip25"><rect x="275" y="2132" width="2200" height="1374"/></clipPath><clipPath id="clip26"><rect x="275" y="2132" width="2200" height="1374"/></clipPath><clipPath id="clip27"><rect x="275" y="2132" width="2200" height="1374"/></clipPath><clipPath id="clip28"><rect x="275" y="2132" width="2200" height="1374"/></clipPath><clipPath id="clip29"><rect x="275" y="2132" width="2200" height="1374"/></clipPath><clipPath id="clip30"><rect x="275" y="2132" width="2200" height="1374"/></clipPath><clipPath id="clip31"><rect x="275" y="2132" width="2200" height="1374"/></clipPath><clipPath id="clip32"><rect x="275" y="2132" width="2200" height="1374"/></clipPath><clipPath id="clip33"><rect x="275" y="2132" width="2200" height="1374"/></clipPath><clipPath id="clip34"><rect x="275" y="2132" width="2200" height="1374"/></clipPath><clipPath id="clip35"><rect x="275" y="2132" width="2200" height="1374"/></clipPath><clipPath id="clip36"><rect x="275" y="2132" width="2200" height="1374"/></clipPath><clipPath id="clip37"><rect x="275" y="2132" width="2200" height="1374"/></clipPath><clipPath id="clip38"><rect x="275" y="2132" width="2200" height="1374"/></clipPath><clipPath id="clip39"><rect x="275" y="2132" width="2200" height="1374"/></clipPath><clipPath id="clip40"><rect x="275" y="2132" width="2200" height="1374"/></clipPath><clipPath id="clip41"><rect x="275" y="2132" width="2200" height="1374"/></clipPath><clipPath id="clip42"><rect x="275" y="2132" width="2200" height="1374"/></clipPath><clipPath id="clip43"><rect x="275" y="2132" width="2200" height="1374"/></clipPath><clipPath id="clip44"><rect x="275" y="2132" width="2200" height="1374"/></clipPath><clipPath id="clip45"><rect x="275" y="2132" width="2200" height="1374"/></clipPath><clipPath id="clip46"><rect x="275" y="2132" width="2200" height="1374"/></clipPath><clipPath id="clip47"><rect x="275" y="2132" width="2200" height="1374"/></clipPath><clipPath id="clip48"><rect x="275" y="2132" width="2200" height="1374"/></clipPath><clipPath id="clip49"><rect x="275" y="2132" width="2200" height="1374"/></clipPath><clipPath id="clip50"><rect x="275" y="2132" width="2200" height="1374"/></clipPath><clipPath id="clip51"><rect x="275" y="2132" width="2200" height="1374"/></clipPath><clipPath id="clip52"><rect x="275" y="2132" width="2200" height="1374"/></clipPath><clipPath id="clip53"><rect x="275" y="2132" width="2200" height="1374"/></clipPath><clipPath id="clip54"><rect x="275" y="2132" width="2200" height="1374"/></clipPath><clipPath id="clip55"><rect x="275" y="2132" width="2200" height="1374"/></clipPath><clipPath id="clip56"><rect x="275" y="2132" width="2200" height="1374"/></clipPath><clipPath id="clip57"><rect x="275" y="2132" width="2200" height="1374"/></clipPath></defs><g clip-path="url(#clip0)" transform="translate(-274 -2132)"><rect x="275" y="2133" width="2200" height="1373" fill="#FFFFFF"/><g clip-path="url(#clip1)"><path d="M405.5 2833.59 2424.5 2833.59M405.5 2754.59 2424.5 2754.59M405.5 2675.59 2424.5 2675.59M405.5 2595.59 2424.5 2595.59M405.5 2516.58 2424.5 2516.58M405.5 2437.58 2424.5 2437.58M405.5 2358.5 2424.5 2358.5" stroke="#D9D9D9" stroke-width="3.4375" stroke-linejoin="round" stroke-miterlimit="10" fill="none"/></g><g clip-path="url(#clip2)"><path d="M421.514 2497.58 435.514 2497.58 435.514 2912.5 421.514 2912.5ZM501.517 2749.59 516.517 2749.59 516.517 2912.5 501.517 2912.5ZM582.519 2751.59 596.52 2751.59 596.52 2912.5 582.519 2912.5ZM663.522 2757.59 677.522 2757.59 677.522 2912.5 663.522 2912.5ZM744.525 2757.59 758.525 2757.59 758.525 2912.5 744.525 2912.5ZM824.527 2757.59 839.528 2757.59 839.528 2912.5 824.527 2912.5ZM905.53 2748.59 919.53 2748.59 919.53 2912.5 905.53 2912.5ZM986.533 2721.59 1000.53 2721.59 1000.53 2912.5 986.533 2912.5ZM1309.54 2748.59 1323.54 2748.59 1323.54 2912.5 1309.54 2912.5ZM1390.55 2713.59 1404.55 2713.59 1404.55 2912.5 1390.55 2912.5ZM2116.57 2700.59 2131.57 2700.59 2131.57 2912.5 2116.57 2912.5ZM2197.57 2706.59 2211.57 2706.59 2211.57 2912.5 2197.57 2912.5ZM2278.57 2732.59 2292.58 2732.59 2292.58 2912.5 2278.57 2912.5ZM2359.58 2731.59 2373.58 2731.59 2373.58 2912.5 2359.58 2912.5Z" stroke="#333F50" stroke-width="3.4375" stroke-linejoin="round" stroke-miterlimit="10" fill="#8497B0"/></g><g clip-path="url(#clip3)"><path d="M923.53 2748.59 937.531 2748.59 937.531 2912.5 923.53 2912.5ZM1004.53 2721.59 1018.53 2721.59 1018.53 2912.5 1004.53 2912.5ZM1327.54 2748.59 1341.54 2748.59 1341.54 2912.5 1327.54 2912.5ZM1408.55 2713.59 1422.55 2713.59 1422.55 2912.5 1408.55 2912.5ZM1731.56 2440.58 1745.56 2440.58 1745.56 2912.5 1731.56 2912.5ZM1811.56 2440.58 1825.56 2440.58 1825.56 2912.5 1811.56 2912.5ZM1892.56 2439.58 1906.56 2439.58 1906.56 2912.5 1892.56 2912.5ZM1973.56 2440.58 1987.57 2440.58 1987.57 2912.5 1973.56 2912.5ZM2054.57 2438.58 2068.57 2438.58 2068.57 2912.5 2054.57 2912.5ZM2134.57 2700.59 2148.57 2700.59 2148.57 2912.5 2134.57 2912.5ZM2215.57 2706.59 2229.57 2706.59 2229.57 2912.5 2215.57 2912.5ZM2296.58 2731.59 2310.58 2731.59 2310.58 2912.5 2296.58 2912.5ZM2377.58 2731.59 2391.58 2731.59 2391.58 2912.5 2377.58 2912.5Z" stroke="#BF9000" stroke-width="3.4375" stroke-linejoin="round" stroke-miterlimit="10" fill="#FFD966"/></g><g clip-path="url(#clip4)"><path d="M941.531 2748.59 955.531 2748.59 955.531 2912.5 941.531 2912.5ZM1022.53 2721.59 1036.53 2721.59 1036.53 2912.5 1022.53 2912.5ZM1345.54 2748.59 1359.54 2748.59 1359.54 2912.5 1345.54 2912.5ZM1425.55 2713.59 1440.55 2713.59 1440.55 2912.5 1425.55 2912.5ZM1748.56 2497.58 1763.56 2497.58 1763.56 2912.5 1748.56 2912.5ZM1829.56 2497.58 1843.56 2497.58 1843.56 2912.5 1829.56 2912.5ZM1910.56 2496.58 1924.56 2496.58 1924.56 2912.5 1910.56 2912.5ZM1991.57 2496.58 2005.57 2496.58 2005.57 2912.5 1991.57 2912.5ZM2071.57 2516.58 2086.57 2516.58 2086.57 2912.5 2071.57 2912.5ZM2152.57 2700.59 2166.57 2700.59 2166.57 2912.5 2152.57 2912.5ZM2233.57 2706.59 2247.57 2706.59 2247.57 2912.5 2233.57 2912.5ZM2314.58 2731.59 2328.58 2731.59 2328.58 2912.5 2314.58 2912.5ZM2394.58 2731.59 2409.58 2731.59 2409.58 2912.5 2394.58 2912.5Z" stroke="#548235" stroke-width="3.4375" stroke-linejoin="round" stroke-miterlimit="10" fill="#A9D18E"/></g><g clip-path="url(#clip5)"><path d="M405.5 2912.5 2424.5 2912.5" stroke="#D9D9D9" stroke-width="3.4375" stroke-linejoin="round" stroke-miterlimit="10" fill="none" fill-rule="evenodd"/></g><g clip-path="url(#clip6)"><path d="M405.5 2912.5 405.5 3298.5M486.516 2912.5 486.516 3298.5M890.529 2912.5 890.529 3298.5M1293.54 2912.5 1293.54 3298.5M1697.56 2912.5 1697.56 3298.5M2101.57 2912.5 2101.57 3298.5M2424.5 2912.5 2424.5 3298.5" stroke="#D9D9D9" stroke-width="3.4375" stroke-linejoin="round" stroke-miterlimit="10" fill="none"/></g><g clip-path="url(#clip7)"><path d="M405.5 3298.5 405.5 3378.5M486.516 3298.5 486.516 3378.5M890.529 3298.5 890.529 3378.5M1293.54 3298.5 1293.54 3378.5M1697.56 3298.5 1697.56 3378.5M2101.57 3298.5 2101.57 3378.5M2424.5 3298.5 2424.5 3378.5" stroke="#D9D9D9" stroke-width="3.4375" stroke-linejoin="round" stroke-miterlimit="10" fill="none"/></g><g clip-path="url(#clip8)"><text fill="#595959" font-family="Calibri,Calibri_MSFontService,sans-serif" font-weight="400" font-size="41" transform="matrix(1 0 0 1 346.592 2924)">0</text></g><g clip-path="url(#clip9)"><text fill="#595959" font-family="Calibri,Calibri_MSFontService,sans-serif" font-weight="400" font-size="41" transform="matrix(1 0 0 1 325.692 2845)">20</text></g><g clip-path="url(#clip10)"><text fill="#595959" font-family="Calibri,Calibri_MSFontService,sans-serif" font-weight="400" font-size="41" transform="matrix(1 0 0 1 325.692 2766)">40</text></g><g clip-path="url(#clip11)"><text fill="#595959" font-family="Calibri,Calibri_MSFontService,sans-serif" font-weight="400" font-size="41" transform="matrix(1 0 0 1 325.692 2687)">60</text></g><g clip-path="url(#clip12)"><text fill="#595959" font-family="Calibri,Calibri_MSFontService,sans-serif" font-weight="400" font-size="41" transform="matrix(1 0 0 1 325.692 2608)">80</text></g><g clip-path="url(#clip13)"><text fill="#595959" font-family="Calibri,Calibri_MSFontService,sans-serif" font-weight="400" font-size="41" transform="matrix(1 0 0 1 304.792 2529)">100</text></g><g clip-path="url(#clip14)"><text fill="#595959" font-family="Calibri,Calibri_MSFontService,sans-serif" font-weight="400" font-size="41" transform="matrix(1 0 0 1 304.792 2450)">120</text></g><g clip-path="url(#clip15)"><text fill="#595959" font-family="Calibri,Calibri_MSFontService,sans-serif" font-weight="400" font-size="41" transform="matrix(1 0 0 1 304.792 2370)">140</text></g><g clip-path="url(#clip16)"><text fill="#595959" font-family="Calibri,Calibri_MSFontService,sans-serif" font-weight="400" font-size="41" transform="matrix(6.12323e-17 -1 1 6.12323e-17 459.961 3145)">Original-Bild</text></g><g clip-path="url(#clip17)"><text fill="#595959" font-family="Calibri,Calibri_MSFontService,sans-serif" font-weight="400" font-size="41" transform="matrix(6.12323e-17 -1 1 6.12323e-17 540.714 3065)">67 Byte</text></g><g clip-path="url(#clip18)"><text fill="#595959" font-family="Calibri,Calibri_MSFontService,sans-serif" font-weight="400" font-size="41" transform="matrix(6.12323e-17 -1 1 6.12323e-17 621.467 3065)">1.53 KB</text></g><g clip-path="url(#clip19)"><text fill="#595959" font-family="Calibri,Calibri_MSFontService,sans-serif" font-weight="400" font-size="41" transform="matrix(6.12323e-17 -1 1 6.12323e-17 702.22 3065)">17.5 KB</text></g><g clip-path="url(#clip20)"><text fill="#595959" font-family="Calibri,Calibri_MSFontService,sans-serif" font-weight="400" font-size="41" transform="matrix(6.12323e-17 -1 1 6.12323e-17 782.973 3295)">16 KB (min. Entropie)</text></g><g clip-path="url(#clip21)"><text fill="#595959" font-family="Calibri,Calibri_MSFontService,sans-serif" font-weight="400" font-size="41" transform="matrix(6.12323e-17 -1 1 6.12323e-17 863.726 3186)">16.8 KB (binär)</text></g><g clip-path="url(#clip22)"><text fill="#595959" font-family="Calibri,Calibri_MSFontService,sans-serif" font-weight="400" font-size="41" transform="matrix(6.12323e-17 -1 1 6.12323e-17 944.479 3065)">67 Byte</text></g><g clip-path="url(#clip23)"><text fill="#595959" font-family="Calibri,Calibri_MSFontService,sans-serif" font-weight="400" font-size="41" transform="matrix(6.12323e-17 -1 1 6.12323e-17 1025.23 3065)">1.53 KB</text></g><g clip-path="url(#clip24)"><text fill="#595959" font-family="Calibri,Calibri_MSFontService,sans-serif" font-weight="400" font-size="41" transform="matrix(6.12323e-17 -1 1 6.12323e-17 1105.98 3065)">17.5 KB</text></g><g clip-path="url(#clip25)"><text fill="#595959" font-family="Calibri,Calibri_MSFontService,sans-serif" font-weight="400" font-size="41" transform="matrix(6.12323e-17 -1 1 6.12323e-17 1186.74 3295)">16 KB (min. Entropie)</text></g><g clip-path="url(#clip26)"><text fill="#595959" font-family="Calibri,Calibri_MSFontService,sans-serif" font-weight="400" font-size="41" transform="matrix(6.12323e-17 -1 1 6.12323e-17 1267.49 3186)">16.8 KB (binär)</text></g><g clip-path="url(#clip27)"><text fill="#595959" font-family="Calibri,Calibri_MSFontService,sans-serif" font-weight="400" font-size="41" transform="matrix(6.12323e-17 -1 1 6.12323e-17 1348.24 3065)">67 Byte</text></g><g clip-path="url(#clip28)"><text fill="#595959" font-family="Calibri,Calibri_MSFontService,sans-serif" font-weight="400" font-size="41" transform="matrix(6.12323e-17 -1 1 6.12323e-17 1429 3065)">1.53 KB</text></g><g clip-path="url(#clip29)"><text fill="#595959" font-family="Calibri,Calibri_MSFontService,sans-serif" font-weight="400" font-size="41" transform="matrix(6.12323e-17 -1 1 6.12323e-17 1509.75 3065)">17.5 KB</text></g><g clip-path="url(#clip30)"><text fill="#595959" font-family="Calibri,Calibri_MSFontService,sans-serif" font-weight="400" font-size="41" transform="matrix(6.12323e-17 -1 1 6.12323e-17 1590.5 3295)">16 KB (min. Entropie)</text></g><g clip-path="url(#clip31)"><text fill="#595959" font-family="Calibri,Calibri_MSFontService,sans-serif" font-weight="400" font-size="41" transform="matrix(6.12323e-17 -1 1 6.12323e-17 1671.26 3186)">16.8 KB (binär)</text></g><g clip-path="url(#clip32)"><text fill="#595959" font-family="Calibri,Calibri_MSFontService,sans-serif" font-weight="400" font-size="41" transform="matrix(6.12323e-17 -1 1 6.12323e-17 1752.01 3065)">67 Byte</text></g><g clip-path="url(#clip33)"><text fill="#595959" font-family="Calibri,Calibri_MSFontService,sans-serif" font-weight="400" font-size="41" transform="matrix(6.12323e-17 -1 1 6.12323e-17 1832.76 3065)">1.53 KB</text></g><g clip-path="url(#clip34)"><text fill="#595959" font-family="Calibri,Calibri_MSFontService,sans-serif" font-weight="400" font-size="41" transform="matrix(6.12323e-17 -1 1 6.12323e-17 1913.51 3065)">17.5 KB</text></g><g clip-path="url(#clip35)"><text fill="#595959" font-family="Calibri,Calibri_MSFontService,sans-serif" font-weight="400" font-size="41" transform="matrix(6.12323e-17 -1 1 6.12323e-17 1994.27 3295)">16 KB (min. Entropie)</text></g><g clip-path="url(#clip36)"><text fill="#595959" font-family="Calibri,Calibri_MSFontService,sans-serif" font-weight="400" font-size="41" transform="matrix(6.12323e-17 -1 1 6.12323e-17 2075.02 3186)">16.8 KB (binär)</text></g><g clip-path="url(#clip37)"><text fill="#595959" font-family="Calibri,Calibri_MSFontService,sans-serif" font-weight="400" font-size="41" transform="matrix(6.12323e-17 -1 1 6.12323e-17 2155.77 3065)">67 Byte</text></g><g clip-path="url(#clip38)"><text fill="#595959" font-family="Calibri,Calibri_MSFontService,sans-serif" font-weight="400" font-size="41" transform="matrix(6.12323e-17 -1 1 6.12323e-17 2236.53 3065)">1.53 KB</text></g><g clip-path="url(#clip39)"><text fill="#595959" font-family="Calibri,Calibri_MSFontService,sans-serif" font-weight="400" font-size="41" transform="matrix(6.12323e-17 -1 1 6.12323e-17 2317.28 3065)">17.5 KB</text></g><g clip-path="url(#clip40)"><text fill="#595959" font-family="Calibri,Calibri_MSFontService,sans-serif" font-weight="400" font-size="41" transform="matrix(6.12323e-17 -1 1 6.12323e-17 2398.03 3295)">16 KB (min. Entropie)</text></g><g clip-path="url(#clip41)"><text fill="#595959" font-family="Calibri,Calibri_MSFontService,sans-serif" font-weight="400" font-size="41" transform="matrix(1 0 0 1 648.507 3364)">jsteg</text></g><g clip-path="url(#clip42)"><text fill="#595959" font-family="Calibri,Calibri_MSFontService,sans-serif" font-weight="400" font-size="41" transform="matrix(1 0 0 1 1016.59 3364)">outguess</text></g><g clip-path="url(#clip43)"><text fill="#595959" font-family="Calibri,Calibri_MSFontService,sans-serif" font-weight="400" font-size="41" transform="matrix(1 0 0 1 1377.49 3364)">outguess-0.13</text></g><g clip-path="url(#clip44)"><text fill="#595959" font-family="Calibri,Calibri_MSFontService,sans-serif" font-weight="400" font-size="41" transform="matrix(1 0 0 1 1828.06 3364)">steghide</text></g><g clip-path="url(#clip45)"><text fill="#595959" font-family="Calibri,Calibri_MSFontService,sans-serif" font-weight="400" font-size="41" transform="matrix(1 0 0 1 2246.34 3364)">f5</text></g><g clip-path="url(#clip46)"><text fill="#595959" font-family="Calibri,Calibri_MSFontService,sans-serif" font-weight="400" font-size="64" transform="matrix(1 0 0 1 867.992 2228)">durchschn. </text></g><g clip-path="url(#clip47)"><text fill="#595959" font-family="Calibri,Calibri_MSFontService,sans-serif" font-weight="700" font-size="64" transform="matrix(1 0 0 1 1168.04 2228)">Dateigröße</text></g><g clip-path="url(#clip48)"><text fill="#595959" font-family="Calibri,Calibri_MSFontService,sans-serif" font-weight="400" font-size="64" transform="matrix(1 0 0 1 1478.47 2228)">(alaska2</text></g><g clip-path="url(#clip49)"><text fill="#595959" font-family="Calibri,Calibri_MSFontService,sans-serif" font-weight="400" font-size="64" transform="matrix(1 0 0 1 1690.54 2228)">-</text></g><g clip-path="url(#clip50)"><text fill="#595959" font-family="Calibri,Calibri_MSFontService,sans-serif" font-weight="400" font-size="64" transform="matrix(1 0 0 1 1710.18 2228)">Bilder)</text></g><g clip-path="url(#clip51)"><text fill="#595959" font-family="Calibri,Calibri_MSFontService,sans-serif" font-weight="400" font-size="46" transform="matrix(1 0 0 1 1328.14 2289)">in KB</text></g><g clip-path="url(#clip52)"><rect x="883.5" y="3428.5" width="22" height="23" stroke="#333F50" stroke-width="3.4375" stroke-linejoin="round" stroke-miterlimit="10" fill="#8497B0"/></g><g clip-path="url(#clip53)"><text fill="#595959" font-family="Calibri,Calibri_MSFontService,sans-serif" font-weight="400" font-size="41" transform="matrix(1 0 0 1 915.444 3452)">kein Schlüssel</text></g><g clip-path="url(#clip54)"><rect x="1205.5" y="3428.5" width="23" height="23" stroke="#BF9000" stroke-width="3.4375" stroke-linejoin="round" stroke-miterlimit="10" fill="#FFD966"/></g><g clip-path="url(#clip55)"><text fill="#595959" font-family="Calibri,Calibri_MSFontService,sans-serif" font-weight="400" font-size="41" transform="matrix(1 0 0 1 1238.04 3452)">4 Byte Schlüssel</text></g><g clip-path="url(#clip56)"><rect x="1563.5" y="3428.5" width="23" height="23" stroke="#548235" stroke-width="3.4375" stroke-linejoin="round" stroke-miterlimit="10" fill="#A9D18E"/></g><g clip-path="url(#clip57)"><text fill="#595959" font-family="Calibri,Calibri_MSFontService,sans-serif" font-weight="400" font-size="41" transform="matrix(1 0 0 1 1595.91 3452)">50 Byte Schlüssel</text></g><rect x="275.5" y="2133.5" width="2200" height="1373" stroke="#D9D9D9" stroke-width="3.4375" stroke-linejoin="round" stroke-miterlimit="10" fill="none"/></g></svg>