<svg width="2203" height="1378" xmlns="http://www.w3.org/2000/svg" xmlns:xlink="http://www.w3.org/1999/xlink" xml:space="preserve" overflow="hidden"><defs><clipPath id="clip0"><rect x="274" y="3643" width="2203" height="1378"/></clipPath><clipPath id="clip1"><rect x="275" y="3643" width="2200" height="1375"/></clipPath><clipPath id="clip2"><rect x="426" y="3869" width="2002" height="559"/></clipPath><clipPath id="clip3"><rect x="426" y="3869" width="2002" height="559"/></clipPath><clipPath id="clip4"><rect x="426" y="3869" width="2002" height="559"/></clipPath><clipPath id="clip5"><rect x="275" y="3643" width="2200" height="1375"/></clipPath><clipPath id="clip6"><rect x="275" y="3643" width="2200" height="1375"/></clipPath><clipPath id="clip7"><rect x="275" y="3643" width="2200" height="1375"/></clipPath><clipPath id="clip8"><rect x="275" y="3643" width="2200" height="1375"/></clipPath><clipPath id="clip9"><rect x="275" y="3643" width="2200" height="1375"/></clipPath><clipPath id="clip10"><rect x="275" y="3643" width="2200" height="1375"/></clipPath><clipPath id="clip11"><rect x="275" y="3643" width="2200" height="1375"/></clipPath><clipPath id="clip12"><rect x="275" y="3643" width="2200" height="1375"/></clipPath><clipPath id="clip13"><rect x="275" y="3643" width="2200" height="1375"/></clipPath><clipPath id="clip14"><rect x="275" y="3643" width="2200" height="1375"/></clipPath><clipPath id="clip15"><rect x="275" y="3643" width="2200" height="1375"/></clipPath><clipPath id="clip16"><rect x="275" y="3643" width="2200" height="1375"/></clipPath><clipPath id="clip17"><rect x="275" y="3643" width="2200" height="1375"/></clipPath><clipPath id="clip18"><rect x="275" y="3643" width="2200" height="1375"/></clipPath><clipPath id="clip19"><rect x="275" y="3643" width="2200" height="1375"/></clipPath><clipPath id="clip20"><rect x="275" y="3643" width="2200" height="1375"/></clipPath><clipPath id="clip21"><rect x="275" y="3643" width="2200" height="1375"/></clipPath><clipPath id="clip22"><rect x="275" y="3643" width="2200" height="1375"/></clipPath><clipPath id="clip23"><rect x="275" y="3643" width="2200" height="1375"/></clipPath><clipPath id="clip24"><rect x="275" y="3643" width="2200" height="1375"/></clipPath><clipPath id="clip25"><rect x="275" y="3643" width="2200" height="1375"/></clipPath><clipPath id="clip26"><rect x="275" y="3643" width="2200" height="1375"/></clipPath><clipPath id="clip27"><rect x="275" y="3643" width="2200" height="1375"/></clipPath><clipPath id="clip28"><rect x="275" y="3643" width="2200" height="1375"/></clipPath><clipPath id="clip29"><rect x="275" y="3643" width="2200" height="1375"/></clipPath><clipPath id="clip30"><rect x="275" y="3643" width="2200" height="1375"/></clipPath><clipPath id="clip31"><rect x="275" y="3643" width="2200" height="1375"/></clipPath><clipPath id="clip32"><rect x="275" y="3643" width="2200" height="1375"/></clipPath><clipPath id="clip33"><rect x="275" y="3643" width="2200" height="1375"/></clipPath><clipPath id="clip34"><rect x="275" y="3643" width="2200" height="1375"/></clipPath><clipPath id="clip35"><rect x="275" y="3643" width="2200" height="1375"/></clipPath><clipPath id="clip36"><rect x="275" y="3643" width="2200" height="1375"/></clipPath><clipPath id="clip37"><rect x="275" y="3643" width="2200" height="1375"/></clipPath><clipPath id="clip38"><rect x="275" y="3643" width="2200" height="1375"/></clipPath><clipPath id="clip39"><rect x="275" y="3643" width="2200" height="1375"/></clipPath><clipPath id="clip40"><rect x="275" y="3643" width="2200" height="1375"/></clipPath><clipPath id="clip41"><rect x="275" y="3643" width="2200" height="1375"/></clipPath><clipPath id="clip42"><rect x="275" y="3643" width="2200" height="1375"/></clipPath><clipPath id="clip43"><rect x="275" y="3643" width="2200" height="1375"/></clipPath><clipPath id="clip44"><rect x="275" y="3643" width="2200" height="1375"/></clipPath><clipPath id="clip45"><rect x="275" y="3643" width="2200" height="1375"/></clipPath><clipPath id="clip46"><rect x="275" y="3643" width="2200" height="1375"/></clipPath><clipPath id="clip47"><rect x="275" y="3643" width="2200" height="1375"/></clipPath><clipPath id="clip48"><rect x="275" y="3643" width="2200" height="1375"/></clipPath><clipPath id="clip49"><rect x="275" y="3643" width="2200" height="1375"/></clipPath><clipPath id="clip50"><rect x="275" y="3643" width="2200" height="1375"/></clipPath><clipPath id="clip51"><rect x="275" y="3643" width="2200" height="1375"/></clipPath><clipPath id="clip52"><rect x="275" y="3643" width="2200" height="1375"/></clipPath><clipPath id="clip53"><rect x="275" y="3643" width="2200" height="1375"/></clipPath><clipPath id="clip54"><rect x="275" y="3643" width="2200" height="1375"/></clipPath><clipPath id="clip55"><rect x="275" y="3643" width="2200" height="1375"/></clipPath><clipPath id="clip56"><rect x="275" y="3643" width="2200" height="1375"/></clipPath><clipPath id="clip57"><rect x="275" y="3643" width="2200" height="1375"/></clipPath><clipPath id="clip58"><rect x="275" y="3643" width="2200" height="1375"/></clipPath><clipPath id="clip59"><rect x="275" y="3643" width="2200" height="1375"/></clipPath></defs><g clip-path="url(#clip0)" transform="translate(-274 -3643)"><rect x="275" y="3644" width="2200" height="1375" fill="#FFFFFF"/><g clip-path="url(#clip1)"><path d="M426.5 4355.64 2424.5 4355.64M426.5 4285.64 2424.5 4285.64M426.5 4216.64 2424.5 4216.64M426.5 4147.64 2424.5 4147.64M426.5 4077.63 2424.5 4077.63M426.5 4008.63 2424.5 4008.63M426.5 3938.63 2424.5 3938.63M426.5 3869.5 2424.5 3869.5" stroke="#D9D9D9" stroke-width="3.4375" stroke-linejoin="round" stroke-miterlimit="10" fill="none"/></g><g clip-path="url(#clip2)"><path d="M441.515 3933.63 454.515 3933.63 454.515 4424.5 441.515 4424.5ZM518.517 4205.64 531.518 4205.64 531.518 4424.5 518.517 4424.5ZM595.52 4237.64 608.52 4237.64 608.52 4424.5 595.52 4424.5ZM671.522 4237.64 685.523 4237.64 685.523 4424.5 671.522 4424.5ZM748.525 4237.64 762.525 4237.64 762.525 4424.5 748.525 4424.5ZM825.527 4237.64 838.528 4237.64 838.528 4424.5 825.527 4424.5ZM902.53 4237.64 915.53 4237.64 915.53 4424.5 902.53 4424.5ZM979.532 4239.64 992.533 4239.64 992.533 4424.5 979.532 4424.5ZM1056.53 4240.64 1069.54 4240.64 1069.54 4424.5 1056.53 4424.5ZM1132.54 4225.64 1146.54 4225.64 1146.54 4424.5 1132.54 4424.5ZM1209.54 4225.64 1223.54 4225.64 1223.54 4424.5 1209.54 4424.5ZM1286.54 4225.64 1299.54 4225.64 1299.54 4424.5 1286.54 4424.5ZM1363.54 4235.64 1376.55 4235.64 1376.55 4424.5 1363.54 4424.5ZM1440.55 4234.64 1453.55 4234.64 1453.55 4424.5 1440.55 4424.5ZM1517.55 4223.64 1530.55 4223.64 1530.55 4424.5 1517.55 4424.5ZM1593.55 4225.64 1607.55 4225.64 1607.55 4424.5 1593.55 4424.5ZM1670.56 4225.64 1684.56 4225.64 1684.56 4424.5 1670.56 4424.5ZM2131.57 4410.64 2145.57 4410.64 2145.57 4424.5 2131.57 4424.5ZM2208.57 4410.64 2222.57 4410.64 2222.57 4424.5 2208.57 4424.5ZM2285.58 4412.65 2298.58 4412.65 2298.58 4424.5 2285.58 4424.5ZM2362.58 4412.65 2375.58 4412.65 2375.58 4424.5 2362.58 4424.5Z" stroke="#333F50" stroke-width="3.4375" stroke-linejoin="round" stroke-miterlimit="10" fill="#8497B0"/></g><g clip-path="url(#clip3)"><path d="M996.533 4239.64 1009.53 4239.64 1009.53 4424.5 996.533 4424.5ZM1073.54 4240.64 1086.54 4240.64 1086.54 4424.5 1073.54 4424.5ZM1149.54 4225.64 1163.54 4225.64 1163.54 4424.5 1149.54 4424.5ZM1226.54 4225.64 1240.54 4225.64 1240.54 4424.5 1226.54 4424.5ZM1303.54 4225.64 1317.54 4225.64 1317.54 4424.5 1303.54 4424.5ZM1380.55 4235.64 1393.55 4235.64 1393.55 4424.5 1380.55 4424.5ZM1457.55 4234.64 1470.55 4234.64 1470.55 4424.5 1457.55 4424.5ZM1534.55 4223.64 1547.55 4223.64 1547.55 4424.5 1534.55 4424.5ZM1610.55 4225.64 1624.55 4225.64 1624.55 4424.5 1610.55 4424.5ZM1687.56 4225.64 1701.56 4225.64 1701.56 4424.5 1687.56 4424.5ZM1764.56 3969.63 1778.56 3969.63 1778.56 4424.5 1764.56 4424.5ZM1841.56 3969.63 1854.56 3969.63 1854.56 4424.5 1841.56 4424.5ZM1918.56 3969.63 1931.56 3969.63 1931.56 4424.5 1918.56 4424.5ZM1995.57 3969.63 2008.57 3969.63 2008.57 4424.5 1995.57 4424.5ZM2072.57 3969.63 2085.57 3969.63 2085.57 4424.5 2072.57 4424.5ZM2148.57 4410.64 2162.57 4410.64 2162.57 4424.5 2148.57 4424.5ZM2225.57 4410.64 2239.57 4410.64 2239.57 4424.5 2225.57 4424.5ZM2302.58 4412.65 2315.58 4412.65 2315.58 4424.5 2302.58 4424.5ZM2379.58 4412.65 2392.58 4412.65 2392.58 4424.5 2379.58 4424.5Z" stroke="#BF9000" stroke-width="3.4375" stroke-linejoin="round" stroke-miterlimit="10" fill="#FFD966"/></g><g clip-path="url(#clip4)"><path d="M1013.53 4239.64 1026.53 4239.64 1026.53 4424.5 1013.53 4424.5ZM1090.54 4240.64 1103.54 4240.64 1103.54 4424.5 1090.54 4424.5ZM1166.54 4225.64 1180.54 4225.64 1180.54 4424.5 1166.54 4424.5ZM1243.54 4225.64 1257.54 4225.64 1257.54 4424.5 1243.54 4424.5ZM1320.54 4225.64 1334.54 4225.64 1334.54 4424.5 1320.54 4424.5ZM1397.55 4235.64 1410.55 4235.64 1410.55 4424.5 1397.55 4424.5ZM1474.55 4234.64 1487.55 4234.64 1487.55 4424.5 1474.55 4424.5ZM1551.55 4223.64 1564.55 4223.64 1564.55 4424.5 1551.55 4424.5ZM1628.55 4225.64 1641.55 4225.64 1641.55 4424.5 1628.55 4424.5ZM1704.56 4225.64 1718.56 4225.64 1718.56 4424.5 1704.56 4424.5ZM1781.56 3972.63 1795.56 3972.63 1795.56 4424.5 1781.56 4424.5ZM1858.56 3972.63 1871.56 3972.63 1871.56 4424.5 1858.56 4424.5ZM1935.56 3972.63 1948.56 3972.63 1948.56 4424.5 1935.56 4424.5ZM2012.57 3972.63 2025.57 3972.63 2025.57 4424.5 2012.57 4424.5ZM2089.57 3972.63 2102.57 3972.63 2102.57 4424.5 2089.57 4424.5ZM2165.57 4410.64 2179.57 4410.64 2179.57 4424.5 2165.57 4424.5ZM2242.57 4410.64 2256.57 4410.64 2256.57 4424.5 2242.57 4424.5ZM2319.58 4412.65 2332.58 4412.65 2332.58 4424.5 2319.58 4424.5ZM2396.58 4412.65 2409.58 4412.65 2409.58 4424.5 2396.58 4424.5Z" stroke="#548235" stroke-width="3.4375" stroke-linejoin="round" stroke-miterlimit="10" fill="#A9D18E"/></g><g clip-path="url(#clip5)"><path d="M426.5 4424.5 2424.5 4424.5" stroke="#D9D9D9" stroke-width="3.4375" stroke-linejoin="round" stroke-miterlimit="10" fill="none" fill-rule="evenodd"/></g><g clip-path="url(#clip6)"><path d="M426.5 4424.5 426.5 4811.5M580.519 4424.5 580.519 4811.5M964.532 4424.5 964.532 4811.5M1348.54 4424.5 1348.54 4811.5M1732.56 4424.5 1732.56 4811.5M2117.57 4424.5 2117.57 4811.5M2424.5 4424.5 2424.5 4811.5" stroke="#D9D9D9" stroke-width="3.4375" stroke-linejoin="round" stroke-miterlimit="10" fill="none"/></g><g clip-path="url(#clip7)"><path d="M426.5 4811.5 426.5 4890.5M580.519 4811.5 580.519 4890.5M964.532 4811.5 964.532 4890.5M1348.54 4811.5 1348.54 4890.5M1732.56 4811.5 1732.56 4890.5M2117.57 4811.5 2117.57 4890.5M2424.5 4811.5 2424.5 4890.5" stroke="#D9D9D9" stroke-width="3.4375" stroke-linejoin="round" stroke-miterlimit="10" fill="none"/></g><g clip-path="url(#clip8)"><text fill="#595959" font-family="Calibri,Calibri_MSFontService,sans-serif" font-weight="400" font-size="41" transform="matrix(1 0 0 1 367.492 4436)">0</text></g><g clip-path="url(#clip9)"><text fill="#595959" font-family="Calibri,Calibri_MSFontService,sans-serif" font-weight="400" font-size="41" transform="matrix(1 0 0 1 325.692 4367)">500</text></g><g clip-path="url(#clip10)"><text fill="#595959" font-family="Calibri,Calibri_MSFontService,sans-serif" font-weight="400" font-size="41" transform="matrix(1 0 0 1 304.792 4298)">1000</text></g><g clip-path="url(#clip11)"><text fill="#595959" font-family="Calibri,Calibri_MSFontService,sans-serif" font-weight="400" font-size="41" transform="matrix(1 0 0 1 304.792 4228)">1500</text></g><g clip-path="url(#clip12)"><text fill="#595959" font-family="Calibri,Calibri_MSFontService,sans-serif" font-weight="400" font-size="41" transform="matrix(1 0 0 1 304.792 4159)">2000</text></g><g clip-path="url(#clip13)"><text fill="#595959" font-family="Calibri,Calibri_MSFontService,sans-serif" font-weight="400" font-size="41" transform="matrix(1 0 0 1 304.792 4089)">2500</text></g><g clip-path="url(#clip14)"><text fill="#595959" font-family="Calibri,Calibri_MSFontService,sans-serif" font-weight="400" font-size="41" transform="matrix(1 0 0 1 304.792 4020)">3000</text></g><g clip-path="url(#clip15)"><text fill="#595959" font-family="Calibri,Calibri_MSFontService,sans-serif" font-weight="400" font-size="41" transform="matrix(1 0 0 1 304.792 3951)">3500</text></g><g clip-path="url(#clip16)"><text fill="#595959" font-family="Calibri,Calibri_MSFontService,sans-serif" font-weight="400" font-size="41" transform="matrix(1 0 0 1 304.792 3881)">4000</text></g><g clip-path="url(#clip17)"><text fill="#595959" font-family="Calibri,Calibri_MSFontService,sans-serif" font-weight="400" font-size="41" transform="matrix(6.12323e-17 -1 1 6.12323e-17 478.906 4658)">Original-Bild</text></g><g clip-path="url(#clip18)"><text fill="#595959" font-family="Calibri,Calibri_MSFontService,sans-serif" font-weight="400" font-size="41" transform="matrix(6.12323e-17 -1 1 6.12323e-17 555.75 4762)">JPEG-Kompression</text></g><g clip-path="url(#clip19)"><text fill="#595959" font-family="Calibri,Calibri_MSFontService,sans-serif" font-weight="400" font-size="41" transform="matrix(6.12323e-17 -1 1 6.12323e-17 632.593 4578)">67 Byte</text></g><g clip-path="url(#clip20)"><text fill="#595959" font-family="Calibri,Calibri_MSFontService,sans-serif" font-weight="400" font-size="41" transform="matrix(6.12323e-17 -1 1 6.12323e-17 709.436 4577)">1.53 KB</text></g><g clip-path="url(#clip21)"><text fill="#595959" font-family="Calibri,Calibri_MSFontService,sans-serif" font-weight="400" font-size="41" transform="matrix(6.12323e-17 -1 1 6.12323e-17 786.279 4577)">17.5 KB</text></g><g clip-path="url(#clip22)"><text fill="#595959" font-family="Calibri,Calibri_MSFontService,sans-serif" font-weight="400" font-size="41" transform="matrix(6.12323e-17 -1 1 6.12323e-17 863.122 4808)">16 KB (min. Entropie)</text></g><g clip-path="url(#clip23)"><text fill="#595959" font-family="Calibri,Calibri_MSFontService,sans-serif" font-weight="400" font-size="41" transform="matrix(6.12323e-17 -1 1 6.12323e-17 939.966 4699)">16.8 KB (binär)</text></g><g clip-path="url(#clip24)"><text fill="#595959" font-family="Calibri,Calibri_MSFontService,sans-serif" font-weight="400" font-size="41" transform="matrix(6.12323e-17 -1 1 6.12323e-17 1016.81 4578)">67 Byte</text></g><g clip-path="url(#clip25)"><text fill="#595959" font-family="Calibri,Calibri_MSFontService,sans-serif" font-weight="400" font-size="41" transform="matrix(6.12323e-17 -1 1 6.12323e-17 1093.65 4577)">1.53 KB</text></g><g clip-path="url(#clip26)"><text fill="#595959" font-family="Calibri,Calibri_MSFontService,sans-serif" font-weight="400" font-size="41" transform="matrix(6.12323e-17 -1 1 6.12323e-17 1170.5 4577)">17.5 KB</text></g><g clip-path="url(#clip27)"><text fill="#595959" font-family="Calibri,Calibri_MSFontService,sans-serif" font-weight="400" font-size="41" transform="matrix(6.12323e-17 -1 1 6.12323e-17 1247.34 4808)">16 KB (min. Entropie)</text></g><g clip-path="url(#clip28)"><text fill="#595959" font-family="Calibri,Calibri_MSFontService,sans-serif" font-weight="400" font-size="41" transform="matrix(6.12323e-17 -1 1 6.12323e-17 1324.18 4699)">16.8 KB (binär)</text></g><g clip-path="url(#clip29)"><text fill="#595959" font-family="Calibri,Calibri_MSFontService,sans-serif" font-weight="400" font-size="41" transform="matrix(6.12323e-17 -1 1 6.12323e-17 1401.03 4578)">67 Byte</text></g><g clip-path="url(#clip30)"><text fill="#595959" font-family="Calibri,Calibri_MSFontService,sans-serif" font-weight="400" font-size="41" transform="matrix(6.12323e-17 -1 1 6.12323e-17 1477.87 4577)">1.53 KB</text></g><g clip-path="url(#clip31)"><text fill="#595959" font-family="Calibri,Calibri_MSFontService,sans-serif" font-weight="400" font-size="41" transform="matrix(6.12323e-17 -1 1 6.12323e-17 1554.71 4577)">17.5 KB</text></g><g clip-path="url(#clip32)"><text fill="#595959" font-family="Calibri,Calibri_MSFontService,sans-serif" font-weight="400" font-size="41" transform="matrix(6.12323e-17 -1 1 6.12323e-17 1631.55 4808)">16 KB (min. Entropie)</text></g><g clip-path="url(#clip33)"><text fill="#595959" font-family="Calibri,Calibri_MSFontService,sans-serif" font-weight="400" font-size="41" transform="matrix(6.12323e-17 -1 1 6.12323e-17 1708.4 4699)">16.8 KB (binär)</text></g><g clip-path="url(#clip34)"><text fill="#595959" font-family="Calibri,Calibri_MSFontService,sans-serif" font-weight="400" font-size="41" transform="matrix(6.12323e-17 -1 1 6.12323e-17 1785.24 4578)">67 Byte</text></g><g clip-path="url(#clip35)"><text fill="#595959" font-family="Calibri,Calibri_MSFontService,sans-serif" font-weight="400" font-size="41" transform="matrix(6.12323e-17 -1 1 6.12323e-17 1862.08 4577)">1.53 KB</text></g><g clip-path="url(#clip36)"><text fill="#595959" font-family="Calibri,Calibri_MSFontService,sans-serif" font-weight="400" font-size="41" transform="matrix(6.12323e-17 -1 1 6.12323e-17 1938.93 4577)">17.5 KB</text></g><g clip-path="url(#clip37)"><text fill="#595959" font-family="Calibri,Calibri_MSFontService,sans-serif" font-weight="400" font-size="41" transform="matrix(6.12323e-17 -1 1 6.12323e-17 2015.77 4808)">16 KB (min. Entropie)</text></g><g clip-path="url(#clip38)"><text fill="#595959" font-family="Calibri,Calibri_MSFontService,sans-serif" font-weight="400" font-size="41" transform="matrix(6.12323e-17 -1 1 6.12323e-17 2092.61 4699)">16.8 KB (binär)</text></g><g clip-path="url(#clip39)"><text fill="#595959" font-family="Calibri,Calibri_MSFontService,sans-serif" font-weight="400" font-size="41" transform="matrix(6.12323e-17 -1 1 6.12323e-17 2169.46 4578)">67 Byte</text></g><g clip-path="url(#clip40)"><text fill="#595959" font-family="Calibri,Calibri_MSFontService,sans-serif" font-weight="400" font-size="41" transform="matrix(6.12323e-17 -1 1 6.12323e-17 2246.3 4577)">1.53 KB</text></g><g clip-path="url(#clip41)"><text fill="#595959" font-family="Calibri,Calibri_MSFontService,sans-serif" font-weight="400" font-size="41" transform="matrix(6.12323e-17 -1 1 6.12323e-17 2323.14 4577)">17.5 KB</text></g><g clip-path="url(#clip42)"><text fill="#595959" font-family="Calibri,Calibri_MSFontService,sans-serif" font-weight="400" font-size="41" transform="matrix(6.12323e-17 -1 1 6.12323e-17 2399.99 4808)">16 KB (min. Entropie)</text></g><g clip-path="url(#clip43)"><text fill="#595959" font-family="Calibri,Calibri_MSFontService,sans-serif" font-weight="400" font-size="41" transform="matrix(1 0 0 1 732.567 4876)">jsteg</text></g><g clip-path="url(#clip44)"><text fill="#595959" font-family="Calibri,Calibri_MSFontService,sans-serif" font-weight="400" font-size="41" transform="matrix(1 0 0 1 1081.1 4876)">outguess</text></g><g clip-path="url(#clip45)"><text fill="#595959" font-family="Calibri,Calibri_MSFontService,sans-serif" font-weight="400" font-size="41" transform="matrix(1 0 0 1 1422.45 4876)">outguess-0.13</text></g><g clip-path="url(#clip46)"><text fill="#595959" font-family="Calibri,Calibri_MSFontService,sans-serif" font-weight="400" font-size="41" transform="matrix(1 0 0 1 1853.48 4876)">steghide</text></g><g clip-path="url(#clip47)"><text fill="#595959" font-family="Calibri,Calibri_MSFontService,sans-serif" font-weight="400" font-size="41" transform="matrix(1 0 0 1 2254.16 4876)">f5</text></g><g clip-path="url(#clip48)"><text fill="#595959" font-family="Calibri,Calibri_MSFontService,sans-serif" font-weight="400" font-size="64" transform="matrix(1 0 0 1 721.749 3739)">durchschnittliche </text></g><g clip-path="url(#clip49)"><text fill="#595959" font-family="Calibri,Calibri_MSFontService,sans-serif" font-weight="700" font-size="64" transform="matrix(1 0 0 1 1184.64 3739)">Dateigröße</text></g><g clip-path="url(#clip50)"><text fill="#595959" font-family="Calibri,Calibri_MSFontService,sans-serif" font-weight="400" font-size="64" transform="matrix(1 0 0 1 1495.07 3739)">(Smartphone</text></g><g clip-path="url(#clip51)"><text fill="#595959" font-family="Calibri,Calibri_MSFontService,sans-serif" font-weight="400" font-size="64" transform="matrix(1 0 0 1 1836.78 3739)">-</text></g><g clip-path="url(#clip52)"><text fill="#595959" font-family="Calibri,Calibri_MSFontService,sans-serif" font-weight="400" font-size="64" transform="matrix(1 0 0 1 1856.42 3739)">Bilder)</text></g><g clip-path="url(#clip53)"><text fill="#595959" font-family="Calibri,Calibri_MSFontService,sans-serif" font-weight="400" font-size="46" transform="matrix(1 0 0 1 1328.15 3800)">in KB</text></g><g clip-path="url(#clip54)"><rect x="883.5" y="4941.5" width="22" height="22" stroke="#333F50" stroke-width="3.4375" stroke-linejoin="round" stroke-miterlimit="10" fill="#8497B0"/></g><g clip-path="url(#clip55)"><text fill="#595959" font-family="Calibri,Calibri_MSFontService,sans-serif" font-weight="400" font-size="41" transform="matrix(1 0 0 1 915.444 4964)">kein Schlüssel</text></g><g clip-path="url(#clip56)"><rect x="1205.5" y="4941.5" width="23" height="22" stroke="#BF9000" stroke-width="3.4375" stroke-linejoin="round" stroke-miterlimit="10" fill="#FFD966"/></g><g clip-path="url(#clip57)"><text fill="#595959" font-family="Calibri,Calibri_MSFontService,sans-serif" font-weight="400" font-size="41" transform="matrix(1 0 0 1 1238.04 4964)">4 Byte Schlüssel</text></g><g clip-path="url(#clip58)"><rect x="1563.5" y="4941.5" width="23" height="22" stroke="#548235" stroke-width="3.4375" stroke-linejoin="round" stroke-miterlimit="10" fill="#A9D18E"/></g><g clip-path="url(#clip59)"><text fill="#595959" font-family="Calibri,Calibri_MSFontService,sans-serif" font-weight="400" font-size="41" transform="matrix(1 0 0 1 1595.91 4964)">50 Byte Schlüssel</text></g><rect x="275.5" y="3644.5" width="2200" height="1375" stroke="#D9D9D9" stroke-width="3.4375" stroke-linejoin="round" stroke-miterlimit="10" fill="none"/></g></svg>