<svg width="2203" height="1378" xmlns="http://www.w3.org/2000/svg" xmlns:xlink="http://www.w3.org/1999/xlink" xml:space="preserve" overflow="hidden"><defs><clipPath id="clip0"><rect x="2749" y="3643" width="2203" height="1378"/></clipPath><clipPath id="clip1"><rect x="2750" y="3643" width="2200" height="1375"/></clipPath><clipPath id="clip2"><rect x="2870" y="3813" width="2033" height="615"/></clipPath><clipPath id="clip3"><rect x="2870" y="3813" width="2033" height="615"/></clipPath><clipPath id="clip4"><rect x="2870" y="3813" width="2033" height="615"/></clipPath><clipPath id="clip5"><rect x="2750" y="3643" width="2200" height="1375"/></clipPath><clipPath id="clip6"><rect x="2750" y="3643" width="2200" height="1375"/></clipPath><clipPath id="clip7"><rect x="2750" y="3643" width="2200" height="1375"/></clipPath><clipPath id="clip8"><rect x="2750" y="3643" width="2200" height="1375"/></clipPath><clipPath id="clip9"><rect x="2750" y="3643" width="2200" height="1375"/></clipPath><clipPath id="clip10"><rect x="2750" y="3643" width="2200" height="1375"/></clipPath><clipPath id="clip11"><rect x="2750" y="3643" width="2200" height="1375"/></clipPath><clipPath id="clip12"><rect x="2750" y="3643" width="2200" height="1375"/></clipPath><clipPath id="clip13"><rect x="2750" y="3643" width="2200" height="1375"/></clipPath><clipPath id="clip14"><rect x="2750" y="3643" width="2200" height="1375"/></clipPath><clipPath id="clip15"><rect x="2750" y="3643" width="2200" height="1375"/></clipPath><clipPath id="clip16"><rect x="2750" y="3643" width="2200" height="1375"/></clipPath><clipPath id="clip17"><rect x="2750" y="3643" width="2200" height="1375"/></clipPath><clipPath id="clip18"><rect x="2750" y="3643" width="2200" height="1375"/></clipPath><clipPath id="clip19"><rect x="2750" y="3643" width="2200" height="1375"/></clipPath><clipPath id="clip20"><rect x="2750" y="3643" width="2200" height="1375"/></clipPath><clipPath id="clip21"><rect x="2750" y="3643" width="2200" height="1375"/></clipPath><clipPath id="clip22"><rect x="2750" y="3643" width="2200" height="1375"/></clipPath><clipPath id="clip23"><rect x="2750" y="3643" width="2200" height="1375"/></clipPath><clipPath id="clip24"><rect x="2750" y="3643" width="2200" height="1375"/></clipPath><clipPath id="clip25"><rect x="2750" y="3643" width="2200" height="1375"/></clipPath><clipPath id="clip26"><rect x="2750" y="3643" width="2200" height="1375"/></clipPath><clipPath id="clip27"><rect x="2750" y="3643" width="2200" height="1375"/></clipPath><clipPath id="clip28"><rect x="2750" y="3643" width="2200" height="1375"/></clipPath><clipPath id="clip29"><rect x="2750" y="3643" width="2200" height="1375"/></clipPath><clipPath id="clip30"><rect x="2750" y="3643" width="2200" height="1375"/></clipPath><clipPath id="clip31"><rect x="2750" y="3643" width="2200" height="1375"/></clipPath><clipPath id="clip32"><rect x="2750" y="3643" width="2200" height="1375"/></clipPath><clipPath id="clip33"><rect x="2750" y="3643" width="2200" height="1375"/></clipPath><clipPath id="clip34"><rect x="2750" y="3643" width="2200" height="1375"/></clipPath><clipPath id="clip35"><rect x="2750" y="3643" width="2200" height="1375"/></clipPath><clipPath id="clip36"><rect x="2750" y="3643" width="2200" height="1375"/></clipPath><clipPath id="clip37"><rect x="2750" y="3643" width="2200" height="1375"/></clipPath><clipPath id="clip38"><rect x="2750" y="3643" width="2200" height="1375"/></clipPath><clipPath id="clip39"><rect x="2750" y="3643" width="2200" height="1375"/></clipPath><clipPath id="clip40"><rect x="2750" y="3643" width="2200" height="1375"/></clipPath><clipPath id="clip41"><rect x="2750" y="3643" width="2200" height="1375"/></clipPath><clipPath id="clip42"><rect x="2750" y="3643" width="2200" height="1375"/></clipPath><clipPath id="clip43"><rect x="2750" y="3643" width="2200" height="1375"/></clipPath><clipPath id="clip44"><rect x="2750" y="3643" width="2200" height="1375"/></clipPath><clipPath id="clip45"><rect x="2750" y="3643" width="2200" height="1375"/></clipPath><clipPath id="clip46"><rect x="2750" y="3643" width="2200" height="1375"/></clipPath><clipPath id="clip47"><rect x="2750" y="3643" width="2200" height="1375"/></clipPath><clipPath id="clip48"><rect x="2750" y="3643" width="2200" height="1375"/></clipPath><clipPath id="clip49"><rect x="2750" y="3643" width="2200" height="1375"/></clipPath><clipPath id="clip50"><rect x="2750" y="3643" width="2200" height="1375"/></clipPath><clipPath id="clip51"><rect x="2750" y="3643" width="2200" height="1375"/></clipPath><clipPath id="clip52"><rect x="2750" y="3643" width="2200" height="1375"/></clipPath><clipPath id="clip53"><rect x="2750" y="3643" width="2200" height="1375"/></clipPath><clipPath id="clip54"><rect x="2750" y="3643" width="2200" height="1375"/></clipPath><clipPath id="clip55"><rect x="2750" y="3643" width="2200" height="1375"/></clipPath><clipPath id="clip56"><rect x="2750" y="3643" width="2200" height="1375"/></clipPath><clipPath id="clip57"><rect x="2750" y="3643" width="2200" height="1375"/></clipPath><clipPath id="clip58"><rect x="2750" y="3643" width="2200" height="1375"/></clipPath><clipPath id="clip59"><rect x="2750" y="3643" width="2200" height="1375"/></clipPath><clipPath id="clip60"><rect x="2750" y="3643" width="2200" height="1375"/></clipPath><clipPath id="clip61"><rect x="2750" y="3643" width="2200" height="1375"/></clipPath><clipPath id="clip62"><rect x="2750" y="3643" width="2200" height="1375"/></clipPath><clipPath id="clip63"><rect x="2750" y="3643" width="2200" height="1375"/></clipPath><clipPath id="clip64"><rect x="2750" y="3643" width="2200" height="1375"/></clipPath><clipPath id="clip65"><rect x="2750" y="3643" width="2200" height="1375"/></clipPath><clipPath id="clip66"><rect x="2750" y="3643" width="2200" height="1375"/></clipPath></defs><g clip-path="url(#clip0)" transform="translate(-2749 -3643)"><rect x="2750" y="3644" width="2200" height="1375" fill="#FFFFFF"/><g clip-path="url(#clip1)"><path d="M2870.5 4363.64 4899.5 4363.64M2870.5 4302.64 4899.5 4302.64M2870.5 4241.64 4899.5 4241.64M2870.5 4180.64 4899.5 4180.64M2870.5 4119.64 4899.5 4119.64M2870.5 4058.63 4899.5 4058.63M2870.5 3996.63 4899.5 3996.63M2870.5 3935.63 4899.5 3935.63M2870.5 3874.63 4899.5 3874.63M2870.5 3813.5 4899.5 3813.5" stroke="#D9D9D9" stroke-width="3.4375" stroke-linejoin="round" stroke-miterlimit="10" fill="none"/></g><g clip-path="url(#clip2)"><path d="M2885.59 3813.5 2898.6 3813.5 2898.6 4424.5 2885.59 4424.5ZM2963.6 4205.64 2976.6 4205.64 2976.6 4424.5 2963.6 4424.5ZM3041.6 4326.64 3054.6 4326.64 3054.6 4424.5 3041.6 4424.5ZM3119.6 4326.64 3132.6 4326.64 3132.6 4424.5 3119.6 4424.5ZM3197.61 4327.64 3210.61 4327.64 3210.61 4424.5 3197.61 4424.5ZM3275.61 4327.64 3288.61 4327.64 3288.61 4424.5 3275.61 4424.5ZM3353.61 4327.64 3366.61 4327.64 3366.61 4424.5 3353.61 4424.5ZM3431.61 4304.64 3445.61 4304.64 3445.61 4424.5 3431.61 4424.5ZM3509.62 4269.64 3523.62 4269.64 3523.62 4424.5 3509.62 4424.5ZM3587.62 4232.64 3601.62 4232.64 3601.62 4424.5 3587.62 4424.5ZM3665.62 4232.64 3679.62 4232.64 3679.62 4424.5 3665.62 4424.5ZM3743.62 4232.64 3757.62 4232.64 3757.62 4424.5 3743.62 4424.5ZM3821.63 4326.64 3835.63 4326.64 3835.63 4424.5 3821.63 4424.5ZM3899.63 4326.64 3913.63 4326.64 3913.63 4424.5 3899.63 4424.5ZM3977.63 4317.64 3991.63 4317.64 3991.63 4424.5 3977.63 4424.5ZM4055.63 4317.64 4069.63 4317.64 4069.63 4424.5 4055.63 4424.5ZM4133.64 4317.64 4147.64 4317.64 4147.64 4424.5 4133.64 4424.5Z" stroke="#333F50" stroke-width="3.4375" stroke-linejoin="round" stroke-miterlimit="10" fill="#8497B0"/></g><g clip-path="url(#clip3)"><path d="M3448.61 4304.64 3462.61 4304.64 3462.61 4424.5 3448.61 4424.5ZM3526.62 4269.64 3540.62 4269.64 3540.62 4424.5 3526.62 4424.5ZM3604.62 4232.64 3618.62 4232.64 3618.62 4424.5 3604.62 4424.5ZM3682.62 4231.64 3696.62 4231.64 3696.62 4424.5 3682.62 4424.5ZM3760.62 4232.64 3774.62 4232.64 3774.62 4424.5 3760.62 4424.5ZM3838.63 4326.64 3852.63 4326.64 3852.63 4424.5 3838.63 4424.5ZM3917.63 4326.64 3930.63 4326.64 3930.63 4424.5 3917.63 4424.5ZM3995.63 4317.64 4008.63 4317.64 4008.63 4424.5 3995.63 4424.5ZM4073.63 4317.64 4086.63 4317.64 4086.63 4424.5 4073.63 4424.5ZM4151.64 4317.64 4164.64 4317.64 4164.64 4424.5 4151.64 4424.5ZM4229.64 3813.63 4242.64 3813.63 4242.64 4424.5 4229.64 4424.5ZM4307.64 3814.63 4320.64 3814.63 4320.64 4424.5 4307.64 4424.5ZM4385.64 3815.63 4398.64 3815.63 4398.64 4424.5 4385.64 4424.5ZM4463.65 3813.63 4476.65 3813.63 4476.65 4424.5 4463.65 4424.5ZM4541.65 3818.63 4555.65 3818.63 4555.65 4424.5 4541.65 4424.5Z" stroke="#BF9000" stroke-width="3.4375" stroke-linejoin="round" stroke-miterlimit="10" fill="#FFD966"/></g><g clip-path="url(#clip4)"><path d="M3466.61 4304.64 3479.61 4304.64 3479.61 4424.5 3466.61 4424.5ZM3544.62 4269.64 3557.62 4269.64 3557.62 4424.5 3544.62 4424.5ZM3622.62 4232.64 3635.62 4232.64 3635.62 4424.5 3622.62 4424.5ZM3700.62 4231.64 3713.62 4231.64 3713.62 4424.5 3700.62 4424.5ZM3778.62 4232.64 3791.62 4232.64 3791.62 4424.5 3778.62 4424.5ZM3856.63 4326.64 3869.63 4326.64 3869.63 4424.5 3856.63 4424.5ZM3934.63 4326.64 3947.63 4326.64 3947.63 4424.5 3934.63 4424.5ZM4012.63 4317.64 4025.63 4317.64 4025.63 4424.5 4012.63 4424.5ZM4090.63 4317.64 4104.63 4317.64 4104.63 4424.5 4090.63 4424.5ZM4168.64 4317.64 4182.64 4317.64 4182.64 4424.5 4168.64 4424.5ZM4246.64 3813.63 4260.64 3813.63 4260.64 4424.5 4246.64 4424.5ZM4324.64 3814.63 4338.64 3814.63 4338.64 4424.5 4324.64 4424.5ZM4402.64 3815.63 4416.65 3815.63 4416.65 4424.5 4402.64 4424.5ZM4480.65 3813.63 4494.65 3813.63 4494.65 4424.5 4480.65 4424.5ZM4558.65 3818.63 4572.65 3818.63 4572.65 4424.5 4558.65 4424.5Z" stroke="#548235" stroke-width="3.4375" stroke-linejoin="round" stroke-miterlimit="10" fill="#A9D18E"/></g><g clip-path="url(#clip5)"><path d="M2870.5 4424.5 4899.5 4424.5" stroke="#D9D9D9" stroke-width="3.4375" stroke-linejoin="round" stroke-miterlimit="10" fill="none" fill-rule="evenodd"/></g><g clip-path="url(#clip6)"><path d="M2870.5 4424.5 2870.5 4811.5M3026.6 4424.5 3026.6 4811.5M3416.61 4424.5 3416.61 4811.5M3806.62 4424.5 3806.62 4811.5M4196.64 4424.5 4196.64 4811.5M4587.65 4424.5 4587.65 4811.5M4899.5 4424.5 4899.5 4811.5" stroke="#D9D9D9" stroke-width="3.4375" stroke-linejoin="round" stroke-miterlimit="10" fill="none"/></g><g clip-path="url(#clip7)"><path d="M2870.5 4811.5 2870.5 4890.5M3026.6 4811.5 3026.6 4890.5M3416.61 4811.5 3416.61 4890.5M3806.62 4811.5 3806.62 4890.5M4196.64 4811.5 4196.64 4890.5M4587.65 4811.5 4587.65 4890.5M4899.5 4811.5 4899.5 4890.5" stroke="#D9D9D9" stroke-width="3.4375" stroke-linejoin="round" stroke-miterlimit="10" fill="none"/></g><g clip-path="url(#clip8)"><text fill="#595959" font-family="Calibri,Calibri_MSFontService,sans-serif" font-weight="400" font-size="41" transform="matrix(1 0 0 1 2811.1 4436)">0</text></g><g clip-path="url(#clip9)"><text fill="#595959" font-family="Calibri,Calibri_MSFontService,sans-serif" font-weight="400" font-size="41" transform="matrix(1 0 0 1 2779.79 4375)">0.1</text></g><g clip-path="url(#clip10)"><text fill="#595959" font-family="Calibri,Calibri_MSFontService,sans-serif" font-weight="400" font-size="41" transform="matrix(1 0 0 1 2779.79 4314)">0.2</text></g><g clip-path="url(#clip11)"><text fill="#595959" font-family="Calibri,Calibri_MSFontService,sans-serif" font-weight="400" font-size="41" transform="matrix(1 0 0 1 2779.79 4253)">0.3</text></g><g clip-path="url(#clip12)"><text fill="#595959" font-family="Calibri,Calibri_MSFontService,sans-serif" font-weight="400" font-size="41" transform="matrix(1 0 0 1 2779.79 4192)">0.4</text></g><g clip-path="url(#clip13)"><text fill="#595959" font-family="Calibri,Calibri_MSFontService,sans-serif" font-weight="400" font-size="41" transform="matrix(1 0 0 1 2779.79 4131)">0.5</text></g><g clip-path="url(#clip14)"><text fill="#595959" font-family="Calibri,Calibri_MSFontService,sans-serif" font-weight="400" font-size="41" transform="matrix(1 0 0 1 2779.79 4070)">0.6</text></g><g clip-path="url(#clip15)"><text fill="#595959" font-family="Calibri,Calibri_MSFontService,sans-serif" font-weight="400" font-size="41" transform="matrix(1 0 0 1 2779.79 4009)">0.7</text></g><g clip-path="url(#clip16)"><text fill="#595959" font-family="Calibri,Calibri_MSFontService,sans-serif" font-weight="400" font-size="41" transform="matrix(1 0 0 1 2779.79 3948)">0.8</text></g><g clip-path="url(#clip17)"><text fill="#595959" font-family="Calibri,Calibri_MSFontService,sans-serif" font-weight="400" font-size="41" transform="matrix(1 0 0 1 2779.79 3886)">0.9</text></g><g clip-path="url(#clip18)"><text fill="#595959" font-family="Calibri,Calibri_MSFontService,sans-serif" font-weight="400" font-size="41" transform="matrix(1 0 0 1 2811.1 3825)">1</text></g><g clip-path="url(#clip19)"><text fill="#595959" font-family="Calibri,Calibri_MSFontService,sans-serif" font-weight="400" font-size="41" transform="matrix(6.12323e-17 -1 1 6.12323e-17 2923.11 4582)">Original</text></g><g clip-path="url(#clip20)"><text fill="#595959" font-family="Calibri,Calibri_MSFontService,sans-serif" font-weight="400" font-size="41" transform="matrix(6.12323e-17 -1 1 6.12323e-17 3001.16 4762)">JPEG-Kompression</text></g><g clip-path="url(#clip21)"><text fill="#595959" font-family="Calibri,Calibri_MSFontService,sans-serif" font-weight="400" font-size="41" transform="matrix(6.12323e-17 -1 1 6.12323e-17 3079.22 4578)">67 Byte</text></g><g clip-path="url(#clip22)"><text fill="#595959" font-family="Calibri,Calibri_MSFontService,sans-serif" font-weight="400" font-size="41" transform="matrix(6.12323e-17 -1 1 6.12323e-17 3157.27 4577)">1.53 KB</text></g><g clip-path="url(#clip23)"><text fill="#595959" font-family="Calibri,Calibri_MSFontService,sans-serif" font-weight="400" font-size="41" transform="matrix(6.12323e-17 -1 1 6.12323e-17 3235.32 4577)">17.5 KB</text></g><g clip-path="url(#clip24)"><text fill="#595959" font-family="Calibri,Calibri_MSFontService,sans-serif" font-weight="400" font-size="41" transform="matrix(6.12323e-17 -1 1 6.12323e-17 3313.37 4808)">16 KB (min. Entropie)</text></g><g clip-path="url(#clip25)"><text fill="#595959" font-family="Calibri,Calibri_MSFontService,sans-serif" font-weight="400" font-size="41" transform="matrix(6.12323e-17 -1 1 6.12323e-17 3391.42 4699)">16.8 KB (binär)</text></g><g clip-path="url(#clip26)"><text fill="#595959" font-family="Calibri,Calibri_MSFontService,sans-serif" font-weight="400" font-size="41" transform="matrix(6.12323e-17 -1 1 6.12323e-17 3469.47 4578)">67 Byte</text></g><g clip-path="url(#clip27)"><text fill="#595959" font-family="Calibri,Calibri_MSFontService,sans-serif" font-weight="400" font-size="41" transform="matrix(6.12323e-17 -1 1 6.12323e-17 3547.52 4577)">1.53 KB</text></g><g clip-path="url(#clip28)"><text fill="#595959" font-family="Calibri,Calibri_MSFontService,sans-serif" font-weight="400" font-size="41" transform="matrix(6.12323e-17 -1 1 6.12323e-17 3625.57 4577)">17.5 KB</text></g><g clip-path="url(#clip29)"><text fill="#595959" font-family="Calibri,Calibri_MSFontService,sans-serif" font-weight="400" font-size="41" transform="matrix(6.12323e-17 -1 1 6.12323e-17 3703.62 4808)">16 KB (min. Entropie)</text></g><g clip-path="url(#clip30)"><text fill="#595959" font-family="Calibri,Calibri_MSFontService,sans-serif" font-weight="400" font-size="41" transform="matrix(6.12323e-17 -1 1 6.12323e-17 3781.67 4699)">16.8 KB (binär)</text></g><g clip-path="url(#clip31)"><text fill="#595959" font-family="Calibri,Calibri_MSFontService,sans-serif" font-weight="400" font-size="41" transform="matrix(6.12323e-17 -1 1 6.12323e-17 3859.72 4578)">67 Byte</text></g><g clip-path="url(#clip32)"><text fill="#595959" font-family="Calibri,Calibri_MSFontService,sans-serif" font-weight="400" font-size="41" transform="matrix(6.12323e-17 -1 1 6.12323e-17 3937.77 4577)">1.53 KB</text></g><g clip-path="url(#clip33)"><text fill="#595959" font-family="Calibri,Calibri_MSFontService,sans-serif" font-weight="400" font-size="41" transform="matrix(6.12323e-17 -1 1 6.12323e-17 4015.82 4577)">17.5 KB</text></g><g clip-path="url(#clip34)"><text fill="#595959" font-family="Calibri,Calibri_MSFontService,sans-serif" font-weight="400" font-size="41" transform="matrix(6.12323e-17 -1 1 6.12323e-17 4093.88 4808)">16 KB (min. Entropie)</text></g><g clip-path="url(#clip35)"><text fill="#595959" font-family="Calibri,Calibri_MSFontService,sans-serif" font-weight="400" font-size="41" transform="matrix(6.12323e-17 -1 1 6.12323e-17 4171.93 4699)">16.8 KB (binär)</text></g><g clip-path="url(#clip36)"><text fill="#595959" font-family="Calibri,Calibri_MSFontService,sans-serif" font-weight="400" font-size="41" transform="matrix(6.12323e-17 -1 1 6.12323e-17 4249.98 4578)">67 Byte</text></g><g clip-path="url(#clip37)"><text fill="#595959" font-family="Calibri,Calibri_MSFontService,sans-serif" font-weight="400" font-size="41" transform="matrix(6.12323e-17 -1 1 6.12323e-17 4328.03 4577)">1.53 KB</text></g><g clip-path="url(#clip38)"><text fill="#595959" font-family="Calibri,Calibri_MSFontService,sans-serif" font-weight="400" font-size="41" transform="matrix(6.12323e-17 -1 1 6.12323e-17 4406.08 4577)">17.5 KB</text></g><g clip-path="url(#clip39)"><text fill="#595959" font-family="Calibri,Calibri_MSFontService,sans-serif" font-weight="400" font-size="41" transform="matrix(6.12323e-17 -1 1 6.12323e-17 4484.13 4808)">16 KB (min. Entropie)</text></g><g clip-path="url(#clip40)"><text fill="#595959" font-family="Calibri,Calibri_MSFontService,sans-serif" font-weight="400" font-size="41" transform="matrix(6.12323e-17 -1 1 6.12323e-17 4562.18 4699)">16.8 KB (binär)</text></g><g clip-path="url(#clip41)"><text fill="#595959" font-family="Calibri,Calibri_MSFontService,sans-serif" font-weight="400" font-size="41" transform="matrix(6.12323e-17 -1 1 6.12323e-17 4640.23 4578)">67 Byte</text></g><g clip-path="url(#clip42)"><text fill="#595959" font-family="Calibri,Calibri_MSFontService,sans-serif" font-weight="400" font-size="41" transform="matrix(6.12323e-17 -1 1 6.12323e-17 4718.28 4577)">1.53 KB</text></g><g clip-path="url(#clip43)"><text fill="#595959" font-family="Calibri,Calibri_MSFontService,sans-serif" font-weight="400" font-size="41" transform="matrix(6.12323e-17 -1 1 6.12323e-17 4796.33 4577)">17.5 KB</text></g><g clip-path="url(#clip44)"><text fill="#595959" font-family="Calibri,Calibri_MSFontService,sans-serif" font-weight="400" font-size="41" transform="matrix(6.12323e-17 -1 1 6.12323e-17 4874.38 4808)">16 KB (min. Entropie)</text></g><g clip-path="url(#clip45)"><text fill="#595959" font-family="Calibri,Calibri_MSFontService,sans-serif" font-weight="400" font-size="41" transform="matrix(1 0 0 1 3181.6 4876)">jsteg</text></g><g clip-path="url(#clip46)"><text fill="#595959" font-family="Calibri,Calibri_MSFontService,sans-serif" font-weight="400" font-size="41" transform="matrix(1 0 0 1 3536.18 4876)">outguess</text></g><g clip-path="url(#clip47)"><text fill="#595959" font-family="Calibri,Calibri_MSFontService,sans-serif" font-weight="400" font-size="41" transform="matrix(1 0 0 1 3883.57 4876)">outguess-0.13</text></g><g clip-path="url(#clip48)"><text fill="#595959" font-family="Calibri,Calibri_MSFontService,sans-serif" font-weight="400" font-size="41" transform="matrix(1 0 0 1 4320.63 4876)">steghide</text></g><g clip-path="url(#clip49)"><text fill="#595959" font-family="Calibri,Calibri_MSFontService,sans-serif" font-weight="400" font-size="41" transform="matrix(1 0 0 1 4726.74 4876)">f5</text></g><g clip-path="url(#clip50)"><text fill="#595959" font-family="Calibri,Calibri_MSFontService,sans-serif" font-weight="400" font-size="64" transform="matrix(1 0 0 1 2992.87 3739)">schwarz</text></g><g clip-path="url(#clip51)"><text fill="#595959" font-family="Calibri,Calibri_MSFontService,sans-serif" font-weight="400" font-size="64" transform="matrix(1 0 0 1 3201.99 3739)">-</text></g><g clip-path="url(#clip52)"><text fill="#595959" font-family="Calibri,Calibri_MSFontService,sans-serif" font-weight="400" font-size="64" transform="matrix(1 0 0 1 3221.62 3739)">weiß</text></g><g clip-path="url(#clip53)"><text fill="#595959" font-family="Calibri,Calibri_MSFontService,sans-serif" font-weight="400" font-size="64" transform="matrix(1 0 0 1 3347.44 3739)">-</text></g><g clip-path="url(#clip54)"><text fill="#595959" font-family="Calibri,Calibri_MSFontService,sans-serif" font-weight="400" font-size="64" transform="matrix(1 0 0 1 3367.08 3739)">Verhältnis im </text></g><g clip-path="url(#clip55)"><text fill="#595959" font-family="Calibri,Calibri_MSFontService,sans-serif" font-weight="700" font-size="64" transform="matrix(1 0 0 1 3723.82 3739)">Differenzbild</text></g><g clip-path="url(#clip56)"><text fill="#595959" font-family="Calibri,Calibri_MSFontService,sans-serif" font-weight="400" font-size="64" transform="matrix(1 0 0 1 4081.11 3739)">(High</text></g><g clip-path="url(#clip57)"><text fill="#595959" font-family="Calibri,Calibri_MSFontService,sans-serif" font-weight="400" font-size="64" transform="matrix(1 0 0 1 4219.21 3739)">-</text></g><g clip-path="url(#clip58)"><text fill="#595959" font-family="Calibri,Calibri_MSFontService,sans-serif" font-weight="400" font-size="64" transform="matrix(1 0 0 1 4238.85 3739)">Resolution</text></g><g clip-path="url(#clip59)"><text fill="#595959" font-family="Calibri,Calibri_MSFontService,sans-serif" font-weight="400" font-size="64" transform="matrix(1 0 0 1 4515.66 3739)">-</text></g><g clip-path="url(#clip60)"><text fill="#595959" font-family="Calibri,Calibri_MSFontService,sans-serif" font-weight="400" font-size="64" transform="matrix(1 0 0 1 4535.3 3739)">Bilder)</text></g><g clip-path="url(#clip61)"><rect x="3358.5" y="4941.5" width="22" height="22" stroke="#333F50" stroke-width="3.4375" stroke-linejoin="round" stroke-miterlimit="10" fill="#8497B0"/></g><g clip-path="url(#clip62)"><text fill="#595959" font-family="Calibri,Calibri_MSFontService,sans-serif" font-weight="400" font-size="41" transform="matrix(1 0 0 1 3390.44 4964)">kein Schlüssel</text></g><g clip-path="url(#clip63)"><rect x="3680.5" y="4941.5" width="23" height="22" stroke="#BF9000" stroke-width="3.4375" stroke-linejoin="round" stroke-miterlimit="10" fill="#FFD966"/></g><g clip-path="url(#clip64)"><text fill="#595959" font-family="Calibri,Calibri_MSFontService,sans-serif" font-weight="400" font-size="41" transform="matrix(1 0 0 1 3713.04 4964)">4 Byte Schlüssel</text></g><g clip-path="url(#clip65)"><rect x="4038.5" y="4941.5" width="23" height="22" stroke="#548235" stroke-width="3.4375" stroke-linejoin="round" stroke-miterlimit="10" fill="#A9D18E"/></g><g clip-path="url(#clip66)"><text fill="#595959" font-family="Calibri,Calibri_MSFontService,sans-serif" font-weight="400" font-size="41" transform="matrix(1 0 0 1 4070.91 4964)">50 Byte Schlüssel</text></g><rect x="2750.5" y="3644.5" width="2200" height="1375" stroke="#D9D9D9" stroke-width="3.4375" stroke-linejoin="round" stroke-miterlimit="10" fill="none"/></g></svg>