<svg width="2203" height="1378" xmlns="http://www.w3.org/2000/svg" xmlns:xlink="http://www.w3.org/1999/xlink" xml:space="preserve" overflow="hidden"><defs><clipPath id="clip0"><rect x="274" y="3643" width="2203" height="1378"/></clipPath><clipPath id="clip1"><rect x="275" y="3643" width="2200" height="1375"/></clipPath><clipPath id="clip2"><rect x="416" y="3869" width="2012" height="559"/></clipPath><clipPath id="clip3"><rect x="416" y="3869" width="2012" height="559"/></clipPath><clipPath id="clip4"><rect x="416" y="3869" width="2012" height="559"/></clipPath><clipPath id="clip5"><rect x="275" y="3643" width="2200" height="1375"/></clipPath><clipPath id="clip6"><rect x="275" y="3643" width="2200" height="1375"/></clipPath><clipPath id="clip7"><rect x="275" y="3643" width="2200" height="1375"/></clipPath><clipPath id="clip8"><rect x="275" y="3643" width="2200" height="1375"/></clipPath><clipPath id="clip9"><rect x="275" y="3643" width="2200" height="1375"/></clipPath><clipPath id="clip10"><rect x="275" y="3643" width="2200" height="1375"/></clipPath><clipPath id="clip11"><rect x="275" y="3643" width="2200" height="1375"/></clipPath><clipPath id="clip12"><rect x="275" y="3643" width="2200" height="1375"/></clipPath><clipPath id="clip13"><rect x="275" y="3643" width="2200" height="1375"/></clipPath><clipPath id="clip14"><rect x="275" y="3643" width="2200" height="1375"/></clipPath><clipPath id="clip15"><rect x="275" y="3643" width="2200" height="1375"/></clipPath><clipPath id="clip16"><rect x="275" y="3643" width="2200" height="1375"/></clipPath><clipPath id="clip17"><rect x="275" y="3643" width="2200" height="1375"/></clipPath><clipPath id="clip18"><rect x="275" y="3643" width="2200" height="1375"/></clipPath><clipPath id="clip19"><rect x="275" y="3643" width="2200" height="1375"/></clipPath><clipPath id="clip20"><rect x="275" y="3643" width="2200" height="1375"/></clipPath><clipPath id="clip21"><rect x="275" y="3643" width="2200" height="1375"/></clipPath><clipPath id="clip22"><rect x="275" y="3643" width="2200" height="1375"/></clipPath><clipPath id="clip23"><rect x="275" y="3643" width="2200" height="1375"/></clipPath><clipPath id="clip24"><rect x="275" y="3643" width="2200" height="1375"/></clipPath><clipPath id="clip25"><rect x="275" y="3643" width="2200" height="1375"/></clipPath><clipPath id="clip26"><rect x="275" y="3643" width="2200" height="1375"/></clipPath><clipPath id="clip27"><rect x="275" y="3643" width="2200" height="1375"/></clipPath><clipPath id="clip28"><rect x="275" y="3643" width="2200" height="1375"/></clipPath><clipPath id="clip29"><rect x="275" y="3643" width="2200" height="1375"/></clipPath><clipPath id="clip30"><rect x="275" y="3643" width="2200" height="1375"/></clipPath><clipPath id="clip31"><rect x="275" y="3643" width="2200" height="1375"/></clipPath><clipPath id="clip32"><rect x="275" y="3643" width="2200" height="1375"/></clipPath><clipPath id="clip33"><rect x="275" y="3643" width="2200" height="1375"/></clipPath><clipPath id="clip34"><rect x="275" y="3643" width="2200" height="1375"/></clipPath><clipPath id="clip35"><rect x="275" y="3643" width="2200" height="1375"/></clipPath><clipPath id="clip36"><rect x="275" y="3643" width="2200" height="1375"/></clipPath><clipPath id="clip37"><rect x="275" y="3643" width="2200" height="1375"/></clipPath><clipPath id="clip38"><rect x="275" y="3643" width="2200" height="1375"/></clipPath><clipPath id="clip39"><rect x="275" y="3643" width="2200" height="1375"/></clipPath><clipPath id="clip40"><rect x="275" y="3643" width="2200" height="1375"/></clipPath><clipPath id="clip41"><rect x="275" y="3643" width="2200" height="1375"/></clipPath><clipPath id="clip42"><rect x="275" y="3643" width="2200" height="1375"/></clipPath><clipPath id="clip43"><rect x="275" y="3643" width="2200" height="1375"/></clipPath><clipPath id="clip44"><rect x="275" y="3643" width="2200" height="1375"/></clipPath><clipPath id="clip45"><rect x="275" y="3643" width="2200" height="1375"/></clipPath><clipPath id="clip46"><rect x="275" y="3643" width="2200" height="1375"/></clipPath><clipPath id="clip47"><rect x="275" y="3643" width="2200" height="1375"/></clipPath><clipPath id="clip48"><rect x="275" y="3643" width="2200" height="1375"/></clipPath><clipPath id="clip49"><rect x="275" y="3643" width="2200" height="1375"/></clipPath><clipPath id="clip50"><rect x="275" y="3643" width="2200" height="1375"/></clipPath><clipPath id="clip51"><rect x="275" y="3643" width="2200" height="1375"/></clipPath><clipPath id="clip52"><rect x="275" y="3643" width="2200" height="1375"/></clipPath><clipPath id="clip53"><rect x="275" y="3643" width="2200" height="1375"/></clipPath><clipPath id="clip54"><rect x="275" y="3643" width="2200" height="1375"/></clipPath><clipPath id="clip55"><rect x="275" y="3643" width="2200" height="1375"/></clipPath><clipPath id="clip56"><rect x="275" y="3643" width="2200" height="1375"/></clipPath><clipPath id="clip57"><rect x="275" y="3643" width="2200" height="1375"/></clipPath><clipPath id="clip58"><rect x="275" y="3643" width="2200" height="1375"/></clipPath></defs><g clip-path="url(#clip0)" transform="translate(-274 -3643)"><rect x="275" y="3644" width="2200" height="1375" fill="#FFFFFF"/><g clip-path="url(#clip1)"><path d="M416.5 4345.64 2424.5 4345.64M416.5 4266.64 2424.5 4266.64M416.5 4186.64 2424.5 4186.64M416.5 4107.63 2424.5 4107.63M416.5 4028.63 2424.5 4028.63M416.5 3948.63 2424.5 3948.63M416.5 3869.5 2424.5 3869.5" stroke="#D9D9D9" stroke-width="3.4375" stroke-linejoin="round" stroke-miterlimit="10" fill="none"/></g><g clip-path="url(#clip2)"><path d="M430.514 3964.63 444.515 3964.63 444.515 4424.5 430.514 4424.5ZM508.517 3955.63 521.517 3955.63 521.517 4424.5 508.517 4424.5ZM585.519 3963.63 598.52 3963.63 598.52 4424.5 585.519 4424.5ZM662.522 3959.63 676.522 3959.63 676.522 4424.5 662.522 4424.5ZM739.524 3959.63 753.525 3959.63 753.525 4424.5 739.524 4424.5ZM817.527 3960.63 830.527 3960.63 830.527 4424.5 817.527 4424.5ZM894.53 3960.63 907.53 3960.63 907.53 4424.5 894.53 4424.5ZM971.532 3967.63 985.533 3967.63 985.533 4424.5 971.532 4424.5ZM1048.53 3965.63 1062.54 3965.63 1062.54 4424.5 1048.53 4424.5ZM1126.54 3876.63 1139.54 3876.63 1139.54 4424.5 1126.54 4424.5ZM1203.54 3877.63 1216.54 3877.63 1216.54 4424.5 1203.54 4424.5ZM1280.54 3877.63 1294.54 3877.63 1294.54 4424.5 1280.54 4424.5ZM1357.54 3955.63 1371.55 3955.63 1371.55 4424.5 1357.54 4424.5ZM1435.55 3924.63 1448.55 3924.63 1448.55 4424.5 1435.55 4424.5ZM1512.55 3888.63 1525.55 3888.63 1525.55 4424.5 1512.55 4424.5ZM1589.55 3900.63 1603.55 3900.63 1603.55 4424.5 1589.55 4424.5ZM1666.55 3900.63 1680.56 3900.63 1680.56 4424.5 1666.55 4424.5ZM2130.57 3913.63 2143.57 3913.63 2143.57 4424.5 2130.57 4424.5ZM2207.57 3913.63 2221.57 3913.63 2221.57 4424.5 2207.57 4424.5ZM2284.58 3925.63 2298.58 3925.63 2298.58 4424.5 2284.58 4424.5ZM2362.58 3926.63 2375.58 3926.63 2375.58 4424.5 2362.58 4424.5Z" stroke="#333F50" stroke-width="3.4375" stroke-linejoin="round" stroke-miterlimit="10" fill="#8497B0"/></g><g clip-path="url(#clip3)"><path d="M988.533 3967.63 1002.53 3967.63 1002.53 4424.5 988.533 4424.5ZM1065.54 3966.63 1079.54 3966.63 1079.54 4424.5 1065.54 4424.5ZM1143.54 3877.63 1156.54 3877.63 1156.54 4424.5 1143.54 4424.5ZM1220.54 3877.63 1233.54 3877.63 1233.54 4424.5 1220.54 4424.5ZM1297.54 3877.63 1311.54 3877.63 1311.54 4424.5 1297.54 4424.5ZM1374.55 3955.63 1388.55 3955.63 1388.55 4424.5 1374.55 4424.5ZM1452.55 3924.63 1465.55 3924.63 1465.55 4424.5 1452.55 4424.5ZM1529.55 3888.63 1542.55 3888.63 1542.55 4424.5 1529.55 4424.5ZM1606.55 3900.63 1620.55 3900.63 1620.55 4424.5 1606.55 4424.5ZM1683.56 3900.63 1697.56 3900.63 1697.56 4424.5 1683.56 4424.5ZM1761.56 3932.63 1774.56 3932.63 1774.56 4424.5 1761.56 4424.5ZM1838.56 3932.63 1851.56 3932.63 1851.56 4424.5 1838.56 4424.5ZM1915.56 3932.63 1929.56 3932.63 1929.56 4424.5 1915.56 4424.5ZM1992.57 3932.63 2006.57 3932.63 2006.57 4424.5 1992.57 4424.5ZM2070.57 3932.63 2083.57 3932.63 2083.57 4424.5 2070.57 4424.5ZM2147.57 3913.63 2160.57 3913.63 2160.57 4424.5 2147.57 4424.5ZM2224.57 3913.63 2238.57 3913.63 2238.57 4424.5 2224.57 4424.5ZM2301.58 3927.63 2315.58 3927.63 2315.58 4424.5 2301.58 4424.5ZM2379.58 3927.63 2392.58 3927.63 2392.58 4424.5 2379.58 4424.5Z" stroke="#BF9000" stroke-width="3.4375" stroke-linejoin="round" stroke-miterlimit="10" fill="#FFD966"/></g><g clip-path="url(#clip4)"><path d="M1005.53 3967.63 1019.53 3967.63 1019.53 4424.5 1005.53 4424.5ZM1083.54 3965.63 1096.54 3965.63 1096.54 4424.5 1083.54 4424.5ZM1160.54 3876.63 1173.54 3876.63 1173.54 4424.5 1160.54 4424.5ZM1237.54 3877.63 1251.54 3877.63 1251.54 4424.5 1237.54 4424.5ZM1314.54 3877.63 1328.54 3877.63 1328.54 4424.5 1314.54 4424.5ZM1392.55 3955.63 1405.55 3955.63 1405.55 4424.5 1392.55 4424.5ZM1469.55 3924.63 1482.55 3924.63 1482.55 4424.5 1469.55 4424.5ZM1546.55 3888.63 1560.55 3888.63 1560.55 4424.5 1546.55 4424.5ZM1623.55 3900.63 1637.55 3900.63 1637.55 4424.5 1623.55 4424.5ZM1701.56 3900.63 1714.56 3900.63 1714.56 4424.5 1701.56 4424.5ZM1778.56 3964.63 1791.56 3964.63 1791.56 4424.5 1778.56 4424.5ZM1855.56 3964.63 1869.56 3964.63 1869.56 4424.5 1855.56 4424.5ZM1932.56 3964.63 1946.56 3964.63 1946.56 4424.5 1932.56 4424.5ZM2010.57 3964.63 2023.57 3964.63 2023.57 4424.5 2010.57 4424.5ZM2087.57 3932.63 2100.57 3932.63 2100.57 4424.5 2087.57 4424.5ZM2164.57 3912.63 2178.57 3912.63 2178.57 4424.5 2164.57 4424.5ZM2241.57 3915.63 2255.57 3915.63 2255.57 4424.5 2241.57 4424.5ZM2319.58 3928.63 2332.58 3928.63 2332.58 4424.5 2319.58 4424.5ZM2396.58 3927.63 2409.58 3927.63 2409.58 4424.5 2396.58 4424.5Z" stroke="#548235" stroke-width="3.4375" stroke-linejoin="round" stroke-miterlimit="10" fill="#A9D18E"/></g><g clip-path="url(#clip5)"><path d="M416.5 4424.5 2424.5 4424.5" stroke="#D9D9D9" stroke-width="3.4375" stroke-linejoin="round" stroke-miterlimit="10" fill="none" fill-rule="evenodd"/></g><g clip-path="url(#clip6)"><path d="M416.5 4424.5 416.5 4811.5M570.519 4424.5 570.519 4811.5M956.532 4424.5 956.532 4811.5M1343.54 4424.5 1343.54 4811.5M1729.56 4424.5 1729.56 4811.5M2115.57 4424.5 2115.57 4811.5M2424.5 4424.5 2424.5 4811.5" stroke="#D9D9D9" stroke-width="3.4375" stroke-linejoin="round" stroke-miterlimit="10" fill="none"/></g><g clip-path="url(#clip7)"><path d="M416.5 4811.5 416.5 4890.5M570.519 4811.5 570.519 4890.5M956.532 4811.5 956.532 4890.5M1343.54 4811.5 1343.54 4890.5M1729.56 4811.5 1729.56 4890.5M2115.57 4811.5 2115.57 4890.5M2424.5 4811.5 2424.5 4890.5" stroke="#D9D9D9" stroke-width="3.4375" stroke-linejoin="round" stroke-miterlimit="10" fill="none"/></g><g clip-path="url(#clip8)"><text fill="#595959" font-family="Calibri,Calibri_MSFontService,sans-serif" font-weight="400" font-size="41" transform="matrix(1 0 0 1 304.792 4436)">0.86</text></g><g clip-path="url(#clip9)"><text fill="#595959" font-family="Calibri,Calibri_MSFontService,sans-serif" font-weight="400" font-size="41" transform="matrix(1 0 0 1 304.792 4357)">0.87</text></g><g clip-path="url(#clip10)"><text fill="#595959" font-family="Calibri,Calibri_MSFontService,sans-serif" font-weight="400" font-size="41" transform="matrix(1 0 0 1 304.792 4278)">0.88</text></g><g clip-path="url(#clip11)"><text fill="#595959" font-family="Calibri,Calibri_MSFontService,sans-serif" font-weight="400" font-size="41" transform="matrix(1 0 0 1 304.792 4198)">0.89</text></g><g clip-path="url(#clip12)"><text fill="#595959" font-family="Calibri,Calibri_MSFontService,sans-serif" font-weight="400" font-size="41" transform="matrix(1 0 0 1 325.692 4119)">0.9</text></g><g clip-path="url(#clip13)"><text fill="#595959" font-family="Calibri,Calibri_MSFontService,sans-serif" font-weight="400" font-size="41" transform="matrix(1 0 0 1 304.792 4040)">0.91</text></g><g clip-path="url(#clip14)"><text fill="#595959" font-family="Calibri,Calibri_MSFontService,sans-serif" font-weight="400" font-size="41" transform="matrix(1 0 0 1 304.792 3961)">0.92</text></g><g clip-path="url(#clip15)"><text fill="#595959" font-family="Calibri,Calibri_MSFontService,sans-serif" font-weight="400" font-size="41" transform="matrix(1 0 0 1 304.792 3881)">0.93</text></g><g clip-path="url(#clip16)"><text fill="#595959" font-family="Calibri,Calibri_MSFontService,sans-serif" font-weight="400" font-size="41" transform="matrix(6.12323e-17 -1 1 6.12323e-17 468.612 4658)">Original-Bild</text></g><g clip-path="url(#clip17)"><text fill="#595959" font-family="Calibri,Calibri_MSFontService,sans-serif" font-weight="400" font-size="41" transform="matrix(6.12323e-17 -1 1 6.12323e-17 545.859 4762)">JPEG-Kompression</text></g><g clip-path="url(#clip18)"><text fill="#595959" font-family="Calibri,Calibri_MSFontService,sans-serif" font-weight="400" font-size="41" transform="matrix(6.12323e-17 -1 1 6.12323e-17 623.106 4578)">67 Byte</text></g><g clip-path="url(#clip19)"><text fill="#595959" font-family="Calibri,Calibri_MSFontService,sans-serif" font-weight="400" font-size="41" transform="matrix(6.12323e-17 -1 1 6.12323e-17 700.353 4577)">1.53 KB</text></g><g clip-path="url(#clip20)"><text fill="#595959" font-family="Calibri,Calibri_MSFontService,sans-serif" font-weight="400" font-size="41" transform="matrix(6.12323e-17 -1 1 6.12323e-17 777.6 4577)">17.5 KB</text></g><g clip-path="url(#clip21)"><text fill="#595959" font-family="Calibri,Calibri_MSFontService,sans-serif" font-weight="400" font-size="41" transform="matrix(6.12323e-17 -1 1 6.12323e-17 854.847 4808)">16 KB (min. Entropie)</text></g><g clip-path="url(#clip22)"><text fill="#595959" font-family="Calibri,Calibri_MSFontService,sans-serif" font-weight="400" font-size="41" transform="matrix(6.12323e-17 -1 1 6.12323e-17 932.094 4699)">16.8 KB (binär)</text></g><g clip-path="url(#clip23)"><text fill="#595959" font-family="Calibri,Calibri_MSFontService,sans-serif" font-weight="400" font-size="41" transform="matrix(6.12323e-17 -1 1 6.12323e-17 1009.34 4578)">67 Byte</text></g><g clip-path="url(#clip24)"><text fill="#595959" font-family="Calibri,Calibri_MSFontService,sans-serif" font-weight="400" font-size="41" transform="matrix(6.12323e-17 -1 1 6.12323e-17 1086.59 4577)">1.53 KB</text></g><g clip-path="url(#clip25)"><text fill="#595959" font-family="Calibri,Calibri_MSFontService,sans-serif" font-weight="400" font-size="41" transform="matrix(6.12323e-17 -1 1 6.12323e-17 1163.83 4577)">17.5 KB</text></g><g clip-path="url(#clip26)"><text fill="#595959" font-family="Calibri,Calibri_MSFontService,sans-serif" font-weight="400" font-size="41" transform="matrix(6.12323e-17 -1 1 6.12323e-17 1241.08 4808)">16 KB (min. Entropie)</text></g><g clip-path="url(#clip27)"><text fill="#595959" font-family="Calibri,Calibri_MSFontService,sans-serif" font-weight="400" font-size="41" transform="matrix(6.12323e-17 -1 1 6.12323e-17 1318.33 4699)">16.8 KB (binär)</text></g><g clip-path="url(#clip28)"><text fill="#595959" font-family="Calibri,Calibri_MSFontService,sans-serif" font-weight="400" font-size="41" transform="matrix(6.12323e-17 -1 1 6.12323e-17 1395.58 4578)">67 Byte</text></g><g clip-path="url(#clip29)"><text fill="#595959" font-family="Calibri,Calibri_MSFontService,sans-serif" font-weight="400" font-size="41" transform="matrix(6.12323e-17 -1 1 6.12323e-17 1472.82 4577)">1.53 KB</text></g><g clip-path="url(#clip30)"><text fill="#595959" font-family="Calibri,Calibri_MSFontService,sans-serif" font-weight="400" font-size="41" transform="matrix(6.12323e-17 -1 1 6.12323e-17 1550.07 4577)">17.5 KB</text></g><g clip-path="url(#clip31)"><text fill="#595959" font-family="Calibri,Calibri_MSFontService,sans-serif" font-weight="400" font-size="41" transform="matrix(6.12323e-17 -1 1 6.12323e-17 1627.32 4808)">16 KB (min. Entropie)</text></g><g clip-path="url(#clip32)"><text fill="#595959" font-family="Calibri,Calibri_MSFontService,sans-serif" font-weight="400" font-size="41" transform="matrix(6.12323e-17 -1 1 6.12323e-17 1704.56 4699)">16.8 KB (binär)</text></g><g clip-path="url(#clip33)"><text fill="#595959" font-family="Calibri,Calibri_MSFontService,sans-serif" font-weight="400" font-size="41" transform="matrix(6.12323e-17 -1 1 6.12323e-17 1781.81 4578)">67 Byte</text></g><g clip-path="url(#clip34)"><text fill="#595959" font-family="Calibri,Calibri_MSFontService,sans-serif" font-weight="400" font-size="41" transform="matrix(6.12323e-17 -1 1 6.12323e-17 1859.06 4577)">1.53 KB</text></g><g clip-path="url(#clip35)"><text fill="#595959" font-family="Calibri,Calibri_MSFontService,sans-serif" font-weight="400" font-size="41" transform="matrix(6.12323e-17 -1 1 6.12323e-17 1936.3 4577)">17.5 KB</text></g><g clip-path="url(#clip36)"><text fill="#595959" font-family="Calibri,Calibri_MSFontService,sans-serif" font-weight="400" font-size="41" transform="matrix(6.12323e-17 -1 1 6.12323e-17 2013.55 4808)">16 KB (min. Entropie)</text></g><g clip-path="url(#clip37)"><text fill="#595959" font-family="Calibri,Calibri_MSFontService,sans-serif" font-weight="400" font-size="41" transform="matrix(6.12323e-17 -1 1 6.12323e-17 2090.8 4699)">16.8 KB (binär)</text></g><g clip-path="url(#clip38)"><text fill="#595959" font-family="Calibri,Calibri_MSFontService,sans-serif" font-weight="400" font-size="41" transform="matrix(6.12323e-17 -1 1 6.12323e-17 2168.04 4578)">67 Byte</text></g><g clip-path="url(#clip39)"><text fill="#595959" font-family="Calibri,Calibri_MSFontService,sans-serif" font-weight="400" font-size="41" transform="matrix(6.12323e-17 -1 1 6.12323e-17 2245.29 4577)">1.53 KB</text></g><g clip-path="url(#clip40)"><text fill="#595959" font-family="Calibri,Calibri_MSFontService,sans-serif" font-weight="400" font-size="41" transform="matrix(6.12323e-17 -1 1 6.12323e-17 2322.54 4577)">17.5 KB</text></g><g clip-path="url(#clip41)"><text fill="#595959" font-family="Calibri,Calibri_MSFontService,sans-serif" font-weight="400" font-size="41" transform="matrix(6.12323e-17 -1 1 6.12323e-17 2399.79 4808)">16 KB (min. Entropie)</text></g><g clip-path="url(#clip42)"><text fill="#595959" font-family="Calibri,Calibri_MSFontService,sans-serif" font-weight="400" font-size="41" transform="matrix(1 0 0 1 723.887 4876)">jsteg</text></g><g clip-path="url(#clip43)"><text fill="#595959" font-family="Calibri,Calibri_MSFontService,sans-serif" font-weight="400" font-size="41" transform="matrix(1 0 0 1 1074.44 4876)">outguess</text></g><g clip-path="url(#clip44)"><text fill="#595959" font-family="Calibri,Calibri_MSFontService,sans-serif" font-weight="400" font-size="41" transform="matrix(1 0 0 1 1417.81 4876)">outguess-0.13</text></g><g clip-path="url(#clip45)"><text fill="#595959" font-family="Calibri,Calibri_MSFontService,sans-serif" font-weight="400" font-size="41" transform="matrix(1 0 0 1 1850.85 4876)">steghide</text></g><g clip-path="url(#clip46)"><text fill="#595959" font-family="Calibri,Calibri_MSFontService,sans-serif" font-weight="400" font-size="41" transform="matrix(1 0 0 1 2253.35 4876)">f5</text></g><g clip-path="url(#clip47)"><text fill="#595959" font-family="Calibri,Calibri_MSFontService,sans-serif" font-weight="400" font-size="64" transform="matrix(1 0 0 1 756.49 3739)">durchschnittliche </text></g><g clip-path="url(#clip48)"><text fill="#595959" font-family="Calibri,Calibri_MSFontService,sans-serif" font-weight="700" font-size="64" transform="matrix(1 0 0 1 1219.38 3739)">Entropie</text></g><g clip-path="url(#clip49)"><text fill="#595959" font-family="Calibri,Calibri_MSFontService,sans-serif" font-weight="400" font-size="64" transform="matrix(1 0 0 1 1460.33 3739)">(Smartphone</text></g><g clip-path="url(#clip50)"><text fill="#595959" font-family="Calibri,Calibri_MSFontService,sans-serif" font-weight="400" font-size="64" transform="matrix(1 0 0 1 1802.04 3739)">-</text></g><g clip-path="url(#clip51)"><text fill="#595959" font-family="Calibri,Calibri_MSFontService,sans-serif" font-weight="400" font-size="64" transform="matrix(1 0 0 1 1821.68 3739)">Bilder)</text></g><g clip-path="url(#clip52)"><text fill="#595959" font-family="Calibri,Calibri_MSFontService,sans-serif" font-weight="400" font-size="46" transform="matrix(1 0 0 1 1303.67 3800)">in [0..1]</text></g><g clip-path="url(#clip53)"><rect x="883.5" y="4941.5" width="22" height="22" stroke="#333F50" stroke-width="3.4375" stroke-linejoin="round" stroke-miterlimit="10" fill="#8497B0"/></g><g clip-path="url(#clip54)"><text fill="#595959" font-family="Calibri,Calibri_MSFontService,sans-serif" font-weight="400" font-size="41" transform="matrix(1 0 0 1 915.444 4964)">kein Schlüssel</text></g><g clip-path="url(#clip55)"><rect x="1205.5" y="4941.5" width="23" height="22" stroke="#BF9000" stroke-width="3.4375" stroke-linejoin="round" stroke-miterlimit="10" fill="#FFD966"/></g><g clip-path="url(#clip56)"><text fill="#595959" font-family="Calibri,Calibri_MSFontService,sans-serif" font-weight="400" font-size="41" transform="matrix(1 0 0 1 1238.04 4964)">4 Byte Schlüssel</text></g><g clip-path="url(#clip57)"><rect x="1563.5" y="4941.5" width="23" height="22" stroke="#548235" stroke-width="3.4375" stroke-linejoin="round" stroke-miterlimit="10" fill="#A9D18E"/></g><g clip-path="url(#clip58)"><text fill="#595959" font-family="Calibri,Calibri_MSFontService,sans-serif" font-weight="400" font-size="41" transform="matrix(1 0 0 1 1595.91 4964)">50 Byte Schlüssel</text></g><rect x="275.5" y="3644.5" width="2200" height="1375" stroke="#D9D9D9" stroke-width="3.4375" stroke-linejoin="round" stroke-miterlimit="10" fill="none"/></g></svg>