<svg width="2203" height="1378" xmlns="http://www.w3.org/2000/svg" xmlns:xlink="http://www.w3.org/1999/xlink" xml:space="preserve" overflow="hidden"><defs><clipPath id="clip0"><rect x="2749" y="3574" width="2203" height="1378"/></clipPath><clipPath id="clip1"><rect x="2750" y="3575" width="2200" height="1375"/></clipPath><clipPath id="clip2"><rect x="2891" y="3744" width="2012" height="615"/></clipPath><clipPath id="clip3"><rect x="2891" y="3744" width="2012" height="615"/></clipPath><clipPath id="clip4"><rect x="2891" y="3744" width="2012" height="615"/></clipPath><clipPath id="clip5"><rect x="2750" y="3575" width="2200" height="1375"/></clipPath><clipPath id="clip6"><rect x="2750" y="3575" width="2200" height="1375"/></clipPath><clipPath id="clip7"><rect x="2750" y="3575" width="2200" height="1375"/></clipPath><clipPath id="clip8"><rect x="2750" y="3575" width="2200" height="1375"/></clipPath><clipPath id="clip9"><rect x="2750" y="3575" width="2200" height="1375"/></clipPath><clipPath id="clip10"><rect x="2750" y="3575" width="2200" height="1375"/></clipPath><clipPath id="clip11"><rect x="2750" y="3575" width="2200" height="1375"/></clipPath><clipPath id="clip12"><rect x="2750" y="3575" width="2200" height="1375"/></clipPath><clipPath id="clip13"><rect x="2750" y="3575" width="2200" height="1375"/></clipPath><clipPath id="clip14"><rect x="2750" y="3575" width="2200" height="1375"/></clipPath><clipPath id="clip15"><rect x="2750" y="3575" width="2200" height="1375"/></clipPath><clipPath id="clip16"><rect x="2750" y="3575" width="2200" height="1375"/></clipPath><clipPath id="clip17"><rect x="2750" y="3575" width="2200" height="1375"/></clipPath><clipPath id="clip18"><rect x="2750" y="3575" width="2200" height="1375"/></clipPath><clipPath id="clip19"><rect x="2750" y="3575" width="2200" height="1375"/></clipPath><clipPath id="clip20"><rect x="2750" y="3575" width="2200" height="1375"/></clipPath><clipPath id="clip21"><rect x="2750" y="3575" width="2200" height="1375"/></clipPath><clipPath id="clip22"><rect x="2750" y="3575" width="2200" height="1375"/></clipPath><clipPath id="clip23"><rect x="2750" y="3575" width="2200" height="1375"/></clipPath><clipPath id="clip24"><rect x="2750" y="3575" width="2200" height="1375"/></clipPath><clipPath id="clip25"><rect x="2750" y="3575" width="2200" height="1375"/></clipPath><clipPath id="clip26"><rect x="2750" y="3575" width="2200" height="1375"/></clipPath><clipPath id="clip27"><rect x="2750" y="3575" width="2200" height="1375"/></clipPath><clipPath id="clip28"><rect x="2750" y="3575" width="2200" height="1375"/></clipPath><clipPath id="clip29"><rect x="2750" y="3575" width="2200" height="1375"/></clipPath><clipPath id="clip30"><rect x="2750" y="3575" width="2200" height="1375"/></clipPath><clipPath id="clip31"><rect x="2750" y="3575" width="2200" height="1375"/></clipPath><clipPath id="clip32"><rect x="2750" y="3575" width="2200" height="1375"/></clipPath><clipPath id="clip33"><rect x="2750" y="3575" width="2200" height="1375"/></clipPath><clipPath id="clip34"><rect x="2750" y="3575" width="2200" height="1375"/></clipPath><clipPath id="clip35"><rect x="2750" y="3575" width="2200" height="1375"/></clipPath><clipPath id="clip36"><rect x="2750" y="3575" width="2200" height="1375"/></clipPath><clipPath id="clip37"><rect x="2750" y="3575" width="2200" height="1375"/></clipPath><clipPath id="clip38"><rect x="2750" y="3575" width="2200" height="1375"/></clipPath><clipPath id="clip39"><rect x="2750" y="3575" width="2200" height="1375"/></clipPath><clipPath id="clip40"><rect x="2750" y="3575" width="2200" height="1375"/></clipPath><clipPath id="clip41"><rect x="2750" y="3575" width="2200" height="1375"/></clipPath><clipPath id="clip42"><rect x="2750" y="3575" width="2200" height="1375"/></clipPath><clipPath id="clip43"><rect x="2750" y="3575" width="2200" height="1375"/></clipPath><clipPath id="clip44"><rect x="2750" y="3575" width="2200" height="1375"/></clipPath><clipPath id="clip45"><rect x="2750" y="3575" width="2200" height="1375"/></clipPath><clipPath id="clip46"><rect x="2750" y="3575" width="2200" height="1375"/></clipPath><clipPath id="clip47"><rect x="2750" y="3575" width="2200" height="1375"/></clipPath><clipPath id="clip48"><rect x="2750" y="3575" width="2200" height="1375"/></clipPath><clipPath id="clip49"><rect x="2750" y="3575" width="2200" height="1375"/></clipPath><clipPath id="clip50"><rect x="2750" y="3575" width="2200" height="1375"/></clipPath><clipPath id="clip51"><rect x="2750" y="3575" width="2200" height="1375"/></clipPath><clipPath id="clip52"><rect x="2750" y="3575" width="2200" height="1375"/></clipPath><clipPath id="clip53"><rect x="2750" y="3575" width="2200" height="1375"/></clipPath><clipPath id="clip54"><rect x="2750" y="3575" width="2200" height="1375"/></clipPath><clipPath id="clip55"><rect x="2750" y="3575" width="2200" height="1375"/></clipPath><clipPath id="clip56"><rect x="2750" y="3575" width="2200" height="1375"/></clipPath><clipPath id="clip57"><rect x="2750" y="3575" width="2200" height="1375"/></clipPath><clipPath id="clip58"><rect x="2750" y="3575" width="2200" height="1375"/></clipPath></defs><g clip-path="url(#clip0)" transform="translate(-2749 -3574)"><rect x="2750" y="3575" width="2200" height="1375" fill="#FFFFFF"/><g clip-path="url(#clip1)"><path d="M2891.5 4268.64 4899.5 4268.64M2891.5 4181.64 4899.5 4181.64M2891.5 4094.63 4899.5 4094.63M2891.5 4006.63 4899.5 4006.63M2891.5 3919.63 4899.5 3919.63M2891.5 3832.63 4899.5 3832.63M2891.5 3744.5 4899.5 3744.5" stroke="#D9D9D9" stroke-width="3.4375" stroke-linejoin="round" stroke-miterlimit="10" fill="none"/></g><g clip-path="url(#clip2)"><path d="M2906.6 4017.63 2920.6 4017.63 2920.6 4356.5 2906.6 4356.5ZM2986.6 4091.63 3000.6 4091.63 3000.6 4356.5 2986.6 4356.5ZM3067.6 4092.63 3081.6 4092.63 3081.6 4356.5 3067.6 4356.5ZM3147.6 4090.63 3161.6 4090.63 3161.6 4356.5 3147.6 4356.5ZM3227.61 4090.63 3241.61 4090.63 3241.61 4356.5 3227.61 4356.5ZM3308.61 4089.63 3322.61 4089.63 3322.61 4356.5 3308.61 4356.5ZM3388.61 4154.64 3402.61 4154.64 3402.61 4356.5 3388.61 4356.5ZM3468.61 4240.64 3482.61 4240.64 3482.61 4356.5 3468.61 4356.5ZM3549.62 3847.63 3563.62 3847.63 3563.62 4356.5 3549.62 4356.5ZM3629.62 3848.63 3643.62 3848.63 3643.62 4356.5 3629.62 4356.5ZM3709.62 3848.63 3723.62 3848.63 3723.62 4356.5 3709.62 4356.5ZM3790.62 4088.63 3804.62 4088.63 3804.62 4356.5 3790.62 4356.5ZM3870.63 4087.63 3884.63 4087.63 3884.63 4356.5 3870.63 4356.5ZM3950.63 3854.63 3964.63 3854.63 3964.63 4356.5 3950.63 4356.5ZM4031.63 3855.63 4045.63 3855.63 4045.63 4356.5 4031.63 4356.5ZM4111.64 3853.63 4125.64 3853.63 4125.64 4356.5 4111.64 4356.5Z" stroke="#333F50" stroke-width="3.4375" stroke-linejoin="round" stroke-miterlimit="10" fill="#8497B0"/></g><g clip-path="url(#clip3)"><path d="M3406.61 4154.64 3420.61 4154.64 3420.61 4356.5 3406.61 4356.5ZM3486.61 4240.64 3500.62 4240.64 3500.62 4356.5 3486.61 4356.5ZM3566.62 3847.63 3580.62 3847.63 3580.62 4356.5 3566.62 4356.5ZM3647.62 3848.63 3661.62 3848.63 3661.62 4356.5 3647.62 4356.5ZM3727.62 3848.63 3741.62 3848.63 3741.62 4356.5 3727.62 4356.5ZM3807.63 4088.63 3821.63 4088.63 3821.63 4356.5 3807.63 4356.5ZM3888.63 4087.63 3902.63 4087.63 3902.63 4356.5 3888.63 4356.5ZM3968.63 3854.63 3982.63 3854.63 3982.63 4356.5 3968.63 4356.5ZM4048.63 3855.63 4062.63 3855.63 4062.63 4356.5 4048.63 4356.5ZM4129.64 3854.63 4143.64 3854.63 4143.64 4356.5 4129.64 4356.5ZM4209.64 4017.63 4223.64 4017.63 4223.64 4356.5 4209.64 4356.5ZM4289.64 4017.63 4303.64 4017.63 4303.64 4356.5 4289.64 4356.5ZM4370.64 4017.63 4384.64 4017.63 4384.64 4356.5 4370.64 4356.5ZM4450.65 4017.63 4464.65 4017.63 4464.65 4356.5 4450.65 4356.5ZM4530.65 4017.63 4544.65 4017.63 4544.65 4356.5 4530.65 4356.5Z" stroke="#BF9000" stroke-width="3.4375" stroke-linejoin="round" stroke-miterlimit="10" fill="#FFD966"/></g><g clip-path="url(#clip4)"><path d="M3424.61 4154.64 3438.61 4154.64 3438.61 4356.5 3424.61 4356.5ZM3504.62 4240.64 3518.62 4240.64 3518.62 4356.5 3504.62 4356.5ZM3584.62 3847.63 3598.62 3847.63 3598.62 4356.5 3584.62 4356.5ZM3665.62 3848.63 3679.62 3848.63 3679.62 4356.5 3665.62 4356.5ZM3745.62 3848.63 3759.62 3848.63 3759.62 4356.5 3745.62 4356.5ZM3825.63 4088.63 3839.63 4088.63 3839.63 4356.5 3825.63 4356.5ZM3906.63 4087.63 3920.63 4087.63 3920.63 4356.5 3906.63 4356.5ZM3986.63 3853.63 4000.63 3853.63 4000.63 4356.5 3986.63 4356.5ZM4066.63 3854.63 4080.63 3854.63 4080.63 4356.5 4066.63 4356.5ZM4147.64 3854.63 4161.64 3854.63 4161.64 4356.5 4147.64 4356.5ZM4227.64 4017.63 4241.64 4017.63 4241.64 4356.5 4227.64 4356.5ZM4307.64 4017.63 4321.64 4017.63 4321.64 4356.5 4307.64 4356.5ZM4388.64 4017.63 4402.64 4017.63 4402.64 4356.5 4388.64 4356.5ZM4468.65 4017.63 4482.65 4017.63 4482.65 4356.5 4468.65 4356.5ZM4548.65 4017.63 4562.65 4017.63 4562.65 4356.5 4548.65 4356.5Z" stroke="#548235" stroke-width="3.4375" stroke-linejoin="round" stroke-miterlimit="10" fill="#A9D18E"/></g><g clip-path="url(#clip5)"><path d="M2891.5 4356.5 4899.5 4356.5" stroke="#D9D9D9" stroke-width="3.4375" stroke-linejoin="round" stroke-miterlimit="10" fill="none" fill-rule="evenodd"/></g><g clip-path="url(#clip6)"><path d="M2891.5 4356.5 2891.5 4742.5M2971.6 4356.5 2971.6 4742.5M3373.61 4356.5 3373.61 4742.5M3774.62 4356.5 3774.62 4742.5M4176.64 4356.5 4176.64 4742.5M4578.65 4356.5 4578.65 4742.5M4899.5 4356.5 4899.5 4742.5" stroke="#D9D9D9" stroke-width="3.4375" stroke-linejoin="round" stroke-miterlimit="10" fill="none"/></g><g clip-path="url(#clip7)"><path d="M2891.5 4742.5 2891.5 4822.5M2971.6 4742.5 2971.6 4822.5M3373.61 4742.5 3373.61 4822.5M3774.62 4742.5 3774.62 4822.5M4176.64 4742.5 4176.64 4822.5M4578.65 4742.5 4578.65 4822.5M4899.5 4742.5 4899.5 4822.5" stroke="#D9D9D9" stroke-width="3.4375" stroke-linejoin="round" stroke-miterlimit="10" fill="none"/></g><g clip-path="url(#clip8)"><text fill="#595959" font-family="Calibri,Calibri_MSFontService,sans-serif" font-weight="400" font-size="41" transform="matrix(1 0 0 1 2779.79 4368)">0.54</text></g><g clip-path="url(#clip9)"><text fill="#595959" font-family="Calibri,Calibri_MSFontService,sans-serif" font-weight="400" font-size="41" transform="matrix(1 0 0 1 2779.79 4280)">0.56</text></g><g clip-path="url(#clip10)"><text fill="#595959" font-family="Calibri,Calibri_MSFontService,sans-serif" font-weight="400" font-size="41" transform="matrix(1 0 0 1 2779.79 4193)">0.58</text></g><g clip-path="url(#clip11)"><text fill="#595959" font-family="Calibri,Calibri_MSFontService,sans-serif" font-weight="400" font-size="41" transform="matrix(1 0 0 1 2800.69 4106)">0.6</text></g><g clip-path="url(#clip12)"><text fill="#595959" font-family="Calibri,Calibri_MSFontService,sans-serif" font-weight="400" font-size="41" transform="matrix(1 0 0 1 2779.79 4018)">0.62</text></g><g clip-path="url(#clip13)"><text fill="#595959" font-family="Calibri,Calibri_MSFontService,sans-serif" font-weight="400" font-size="41" transform="matrix(1 0 0 1 2779.79 3931)">0.64</text></g><g clip-path="url(#clip14)"><text fill="#595959" font-family="Calibri,Calibri_MSFontService,sans-serif" font-weight="400" font-size="41" transform="matrix(1 0 0 1 2779.79 3844)">0.66</text></g><g clip-path="url(#clip15)"><text fill="#595959" font-family="Calibri,Calibri_MSFontService,sans-serif" font-weight="400" font-size="41" transform="matrix(1 0 0 1 2779.79 3757)">0.68</text></g><g clip-path="url(#clip16)"><text fill="#595959" font-family="Calibri,Calibri_MSFontService,sans-serif" font-weight="400" font-size="41" transform="matrix(6.12323e-17 -1 1 6.12323e-17 2945.16 4589)">Original-Bild</text></g><g clip-path="url(#clip17)"><text fill="#595959" font-family="Calibri,Calibri_MSFontService,sans-serif" font-weight="400" font-size="41" transform="matrix(6.12323e-17 -1 1 6.12323e-17 3025.49 4509)">67 Byte</text></g><g clip-path="url(#clip18)"><text fill="#595959" font-family="Calibri,Calibri_MSFontService,sans-serif" font-weight="400" font-size="41" transform="matrix(6.12323e-17 -1 1 6.12323e-17 3105.83 4508)">1.53 KB</text></g><g clip-path="url(#clip19)"><text fill="#595959" font-family="Calibri,Calibri_MSFontService,sans-serif" font-weight="400" font-size="41" transform="matrix(6.12323e-17 -1 1 6.12323e-17 3186.17 4508)">17.5 KB</text></g><g clip-path="url(#clip20)"><text fill="#595959" font-family="Calibri,Calibri_MSFontService,sans-serif" font-weight="400" font-size="41" transform="matrix(6.12323e-17 -1 1 6.12323e-17 3266.5 4739)">16 KB (min. Entropie)</text></g><g clip-path="url(#clip21)"><text fill="#595959" font-family="Calibri,Calibri_MSFontService,sans-serif" font-weight="400" font-size="41" transform="matrix(6.12323e-17 -1 1 6.12323e-17 3346.84 4630)">16.8 KB (binär)</text></g><g clip-path="url(#clip22)"><text fill="#595959" font-family="Calibri,Calibri_MSFontService,sans-serif" font-weight="400" font-size="41" transform="matrix(6.12323e-17 -1 1 6.12323e-17 3427.18 4509)">67 Byte</text></g><g clip-path="url(#clip23)"><text fill="#595959" font-family="Calibri,Calibri_MSFontService,sans-serif" font-weight="400" font-size="41" transform="matrix(6.12323e-17 -1 1 6.12323e-17 3507.51 4508)">1.53 KB</text></g><g clip-path="url(#clip24)"><text fill="#595959" font-family="Calibri,Calibri_MSFontService,sans-serif" font-weight="400" font-size="41" transform="matrix(6.12323e-17 -1 1 6.12323e-17 3587.85 4508)">17.5 KB</text></g><g clip-path="url(#clip25)"><text fill="#595959" font-family="Calibri,Calibri_MSFontService,sans-serif" font-weight="400" font-size="41" transform="matrix(6.12323e-17 -1 1 6.12323e-17 3668.19 4739)">16 KB (min. Entropie)</text></g><g clip-path="url(#clip26)"><text fill="#595959" font-family="Calibri,Calibri_MSFontService,sans-serif" font-weight="400" font-size="41" transform="matrix(6.12323e-17 -1 1 6.12323e-17 3748.53 4630)">16.8 KB (binär)</text></g><g clip-path="url(#clip27)"><text fill="#595959" font-family="Calibri,Calibri_MSFontService,sans-serif" font-weight="400" font-size="41" transform="matrix(6.12323e-17 -1 1 6.12323e-17 3828.86 4509)">67 Byte</text></g><g clip-path="url(#clip28)"><text fill="#595959" font-family="Calibri,Calibri_MSFontService,sans-serif" font-weight="400" font-size="41" transform="matrix(6.12323e-17 -1 1 6.12323e-17 3909.2 4508)">1.53 KB</text></g><g clip-path="url(#clip29)"><text fill="#595959" font-family="Calibri,Calibri_MSFontService,sans-serif" font-weight="400" font-size="41" transform="matrix(6.12323e-17 -1 1 6.12323e-17 3989.54 4508)">17.5 KB</text></g><g clip-path="url(#clip30)"><text fill="#595959" font-family="Calibri,Calibri_MSFontService,sans-serif" font-weight="400" font-size="41" transform="matrix(6.12323e-17 -1 1 6.12323e-17 4069.87 4739)">16 KB (min. Entropie)</text></g><g clip-path="url(#clip31)"><text fill="#595959" font-family="Calibri,Calibri_MSFontService,sans-serif" font-weight="400" font-size="41" transform="matrix(6.12323e-17 -1 1 6.12323e-17 4150.21 4630)">16.8 KB (binär)</text></g><g clip-path="url(#clip32)"><text fill="#595959" font-family="Calibri,Calibri_MSFontService,sans-serif" font-weight="400" font-size="41" transform="matrix(6.12323e-17 -1 1 6.12323e-17 4230.55 4509)">67 Byte</text></g><g clip-path="url(#clip33)"><text fill="#595959" font-family="Calibri,Calibri_MSFontService,sans-serif" font-weight="400" font-size="41" transform="matrix(6.12323e-17 -1 1 6.12323e-17 4310.88 4508)">1.53 KB</text></g><g clip-path="url(#clip34)"><text fill="#595959" font-family="Calibri,Calibri_MSFontService,sans-serif" font-weight="400" font-size="41" transform="matrix(6.12323e-17 -1 1 6.12323e-17 4391.22 4508)">17.5 KB</text></g><g clip-path="url(#clip35)"><text fill="#595959" font-family="Calibri,Calibri_MSFontService,sans-serif" font-weight="400" font-size="41" transform="matrix(6.12323e-17 -1 1 6.12323e-17 4471.56 4739)">16 KB (min. Entropie)</text></g><g clip-path="url(#clip36)"><text fill="#595959" font-family="Calibri,Calibri_MSFontService,sans-serif" font-weight="400" font-size="41" transform="matrix(6.12323e-17 -1 1 6.12323e-17 4551.89 4630)">16.8 KB (binär)</text></g><g clip-path="url(#clip37)"><text fill="#595959" font-family="Calibri,Calibri_MSFontService,sans-serif" font-weight="400" font-size="41" transform="matrix(6.12323e-17 -1 1 6.12323e-17 4632.23 4509)">67 Byte</text></g><g clip-path="url(#clip38)"><text fill="#595959" font-family="Calibri,Calibri_MSFontService,sans-serif" font-weight="400" font-size="41" transform="matrix(6.12323e-17 -1 1 6.12323e-17 4712.57 4508)">1.53 KB</text></g><g clip-path="url(#clip39)"><text fill="#595959" font-family="Calibri,Calibri_MSFontService,sans-serif" font-weight="400" font-size="41" transform="matrix(6.12323e-17 -1 1 6.12323e-17 4792.9 4508)">17.5 KB</text></g><g clip-path="url(#clip40)"><text fill="#595959" font-family="Calibri,Calibri_MSFontService,sans-serif" font-weight="400" font-size="41" transform="matrix(6.12323e-17 -1 1 6.12323e-17 4873.24 4739)">16 KB (min. Entropie)</text></g><g clip-path="url(#clip41)"><text fill="#595959" font-family="Calibri,Calibri_MSFontService,sans-serif" font-weight="400" font-size="41" transform="matrix(1 0 0 1 3132.45 4807)">jsteg</text></g><g clip-path="url(#clip42)"><text fill="#595959" font-family="Calibri,Calibri_MSFontService,sans-serif" font-weight="400" font-size="41" transform="matrix(1 0 0 1 3498.46 4807)">outguess</text></g><g clip-path="url(#clip43)"><text fill="#595959" font-family="Calibri,Calibri_MSFontService,sans-serif" font-weight="400" font-size="41" transform="matrix(1 0 0 1 3857.28 4807)">outguess-0.13</text></g><g clip-path="url(#clip44)"><text fill="#595959" font-family="Calibri,Calibri_MSFontService,sans-serif" font-weight="400" font-size="41" transform="matrix(1 0 0 1 4305.77 4807)">steghide</text></g><g clip-path="url(#clip45)"><text fill="#595959" font-family="Calibri,Calibri_MSFontService,sans-serif" font-weight="400" font-size="41" transform="matrix(1 0 0 1 4722.17 4807)">f5</text></g><g clip-path="url(#clip46)"><text fill="#595959" font-family="Calibri,Calibri_MSFontService,sans-serif" font-weight="400" font-size="64" transform="matrix(1 0 0 1 3266.5 3670)">durchschn. </text></g><g clip-path="url(#clip47)"><text fill="#595959" font-family="Calibri,Calibri_MSFontService,sans-serif" font-weight="700" font-size="64" transform="matrix(1 0 0 1 3566.54 3670)">Entropie</text></g><g clip-path="url(#clip48)"><text fill="#595959" font-family="Calibri,Calibri_MSFontService,sans-serif" font-weight="400" font-size="64" transform="matrix(1 0 0 1 3807.49 3670)">(High</text></g><g clip-path="url(#clip49)"><text fill="#595959" font-family="Calibri,Calibri_MSFontService,sans-serif" font-weight="400" font-size="64" transform="matrix(1 0 0 1 3945.59 3670)">-</text></g><g clip-path="url(#clip50)"><text fill="#595959" font-family="Calibri,Calibri_MSFontService,sans-serif" font-weight="400" font-size="64" transform="matrix(1 0 0 1 3965.23 3670)">Resolution</text></g><g clip-path="url(#clip51)"><text fill="#595959" font-family="Calibri,Calibri_MSFontService,sans-serif" font-weight="400" font-size="64" transform="matrix(1 0 0 1 4242.04 3670)">-</text></g><g clip-path="url(#clip52)"><text fill="#595959" font-family="Calibri,Calibri_MSFontService,sans-serif" font-weight="400" font-size="64" transform="matrix(1 0 0 1 4261.67 3670)">Bilder)</text></g><g clip-path="url(#clip53)"><rect x="3358.5" y="4872.5" width="22" height="22.9995" stroke="#333F50" stroke-width="3.4375" stroke-linejoin="round" stroke-miterlimit="10" fill="#8497B0"/></g><g clip-path="url(#clip54)"><text fill="#595959" font-family="Calibri,Calibri_MSFontService,sans-serif" font-weight="400" font-size="41" transform="matrix(1 0 0 1 3390.44 4895)">kein Schlüssel</text></g><g clip-path="url(#clip55)"><rect x="3680.5" y="4872.5" width="23" height="22.9995" stroke="#BF9000" stroke-width="3.4375" stroke-linejoin="round" stroke-miterlimit="10" fill="#FFD966"/></g><g clip-path="url(#clip56)"><text fill="#595959" font-family="Calibri,Calibri_MSFontService,sans-serif" font-weight="400" font-size="41" transform="matrix(1 0 0 1 3713.04 4895)">4 Byte Schlüssel</text></g><g clip-path="url(#clip57)"><rect x="4038.5" y="4872.5" width="23" height="22.9995" stroke="#548235" stroke-width="3.4375" stroke-linejoin="round" stroke-miterlimit="10" fill="#A9D18E"/></g><g clip-path="url(#clip58)"><text fill="#595959" font-family="Calibri,Calibri_MSFontService,sans-serif" font-weight="400" font-size="41" transform="matrix(1 0 0 1 4070.91 4895)">50 Byte Schlüssel</text></g><rect x="2750.5" y="3575.5" width="2200" height="1375" stroke="#D9D9D9" stroke-width="3.4375" stroke-linejoin="round" stroke-miterlimit="10" fill="none"/></g></svg>