<svg width="2203" height="1378" xmlns="http://www.w3.org/2000/svg" xmlns:xlink="http://www.w3.org/1999/xlink" xml:space="preserve" overflow="hidden"><defs><clipPath id="clip0"><rect x="2749" y="2130" width="2203" height="1378"/></clipPath><clipPath id="clip1"><rect x="2750" y="2131" width="2200" height="1375"/></clipPath><clipPath id="clip2"><rect x="2880" y="2357" width="2023" height="558"/></clipPath><clipPath id="clip3"><rect x="2880" y="2357" width="2023" height="558"/></clipPath><clipPath id="clip4"><rect x="2880" y="2357" width="2023" height="558"/></clipPath><clipPath id="clip5"><rect x="2750" y="2131" width="2200" height="1375"/></clipPath><clipPath id="clip6"><rect x="2750" y="2131" width="2200" height="1375"/></clipPath><clipPath id="clip7"><rect x="2750" y="2131" width="2200" height="1375"/></clipPath><clipPath id="clip8"><rect x="2750" y="2131" width="2200" height="1375"/></clipPath><clipPath id="clip9"><rect x="2750" y="2131" width="2200" height="1375"/></clipPath><clipPath id="clip10"><rect x="2750" y="2131" width="2200" height="1375"/></clipPath><clipPath id="clip11"><rect x="2750" y="2131" width="2200" height="1375"/></clipPath><clipPath id="clip12"><rect x="2750" y="2131" width="2200" height="1375"/></clipPath><clipPath id="clip13"><rect x="2750" y="2131" width="2200" height="1375"/></clipPath><clipPath id="clip14"><rect x="2750" y="2131" width="2200" height="1375"/></clipPath><clipPath id="clip15"><rect x="2750" y="2131" width="2200" height="1375"/></clipPath><clipPath id="clip16"><rect x="2750" y="2131" width="2200" height="1375"/></clipPath><clipPath id="clip17"><rect x="2750" y="2131" width="2200" height="1375"/></clipPath><clipPath id="clip18"><rect x="2750" y="2131" width="2200" height="1375"/></clipPath><clipPath id="clip19"><rect x="2750" y="2131" width="2200" height="1375"/></clipPath><clipPath id="clip20"><rect x="2750" y="2131" width="2200" height="1375"/></clipPath><clipPath id="clip21"><rect x="2750" y="2131" width="2200" height="1375"/></clipPath><clipPath id="clip22"><rect x="2750" y="2131" width="2200" height="1375"/></clipPath><clipPath id="clip23"><rect x="2750" y="2131" width="2200" height="1375"/></clipPath><clipPath id="clip24"><rect x="2750" y="2131" width="2200" height="1375"/></clipPath><clipPath id="clip25"><rect x="2750" y="2131" width="2200" height="1375"/></clipPath><clipPath id="clip26"><rect x="2750" y="2131" width="2200" height="1375"/></clipPath><clipPath id="clip27"><rect x="2750" y="2131" width="2200" height="1375"/></clipPath><clipPath id="clip28"><rect x="2750" y="2131" width="2200" height="1375"/></clipPath><clipPath id="clip29"><rect x="2750" y="2131" width="2200" height="1375"/></clipPath><clipPath id="clip30"><rect x="2750" y="2131" width="2200" height="1375"/></clipPath><clipPath id="clip31"><rect x="2750" y="2131" width="2200" height="1375"/></clipPath><clipPath id="clip32"><rect x="2750" y="2131" width="2200" height="1375"/></clipPath><clipPath id="clip33"><rect x="2750" y="2131" width="2200" height="1375"/></clipPath><clipPath id="clip34"><rect x="2750" y="2131" width="2200" height="1375"/></clipPath><clipPath id="clip35"><rect x="2750" y="2131" width="2200" height="1375"/></clipPath><clipPath id="clip36"><rect x="2750" y="2131" width="2200" height="1375"/></clipPath><clipPath id="clip37"><rect x="2750" y="2131" width="2200" height="1375"/></clipPath><clipPath id="clip38"><rect x="2750" y="2131" width="2200" height="1375"/></clipPath><clipPath id="clip39"><rect x="2750" y="2131" width="2200" height="1375"/></clipPath><clipPath id="clip40"><rect x="2750" y="2131" width="2200" height="1375"/></clipPath><clipPath id="clip41"><rect x="2750" y="2131" width="2200" height="1375"/></clipPath><clipPath id="clip42"><rect x="2750" y="2131" width="2200" height="1375"/></clipPath><clipPath id="clip43"><rect x="2750" y="2131" width="2200" height="1375"/></clipPath><clipPath id="clip44"><rect x="2750" y="2131" width="2200" height="1375"/></clipPath><clipPath id="clip45"><rect x="2750" y="2131" width="2200" height="1375"/></clipPath><clipPath id="clip46"><rect x="2750" y="2131" width="2200" height="1375"/></clipPath><clipPath id="clip47"><rect x="2750" y="2131" width="2200" height="1375"/></clipPath><clipPath id="clip48"><rect x="2750" y="2131" width="2200" height="1375"/></clipPath><clipPath id="clip49"><rect x="2750" y="2131" width="2200" height="1375"/></clipPath><clipPath id="clip50"><rect x="2750" y="2131" width="2200" height="1375"/></clipPath><clipPath id="clip51"><rect x="2750" y="2131" width="2200" height="1375"/></clipPath><clipPath id="clip52"><rect x="2750" y="2131" width="2200" height="1375"/></clipPath><clipPath id="clip53"><rect x="2750" y="2131" width="2200" height="1375"/></clipPath><clipPath id="clip54"><rect x="2750" y="2131" width="2200" height="1375"/></clipPath><clipPath id="clip55"><rect x="2750" y="2131" width="2200" height="1375"/></clipPath><clipPath id="clip56"><rect x="2750" y="2131" width="2200" height="1375"/></clipPath><clipPath id="clip57"><rect x="2750" y="2131" width="2200" height="1375"/></clipPath><clipPath id="clip58"><rect x="2750" y="2131" width="2200" height="1375"/></clipPath></defs><g clip-path="url(#clip0)" transform="translate(-2749 -2130)"><rect x="2750" y="2131" width="2200" height="1375" fill="#FFFFFF"/><g clip-path="url(#clip1)"><path d="M2880.5 2842.59 4899.5 2842.59M2880.5 2773.59 4899.5 2773.59M2880.5 2704.59 4899.5 2704.59M2880.5 2634.59 4899.5 2634.59M2880.5 2565.58 4899.5 2565.58M2880.5 2495.58 4899.5 2495.58M2880.5 2426.58 4899.5 2426.58M2880.5 2357.5 4899.5 2357.5" stroke="#D9D9D9" stroke-width="3.4375" stroke-linejoin="round" stroke-miterlimit="10" fill="none"/></g><g clip-path="url(#clip2)"><path d="M2896.6 2387.58 2910.6 2387.58 2910.6 2912.5 2896.6 2912.5ZM2976.6 2785.59 2990.6 2785.59 2990.6 2912.5 2976.6 2912.5ZM3057.6 2787.59 3071.6 2787.59 3071.6 2912.5 3057.6 2912.5ZM3138.6 2792.59 3152.6 2792.59 3152.6 2912.5 3138.6 2912.5ZM3219.61 2792.59 3233.61 2792.59 3233.61 2912.5 3219.61 2912.5ZM3299.61 2792.59 3313.61 2792.59 3313.61 2912.5 3299.61 2912.5ZM3380.61 2785.59 3394.61 2785.59 3394.61 2912.5 3380.61 2912.5ZM3461.61 2763.59 3475.61 2763.59 3475.61 2912.5 3461.61 2912.5ZM3784.62 2785.59 3798.62 2785.59 3798.62 2912.5 3784.62 2912.5ZM3865.63 2760.59 3879.63 2760.59 3879.63 2912.5 3865.63 2912.5ZM4591.65 2768.59 4605.65 2768.59 4605.65 2912.5 4591.65 2912.5ZM4672.65 2773.59 4686.65 2773.59 4686.65 2912.5 4672.65 2912.5ZM4753.66 2786.59 4767.66 2786.59 4767.66 2912.5 4753.66 2912.5ZM4834.66 2786.59 4848.66 2786.59 4848.66 2912.5 4834.66 2912.5Z" stroke="#333F50" stroke-width="3.4375" stroke-linejoin="round" stroke-miterlimit="10" fill="#8497B0"/></g><g clip-path="url(#clip3)"><path d="M3398.61 2785.59 3412.61 2785.59 3412.61 2912.5 3398.61 2912.5ZM3479.61 2763.59 3493.61 2763.59 3493.61 2912.5 3479.61 2912.5ZM3802.62 2785.59 3816.63 2785.59 3816.63 2912.5 3802.62 2912.5ZM3882.63 2760.59 3897.63 2760.59 3897.63 2912.5 3882.63 2912.5ZM4205.64 2387.58 4220.64 2387.58 4220.64 2912.5 4205.64 2912.5ZM4286.64 2387.58 4300.64 2387.58 4300.64 2912.5 4286.64 2912.5ZM4367.64 2387.58 4381.64 2387.58 4381.64 2912.5 4367.64 2912.5ZM4448.65 2387.58 4462.65 2387.58 4462.65 2912.5 4448.65 2912.5ZM4528.65 2386.58 4543.65 2386.58 4543.65 2912.5 4528.65 2912.5ZM4609.65 2768.59 4623.65 2768.59 4623.65 2912.5 4609.65 2912.5ZM4690.65 2773.59 4704.65 2773.59 4704.65 2912.5 4690.65 2912.5ZM4771.66 2786.59 4785.66 2786.59 4785.66 2912.5 4771.66 2912.5ZM4852.66 2786.59 4866.66 2786.59 4866.66 2912.5 4852.66 2912.5Z" stroke="#BF9000" stroke-width="3.4375" stroke-linejoin="round" stroke-miterlimit="10" fill="#FFD966"/></g><g clip-path="url(#clip4)"><path d="M3416.61 2785.59 3430.61 2785.59 3430.61 2912.5 3416.61 2912.5ZM3497.61 2763.59 3511.62 2763.59 3511.62 2912.5 3497.61 2912.5ZM3820.63 2785.59 3834.63 2785.59 3834.63 2912.5 3820.63 2912.5ZM3900.63 2760.59 3914.63 2760.59 3914.63 2912.5 3900.63 2912.5ZM4223.64 2387.58 4237.64 2387.58 4237.64 2912.5 4223.64 2912.5ZM4304.64 2387.58 4318.64 2387.58 4318.64 2912.5 4304.64 2912.5ZM4385.64 2387.58 4399.64 2387.58 4399.64 2912.5 4385.64 2912.5ZM4466.65 2387.58 4480.65 2387.58 4480.65 2912.5 4466.65 2912.5ZM4546.65 2386.58 4560.65 2386.58 4560.65 2912.5 4546.65 2912.5ZM4627.65 2768.59 4641.65 2768.59 4641.65 2912.5 4627.65 2912.5ZM4708.65 2773.59 4722.66 2773.59 4722.66 2912.5 4708.65 2912.5ZM4789.66 2786.59 4803.66 2786.59 4803.66 2912.5 4789.66 2912.5ZM4869.66 2786.59 4883.66 2786.59 4883.66 2912.5 4869.66 2912.5Z" stroke="#548235" stroke-width="3.4375" stroke-linejoin="round" stroke-miterlimit="10" fill="#A9D18E"/></g><g clip-path="url(#clip5)"><path d="M2880.5 2912.5 4899.5 2912.5" stroke="#D9D9D9" stroke-width="3.4375" stroke-linejoin="round" stroke-miterlimit="10" fill="none" fill-rule="evenodd"/></g><g clip-path="url(#clip6)"><path d="M2880.5 2912.5 2880.5 3298.5M2961.6 2912.5 2961.6 3298.5M3365.61 2912.5 3365.61 3298.5M3768.62 2912.5 3768.62 3298.5M4172.64 2912.5 4172.64 3298.5M4576.65 2912.5 4576.65 3298.5M4899.5 2912.5 4899.5 3298.5" stroke="#D9D9D9" stroke-width="3.4375" stroke-linejoin="round" stroke-miterlimit="10" fill="none"/></g><g clip-path="url(#clip7)"><path d="M2880.5 3298.5 2880.5 3378.5M2961.6 3298.5 2961.6 3378.5M3365.61 3298.5 3365.61 3378.5M3768.62 3298.5 3768.62 3378.5M4172.64 3298.5 4172.64 3378.5M4576.65 3298.5 4576.65 3378.5M4899.5 3298.5 4899.5 3378.5" stroke="#D9D9D9" stroke-width="3.4375" stroke-linejoin="round" stroke-miterlimit="10" fill="none"/></g><g clip-path="url(#clip8)"><text fill="#595959" font-family="Calibri,Calibri_MSFontService,sans-serif" font-weight="400" font-size="41" transform="matrix(1 0 0 1 2821.59 2924)">0</text></g><g clip-path="url(#clip9)"><text fill="#595959" font-family="Calibri,Calibri_MSFontService,sans-serif" font-weight="400" font-size="41" transform="matrix(1 0 0 1 2800.69 2854)">20</text></g><g clip-path="url(#clip10)"><text fill="#595959" font-family="Calibri,Calibri_MSFontService,sans-serif" font-weight="400" font-size="41" transform="matrix(1 0 0 1 2800.69 2785)">40</text></g><g clip-path="url(#clip11)"><text fill="#595959" font-family="Calibri,Calibri_MSFontService,sans-serif" font-weight="400" font-size="41" transform="matrix(1 0 0 1 2800.69 2716)">60</text></g><g clip-path="url(#clip12)"><text fill="#595959" font-family="Calibri,Calibri_MSFontService,sans-serif" font-weight="400" font-size="41" transform="matrix(1 0 0 1 2800.69 2646)">80</text></g><g clip-path="url(#clip13)"><text fill="#595959" font-family="Calibri,Calibri_MSFontService,sans-serif" font-weight="400" font-size="41" transform="matrix(1 0 0 1 2779.79 2577)">100</text></g><g clip-path="url(#clip14)"><text fill="#595959" font-family="Calibri,Calibri_MSFontService,sans-serif" font-weight="400" font-size="41" transform="matrix(1 0 0 1 2779.79 2508)">120</text></g><g clip-path="url(#clip15)"><text fill="#595959" font-family="Calibri,Calibri_MSFontService,sans-serif" font-weight="400" font-size="41" transform="matrix(1 0 0 1 2779.79 2438)">140</text></g><g clip-path="url(#clip16)"><text fill="#595959" font-family="Calibri,Calibri_MSFontService,sans-serif" font-weight="400" font-size="41" transform="matrix(1 0 0 1 2779.79 2369)">160</text></g><g clip-path="url(#clip17)"><text fill="#595959" font-family="Calibri,Calibri_MSFontService,sans-serif" font-weight="400" font-size="41" transform="matrix(6.12323e-17 -1 1 6.12323e-17 2934.96 3145)">Original-Bild</text></g><g clip-path="url(#clip18)"><text fill="#595959" font-family="Calibri,Calibri_MSFontService,sans-serif" font-weight="400" font-size="41" transform="matrix(6.12323e-17 -1 1 6.12323e-17 3015.71 3065)">67 Byte</text></g><g clip-path="url(#clip19)"><text fill="#595959" font-family="Calibri,Calibri_MSFontService,sans-serif" font-weight="400" font-size="41" transform="matrix(6.12323e-17 -1 1 6.12323e-17 3096.47 3065)">1.53 KB</text></g><g clip-path="url(#clip20)"><text fill="#595959" font-family="Calibri,Calibri_MSFontService,sans-serif" font-weight="400" font-size="41" transform="matrix(6.12323e-17 -1 1 6.12323e-17 3177.22 3065)">17.5 KB</text></g><g clip-path="url(#clip21)"><text fill="#595959" font-family="Calibri,Calibri_MSFontService,sans-serif" font-weight="400" font-size="41" transform="matrix(6.12323e-17 -1 1 6.12323e-17 3257.97 3295)">16 KB (min. Entropie)</text></g><g clip-path="url(#clip22)"><text fill="#595959" font-family="Calibri,Calibri_MSFontService,sans-serif" font-weight="400" font-size="41" transform="matrix(6.12323e-17 -1 1 6.12323e-17 3338.73 3186)">16.8 KB (binär)</text></g><g clip-path="url(#clip23)"><text fill="#595959" font-family="Calibri,Calibri_MSFontService,sans-serif" font-weight="400" font-size="41" transform="matrix(6.12323e-17 -1 1 6.12323e-17 3419.48 3065)">67 Byte</text></g><g clip-path="url(#clip24)"><text fill="#595959" font-family="Calibri,Calibri_MSFontService,sans-serif" font-weight="400" font-size="41" transform="matrix(6.12323e-17 -1 1 6.12323e-17 3500.23 3065)">1.53 KB</text></g><g clip-path="url(#clip25)"><text fill="#595959" font-family="Calibri,Calibri_MSFontService,sans-serif" font-weight="400" font-size="41" transform="matrix(6.12323e-17 -1 1 6.12323e-17 3580.98 3065)">17.5 KB</text></g><g clip-path="url(#clip26)"><text fill="#595959" font-family="Calibri,Calibri_MSFontService,sans-serif" font-weight="400" font-size="41" transform="matrix(6.12323e-17 -1 1 6.12323e-17 3661.74 3295)">16 KB (min. Entropie)</text></g><g clip-path="url(#clip27)"><text fill="#595959" font-family="Calibri,Calibri_MSFontService,sans-serif" font-weight="400" font-size="41" transform="matrix(6.12323e-17 -1 1 6.12323e-17 3742.49 3186)">16.8 KB (binär)</text></g><g clip-path="url(#clip28)"><text fill="#595959" font-family="Calibri,Calibri_MSFontService,sans-serif" font-weight="400" font-size="41" transform="matrix(6.12323e-17 -1 1 6.12323e-17 3823.24 3065)">67 Byte</text></g><g clip-path="url(#clip29)"><text fill="#595959" font-family="Calibri,Calibri_MSFontService,sans-serif" font-weight="400" font-size="41" transform="matrix(6.12323e-17 -1 1 6.12323e-17 3904 3065)">1.53 KB</text></g><g clip-path="url(#clip30)"><text fill="#595959" font-family="Calibri,Calibri_MSFontService,sans-serif" font-weight="400" font-size="41" transform="matrix(6.12323e-17 -1 1 6.12323e-17 3984.75 3065)">17.5 KB</text></g><g clip-path="url(#clip31)"><text fill="#595959" font-family="Calibri,Calibri_MSFontService,sans-serif" font-weight="400" font-size="41" transform="matrix(6.12323e-17 -1 1 6.12323e-17 4065.5 3295)">16 KB (min. Entropie)</text></g><g clip-path="url(#clip32)"><text fill="#595959" font-family="Calibri,Calibri_MSFontService,sans-serif" font-weight="400" font-size="41" transform="matrix(6.12323e-17 -1 1 6.12323e-17 4146.26 3186)">16.8 KB (binär)</text></g><g clip-path="url(#clip33)"><text fill="#595959" font-family="Calibri,Calibri_MSFontService,sans-serif" font-weight="400" font-size="41" transform="matrix(6.12323e-17 -1 1 6.12323e-17 4227.01 3065)">67 Byte</text></g><g clip-path="url(#clip34)"><text fill="#595959" font-family="Calibri,Calibri_MSFontService,sans-serif" font-weight="400" font-size="41" transform="matrix(6.12323e-17 -1 1 6.12323e-17 4307.76 3065)">1.53 KB</text></g><g clip-path="url(#clip35)"><text fill="#595959" font-family="Calibri,Calibri_MSFontService,sans-serif" font-weight="400" font-size="41" transform="matrix(6.12323e-17 -1 1 6.12323e-17 4388.51 3065)">17.5 KB</text></g><g clip-path="url(#clip36)"><text fill="#595959" font-family="Calibri,Calibri_MSFontService,sans-serif" font-weight="400" font-size="41" transform="matrix(6.12323e-17 -1 1 6.12323e-17 4469.27 3295)">16 KB (min. Entropie)</text></g><g clip-path="url(#clip37)"><text fill="#595959" font-family="Calibri,Calibri_MSFontService,sans-serif" font-weight="400" font-size="41" transform="matrix(6.12323e-17 -1 1 6.12323e-17 4550.02 3186)">16.8 KB (binär)</text></g><g clip-path="url(#clip38)"><text fill="#595959" font-family="Calibri,Calibri_MSFontService,sans-serif" font-weight="400" font-size="41" transform="matrix(6.12323e-17 -1 1 6.12323e-17 4630.77 3065)">67 Byte</text></g><g clip-path="url(#clip39)"><text fill="#595959" font-family="Calibri,Calibri_MSFontService,sans-serif" font-weight="400" font-size="41" transform="matrix(6.12323e-17 -1 1 6.12323e-17 4711.53 3065)">1.53 KB</text></g><g clip-path="url(#clip40)"><text fill="#595959" font-family="Calibri,Calibri_MSFontService,sans-serif" font-weight="400" font-size="41" transform="matrix(6.12323e-17 -1 1 6.12323e-17 4792.28 3065)">17.5 KB</text></g><g clip-path="url(#clip41)"><text fill="#595959" font-family="Calibri,Calibri_MSFontService,sans-serif" font-weight="400" font-size="41" transform="matrix(6.12323e-17 -1 1 6.12323e-17 4873.03 3295)">16 KB (min. Entropie)</text></g><g clip-path="url(#clip42)"><text fill="#595959" font-family="Calibri,Calibri_MSFontService,sans-serif" font-weight="400" font-size="41" transform="matrix(1 0 0 1 3123.51 3364)">jsteg</text></g><g clip-path="url(#clip43)"><text fill="#595959" font-family="Calibri,Calibri_MSFontService,sans-serif" font-weight="400" font-size="41" transform="matrix(1 0 0 1 3491.59 3364)">outguess</text></g><g clip-path="url(#clip44)"><text fill="#595959" font-family="Calibri,Calibri_MSFontService,sans-serif" font-weight="400" font-size="41" transform="matrix(1 0 0 1 3852.49 3364)">outguess-0.13</text></g><g clip-path="url(#clip45)"><text fill="#595959" font-family="Calibri,Calibri_MSFontService,sans-serif" font-weight="400" font-size="41" transform="matrix(1 0 0 1 4303.06 3364)">steghide</text></g><g clip-path="url(#clip46)"><text fill="#595959" font-family="Calibri,Calibri_MSFontService,sans-serif" font-weight="400" font-size="41" transform="matrix(1 0 0 1 4721.34 3364)">f5</text></g><g clip-path="url(#clip47)"><text fill="#595959" font-family="Calibri,Calibri_MSFontService,sans-serif" font-weight="400" font-size="64" transform="matrix(1 0 0 1 3354.19 2227)">durchschn. </text></g><g clip-path="url(#clip48)"><text fill="#595959" font-family="Calibri,Calibri_MSFontService,sans-serif" font-weight="700" font-size="64" transform="matrix(1 0 0 1 3654.23 2227)">Dateigröße</text></g><g clip-path="url(#clip49)"><text fill="#595959" font-family="Calibri,Calibri_MSFontService,sans-serif" font-weight="400" font-size="64" transform="matrix(1 0 0 1 3964.66 2227)">(bows2</text></g><g clip-path="url(#clip50)"><text fill="#595959" font-family="Calibri,Calibri_MSFontService,sans-serif" font-weight="400" font-size="64" transform="matrix(1 0 0 1 4154.34 2227)">-</text></g><g clip-path="url(#clip51)"><text fill="#595959" font-family="Calibri,Calibri_MSFontService,sans-serif" font-weight="400" font-size="64" transform="matrix(1 0 0 1 4173.98 2227)">Bilder)</text></g><g clip-path="url(#clip52)"><text fill="#595959" font-family="Calibri,Calibri_MSFontService,sans-serif" font-weight="400" font-size="46" transform="matrix(1 0 0 1 3803.15 2288)">in KB</text></g><g clip-path="url(#clip53)"><rect x="3358.5" y="3428.5" width="22" height="23" stroke="#333F50" stroke-width="3.4375" stroke-linejoin="round" stroke-miterlimit="10" fill="#8497B0"/></g><g clip-path="url(#clip54)"><text fill="#595959" font-family="Calibri,Calibri_MSFontService,sans-serif" font-weight="400" font-size="41" transform="matrix(1 0 0 1 3390.44 3452)">kein Schlüssel</text></g><g clip-path="url(#clip55)"><rect x="3680.5" y="3428.5" width="23" height="23" stroke="#BF9000" stroke-width="3.4375" stroke-linejoin="round" stroke-miterlimit="10" fill="#FFD966"/></g><g clip-path="url(#clip56)"><text fill="#595959" font-family="Calibri,Calibri_MSFontService,sans-serif" font-weight="400" font-size="41" transform="matrix(1 0 0 1 3713.04 3452)">4 Byte Schlüssel</text></g><g clip-path="url(#clip57)"><rect x="4038.5" y="3428.5" width="23" height="23" stroke="#548235" stroke-width="3.4375" stroke-linejoin="round" stroke-miterlimit="10" fill="#A9D18E"/></g><g clip-path="url(#clip58)"><text fill="#595959" font-family="Calibri,Calibri_MSFontService,sans-serif" font-weight="400" font-size="41" transform="matrix(1 0 0 1 4070.91 3452)">50 Byte Schlüssel</text></g><rect x="2750.5" y="2131.5" width="2200" height="1375" stroke="#D9D9D9" stroke-width="3.4375" stroke-linejoin="round" stroke-miterlimit="10" fill="none"/></g></svg>