<svg width="2203" height="1376" xmlns="http://www.w3.org/2000/svg" xmlns:xlink="http://www.w3.org/1999/xlink" xml:space="preserve" overflow="hidden"><defs><clipPath id="clip0"><rect x="274" y="2201" width="2203" height="1376"/></clipPath><clipPath id="clip1"><rect x="275" y="2201" width="2200" height="1374"/></clipPath><clipPath id="clip2"><rect x="405" y="2427" width="2023" height="557"/></clipPath><clipPath id="clip3"><rect x="405" y="2427" width="2023" height="557"/></clipPath><clipPath id="clip4"><rect x="405" y="2427" width="2023" height="557"/></clipPath><clipPath id="clip5"><rect x="275" y="2201" width="2200" height="1374"/></clipPath><clipPath id="clip6"><rect x="275" y="2201" width="2200" height="1374"/></clipPath><clipPath id="clip7"><rect x="275" y="2201" width="2200" height="1374"/></clipPath><clipPath id="clip8"><rect x="275" y="2201" width="2200" height="1374"/></clipPath><clipPath id="clip9"><rect x="275" y="2201" width="2200" height="1374"/></clipPath><clipPath id="clip10"><rect x="275" y="2201" width="2200" height="1374"/></clipPath><clipPath id="clip11"><rect x="275" y="2201" width="2200" height="1374"/></clipPath><clipPath id="clip12"><rect x="275" y="2201" width="2200" height="1374"/></clipPath><clipPath id="clip13"><rect x="275" y="2201" width="2200" height="1374"/></clipPath><clipPath id="clip14"><rect x="275" y="2201" width="2200" height="1374"/></clipPath><clipPath id="clip15"><rect x="275" y="2201" width="2200" height="1374"/></clipPath><clipPath id="clip16"><rect x="275" y="2201" width="2200" height="1374"/></clipPath><clipPath id="clip17"><rect x="275" y="2201" width="2200" height="1374"/></clipPath><clipPath id="clip18"><rect x="275" y="2201" width="2200" height="1374"/></clipPath><clipPath id="clip19"><rect x="275" y="2201" width="2200" height="1374"/></clipPath><clipPath id="clip20"><rect x="275" y="2201" width="2200" height="1374"/></clipPath><clipPath id="clip21"><rect x="275" y="2201" width="2200" height="1374"/></clipPath><clipPath id="clip22"><rect x="275" y="2201" width="2200" height="1374"/></clipPath><clipPath id="clip23"><rect x="275" y="2201" width="2200" height="1374"/></clipPath><clipPath id="clip24"><rect x="275" y="2201" width="2200" height="1374"/></clipPath><clipPath id="clip25"><rect x="275" y="2201" width="2200" height="1374"/></clipPath><clipPath id="clip26"><rect x="275" y="2201" width="2200" height="1374"/></clipPath><clipPath id="clip27"><rect x="275" y="2201" width="2200" height="1374"/></clipPath><clipPath id="clip28"><rect x="275" y="2201" width="2200" height="1374"/></clipPath><clipPath id="clip29"><rect x="275" y="2201" width="2200" height="1374"/></clipPath><clipPath id="clip30"><rect x="275" y="2201" width="2200" height="1374"/></clipPath><clipPath id="clip31"><rect x="275" y="2201" width="2200" height="1374"/></clipPath><clipPath id="clip32"><rect x="275" y="2201" width="2200" height="1374"/></clipPath><clipPath id="clip33"><rect x="275" y="2201" width="2200" height="1374"/></clipPath><clipPath id="clip34"><rect x="275" y="2201" width="2200" height="1374"/></clipPath><clipPath id="clip35"><rect x="275" y="2201" width="2200" height="1374"/></clipPath><clipPath id="clip36"><rect x="275" y="2201" width="2200" height="1374"/></clipPath><clipPath id="clip37"><rect x="275" y="2201" width="2200" height="1374"/></clipPath><clipPath id="clip38"><rect x="275" y="2201" width="2200" height="1374"/></clipPath><clipPath id="clip39"><rect x="275" y="2201" width="2200" height="1374"/></clipPath><clipPath id="clip40"><rect x="275" y="2201" width="2200" height="1374"/></clipPath><clipPath id="clip41"><rect x="275" y="2201" width="2200" height="1374"/></clipPath><clipPath id="clip42"><rect x="275" y="2201" width="2200" height="1374"/></clipPath><clipPath id="clip43"><rect x="275" y="2201" width="2200" height="1374"/></clipPath><clipPath id="clip44"><rect x="275" y="2201" width="2200" height="1374"/></clipPath><clipPath id="clip45"><rect x="275" y="2201" width="2200" height="1374"/></clipPath><clipPath id="clip46"><rect x="275" y="2201" width="2200" height="1374"/></clipPath><clipPath id="clip47"><rect x="275" y="2201" width="2200" height="1374"/></clipPath><clipPath id="clip48"><rect x="275" y="2201" width="2200" height="1374"/></clipPath><clipPath id="clip49"><rect x="275" y="2201" width="2200" height="1374"/></clipPath><clipPath id="clip50"><rect x="275" y="2201" width="2200" height="1374"/></clipPath><clipPath id="clip51"><rect x="275" y="2201" width="2200" height="1374"/></clipPath><clipPath id="clip52"><rect x="275" y="2201" width="2200" height="1374"/></clipPath><clipPath id="clip53"><rect x="275" y="2201" width="2200" height="1374"/></clipPath><clipPath id="clip54"><rect x="275" y="2201" width="2200" height="1374"/></clipPath><clipPath id="clip55"><rect x="275" y="2201" width="2200" height="1374"/></clipPath><clipPath id="clip56"><rect x="275" y="2201" width="2200" height="1374"/></clipPath><clipPath id="clip57"><rect x="275" y="2201" width="2200" height="1374"/></clipPath><clipPath id="clip58"><rect x="275" y="2201" width="2200" height="1374"/></clipPath></defs><g clip-path="url(#clip0)" transform="translate(-274 -2201)"><rect x="275" y="2202" width="2200" height="1373" fill="#FFFFFF"/><g clip-path="url(#clip1)"><path d="M405.5 2901.6 2424.5 2901.6M405.5 2822.59 2424.5 2822.59M405.5 2743.59 2424.5 2743.59M405.5 2664.59 2424.5 2664.59M405.5 2585.58 2424.5 2585.58M405.5 2506.58 2424.5 2506.58M405.5 2427.5 2424.5 2427.5" stroke="#D9D9D9" stroke-width="3.4375" stroke-linejoin="round" stroke-miterlimit="10" fill="none"/></g><g clip-path="url(#clip2)"><path d="M420.514 2566.58 434.514 2566.58 434.514 2981.5 420.514 2981.5ZM498.517 2729.59 511.517 2729.59 511.517 2981.5 498.517 2981.5ZM575.519 2818.59 589.52 2818.59 589.52 2981.5 575.519 2981.5ZM653.522 2820.59 667.522 2820.59 667.522 2981.5 653.522 2981.5ZM731.524 2825.59 744.525 2825.59 744.525 2981.5 731.524 2981.5ZM808.527 2826.59 822.527 2826.59 822.527 2981.5 808.527 2981.5ZM886.529 2826.59 900.53 2826.59 900.53 2981.5 886.529 2981.5ZM964.532 2817.59 977.532 2817.59 977.532 2981.5 964.532 2981.5ZM1041.53 2790.59 1055.53 2790.59 1055.53 2981.5 1041.53 2981.5ZM1352.54 2817.59 1365.54 2817.59 1365.54 2981.5 1352.54 2981.5ZM1429.55 2782.59 1443.55 2782.59 1443.55 2981.5 1429.55 2981.5ZM2128.57 2769.59 2142.57 2769.59 2142.57 2981.5 2128.57 2981.5ZM2206.57 2775.59 2219.57 2775.59 2219.57 2981.5 2206.57 2981.5ZM2284.58 2800.59 2297.58 2800.59 2297.58 2981.5 2284.58 2981.5ZM2361.58 2800.59 2375.58 2800.59 2375.58 2981.5 2361.58 2981.5Z" stroke="#333F50" stroke-width="3.4375" stroke-linejoin="round" stroke-miterlimit="10" fill="#8497B0"/></g><g clip-path="url(#clip3)"><path d="M981.532 2817.59 994.533 2817.59 994.533 2981.5 981.532 2981.5ZM1058.53 2790.59 1072.54 2790.59 1072.54 2981.5 1058.53 2981.5ZM1369.55 2817.59 1383.55 2817.59 1383.55 2981.5 1369.55 2981.5ZM1447.55 2782.59 1460.55 2782.59 1460.55 2981.5 1447.55 2981.5ZM1757.56 2509.58 1771.56 2509.58 1771.56 2981.5 1757.56 2981.5ZM1835.56 2508.58 1848.56 2508.58 1848.56 2981.5 1835.56 2981.5ZM1913.56 2508.58 1926.56 2508.58 1926.56 2981.5 1913.56 2981.5ZM1990.57 2509.58 2004.57 2509.58 2004.57 2981.5 1990.57 2981.5ZM2068.57 2507.58 2081.57 2507.58 2081.57 2981.5 2068.57 2981.5ZM2145.57 2769.59 2159.57 2769.59 2159.57 2981.5 2145.57 2981.5ZM2223.57 2775.59 2237.57 2775.59 2237.57 2981.5 2223.57 2981.5ZM2301.58 2800.59 2314.58 2800.59 2314.58 2981.5 2301.58 2981.5ZM2378.58 2800.59 2392.58 2800.59 2392.58 2981.5 2378.58 2981.5Z" stroke="#BF9000" stroke-width="3.4375" stroke-linejoin="round" stroke-miterlimit="10" fill="#FFD966"/></g><g clip-path="url(#clip4)"><path d="M998.533 2817.59 1012.53 2817.59 1012.53 2981.5 998.533 2981.5ZM1076.54 2790.59 1089.54 2790.59 1089.54 2981.5 1076.54 2981.5ZM1386.55 2817.59 1400.55 2817.59 1400.55 2981.5 1386.55 2981.5ZM1464.55 2782.59 1477.55 2782.59 1477.55 2981.5 1464.55 2981.5ZM1774.56 2566.58 1788.56 2566.58 1788.56 2981.5 1774.56 2981.5ZM1852.56 2566.58 1866.56 2566.58 1866.56 2981.5 1852.56 2981.5ZM1930.56 2565.58 1943.56 2565.58 1943.56 2981.5 1930.56 2981.5ZM2007.57 2564.58 2021.57 2564.58 2021.57 2981.5 2007.57 2981.5ZM2085.57 2585.58 2099.57 2585.58 2099.57 2981.5 2085.57 2981.5ZM2163.57 2769.59 2176.57 2769.59 2176.57 2981.5 2163.57 2981.5ZM2240.57 2775.59 2254.57 2775.59 2254.57 2981.5 2240.57 2981.5ZM2318.58 2800.59 2332.58 2800.59 2332.58 2981.5 2318.58 2981.5ZM2396.58 2800.59 2409.58 2800.59 2409.58 2981.5 2396.58 2981.5Z" stroke="#548235" stroke-width="3.4375" stroke-linejoin="round" stroke-miterlimit="10" fill="#A9D18E"/></g><g clip-path="url(#clip5)"><path d="M405.5 2981.5 2424.5 2981.5" stroke="#D9D9D9" stroke-width="3.4375" stroke-linejoin="round" stroke-miterlimit="10" fill="none" fill-rule="evenodd"/></g><g clip-path="url(#clip6)"><path d="M405.5 2981.5 405.5 3367.5M561.519 2981.5 561.519 3367.5M949.531 2981.5 949.531 3367.5M1337.54 2981.5 1337.54 3367.5M1725.56 2981.5 1725.56 3367.5M2113.57 2981.5 2113.57 3367.5M2424.5 2981.5 2424.5 3367.5" stroke="#D9D9D9" stroke-width="3.4375" stroke-linejoin="round" stroke-miterlimit="10" fill="none"/></g><g clip-path="url(#clip7)"><path d="M405.5 3367.5 405.5 3447.5M561.519 3367.5 561.519 3447.5M949.531 3367.5 949.531 3447.5M1337.54 3367.5 1337.54 3447.5M1725.56 3367.5 1725.56 3447.5M2113.57 3367.5 2113.57 3447.5M2424.5 3367.5 2424.5 3447.5" stroke="#D9D9D9" stroke-width="3.4375" stroke-linejoin="round" stroke-miterlimit="10" fill="none"/></g><g clip-path="url(#clip8)"><text fill="#595959" font-family="Calibri,Calibri_MSFontService,sans-serif" font-weight="400" font-size="41" transform="matrix(1 0 0 1 346.592 2993)">0</text></g><g clip-path="url(#clip9)"><text fill="#595959" font-family="Calibri,Calibri_MSFontService,sans-serif" font-weight="400" font-size="41" transform="matrix(1 0 0 1 325.692 2914)">20</text></g><g clip-path="url(#clip10)"><text fill="#595959" font-family="Calibri,Calibri_MSFontService,sans-serif" font-weight="400" font-size="41" transform="matrix(1 0 0 1 325.692 2834)">40</text></g><g clip-path="url(#clip11)"><text fill="#595959" font-family="Calibri,Calibri_MSFontService,sans-serif" font-weight="400" font-size="41" transform="matrix(1 0 0 1 325.692 2755)">60</text></g><g clip-path="url(#clip12)"><text fill="#595959" font-family="Calibri,Calibri_MSFontService,sans-serif" font-weight="400" font-size="41" transform="matrix(1 0 0 1 325.692 2676)">80</text></g><g clip-path="url(#clip13)"><text fill="#595959" font-family="Calibri,Calibri_MSFontService,sans-serif" font-weight="400" font-size="41" transform="matrix(1 0 0 1 304.792 2597)">100</text></g><g clip-path="url(#clip14)"><text fill="#595959" font-family="Calibri,Calibri_MSFontService,sans-serif" font-weight="400" font-size="41" transform="matrix(1 0 0 1 304.792 2518)">120</text></g><g clip-path="url(#clip15)"><text fill="#595959" font-family="Calibri,Calibri_MSFontService,sans-serif" font-weight="400" font-size="41" transform="matrix(1 0 0 1 304.792 2439)">140</text></g><g clip-path="url(#clip16)"><text fill="#595959" font-family="Calibri,Calibri_MSFontService,sans-serif" font-weight="400" font-size="41" transform="matrix(6.12323e-17 -1 1 6.12323e-17 458.408 3214)">Original-Bild</text></g><g clip-path="url(#clip17)"><text fill="#595959" font-family="Calibri,Calibri_MSFontService,sans-serif" font-weight="400" font-size="41" transform="matrix(6.12323e-17 -1 1 6.12323e-17 536.055 3318)">JPEG-Kompression</text></g><g clip-path="url(#clip18)"><text fill="#595959" font-family="Calibri,Calibri_MSFontService,sans-serif" font-weight="400" font-size="41" transform="matrix(6.12323e-17 -1 1 6.12323e-17 613.702 3134)">67 Byte</text></g><g clip-path="url(#clip19)"><text fill="#595959" font-family="Calibri,Calibri_MSFontService,sans-serif" font-weight="400" font-size="41" transform="matrix(6.12323e-17 -1 1 6.12323e-17 691.349 3133)">1.53 KB</text></g><g clip-path="url(#clip20)"><text fill="#595959" font-family="Calibri,Calibri_MSFontService,sans-serif" font-weight="400" font-size="41" transform="matrix(6.12323e-17 -1 1 6.12323e-17 768.996 3133)">17.5 KB</text></g><g clip-path="url(#clip21)"><text fill="#595959" font-family="Calibri,Calibri_MSFontService,sans-serif" font-weight="400" font-size="41" transform="matrix(6.12323e-17 -1 1 6.12323e-17 846.644 3364)">16 KB (min. Entropie)</text></g><g clip-path="url(#clip22)"><text fill="#595959" font-family="Calibri,Calibri_MSFontService,sans-serif" font-weight="400" font-size="41" transform="matrix(6.12323e-17 -1 1 6.12323e-17 924.291 3255)">16.8 KB (binär)</text></g><g clip-path="url(#clip23)"><text fill="#595959" font-family="Calibri,Calibri_MSFontService,sans-serif" font-weight="400" font-size="41" transform="matrix(6.12323e-17 -1 1 6.12323e-17 1001.94 3134)">67 Byte</text></g><g clip-path="url(#clip24)"><text fill="#595959" font-family="Calibri,Calibri_MSFontService,sans-serif" font-weight="400" font-size="41" transform="matrix(6.12323e-17 -1 1 6.12323e-17 1079.58 3133)">1.53 KB</text></g><g clip-path="url(#clip25)"><text fill="#595959" font-family="Calibri,Calibri_MSFontService,sans-serif" font-weight="400" font-size="41" transform="matrix(6.12323e-17 -1 1 6.12323e-17 1157.23 3133)">17.5 KB</text></g><g clip-path="url(#clip26)"><text fill="#595959" font-family="Calibri,Calibri_MSFontService,sans-serif" font-weight="400" font-size="41" transform="matrix(6.12323e-17 -1 1 6.12323e-17 1234.88 3364)">16 KB (min. Entropie)</text></g><g clip-path="url(#clip27)"><text fill="#595959" font-family="Calibri,Calibri_MSFontService,sans-serif" font-weight="400" font-size="41" transform="matrix(6.12323e-17 -1 1 6.12323e-17 1312.53 3255)">16.8 KB (binär)</text></g><g clip-path="url(#clip28)"><text fill="#595959" font-family="Calibri,Calibri_MSFontService,sans-serif" font-weight="400" font-size="41" transform="matrix(6.12323e-17 -1 1 6.12323e-17 1390.17 3134)">67 Byte</text></g><g clip-path="url(#clip29)"><text fill="#595959" font-family="Calibri,Calibri_MSFontService,sans-serif" font-weight="400" font-size="41" transform="matrix(6.12323e-17 -1 1 6.12323e-17 1467.82 3133)">1.53 KB</text></g><g clip-path="url(#clip30)"><text fill="#595959" font-family="Calibri,Calibri_MSFontService,sans-serif" font-weight="400" font-size="41" transform="matrix(6.12323e-17 -1 1 6.12323e-17 1545.47 3133)">17.5 KB</text></g><g clip-path="url(#clip31)"><text fill="#595959" font-family="Calibri,Calibri_MSFontService,sans-serif" font-weight="400" font-size="41" transform="matrix(6.12323e-17 -1 1 6.12323e-17 1623.11 3364)">16 KB (min. Entropie)</text></g><g clip-path="url(#clip32)"><text fill="#595959" font-family="Calibri,Calibri_MSFontService,sans-serif" font-weight="400" font-size="41" transform="matrix(6.12323e-17 -1 1 6.12323e-17 1700.76 3255)">16.8 KB (binär)</text></g><g clip-path="url(#clip33)"><text fill="#595959" font-family="Calibri,Calibri_MSFontService,sans-serif" font-weight="400" font-size="41" transform="matrix(6.12323e-17 -1 1 6.12323e-17 1778.41 3134)">67 Byte</text></g><g clip-path="url(#clip34)"><text fill="#595959" font-family="Calibri,Calibri_MSFontService,sans-serif" font-weight="400" font-size="41" transform="matrix(6.12323e-17 -1 1 6.12323e-17 1856.06 3133)">1.53 KB</text></g><g clip-path="url(#clip35)"><text fill="#595959" font-family="Calibri,Calibri_MSFontService,sans-serif" font-weight="400" font-size="41" transform="matrix(6.12323e-17 -1 1 6.12323e-17 1933.7 3133)">17.5 KB</text></g><g clip-path="url(#clip36)"><text fill="#595959" font-family="Calibri,Calibri_MSFontService,sans-serif" font-weight="400" font-size="41" transform="matrix(6.12323e-17 -1 1 6.12323e-17 2011.35 3364)">16 KB (min. Entropie)</text></g><g clip-path="url(#clip37)"><text fill="#595959" font-family="Calibri,Calibri_MSFontService,sans-serif" font-weight="400" font-size="41" transform="matrix(6.12323e-17 -1 1 6.12323e-17 2089 3255)">16.8 KB (binär)</text></g><g clip-path="url(#clip38)"><text fill="#595959" font-family="Calibri,Calibri_MSFontService,sans-serif" font-weight="400" font-size="41" transform="matrix(6.12323e-17 -1 1 6.12323e-17 2166.64 3134)">67 Byte</text></g><g clip-path="url(#clip39)"><text fill="#595959" font-family="Calibri,Calibri_MSFontService,sans-serif" font-weight="400" font-size="41" transform="matrix(6.12323e-17 -1 1 6.12323e-17 2244.29 3133)">1.53 KB</text></g><g clip-path="url(#clip40)"><text fill="#595959" font-family="Calibri,Calibri_MSFontService,sans-serif" font-weight="400" font-size="41" transform="matrix(6.12323e-17 -1 1 6.12323e-17 2321.94 3133)">17.5 KB</text></g><g clip-path="url(#clip41)"><text fill="#595959" font-family="Calibri,Calibri_MSFontService,sans-serif" font-weight="400" font-size="41" transform="matrix(6.12323e-17 -1 1 6.12323e-17 2399.59 3364)">16 KB (min. Entropie)</text></g><g clip-path="url(#clip42)"><text fill="#595959" font-family="Calibri,Calibri_MSFontService,sans-serif" font-weight="400" font-size="41" transform="matrix(1 0 0 1 715.284 3432)">jsteg</text></g><g clip-path="url(#clip43)"><text fill="#595959" font-family="Calibri,Calibri_MSFontService,sans-serif" font-weight="400" font-size="41" transform="matrix(1 0 0 1 1067.84 3432)">outguess</text></g><g clip-path="url(#clip44)"><text fill="#595959" font-family="Calibri,Calibri_MSFontService,sans-serif" font-weight="400" font-size="41" transform="matrix(1 0 0 1 1413.21 3432)">outguess-0.13</text></g><g clip-path="url(#clip45)"><text fill="#595959" font-family="Calibri,Calibri_MSFontService,sans-serif" font-weight="400" font-size="41" transform="matrix(1 0 0 1 1848.25 3432)">steghide</text></g><g clip-path="url(#clip46)"><text fill="#595959" font-family="Calibri,Calibri_MSFontService,sans-serif" font-weight="400" font-size="41" transform="matrix(1 0 0 1 2252.55 3432)">f5</text></g><g clip-path="url(#clip47)"><text fill="#595959" font-family="Calibri,Calibri_MSFontService,sans-serif" font-weight="400" font-size="64" transform="matrix(1 0 0 1 786.568 2297)">durchschnittliche </text></g><g clip-path="url(#clip48)"><text fill="#595959" font-family="Calibri,Calibri_MSFontService,sans-serif" font-weight="700" font-size="64" transform="matrix(1 0 0 1 1249.46 2297)">Dateigröße</text></g><g clip-path="url(#clip49)"><text fill="#595959" font-family="Calibri,Calibri_MSFontService,sans-serif" font-weight="400" font-size="64" transform="matrix(1 0 0 1 1559.89 2297)">(alaska2</text></g><g clip-path="url(#clip50)"><text fill="#595959" font-family="Calibri,Calibri_MSFontService,sans-serif" font-weight="400" font-size="64" transform="matrix(1 0 0 1 1771.96 2297)">-</text></g><g clip-path="url(#clip51)"><text fill="#595959" font-family="Calibri,Calibri_MSFontService,sans-serif" font-weight="400" font-size="64" transform="matrix(1 0 0 1 1791.6 2297)">Bilder)</text></g><g clip-path="url(#clip52)"><text fill="#595959" font-family="Calibri,Calibri_MSFontService,sans-serif" font-weight="400" font-size="46" transform="matrix(1 0 0 1 1328.14 2358)">in KB</text></g><g clip-path="url(#clip53)"><rect x="883.5" y="3497.5" width="22" height="22.9998" stroke="#333F50" stroke-width="3.4375" stroke-linejoin="round" stroke-miterlimit="10" fill="#8497B0"/></g><g clip-path="url(#clip54)"><text fill="#595959" font-family="Calibri,Calibri_MSFontService,sans-serif" font-weight="400" font-size="41" transform="matrix(1 0 0 1 915.444 3520)">kein Schlüssel</text></g><g clip-path="url(#clip55)"><rect x="1205.5" y="3497.5" width="23" height="22.9998" stroke="#BF9000" stroke-width="3.4375" stroke-linejoin="round" stroke-miterlimit="10" fill="#FFD966"/></g><g clip-path="url(#clip56)"><text fill="#595959" font-family="Calibri,Calibri_MSFontService,sans-serif" font-weight="400" font-size="41" transform="matrix(1 0 0 1 1238.04 3520)">4 Byte Schlüssel</text></g><g clip-path="url(#clip57)"><rect x="1563.5" y="3497.5" width="23" height="22.9998" stroke="#548235" stroke-width="3.4375" stroke-linejoin="round" stroke-miterlimit="10" fill="#A9D18E"/></g><g clip-path="url(#clip58)"><text fill="#595959" font-family="Calibri,Calibri_MSFontService,sans-serif" font-weight="400" font-size="41" transform="matrix(1 0 0 1 1595.91 3520)">50 Byte Schlüssel</text></g><rect x="275.5" y="2202.5" width="2200" height="1373" stroke="#D9D9D9" stroke-width="3.4375" stroke-linejoin="round" stroke-miterlimit="10" fill="none"/></g></svg>