<svg width="2203" height="1378" xmlns="http://www.w3.org/2000/svg" xmlns:xlink="http://www.w3.org/1999/xlink" xml:space="preserve" overflow="hidden"><defs><clipPath id="clip0"><rect x="2749" y="2130" width="2203" height="1378"/></clipPath><clipPath id="clip1"><rect x="2750" y="2131" width="2200" height="1375"/></clipPath><clipPath id="clip2"><rect x="2891" y="2301" width="2012" height="614"/></clipPath><clipPath id="clip3"><rect x="2891" y="2301" width="2012" height="614"/></clipPath><clipPath id="clip4"><rect x="2891" y="2301" width="2012" height="614"/></clipPath><clipPath id="clip5"><rect x="2750" y="2131" width="2200" height="1375"/></clipPath><clipPath id="clip6"><rect x="2750" y="2131" width="2200" height="1375"/></clipPath><clipPath id="clip7"><rect x="2750" y="2131" width="2200" height="1375"/></clipPath><clipPath id="clip8"><rect x="2750" y="2131" width="2200" height="1375"/></clipPath><clipPath id="clip9"><rect x="2750" y="2131" width="2200" height="1375"/></clipPath><clipPath id="clip10"><rect x="2750" y="2131" width="2200" height="1375"/></clipPath><clipPath id="clip11"><rect x="2750" y="2131" width="2200" height="1375"/></clipPath><clipPath id="clip12"><rect x="2750" y="2131" width="2200" height="1375"/></clipPath><clipPath id="clip13"><rect x="2750" y="2131" width="2200" height="1375"/></clipPath><clipPath id="clip14"><rect x="2750" y="2131" width="2200" height="1375"/></clipPath><clipPath id="clip15"><rect x="2750" y="2131" width="2200" height="1375"/></clipPath><clipPath id="clip16"><rect x="2750" y="2131" width="2200" height="1375"/></clipPath><clipPath id="clip17"><rect x="2750" y="2131" width="2200" height="1375"/></clipPath><clipPath id="clip18"><rect x="2750" y="2131" width="2200" height="1375"/></clipPath><clipPath id="clip19"><rect x="2750" y="2131" width="2200" height="1375"/></clipPath><clipPath id="clip20"><rect x="2750" y="2131" width="2200" height="1375"/></clipPath><clipPath id="clip21"><rect x="2750" y="2131" width="2200" height="1375"/></clipPath><clipPath id="clip22"><rect x="2750" y="2131" width="2200" height="1375"/></clipPath><clipPath id="clip23"><rect x="2750" y="2131" width="2200" height="1375"/></clipPath><clipPath id="clip24"><rect x="2750" y="2131" width="2200" height="1375"/></clipPath><clipPath id="clip25"><rect x="2750" y="2131" width="2200" height="1375"/></clipPath><clipPath id="clip26"><rect x="2750" y="2131" width="2200" height="1375"/></clipPath><clipPath id="clip27"><rect x="2750" y="2131" width="2200" height="1375"/></clipPath><clipPath id="clip28"><rect x="2750" y="2131" width="2200" height="1375"/></clipPath><clipPath id="clip29"><rect x="2750" y="2131" width="2200" height="1375"/></clipPath><clipPath id="clip30"><rect x="2750" y="2131" width="2200" height="1375"/></clipPath><clipPath id="clip31"><rect x="2750" y="2131" width="2200" height="1375"/></clipPath><clipPath id="clip32"><rect x="2750" y="2131" width="2200" height="1375"/></clipPath><clipPath id="clip33"><rect x="2750" y="2131" width="2200" height="1375"/></clipPath><clipPath id="clip34"><rect x="2750" y="2131" width="2200" height="1375"/></clipPath><clipPath id="clip35"><rect x="2750" y="2131" width="2200" height="1375"/></clipPath><clipPath id="clip36"><rect x="2750" y="2131" width="2200" height="1375"/></clipPath><clipPath id="clip37"><rect x="2750" y="2131" width="2200" height="1375"/></clipPath><clipPath id="clip38"><rect x="2750" y="2131" width="2200" height="1375"/></clipPath><clipPath id="clip39"><rect x="2750" y="2131" width="2200" height="1375"/></clipPath><clipPath id="clip40"><rect x="2750" y="2131" width="2200" height="1375"/></clipPath><clipPath id="clip41"><rect x="2750" y="2131" width="2200" height="1375"/></clipPath><clipPath id="clip42"><rect x="2750" y="2131" width="2200" height="1375"/></clipPath><clipPath id="clip43"><rect x="2750" y="2131" width="2200" height="1375"/></clipPath><clipPath id="clip44"><rect x="2750" y="2131" width="2200" height="1375"/></clipPath><clipPath id="clip45"><rect x="2750" y="2131" width="2200" height="1375"/></clipPath><clipPath id="clip46"><rect x="2750" y="2131" width="2200" height="1375"/></clipPath><clipPath id="clip47"><rect x="2750" y="2131" width="2200" height="1375"/></clipPath><clipPath id="clip48"><rect x="2750" y="2131" width="2200" height="1375"/></clipPath><clipPath id="clip49"><rect x="2750" y="2131" width="2200" height="1375"/></clipPath><clipPath id="clip50"><rect x="2750" y="2131" width="2200" height="1375"/></clipPath><clipPath id="clip51"><rect x="2750" y="2131" width="2200" height="1375"/></clipPath><clipPath id="clip52"><rect x="2750" y="2131" width="2200" height="1375"/></clipPath><clipPath id="clip53"><rect x="2750" y="2131" width="2200" height="1375"/></clipPath><clipPath id="clip54"><rect x="2750" y="2131" width="2200" height="1375"/></clipPath><clipPath id="clip55"><rect x="2750" y="2131" width="2200" height="1375"/></clipPath></defs><g clip-path="url(#clip0)" transform="translate(-2749 -2130)"><rect x="2750" y="2131" width="2200" height="1375" fill="#FFFFFF"/><g clip-path="url(#clip1)"><path d="M2891.5 2810.59 4899.5 2810.59M2891.5 2708.59 4899.5 2708.59M2891.5 2606.59 4899.5 2606.59M2891.5 2504.58 4899.5 2504.58M2891.5 2403.58 4899.5 2403.58M2891.5 2301.5 4899.5 2301.5" stroke="#D9D9D9" stroke-width="3.4375" stroke-linejoin="round" stroke-miterlimit="10" fill="none"/></g><g clip-path="url(#clip2)"><path d="M2906.6 2562.58 2920.6 2562.58 2920.6 2912.5 2906.6 2912.5ZM2986.6 2598.59 3000.6 2598.59 3000.6 2912.5 2986.6 2912.5ZM3067.6 2670.59 3081.6 2670.59 3081.6 2912.5 3067.6 2912.5ZM3147.6 2798.59 3161.6 2798.59 3161.6 2912.5 3147.6 2912.5ZM3227.61 2802.59 3241.61 2802.59 3241.61 2912.5 3227.61 2912.5ZM3308.61 2804.59 3322.61 2804.59 3322.61 2912.5 3308.61 2912.5ZM3388.61 2597.59 3402.61 2597.59 3402.61 2912.5 3388.61 2912.5ZM3468.61 2383.58 3482.61 2383.58 3482.61 2912.5 3468.61 2912.5ZM3790.62 2598.59 3804.62 2598.59 3804.62 2912.5 3790.62 2912.5ZM3870.63 2377.58 3884.63 2377.58 3884.63 2912.5 3870.63 2912.5ZM4593.65 2594.59 4607.65 2594.59 4607.65 2912.5 4593.65 2912.5ZM4673.65 2599.59 4687.65 2599.59 4687.65 2912.5 4673.65 2912.5ZM4754.66 2612.59 4768.66 2612.59 4768.66 2912.5 4754.66 2912.5ZM4834.66 2612.59 4848.66 2612.59 4848.66 2912.5 4834.66 2912.5Z" stroke="#333F50" stroke-width="3.4375" stroke-linejoin="round" stroke-miterlimit="10" fill="#8497B0"/></g><g clip-path="url(#clip3)"><path d="M3406.61 2597.59 3420.61 2597.59 3420.61 2912.5 3406.61 2912.5ZM3486.61 2382.58 3500.62 2382.58 3500.62 2912.5 3486.61 2912.5ZM3807.63 2599.59 3821.63 2599.59 3821.63 2912.5 3807.63 2912.5ZM3888.63 2376.58 3902.63 2376.58 3902.63 2912.5 3888.63 2912.5ZM4209.64 2562.58 4223.64 2562.58 4223.64 2912.5 4209.64 2912.5ZM4289.64 2562.58 4303.64 2562.58 4303.64 2912.5 4289.64 2912.5ZM4370.64 2562.58 4384.64 2562.58 4384.64 2912.5 4370.64 2912.5ZM4450.65 2562.58 4464.65 2562.58 4464.65 2912.5 4450.65 2912.5ZM4530.65 2561.58 4544.65 2561.58 4544.65 2912.5 4530.65 2912.5ZM4611.65 2595.59 4625.65 2595.59 4625.65 2912.5 4611.65 2912.5ZM4691.65 2598.59 4705.65 2598.59 4705.65 2912.5 4691.65 2912.5ZM4771.66 2611.59 4785.66 2611.59 4785.66 2912.5 4771.66 2912.5ZM4852.66 2611.59 4866.66 2611.59 4866.66 2912.5 4852.66 2912.5Z" stroke="#BF9000" stroke-width="3.4375" stroke-linejoin="round" stroke-miterlimit="10" fill="#FFD966"/></g><g clip-path="url(#clip4)"><path d="M3424.61 2598.59 3438.61 2598.59 3438.61 2912.5 3424.61 2912.5ZM3504.62 2382.58 3518.62 2382.58 3518.62 2912.5 3504.62 2912.5ZM3825.63 2598.59 3839.63 2598.59 3839.63 2912.5 3825.63 2912.5ZM3906.63 2377.58 3920.63 2377.58 3920.63 2912.5 3906.63 2912.5ZM4227.64 2562.58 4241.64 2562.58 4241.64 2912.5 4227.64 2912.5ZM4307.64 2562.58 4321.64 2562.58 4321.64 2912.5 4307.64 2912.5ZM4388.64 2562.58 4402.64 2562.58 4402.64 2912.5 4388.64 2912.5ZM4468.65 2562.58 4482.65 2562.58 4482.65 2912.5 4468.65 2912.5ZM4548.65 2561.58 4562.65 2561.58 4562.65 2912.5 4548.65 2912.5ZM4629.65 2595.59 4643.65 2595.59 4643.65 2912.5 4629.65 2912.5ZM4709.65 2598.59 4723.66 2598.59 4723.66 2912.5 4709.65 2912.5ZM4789.66 2611.59 4803.66 2611.59 4803.66 2912.5 4789.66 2912.5ZM4870.66 2611.59 4884.66 2611.59 4884.66 2912.5 4870.66 2912.5Z" stroke="#548235" stroke-width="3.4375" stroke-linejoin="round" stroke-miterlimit="10" fill="#A9D18E"/></g><g clip-path="url(#clip5)"><path d="M2891.5 2912.5 4899.5 2912.5" stroke="#D9D9D9" stroke-width="3.4375" stroke-linejoin="round" stroke-miterlimit="10" fill="none" fill-rule="evenodd"/></g><g clip-path="url(#clip6)"><path d="M2891.5 2912.5 2891.5 3298.5M2971.6 2912.5 2971.6 3298.5M3373.61 2912.5 3373.61 3298.5M3774.62 2912.5 3774.62 3298.5M4176.64 2912.5 4176.64 3298.5M4578.65 2912.5 4578.65 3298.5M4899.5 2912.5 4899.5 3298.5" stroke="#D9D9D9" stroke-width="3.4375" stroke-linejoin="round" stroke-miterlimit="10" fill="none"/></g><g clip-path="url(#clip7)"><path d="M2891.5 3298.5 2891.5 3378.5M2971.6 3298.5 2971.6 3378.5M3373.61 3298.5 3373.61 3378.5M3774.62 3298.5 3774.62 3378.5M4176.64 3298.5 4176.64 3378.5M4578.65 3298.5 4578.65 3378.5M4899.5 3298.5 4899.5 3378.5" stroke="#D9D9D9" stroke-width="3.4375" stroke-linejoin="round" stroke-miterlimit="10" fill="none"/></g><g clip-path="url(#clip8)"><text fill="#595959" font-family="Calibri,Calibri_MSFontService,sans-serif" font-weight="400" font-size="41" transform="matrix(1 0 0 1 2779.79 2924)">0.86</text></g><g clip-path="url(#clip9)"><text fill="#595959" font-family="Calibri,Calibri_MSFontService,sans-serif" font-weight="400" font-size="41" transform="matrix(1 0 0 1 2779.79 2822)">0.87</text></g><g clip-path="url(#clip10)"><text fill="#595959" font-family="Calibri,Calibri_MSFontService,sans-serif" font-weight="400" font-size="41" transform="matrix(1 0 0 1 2779.79 2720)">0.88</text></g><g clip-path="url(#clip11)"><text fill="#595959" font-family="Calibri,Calibri_MSFontService,sans-serif" font-weight="400" font-size="41" transform="matrix(1 0 0 1 2779.79 2618)">0.89</text></g><g clip-path="url(#clip12)"><text fill="#595959" font-family="Calibri,Calibri_MSFontService,sans-serif" font-weight="400" font-size="41" transform="matrix(1 0 0 1 2800.69 2516)">0.9</text></g><g clip-path="url(#clip13)"><text fill="#595959" font-family="Calibri,Calibri_MSFontService,sans-serif" font-weight="400" font-size="41" transform="matrix(1 0 0 1 2779.79 2415)">0.91</text></g><g clip-path="url(#clip14)"><text fill="#595959" font-family="Calibri,Calibri_MSFontService,sans-serif" font-weight="400" font-size="41" transform="matrix(1 0 0 1 2779.79 2313)">0.92</text></g><g clip-path="url(#clip15)"><text fill="#595959" font-family="Calibri,Calibri_MSFontService,sans-serif" font-weight="400" font-size="41" transform="matrix(6.12323e-17 -1 1 6.12323e-17 2945.16 3145)">Original-Bild</text></g><g clip-path="url(#clip16)"><text fill="#595959" font-family="Calibri,Calibri_MSFontService,sans-serif" font-weight="400" font-size="41" transform="matrix(6.12323e-17 -1 1 6.12323e-17 3025.49 3065)">67 Byte</text></g><g clip-path="url(#clip17)"><text fill="#595959" font-family="Calibri,Calibri_MSFontService,sans-serif" font-weight="400" font-size="41" transform="matrix(6.12323e-17 -1 1 6.12323e-17 3105.83 3065)">1.53 KB</text></g><g clip-path="url(#clip18)"><text fill="#595959" font-family="Calibri,Calibri_MSFontService,sans-serif" font-weight="400" font-size="41" transform="matrix(6.12323e-17 -1 1 6.12323e-17 3186.17 3065)">17.5 KB</text></g><g clip-path="url(#clip19)"><text fill="#595959" font-family="Calibri,Calibri_MSFontService,sans-serif" font-weight="400" font-size="41" transform="matrix(6.12323e-17 -1 1 6.12323e-17 3266.5 3295)">16 KB (min. Entropie)</text></g><g clip-path="url(#clip20)"><text fill="#595959" font-family="Calibri,Calibri_MSFontService,sans-serif" font-weight="400" font-size="41" transform="matrix(6.12323e-17 -1 1 6.12323e-17 3346.84 3186)">16.8 KB (binär)</text></g><g clip-path="url(#clip21)"><text fill="#595959" font-family="Calibri,Calibri_MSFontService,sans-serif" font-weight="400" font-size="41" transform="matrix(6.12323e-17 -1 1 6.12323e-17 3427.18 3065)">67 Byte</text></g><g clip-path="url(#clip22)"><text fill="#595959" font-family="Calibri,Calibri_MSFontService,sans-serif" font-weight="400" font-size="41" transform="matrix(6.12323e-17 -1 1 6.12323e-17 3507.51 3065)">1.53 KB</text></g><g clip-path="url(#clip23)"><text fill="#595959" font-family="Calibri,Calibri_MSFontService,sans-serif" font-weight="400" font-size="41" transform="matrix(6.12323e-17 -1 1 6.12323e-17 3587.85 3065)">17.5 KB</text></g><g clip-path="url(#clip24)"><text fill="#595959" font-family="Calibri,Calibri_MSFontService,sans-serif" font-weight="400" font-size="41" transform="matrix(6.12323e-17 -1 1 6.12323e-17 3668.19 3295)">16 KB (min. Entropie)</text></g><g clip-path="url(#clip25)"><text fill="#595959" font-family="Calibri,Calibri_MSFontService,sans-serif" font-weight="400" font-size="41" transform="matrix(6.12323e-17 -1 1 6.12323e-17 3748.53 3186)">16.8 KB (binär)</text></g><g clip-path="url(#clip26)"><text fill="#595959" font-family="Calibri,Calibri_MSFontService,sans-serif" font-weight="400" font-size="41" transform="matrix(6.12323e-17 -1 1 6.12323e-17 3828.86 3065)">67 Byte</text></g><g clip-path="url(#clip27)"><text fill="#595959" font-family="Calibri,Calibri_MSFontService,sans-serif" font-weight="400" font-size="41" transform="matrix(6.12323e-17 -1 1 6.12323e-17 3909.2 3065)">1.53 KB</text></g><g clip-path="url(#clip28)"><text fill="#595959" font-family="Calibri,Calibri_MSFontService,sans-serif" font-weight="400" font-size="41" transform="matrix(6.12323e-17 -1 1 6.12323e-17 3989.54 3065)">17.5 KB</text></g><g clip-path="url(#clip29)"><text fill="#595959" font-family="Calibri,Calibri_MSFontService,sans-serif" font-weight="400" font-size="41" transform="matrix(6.12323e-17 -1 1 6.12323e-17 4069.87 3295)">16 KB (min. Entropie)</text></g><g clip-path="url(#clip30)"><text fill="#595959" font-family="Calibri,Calibri_MSFontService,sans-serif" font-weight="400" font-size="41" transform="matrix(6.12323e-17 -1 1 6.12323e-17 4150.21 3186)">16.8 KB (binär)</text></g><g clip-path="url(#clip31)"><text fill="#595959" font-family="Calibri,Calibri_MSFontService,sans-serif" font-weight="400" font-size="41" transform="matrix(6.12323e-17 -1 1 6.12323e-17 4230.55 3065)">67 Byte</text></g><g clip-path="url(#clip32)"><text fill="#595959" font-family="Calibri,Calibri_MSFontService,sans-serif" font-weight="400" font-size="41" transform="matrix(6.12323e-17 -1 1 6.12323e-17 4310.88 3065)">1.53 KB</text></g><g clip-path="url(#clip33)"><text fill="#595959" font-family="Calibri,Calibri_MSFontService,sans-serif" font-weight="400" font-size="41" transform="matrix(6.12323e-17 -1 1 6.12323e-17 4391.22 3065)">17.5 KB</text></g><g clip-path="url(#clip34)"><text fill="#595959" font-family="Calibri,Calibri_MSFontService,sans-serif" font-weight="400" font-size="41" transform="matrix(6.12323e-17 -1 1 6.12323e-17 4471.56 3295)">16 KB (min. Entropie)</text></g><g clip-path="url(#clip35)"><text fill="#595959" font-family="Calibri,Calibri_MSFontService,sans-serif" font-weight="400" font-size="41" transform="matrix(6.12323e-17 -1 1 6.12323e-17 4551.89 3186)">16.8 KB (binär)</text></g><g clip-path="url(#clip36)"><text fill="#595959" font-family="Calibri,Calibri_MSFontService,sans-serif" font-weight="400" font-size="41" transform="matrix(6.12323e-17 -1 1 6.12323e-17 4632.23 3065)">67 Byte</text></g><g clip-path="url(#clip37)"><text fill="#595959" font-family="Calibri,Calibri_MSFontService,sans-serif" font-weight="400" font-size="41" transform="matrix(6.12323e-17 -1 1 6.12323e-17 4712.57 3065)">1.53 KB</text></g><g clip-path="url(#clip38)"><text fill="#595959" font-family="Calibri,Calibri_MSFontService,sans-serif" font-weight="400" font-size="41" transform="matrix(6.12323e-17 -1 1 6.12323e-17 4792.9 3065)">17.5 KB</text></g><g clip-path="url(#clip39)"><text fill="#595959" font-family="Calibri,Calibri_MSFontService,sans-serif" font-weight="400" font-size="41" transform="matrix(6.12323e-17 -1 1 6.12323e-17 4873.24 3295)">16 KB (min. Entropie)</text></g><g clip-path="url(#clip40)"><text fill="#595959" font-family="Calibri,Calibri_MSFontService,sans-serif" font-weight="400" font-size="41" transform="matrix(1 0 0 1 3132.45 3364)">jsteg</text></g><g clip-path="url(#clip41)"><text fill="#595959" font-family="Calibri,Calibri_MSFontService,sans-serif" font-weight="400" font-size="41" transform="matrix(1 0 0 1 3498.46 3364)">outguess</text></g><g clip-path="url(#clip42)"><text fill="#595959" font-family="Calibri,Calibri_MSFontService,sans-serif" font-weight="400" font-size="41" transform="matrix(1 0 0 1 3857.28 3364)">outguess-0.13</text></g><g clip-path="url(#clip43)"><text fill="#595959" font-family="Calibri,Calibri_MSFontService,sans-serif" font-weight="400" font-size="41" transform="matrix(1 0 0 1 4305.77 3364)">steghide</text></g><g clip-path="url(#clip44)"><text fill="#595959" font-family="Calibri,Calibri_MSFontService,sans-serif" font-weight="400" font-size="41" transform="matrix(1 0 0 1 4722.17 3364)">f5</text></g><g clip-path="url(#clip45)"><text fill="#595959" font-family="Calibri,Calibri_MSFontService,sans-serif" font-weight="400" font-size="64" transform="matrix(1 0 0 1 3388.93 2227)">durchschn. </text></g><g clip-path="url(#clip46)"><text fill="#595959" font-family="Calibri,Calibri_MSFontService,sans-serif" font-weight="700" font-size="64" transform="matrix(1 0 0 1 3688.98 2227)">Entropie</text></g><g clip-path="url(#clip47)"><text fill="#595959" font-family="Calibri,Calibri_MSFontService,sans-serif" font-weight="400" font-size="64" transform="matrix(1 0 0 1 3929.92 2227)">(bows2</text></g><g clip-path="url(#clip48)"><text fill="#595959" font-family="Calibri,Calibri_MSFontService,sans-serif" font-weight="400" font-size="64" transform="matrix(1 0 0 1 4119.6 2227)">-</text></g><g clip-path="url(#clip49)"><text fill="#595959" font-family="Calibri,Calibri_MSFontService,sans-serif" font-weight="400" font-size="64" transform="matrix(1 0 0 1 4139.24 2227)">Bilder)</text></g><g clip-path="url(#clip50)"><rect x="3358.5" y="3428.5" width="22" height="23" stroke="#333F50" stroke-width="3.4375" stroke-linejoin="round" stroke-miterlimit="10" fill="#8497B0"/></g><g clip-path="url(#clip51)"><text fill="#595959" font-family="Calibri,Calibri_MSFontService,sans-serif" font-weight="400" font-size="41" transform="matrix(1 0 0 1 3390.44 3452)">kein Schlüssel</text></g><g clip-path="url(#clip52)"><rect x="3680.5" y="3428.5" width="23" height="23" stroke="#BF9000" stroke-width="3.4375" stroke-linejoin="round" stroke-miterlimit="10" fill="#FFD966"/></g><g clip-path="url(#clip53)"><text fill="#595959" font-family="Calibri,Calibri_MSFontService,sans-serif" font-weight="400" font-size="41" transform="matrix(1 0 0 1 3713.04 3452)">4 Byte Schlüssel</text></g><g clip-path="url(#clip54)"><rect x="4038.5" y="3428.5" width="23" height="23" stroke="#548235" stroke-width="3.4375" stroke-linejoin="round" stroke-miterlimit="10" fill="#A9D18E"/></g><g clip-path="url(#clip55)"><text fill="#595959" font-family="Calibri,Calibri_MSFontService,sans-serif" font-weight="400" font-size="41" transform="matrix(1 0 0 1 4070.91 3452)">50 Byte Schlüssel</text></g><rect x="2750.5" y="2131.5" width="2200" height="1375" stroke="#D9D9D9" stroke-width="3.4375" stroke-linejoin="round" stroke-miterlimit="10" fill="none"/></g></svg>