<svg width="2203" height="1376" xmlns="http://www.w3.org/2000/svg" xmlns:xlink="http://www.w3.org/1999/xlink" xml:space="preserve" overflow="hidden"><defs><clipPath id="clip0"><rect x="274" y="2201" width="2203" height="1376"/></clipPath><clipPath id="clip1"><rect x="275" y="2201" width="2200" height="1374"/></clipPath><clipPath id="clip2"><rect x="395" y="2371" width="2033" height="613"/></clipPath><clipPath id="clip3"><rect x="395" y="2371" width="2033" height="613"/></clipPath><clipPath id="clip4"><rect x="395" y="2371" width="2033" height="613"/></clipPath><clipPath id="clip5"><rect x="275" y="2201" width="2200" height="1374"/></clipPath><clipPath id="clip6"><rect x="275" y="2201" width="2200" height="1374"/></clipPath><clipPath id="clip7"><rect x="275" y="2201" width="2200" height="1374"/></clipPath><clipPath id="clip8"><rect x="275" y="2201" width="2200" height="1374"/></clipPath><clipPath id="clip9"><rect x="275" y="2201" width="2200" height="1374"/></clipPath><clipPath id="clip10"><rect x="275" y="2201" width="2200" height="1374"/></clipPath><clipPath id="clip11"><rect x="275" y="2201" width="2200" height="1374"/></clipPath><clipPath id="clip12"><rect x="275" y="2201" width="2200" height="1374"/></clipPath><clipPath id="clip13"><rect x="275" y="2201" width="2200" height="1374"/></clipPath><clipPath id="clip14"><rect x="275" y="2201" width="2200" height="1374"/></clipPath><clipPath id="clip15"><rect x="275" y="2201" width="2200" height="1374"/></clipPath><clipPath id="clip16"><rect x="275" y="2201" width="2200" height="1374"/></clipPath><clipPath id="clip17"><rect x="275" y="2201" width="2200" height="1374"/></clipPath><clipPath id="clip18"><rect x="275" y="2201" width="2200" height="1374"/></clipPath><clipPath id="clip19"><rect x="275" y="2201" width="2200" height="1374"/></clipPath><clipPath id="clip20"><rect x="275" y="2201" width="2200" height="1374"/></clipPath><clipPath id="clip21"><rect x="275" y="2201" width="2200" height="1374"/></clipPath><clipPath id="clip22"><rect x="275" y="2201" width="2200" height="1374"/></clipPath><clipPath id="clip23"><rect x="275" y="2201" width="2200" height="1374"/></clipPath><clipPath id="clip24"><rect x="275" y="2201" width="2200" height="1374"/></clipPath><clipPath id="clip25"><rect x="275" y="2201" width="2200" height="1374"/></clipPath><clipPath id="clip26"><rect x="275" y="2201" width="2200" height="1374"/></clipPath><clipPath id="clip27"><rect x="275" y="2201" width="2200" height="1374"/></clipPath><clipPath id="clip28"><rect x="275" y="2201" width="2200" height="1374"/></clipPath><clipPath id="clip29"><rect x="275" y="2201" width="2200" height="1374"/></clipPath><clipPath id="clip30"><rect x="275" y="2201" width="2200" height="1374"/></clipPath><clipPath id="clip31"><rect x="275" y="2201" width="2200" height="1374"/></clipPath><clipPath id="clip32"><rect x="275" y="2201" width="2200" height="1374"/></clipPath><clipPath id="clip33"><rect x="275" y="2201" width="2200" height="1374"/></clipPath><clipPath id="clip34"><rect x="275" y="2201" width="2200" height="1374"/></clipPath><clipPath id="clip35"><rect x="275" y="2201" width="2200" height="1374"/></clipPath><clipPath id="clip36"><rect x="275" y="2201" width="2200" height="1374"/></clipPath><clipPath id="clip37"><rect x="275" y="2201" width="2200" height="1374"/></clipPath><clipPath id="clip38"><rect x="275" y="2201" width="2200" height="1374"/></clipPath><clipPath id="clip39"><rect x="275" y="2201" width="2200" height="1374"/></clipPath><clipPath id="clip40"><rect x="275" y="2201" width="2200" height="1374"/></clipPath><clipPath id="clip41"><rect x="275" y="2201" width="2200" height="1374"/></clipPath><clipPath id="clip42"><rect x="275" y="2201" width="2200" height="1374"/></clipPath><clipPath id="clip43"><rect x="275" y="2201" width="2200" height="1374"/></clipPath><clipPath id="clip44"><rect x="275" y="2201" width="2200" height="1374"/></clipPath><clipPath id="clip45"><rect x="275" y="2201" width="2200" height="1374"/></clipPath><clipPath id="clip46"><rect x="275" y="2201" width="2200" height="1374"/></clipPath><clipPath id="clip47"><rect x="275" y="2201" width="2200" height="1374"/></clipPath><clipPath id="clip48"><rect x="275" y="2201" width="2200" height="1374"/></clipPath><clipPath id="clip49"><rect x="275" y="2201" width="2200" height="1374"/></clipPath><clipPath id="clip50"><rect x="275" y="2201" width="2200" height="1374"/></clipPath><clipPath id="clip51"><rect x="275" y="2201" width="2200" height="1374"/></clipPath><clipPath id="clip52"><rect x="275" y="2201" width="2200" height="1374"/></clipPath><clipPath id="clip53"><rect x="275" y="2201" width="2200" height="1374"/></clipPath><clipPath id="clip54"><rect x="275" y="2201" width="2200" height="1374"/></clipPath><clipPath id="clip55"><rect x="275" y="2201" width="2200" height="1374"/></clipPath><clipPath id="clip56"><rect x="275" y="2201" width="2200" height="1374"/></clipPath><clipPath id="clip57"><rect x="275" y="2201" width="2200" height="1374"/></clipPath><clipPath id="clip58"><rect x="275" y="2201" width="2200" height="1374"/></clipPath><clipPath id="clip59"><rect x="275" y="2201" width="2200" height="1374"/></clipPath><clipPath id="clip60"><rect x="275" y="2201" width="2200" height="1374"/></clipPath><clipPath id="clip61"><rect x="275" y="2201" width="2200" height="1374"/></clipPath><clipPath id="clip62"><rect x="275" y="2201" width="2200" height="1374"/></clipPath><clipPath id="clip63"><rect x="275" y="2201" width="2200" height="1374"/></clipPath><clipPath id="clip64"><rect x="275" y="2201" width="2200" height="1374"/></clipPath></defs><g clip-path="url(#clip0)" transform="translate(-274 -2201)"><rect x="275" y="2202" width="2200" height="1373" fill="#FFFFFF"/><g clip-path="url(#clip1)"><path d="M395.5 2919.6 2424.5 2919.6M395.5 2859.59 2424.5 2859.59M395.5 2798.59 2424.5 2798.59M395.5 2737.59 2424.5 2737.59M395.5 2676.59 2424.5 2676.59M395.5 2615.59 2424.5 2615.59M395.5 2554.58 2424.5 2554.58M395.5 2493.58 2424.5 2493.58M395.5 2432.58 2424.5 2432.58M395.5 2371.5 2424.5 2371.5" stroke="#D9D9D9" stroke-width="3.4375" stroke-linejoin="round" stroke-miterlimit="10" fill="none"/></g><g clip-path="url(#clip2)"><path d="M410.514 2371.5 423.514 2371.5 423.514 2981.5 410.514 2981.5ZM488.516 2836.59 501.517 2836.59 501.517 2981.5 488.516 2981.5ZM566.519 2927.6 579.519 2927.6 579.519 2981.5 566.519 2981.5ZM644.521 2938.6 657.522 2938.6 657.522 2981.5 644.521 2981.5ZM722.524 2943.6 735.524 2943.6 735.524 2981.5 722.524 2981.5ZM800.526 2942.6 814.527 2942.6 814.527 2981.5 800.526 2981.5ZM878.529 2941.6 892.529 2941.6 892.529 2981.5 878.529 2981.5ZM956.531 2929.6 970.532 2929.6 970.532 2981.5 956.531 2981.5ZM1034.53 2962.6 1048.53 2962.6 1048.53 2981.5 1034.53 2981.5ZM1346.54 2928.6 1360.54 2928.6 1360.54 2981.5 1346.54 2981.5ZM1424.55 2957.6 1438.55 2957.6 1438.55 2981.5 1424.55 2981.5ZM2127.57 2962.6 2140.57 2962.6 2140.57 2981.5 2127.57 2981.5ZM2205.57 2964.6 2218.57 2964.6 2218.57 2981.5 2205.57 2981.5ZM2283.58 2968.6 2296.58 2968.6 2296.58 2981.5 2283.58 2981.5ZM2361.58 2968.6 2374.58 2968.6 2374.58 2981.5 2361.58 2981.5Z" stroke="#333F50" stroke-width="3.4375" stroke-linejoin="round" stroke-miterlimit="10" fill="#8497B0"/></g><g clip-path="url(#clip3)"><path d="M973.532 2929.6 987.533 2929.6 987.533 2981.5 973.532 2981.5ZM1051.53 2962.6 1065.54 2962.6 1065.54 2981.5 1051.53 2981.5ZM1364.54 2928.6 1377.55 2928.6 1377.55 2981.5 1364.54 2981.5ZM1442.55 2957.6 1455.55 2957.6 1455.55 2981.5 1442.55 2981.5ZM1754.56 2409.58 1767.56 2409.58 1767.56 2981.5 1754.56 2981.5ZM1832.56 2504.58 1845.56 2504.58 1845.56 2981.5 1832.56 2981.5ZM1910.56 2558.58 1924.56 2558.58 1924.56 2981.5 1910.56 2981.5ZM1988.57 2405.58 2002.57 2405.58 2002.57 2981.5 1988.57 2981.5ZM2066.57 2742.59 2080.57 2742.59 2080.57 2981.5 2066.57 2981.5ZM2144.57 2962.6 2158.57 2962.6 2158.57 2981.5 2144.57 2981.5ZM2222.57 2964.6 2236.57 2964.6 2236.57 2981.5 2222.57 2981.5ZM2300.58 2967.6 2314.58 2967.6 2314.58 2981.5 2300.58 2981.5ZM2378.58 2968.6 2392.58 2968.6 2392.58 2981.5 2378.58 2981.5Z" stroke="#BF9000" stroke-width="3.4375" stroke-linejoin="round" stroke-miterlimit="10" fill="#FFD966"/></g><g clip-path="url(#clip4)"><path d="M991.533 2929.6 1004.53 2929.6 1004.53 2981.5 991.533 2981.5ZM1069.54 2962.6 1082.54 2962.6 1082.54 2981.5 1069.54 2981.5ZM1381.55 2928.6 1394.55 2928.6 1394.55 2981.5 1381.55 2981.5ZM1459.55 2957.6 1473.55 2957.6 1473.55 2981.5 1459.55 2981.5ZM1771.56 2412.58 1785.56 2412.58 1785.56 2981.5 1771.56 2981.5ZM1849.56 2513.58 1863.56 2513.58 1863.56 2981.5 1849.56 2981.5ZM1927.56 2569.58 1941.56 2569.58 1941.56 2981.5 1927.56 2981.5ZM2005.57 2408.58 2019.57 2408.58 2019.57 2981.5 2005.57 2981.5ZM2083.57 2742.59 2097.57 2742.59 2097.57 2981.5 2083.57 2981.5ZM2161.57 2962.6 2175.57 2962.6 2175.57 2981.5 2161.57 2981.5ZM2239.57 2964.6 2253.57 2964.6 2253.57 2981.5 2239.57 2981.5ZM2317.58 2968.6 2331.58 2968.6 2331.58 2981.5 2317.58 2981.5ZM2395.58 2968.6 2409.58 2968.6 2409.58 2981.5 2395.58 2981.5Z" stroke="#548235" stroke-width="3.4375" stroke-linejoin="round" stroke-miterlimit="10" fill="#A9D18E"/></g><g clip-path="url(#clip5)"><path d="M395.5 2981.5 2424.5 2981.5" stroke="#D9D9D9" stroke-width="3.4375" stroke-linejoin="round" stroke-miterlimit="10" fill="none" fill-rule="evenodd"/></g><g clip-path="url(#clip6)"><path d="M395.5 2981.5 395.5 3367.5M551.518 2981.5 551.518 3367.5M941.531 2981.5 941.531 3367.5M1331.54 2981.5 1331.54 3367.5M1722.56 2981.5 1722.56 3367.5M2112.57 2981.5 2112.57 3367.5M2424.5 2981.5 2424.5 3367.5" stroke="#D9D9D9" stroke-width="3.4375" stroke-linejoin="round" stroke-miterlimit="10" fill="none"/></g><g clip-path="url(#clip7)"><path d="M395.5 3367.5 395.5 3447.5M551.518 3367.5 551.518 3447.5M941.531 3367.5 941.531 3447.5M1331.54 3367.5 1331.54 3447.5M1722.56 3367.5 1722.56 3447.5M2112.57 3367.5 2112.57 3447.5M2424.5 3367.5 2424.5 3447.5" stroke="#D9D9D9" stroke-width="3.4375" stroke-linejoin="round" stroke-miterlimit="10" fill="none"/></g><g clip-path="url(#clip8)"><text fill="#595959" font-family="Calibri,Calibri_MSFontService,sans-serif" font-weight="400" font-size="41" transform="matrix(1 0 0 1 336.096 2993)">0</text></g><g clip-path="url(#clip9)"><text fill="#595959" font-family="Calibri,Calibri_MSFontService,sans-serif" font-weight="400" font-size="41" transform="matrix(1 0 0 1 304.792 2932)">0.1</text></g><g clip-path="url(#clip10)"><text fill="#595959" font-family="Calibri,Calibri_MSFontService,sans-serif" font-weight="400" font-size="41" transform="matrix(1 0 0 1 304.792 2871)">0.2</text></g><g clip-path="url(#clip11)"><text fill="#595959" font-family="Calibri,Calibri_MSFontService,sans-serif" font-weight="400" font-size="41" transform="matrix(1 0 0 1 304.792 2810)">0.3</text></g><g clip-path="url(#clip12)"><text fill="#595959" font-family="Calibri,Calibri_MSFontService,sans-serif" font-weight="400" font-size="41" transform="matrix(1 0 0 1 304.792 2749)">0.4</text></g><g clip-path="url(#clip13)"><text fill="#595959" font-family="Calibri,Calibri_MSFontService,sans-serif" font-weight="400" font-size="41" transform="matrix(1 0 0 1 304.792 2688)">0.5</text></g><g clip-path="url(#clip14)"><text fill="#595959" font-family="Calibri,Calibri_MSFontService,sans-serif" font-weight="400" font-size="41" transform="matrix(1 0 0 1 304.792 2627)">0.6</text></g><g clip-path="url(#clip15)"><text fill="#595959" font-family="Calibri,Calibri_MSFontService,sans-serif" font-weight="400" font-size="41" transform="matrix(1 0 0 1 304.792 2566)">0.7</text></g><g clip-path="url(#clip16)"><text fill="#595959" font-family="Calibri,Calibri_MSFontService,sans-serif" font-weight="400" font-size="41" transform="matrix(1 0 0 1 304.792 2505)">0.8</text></g><g clip-path="url(#clip17)"><text fill="#595959" font-family="Calibri,Calibri_MSFontService,sans-serif" font-weight="400" font-size="41" transform="matrix(1 0 0 1 304.792 2444)">0.9</text></g><g clip-path="url(#clip18)"><text fill="#595959" font-family="Calibri,Calibri_MSFontService,sans-serif" font-weight="400" font-size="41" transform="matrix(1 0 0 1 336.096 2383)">1</text></g><g clip-path="url(#clip19)"><text fill="#595959" font-family="Calibri,Calibri_MSFontService,sans-serif" font-weight="400" font-size="41" transform="matrix(6.12323e-17 -1 1 6.12323e-17 448.114 3138)">Original</text></g><g clip-path="url(#clip20)"><text fill="#595959" font-family="Calibri,Calibri_MSFontService,sans-serif" font-weight="400" font-size="41" transform="matrix(6.12323e-17 -1 1 6.12323e-17 526.165 3318)">JPEG-Kompression</text></g><g clip-path="url(#clip21)"><text fill="#595959" font-family="Calibri,Calibri_MSFontService,sans-serif" font-weight="400" font-size="41" transform="matrix(6.12323e-17 -1 1 6.12323e-17 604.216 3134)">67 Byte</text></g><g clip-path="url(#clip22)"><text fill="#595959" font-family="Calibri,Calibri_MSFontService,sans-serif" font-weight="400" font-size="41" transform="matrix(6.12323e-17 -1 1 6.12323e-17 682.266 3133)">1.53 KB</text></g><g clip-path="url(#clip23)"><text fill="#595959" font-family="Calibri,Calibri_MSFontService,sans-serif" font-weight="400" font-size="41" transform="matrix(6.12323e-17 -1 1 6.12323e-17 760.317 3133)">17.5 KB</text></g><g clip-path="url(#clip24)"><text fill="#595959" font-family="Calibri,Calibri_MSFontService,sans-serif" font-weight="400" font-size="41" transform="matrix(6.12323e-17 -1 1 6.12323e-17 838.368 3364)">16 KB (min. Entropie)</text></g><g clip-path="url(#clip25)"><text fill="#595959" font-family="Calibri,Calibri_MSFontService,sans-serif" font-weight="400" font-size="41" transform="matrix(6.12323e-17 -1 1 6.12323e-17 916.419 3255)">16.8 KB (binär)</text></g><g clip-path="url(#clip26)"><text fill="#595959" font-family="Calibri,Calibri_MSFontService,sans-serif" font-weight="400" font-size="41" transform="matrix(6.12323e-17 -1 1 6.12323e-17 994.469 3134)">67 Byte</text></g><g clip-path="url(#clip27)"><text fill="#595959" font-family="Calibri,Calibri_MSFontService,sans-serif" font-weight="400" font-size="41" transform="matrix(6.12323e-17 -1 1 6.12323e-17 1072.52 3133)">1.53 KB</text></g><g clip-path="url(#clip28)"><text fill="#595959" font-family="Calibri,Calibri_MSFontService,sans-serif" font-weight="400" font-size="41" transform="matrix(6.12323e-17 -1 1 6.12323e-17 1150.57 3133)">17.5 KB</text></g><g clip-path="url(#clip29)"><text fill="#595959" font-family="Calibri,Calibri_MSFontService,sans-serif" font-weight="400" font-size="41" transform="matrix(6.12323e-17 -1 1 6.12323e-17 1228.62 3364)">16 KB (min. Entropie)</text></g><g clip-path="url(#clip30)"><text fill="#595959" font-family="Calibri,Calibri_MSFontService,sans-serif" font-weight="400" font-size="41" transform="matrix(6.12323e-17 -1 1 6.12323e-17 1306.67 3255)">16.8 KB (binär)</text></g><g clip-path="url(#clip31)"><text fill="#595959" font-family="Calibri,Calibri_MSFontService,sans-serif" font-weight="400" font-size="41" transform="matrix(6.12323e-17 -1 1 6.12323e-17 1384.72 3134)">67 Byte</text></g><g clip-path="url(#clip32)"><text fill="#595959" font-family="Calibri,Calibri_MSFontService,sans-serif" font-weight="400" font-size="41" transform="matrix(6.12323e-17 -1 1 6.12323e-17 1462.77 3133)">1.53 KB</text></g><g clip-path="url(#clip33)"><text fill="#595959" font-family="Calibri,Calibri_MSFontService,sans-serif" font-weight="400" font-size="41" transform="matrix(6.12323e-17 -1 1 6.12323e-17 1540.83 3133)">17.5 KB</text></g><g clip-path="url(#clip34)"><text fill="#595959" font-family="Calibri,Calibri_MSFontService,sans-serif" font-weight="400" font-size="41" transform="matrix(6.12323e-17 -1 1 6.12323e-17 1618.88 3364)">16 KB (min. Entropie)</text></g><g clip-path="url(#clip35)"><text fill="#595959" font-family="Calibri,Calibri_MSFontService,sans-serif" font-weight="400" font-size="41" transform="matrix(6.12323e-17 -1 1 6.12323e-17 1696.93 3255)">16.8 KB (binär)</text></g><g clip-path="url(#clip36)"><text fill="#595959" font-family="Calibri,Calibri_MSFontService,sans-serif" font-weight="400" font-size="41" transform="matrix(6.12323e-17 -1 1 6.12323e-17 1774.98 3134)">67 Byte</text></g><g clip-path="url(#clip37)"><text fill="#595959" font-family="Calibri,Calibri_MSFontService,sans-serif" font-weight="400" font-size="41" transform="matrix(6.12323e-17 -1 1 6.12323e-17 1853.03 3133)">1.53 KB</text></g><g clip-path="url(#clip38)"><text fill="#595959" font-family="Calibri,Calibri_MSFontService,sans-serif" font-weight="400" font-size="41" transform="matrix(6.12323e-17 -1 1 6.12323e-17 1931.08 3133)">17.5 KB</text></g><g clip-path="url(#clip39)"><text fill="#595959" font-family="Calibri,Calibri_MSFontService,sans-serif" font-weight="400" font-size="41" transform="matrix(6.12323e-17 -1 1 6.12323e-17 2009.13 3364)">16 KB (min. Entropie)</text></g><g clip-path="url(#clip40)"><text fill="#595959" font-family="Calibri,Calibri_MSFontService,sans-serif" font-weight="400" font-size="41" transform="matrix(6.12323e-17 -1 1 6.12323e-17 2087.18 3255)">16.8 KB (binär)</text></g><g clip-path="url(#clip41)"><text fill="#595959" font-family="Calibri,Calibri_MSFontService,sans-serif" font-weight="400" font-size="41" transform="matrix(6.12323e-17 -1 1 6.12323e-17 2165.23 3134)">67 Byte</text></g><g clip-path="url(#clip42)"><text fill="#595959" font-family="Calibri,Calibri_MSFontService,sans-serif" font-weight="400" font-size="41" transform="matrix(6.12323e-17 -1 1 6.12323e-17 2243.28 3133)">1.53 KB</text></g><g clip-path="url(#clip43)"><text fill="#595959" font-family="Calibri,Calibri_MSFontService,sans-serif" font-weight="400" font-size="41" transform="matrix(6.12323e-17 -1 1 6.12323e-17 2321.33 3133)">17.5 KB</text></g><g clip-path="url(#clip44)"><text fill="#595959" font-family="Calibri,Calibri_MSFontService,sans-serif" font-weight="400" font-size="41" transform="matrix(6.12323e-17 -1 1 6.12323e-17 2399.38 3364)">16 KB (min. Entropie)</text></g><g clip-path="url(#clip45)"><text fill="#595959" font-family="Calibri,Calibri_MSFontService,sans-serif" font-weight="400" font-size="41" transform="matrix(1 0 0 1 706.604 3432)">jsteg</text></g><g clip-path="url(#clip46)"><text fill="#595959" font-family="Calibri,Calibri_MSFontService,sans-serif" font-weight="400" font-size="41" transform="matrix(1 0 0 1 1061.18 3432)">outguess</text></g><g clip-path="url(#clip47)"><text fill="#595959" font-family="Calibri,Calibri_MSFontService,sans-serif" font-weight="400" font-size="41" transform="matrix(1 0 0 1 1408.57 3432)">outguess-0.13</text></g><g clip-path="url(#clip48)"><text fill="#595959" font-family="Calibri,Calibri_MSFontService,sans-serif" font-weight="400" font-size="41" transform="matrix(1 0 0 1 1845.63 3432)">steghide</text></g><g clip-path="url(#clip49)"><text fill="#595959" font-family="Calibri,Calibri_MSFontService,sans-serif" font-weight="400" font-size="41" transform="matrix(1 0 0 1 2251.74 3432)">f5</text></g><g clip-path="url(#clip50)"><text fill="#595959" font-family="Calibri,Calibri_MSFontService,sans-serif" font-weight="400" font-size="64" transform="matrix(1 0 0 1 629.108 2297)">schwarz</text></g><g clip-path="url(#clip51)"><text fill="#595959" font-family="Calibri,Calibri_MSFontService,sans-serif" font-weight="400" font-size="64" transform="matrix(1 0 0 1 838.223 2297)">-</text></g><g clip-path="url(#clip52)"><text fill="#595959" font-family="Calibri,Calibri_MSFontService,sans-serif" font-weight="400" font-size="64" transform="matrix(1 0 0 1 857.863 2297)">weiß</text></g><g clip-path="url(#clip53)"><text fill="#595959" font-family="Calibri,Calibri_MSFontService,sans-serif" font-weight="400" font-size="64" transform="matrix(1 0 0 1 983.675 2297)">-</text></g><g clip-path="url(#clip54)"><text fill="#595959" font-family="Calibri,Calibri_MSFontService,sans-serif" font-weight="400" font-size="64" transform="matrix(1 0 0 1 1003.31 2297)">Verhältnis im </text></g><g clip-path="url(#clip55)"><text fill="#595959" font-family="Calibri,Calibri_MSFontService,sans-serif" font-weight="700" font-size="64" transform="matrix(1 0 0 1 1360.06 2297)">Differenzbild</text></g><g clip-path="url(#clip56)"><text fill="#595959" font-family="Calibri,Calibri_MSFontService,sans-serif" font-weight="400" font-size="64" transform="matrix(1 0 0 1 1717.35 2297)">(alaska2</text></g><g clip-path="url(#clip57)"><text fill="#595959" font-family="Calibri,Calibri_MSFontService,sans-serif" font-weight="400" font-size="64" transform="matrix(1 0 0 1 1929.42 2297)">-</text></g><g clip-path="url(#clip58)"><text fill="#595959" font-family="Calibri,Calibri_MSFontService,sans-serif" font-weight="400" font-size="64" transform="matrix(1 0 0 1 1949.06 2297)">Bilder)</text></g><g clip-path="url(#clip59)"><rect x="883.5" y="3497.5" width="22" height="22.9998" stroke="#333F50" stroke-width="3.4375" stroke-linejoin="round" stroke-miterlimit="10" fill="#8497B0"/></g><g clip-path="url(#clip60)"><text fill="#595959" font-family="Calibri,Calibri_MSFontService,sans-serif" font-weight="400" font-size="41" transform="matrix(1 0 0 1 915.444 3520)">kein Schlüssel</text></g><g clip-path="url(#clip61)"><rect x="1205.5" y="3497.5" width="23" height="22.9998" stroke="#BF9000" stroke-width="3.4375" stroke-linejoin="round" stroke-miterlimit="10" fill="#FFD966"/></g><g clip-path="url(#clip62)"><text fill="#595959" font-family="Calibri,Calibri_MSFontService,sans-serif" font-weight="400" font-size="41" transform="matrix(1 0 0 1 1238.04 3520)">4 Byte Schlüssel</text></g><g clip-path="url(#clip63)"><rect x="1563.5" y="3497.5" width="23" height="22.9998" stroke="#548235" stroke-width="3.4375" stroke-linejoin="round" stroke-miterlimit="10" fill="#A9D18E"/></g><g clip-path="url(#clip64)"><text fill="#595959" font-family="Calibri,Calibri_MSFontService,sans-serif" font-weight="400" font-size="41" transform="matrix(1 0 0 1 1595.91 3520)">50 Byte Schlüssel</text></g><rect x="275.5" y="2202.5" width="2200" height="1373" stroke="#D9D9D9" stroke-width="3.4375" stroke-linejoin="round" stroke-miterlimit="10" fill="none"/></g></svg>