<svg width="2203" height="1378" xmlns="http://www.w3.org/2000/svg" xmlns:xlink="http://www.w3.org/1999/xlink" xml:space="preserve" overflow="hidden"><defs><clipPath id="clip0"><rect x="2749" y="2199" width="2203" height="1378"/></clipPath><clipPath id="clip1"><rect x="2750" y="2200" width="2200" height="1375"/></clipPath><clipPath id="clip2"><rect x="2870" y="2448" width="2033" height="536"/></clipPath><clipPath id="clip3"><rect x="2870" y="2448" width="2033" height="536"/></clipPath><clipPath id="clip4"><rect x="2870" y="2448" width="2033" height="536"/></clipPath><clipPath id="clip5"><rect x="2750" y="2200" width="2200" height="1375"/></clipPath><clipPath id="clip6"><rect x="2750" y="2200" width="2200" height="1375"/></clipPath><clipPath id="clip7"><rect x="2750" y="2200" width="2200" height="1375"/></clipPath><clipPath id="clip8"><rect x="2750" y="2200" width="2200" height="1375"/></clipPath><clipPath id="clip9"><rect x="2750" y="2200" width="2200" height="1375"/></clipPath><clipPath id="clip10"><rect x="2750" y="2200" width="2200" height="1375"/></clipPath><clipPath id="clip11"><rect x="2750" y="2200" width="2200" height="1375"/></clipPath><clipPath id="clip12"><rect x="2750" y="2200" width="2200" height="1375"/></clipPath><clipPath id="clip13"><rect x="2750" y="2200" width="2200" height="1375"/></clipPath><clipPath id="clip14"><rect x="2750" y="2200" width="2200" height="1375"/></clipPath><clipPath id="clip15"><rect x="2750" y="2200" width="2200" height="1375"/></clipPath><clipPath id="clip16"><rect x="2750" y="2200" width="2200" height="1375"/></clipPath><clipPath id="clip17"><rect x="2750" y="2200" width="2200" height="1375"/></clipPath><clipPath id="clip18"><rect x="2750" y="2200" width="2200" height="1375"/></clipPath><clipPath id="clip19"><rect x="2750" y="2200" width="2200" height="1375"/></clipPath><clipPath id="clip20"><rect x="2750" y="2200" width="2200" height="1375"/></clipPath><clipPath id="clip21"><rect x="2750" y="2200" width="2200" height="1375"/></clipPath><clipPath id="clip22"><rect x="2750" y="2200" width="2200" height="1375"/></clipPath><clipPath id="clip23"><rect x="2750" y="2200" width="2200" height="1375"/></clipPath><clipPath id="clip24"><rect x="2750" y="2200" width="2200" height="1375"/></clipPath><clipPath id="clip25"><rect x="2750" y="2200" width="2200" height="1375"/></clipPath><clipPath id="clip26"><rect x="2750" y="2200" width="2200" height="1375"/></clipPath><clipPath id="clip27"><rect x="2750" y="2200" width="2200" height="1375"/></clipPath><clipPath id="clip28"><rect x="2750" y="2200" width="2200" height="1375"/></clipPath><clipPath id="clip29"><rect x="2750" y="2200" width="2200" height="1375"/></clipPath><clipPath id="clip30"><rect x="2750" y="2200" width="2200" height="1375"/></clipPath><clipPath id="clip31"><rect x="2750" y="2200" width="2200" height="1375"/></clipPath><clipPath id="clip32"><rect x="2750" y="2200" width="2200" height="1375"/></clipPath><clipPath id="clip33"><rect x="2750" y="2200" width="2200" height="1375"/></clipPath><clipPath id="clip34"><rect x="2750" y="2200" width="2200" height="1375"/></clipPath><clipPath id="clip35"><rect x="2750" y="2200" width="2200" height="1375"/></clipPath><clipPath id="clip36"><rect x="2750" y="2200" width="2200" height="1375"/></clipPath><clipPath id="clip37"><rect x="2750" y="2200" width="2200" height="1375"/></clipPath><clipPath id="clip38"><rect x="2750" y="2200" width="2200" height="1375"/></clipPath><clipPath id="clip39"><rect x="2750" y="2200" width="2200" height="1375"/></clipPath><clipPath id="clip40"><rect x="2750" y="2200" width="2200" height="1375"/></clipPath><clipPath id="clip41"><rect x="2750" y="2200" width="2200" height="1375"/></clipPath><clipPath id="clip42"><rect x="2750" y="2200" width="2200" height="1375"/></clipPath><clipPath id="clip43"><rect x="2750" y="2200" width="2200" height="1375"/></clipPath><clipPath id="clip44"><rect x="2750" y="2200" width="2200" height="1375"/></clipPath><clipPath id="clip45"><rect x="2750" y="2200" width="2200" height="1375"/></clipPath><clipPath id="clip46"><rect x="2750" y="2200" width="2200" height="1375"/></clipPath><clipPath id="clip47"><rect x="2750" y="2200" width="2200" height="1375"/></clipPath><clipPath id="clip48"><rect x="2750" y="2200" width="2200" height="1375"/></clipPath><clipPath id="clip49"><rect x="2750" y="2200" width="2200" height="1375"/></clipPath><clipPath id="clip50"><rect x="2750" y="2200" width="2200" height="1375"/></clipPath><clipPath id="clip51"><rect x="2750" y="2200" width="2200" height="1375"/></clipPath><clipPath id="clip52"><rect x="2750" y="2200" width="2200" height="1375"/></clipPath><clipPath id="clip53"><rect x="2750" y="2200" width="2200" height="1375"/></clipPath><clipPath id="clip54"><rect x="2750" y="2200" width="2200" height="1375"/></clipPath><clipPath id="clip55"><rect x="2750" y="2200" width="2200" height="1375"/></clipPath><clipPath id="clip56"><rect x="2750" y="2200" width="2200" height="1375"/></clipPath><clipPath id="clip57"><rect x="2750" y="2200" width="2200" height="1375"/></clipPath><clipPath id="clip58"><rect x="2750" y="2200" width="2200" height="1375"/></clipPath><clipPath id="clip59"><rect x="2750" y="2200" width="2200" height="1375"/></clipPath></defs><g clip-path="url(#clip0)" transform="translate(-2749 -2199)"><rect x="2750" y="2200" width="2200" height="1375" fill="#FFFFFF"/><g clip-path="url(#clip1)"><path d="M2870.5 2927.6 4899.5 2927.6M2870.5 2874.59 4899.5 2874.59M2870.5 2821.59 4899.5 2821.59M2870.5 2767.59 4899.5 2767.59M2870.5 2714.59 4899.5 2714.59M2870.5 2661.59 4899.5 2661.59M2870.5 2608.59 4899.5 2608.59M2870.5 2554.58 4899.5 2554.58M2870.5 2501.58 4899.5 2501.58M2870.5 2448.5 4899.5 2448.5" stroke="#D9D9D9" stroke-width="3.4375" stroke-linejoin="round" stroke-miterlimit="10" fill="none"/></g><g clip-path="url(#clip2)"><path d="M2885.59 2448.5 2898.6 2448.5 2898.6 2981.5 2885.59 2981.5ZM2963.6 2846.59 2976.6 2846.59 2976.6 2981.5 2963.6 2981.5ZM3041.6 2854.59 3054.6 2854.59 3054.6 2981.5 3041.6 2981.5ZM3119.6 2872.59 3132.6 2872.59 3132.6 2981.5 3119.6 2981.5ZM3431.61 2854.59 3445.61 2854.59 3445.61 2981.5 3431.61 2981.5ZM3509.62 2885.59 3523.62 2885.59 3523.62 2981.5 3509.62 2981.5ZM3821.63 2853.59 3835.63 2853.59 3835.63 2981.5 3821.63 2981.5ZM3899.63 2881.59 3913.63 2881.59 3913.63 2981.5 3899.63 2981.5ZM4211.64 2453.58 4225.64 2453.58 4225.64 2981.5 4211.64 2981.5ZM4289.64 2466.58 4303.64 2466.58 4303.64 2981.5 4289.64 2981.5ZM4368.64 2475.58 4381.64 2475.58 4381.64 2981.5 4368.64 2981.5ZM4446.65 2452.58 4459.65 2452.58 4459.65 2981.5 4446.65 2981.5ZM4524.65 2512.58 4537.65 2512.58 4537.65 2981.5 4524.65 2981.5ZM4602.65 2846.59 4615.65 2846.59 4615.65 2981.5 4602.65 2981.5ZM4680.65 2853.59 4693.65 2853.59 4693.65 2981.5 4680.65 2981.5ZM4758.66 2863.59 4771.66 2863.59 4771.66 2981.5 4758.66 2981.5ZM4836.66 2863.59 4849.66 2863.59 4849.66 2981.5 4836.66 2981.5Z" stroke="#CC0000" stroke-width="3.4375" stroke-linejoin="round" stroke-miterlimit="10" fill="#FF5050"/></g><g clip-path="url(#clip3)"><path d="M2902.6 2448.5 2916.6 2448.5 2916.6 2981.5 2902.6 2981.5ZM2980.6 2846.59 2994.6 2846.59 2994.6 2981.5 2980.6 2981.5ZM3058.6 2854.59 3072.6 2854.59 3072.6 2981.5 3058.6 2981.5ZM3136.6 2872.59 3150.6 2872.59 3150.6 2981.5 3136.6 2981.5ZM3448.61 2854.59 3462.61 2854.59 3462.61 2981.5 3448.61 2981.5ZM3526.62 2885.59 3540.62 2885.59 3540.62 2981.5 3526.62 2981.5ZM3838.63 2853.59 3852.63 2853.59 3852.63 2981.5 3838.63 2981.5ZM3917.63 2881.59 3930.63 2881.59 3930.63 2981.5 3917.63 2981.5ZM4229.64 2453.58 4242.64 2453.58 4242.64 2981.5 4229.64 2981.5ZM4307.64 2466.58 4320.64 2466.58 4320.64 2981.5 4307.64 2981.5ZM4385.64 2475.58 4398.64 2475.58 4398.64 2981.5 4385.64 2981.5ZM4463.65 2452.58 4476.65 2452.58 4476.65 2981.5 4463.65 2981.5ZM4541.65 2512.58 4555.65 2512.58 4555.65 2981.5 4541.65 2981.5ZM4619.65 2846.59 4633.65 2846.59 4633.65 2981.5 4619.65 2981.5ZM4697.65 2853.59 4711.65 2853.59 4711.65 2981.5 4697.65 2981.5ZM4775.66 2863.59 4789.66 2863.59 4789.66 2981.5 4775.66 2981.5ZM4853.66 2863.59 4867.66 2863.59 4867.66 2981.5 4853.66 2981.5Z" stroke="#548235" stroke-width="3.4375" stroke-linejoin="round" stroke-miterlimit="10" fill="#A9D18E"/></g><g clip-path="url(#clip4)"><path d="M2919.6 2448.5 2933.6 2448.5 2933.6 2981.5 2919.6 2981.5ZM2997.6 2846.59 3011.6 2846.59 3011.6 2981.5 2997.6 2981.5ZM3075.6 2854.59 3089.6 2854.59 3089.6 2981.5 3075.6 2981.5ZM3153.6 2872.59 3167.6 2872.59 3167.6 2981.5 3153.6 2981.5ZM3466.61 2854.59 3479.61 2854.59 3479.61 2981.5 3466.61 2981.5ZM3544.62 2885.59 3557.62 2885.59 3557.62 2981.5 3544.62 2981.5ZM3856.63 2853.59 3869.63 2853.59 3869.63 2981.5 3856.63 2981.5ZM3934.63 2881.59 3947.63 2881.59 3947.63 2981.5 3934.63 2981.5ZM4246.64 2453.58 4260.64 2453.58 4260.64 2981.5 4246.64 2981.5ZM4324.64 2466.58 4338.64 2466.58 4338.64 2981.5 4324.64 2981.5ZM4402.64 2475.58 4416.65 2475.58 4416.65 2981.5 4402.64 2981.5ZM4480.65 2452.58 4494.65 2452.58 4494.65 2981.5 4480.65 2981.5ZM4558.65 2512.58 4572.65 2512.58 4572.65 2981.5 4558.65 2981.5ZM4636.65 2846.59 4650.65 2846.59 4650.65 2981.5 4636.65 2981.5ZM4714.65 2853.59 4728.66 2853.59 4728.66 2981.5 4714.65 2981.5ZM4792.66 2863.59 4806.66 2863.59 4806.66 2981.5 4792.66 2981.5ZM4870.66 2863.59 4884.66 2863.59 4884.66 2981.5 4870.66 2981.5Z" stroke="#2F5597" stroke-width="3.4375" stroke-linejoin="round" stroke-miterlimit="10" fill="#8FAADC"/></g><g clip-path="url(#clip5)"><path d="M2870.5 2981.5 4899.5 2981.5" stroke="#D9D9D9" stroke-width="3.4375" stroke-linejoin="round" stroke-miterlimit="10" fill="none" fill-rule="evenodd"/></g><g clip-path="url(#clip6)"><path d="M2870.5 2981.5 2870.5 3367.5M3026.6 2981.5 3026.6 3367.5M3416.61 2981.5 3416.61 3367.5M3806.62 2981.5 3806.62 3367.5M4196.64 2981.5 4196.64 3367.5M4587.65 2981.5 4587.65 3367.5M4899.5 2981.5 4899.5 3367.5" stroke="#D9D9D9" stroke-width="3.4375" stroke-linejoin="round" stroke-miterlimit="10" fill="none"/></g><g clip-path="url(#clip7)"><path d="M2870.5 3367.5 2870.5 3447.5M3026.6 3367.5 3026.6 3447.5M3416.61 3367.5 3416.61 3447.5M3806.62 3367.5 3806.62 3447.5M4196.64 3367.5 4196.64 3447.5M4587.65 3367.5 4587.65 3447.5M4899.5 3367.5 4899.5 3447.5" stroke="#D9D9D9" stroke-width="3.4375" stroke-linejoin="round" stroke-miterlimit="10" fill="none"/></g><g clip-path="url(#clip8)"><text fill="#595959" font-family="Calibri,Calibri_MSFontService,sans-serif" font-weight="400" font-size="41" transform="matrix(1 0 0 1 2811.1 2993)">0</text></g><g clip-path="url(#clip9)"><text fill="#595959" font-family="Calibri,Calibri_MSFontService,sans-serif" font-weight="400" font-size="41" transform="matrix(1 0 0 1 2779.79 2939)">0.1</text></g><g clip-path="url(#clip10)"><text fill="#595959" font-family="Calibri,Calibri_MSFontService,sans-serif" font-weight="400" font-size="41" transform="matrix(1 0 0 1 2779.79 2886)">0.2</text></g><g clip-path="url(#clip11)"><text fill="#595959" font-family="Calibri,Calibri_MSFontService,sans-serif" font-weight="400" font-size="41" transform="matrix(1 0 0 1 2779.79 2833)">0.3</text></g><g clip-path="url(#clip12)"><text fill="#595959" font-family="Calibri,Calibri_MSFontService,sans-serif" font-weight="400" font-size="41" transform="matrix(1 0 0 1 2779.79 2779)">0.4</text></g><g clip-path="url(#clip13)"><text fill="#595959" font-family="Calibri,Calibri_MSFontService,sans-serif" font-weight="400" font-size="41" transform="matrix(1 0 0 1 2779.79 2726)">0.5</text></g><g clip-path="url(#clip14)"><text fill="#595959" font-family="Calibri,Calibri_MSFontService,sans-serif" font-weight="400" font-size="41" transform="matrix(1 0 0 1 2779.79 2673)">0.6</text></g><g clip-path="url(#clip15)"><text fill="#595959" font-family="Calibri,Calibri_MSFontService,sans-serif" font-weight="400" font-size="41" transform="matrix(1 0 0 1 2779.79 2620)">0.7</text></g><g clip-path="url(#clip16)"><text fill="#595959" font-family="Calibri,Calibri_MSFontService,sans-serif" font-weight="400" font-size="41" transform="matrix(1 0 0 1 2779.79 2566)">0.8</text></g><g clip-path="url(#clip17)"><text fill="#595959" font-family="Calibri,Calibri_MSFontService,sans-serif" font-weight="400" font-size="41" transform="matrix(1 0 0 1 2779.79 2513)">0.9</text></g><g clip-path="url(#clip18)"><text fill="#595959" font-family="Calibri,Calibri_MSFontService,sans-serif" font-weight="400" font-size="41" transform="matrix(1 0 0 1 2811.1 2460)">1</text></g><g clip-path="url(#clip19)"><text fill="#595959" font-family="Calibri,Calibri_MSFontService,sans-serif" font-weight="400" font-size="41" transform="matrix(6.12323e-17 -1 1 6.12323e-17 2923.11 3138)">Original</text></g><g clip-path="url(#clip20)"><text fill="#595959" font-family="Calibri,Calibri_MSFontService,sans-serif" font-weight="400" font-size="41" transform="matrix(6.12323e-17 -1 1 6.12323e-17 3001.16 3318)">JPEG-Kompression</text></g><g clip-path="url(#clip21)"><text fill="#595959" font-family="Calibri,Calibri_MSFontService,sans-serif" font-weight="400" font-size="41" transform="matrix(6.12323e-17 -1 1 6.12323e-17 3079.22 3134)">67 Byte</text></g><g clip-path="url(#clip22)"><text fill="#595959" font-family="Calibri,Calibri_MSFontService,sans-serif" font-weight="400" font-size="41" transform="matrix(6.12323e-17 -1 1 6.12323e-17 3157.27 3133)">1.53 KB</text></g><g clip-path="url(#clip23)"><text fill="#595959" font-family="Calibri,Calibri_MSFontService,sans-serif" font-weight="400" font-size="41" transform="matrix(6.12323e-17 -1 1 6.12323e-17 3235.32 3133)">17.5 KB</text></g><g clip-path="url(#clip24)"><text fill="#595959" font-family="Calibri,Calibri_MSFontService,sans-serif" font-weight="400" font-size="41" transform="matrix(6.12323e-17 -1 1 6.12323e-17 3313.37 3364)">16 KB (min. Entropie)</text></g><g clip-path="url(#clip25)"><text fill="#595959" font-family="Calibri,Calibri_MSFontService,sans-serif" font-weight="400" font-size="41" transform="matrix(6.12323e-17 -1 1 6.12323e-17 3391.42 3255)">16.8 KB (binär)</text></g><g clip-path="url(#clip26)"><text fill="#595959" font-family="Calibri,Calibri_MSFontService,sans-serif" font-weight="400" font-size="41" transform="matrix(6.12323e-17 -1 1 6.12323e-17 3469.47 3134)">67 Byte</text></g><g clip-path="url(#clip27)"><text fill="#595959" font-family="Calibri,Calibri_MSFontService,sans-serif" font-weight="400" font-size="41" transform="matrix(6.12323e-17 -1 1 6.12323e-17 3547.52 3133)">1.53 KB</text></g><g clip-path="url(#clip28)"><text fill="#595959" font-family="Calibri,Calibri_MSFontService,sans-serif" font-weight="400" font-size="41" transform="matrix(6.12323e-17 -1 1 6.12323e-17 3859.72 3134)">67 Byte</text></g><g clip-path="url(#clip29)"><text fill="#595959" font-family="Calibri,Calibri_MSFontService,sans-serif" font-weight="400" font-size="41" transform="matrix(6.12323e-17 -1 1 6.12323e-17 3937.77 3133)">1.53 KB</text></g><g clip-path="url(#clip30)"><text fill="#595959" font-family="Calibri,Calibri_MSFontService,sans-serif" font-weight="400" font-size="41" transform="matrix(6.12323e-17 -1 1 6.12323e-17 4249.98 3134)">67 Byte</text></g><g clip-path="url(#clip31)"><text fill="#595959" font-family="Calibri,Calibri_MSFontService,sans-serif" font-weight="400" font-size="41" transform="matrix(6.12323e-17 -1 1 6.12323e-17 4328.03 3133)">1.53 KB</text></g><g clip-path="url(#clip32)"><text fill="#595959" font-family="Calibri,Calibri_MSFontService,sans-serif" font-weight="400" font-size="41" transform="matrix(6.12323e-17 -1 1 6.12323e-17 4406.08 3133)">17.5 KB</text></g><g clip-path="url(#clip33)"><text fill="#595959" font-family="Calibri,Calibri_MSFontService,sans-serif" font-weight="400" font-size="41" transform="matrix(6.12323e-17 -1 1 6.12323e-17 4484.13 3364)">16 KB (min. Entropie)</text></g><g clip-path="url(#clip34)"><text fill="#595959" font-family="Calibri,Calibri_MSFontService,sans-serif" font-weight="400" font-size="41" transform="matrix(6.12323e-17 -1 1 6.12323e-17 4562.18 3255)">16.8 KB (binär)</text></g><g clip-path="url(#clip35)"><text fill="#595959" font-family="Calibri,Calibri_MSFontService,sans-serif" font-weight="400" font-size="41" transform="matrix(6.12323e-17 -1 1 6.12323e-17 4640.23 3134)">67 Byte</text></g><g clip-path="url(#clip36)"><text fill="#595959" font-family="Calibri,Calibri_MSFontService,sans-serif" font-weight="400" font-size="41" transform="matrix(6.12323e-17 -1 1 6.12323e-17 4718.28 3133)">1.53 KB</text></g><g clip-path="url(#clip37)"><text fill="#595959" font-family="Calibri,Calibri_MSFontService,sans-serif" font-weight="400" font-size="41" transform="matrix(6.12323e-17 -1 1 6.12323e-17 4796.33 3133)">17.5 KB</text></g><g clip-path="url(#clip38)"><text fill="#595959" font-family="Calibri,Calibri_MSFontService,sans-serif" font-weight="400" font-size="41" transform="matrix(6.12323e-17 -1 1 6.12323e-17 4874.38 3364)">16 KB (min. Entropie)</text></g><g clip-path="url(#clip39)"><text fill="#595959" font-family="Calibri,Calibri_MSFontService,sans-serif" font-weight="400" font-size="41" transform="matrix(1 0 0 1 3181.6 3432)">jsteg</text></g><g clip-path="url(#clip40)"><text fill="#595959" font-family="Calibri,Calibri_MSFontService,sans-serif" font-weight="400" font-size="41" transform="matrix(1 0 0 1 3536.18 3432)">outguess</text></g><g clip-path="url(#clip41)"><text fill="#595959" font-family="Calibri,Calibri_MSFontService,sans-serif" font-weight="400" font-size="41" transform="matrix(1 0 0 1 3883.57 3432)">outguess-0.13</text></g><g clip-path="url(#clip42)"><text fill="#595959" font-family="Calibri,Calibri_MSFontService,sans-serif" font-weight="400" font-size="41" transform="matrix(1 0 0 1 4320.63 3432)">steghide</text></g><g clip-path="url(#clip43)"><text fill="#595959" font-family="Calibri,Calibri_MSFontService,sans-serif" font-weight="400" font-size="41" transform="matrix(1 0 0 1 4726.74 3432)">f5</text></g><g clip-path="url(#clip44)"><text fill="#595959" font-family="Calibri,Calibri_MSFontService,sans-serif" font-weight="400" font-size="64" transform="matrix(1 0 0 1 3036.92 2295)">schwarz</text></g><g clip-path="url(#clip45)"><text fill="#595959" font-family="Calibri,Calibri_MSFontService,sans-serif" font-weight="400" font-size="64" transform="matrix(1 0 0 1 3246.03 2295)">-</text></g><g clip-path="url(#clip46)"><text fill="#595959" font-family="Calibri,Calibri_MSFontService,sans-serif" font-weight="400" font-size="64" transform="matrix(1 0 0 1 3265.67 2295)">weiß</text></g><g clip-path="url(#clip47)"><text fill="#595959" font-family="Calibri,Calibri_MSFontService,sans-serif" font-weight="400" font-size="64" transform="matrix(1 0 0 1 3391.48 2295)">-</text></g><g clip-path="url(#clip48)"><text fill="#595959" font-family="Calibri,Calibri_MSFontService,sans-serif" font-weight="400" font-size="64" transform="matrix(1 0 0 1 3411.12 2295)">Verhältnis im </text></g><g clip-path="url(#clip49)"><text fill="#595959" font-family="Calibri,Calibri_MSFontService,sans-serif" font-weight="700" font-size="64" transform="matrix(1 0 0 1 3767.87 2295)">Differenzbild</text></g><g clip-path="url(#clip50)"><text fill="#595959" font-family="Calibri,Calibri_MSFontService,sans-serif" font-weight="400" font-size="64" transform="matrix(1 0 0 1 4125.16 2295)">einzelner Farbkanäle </text></g><g clip-path="url(#clip51)"><text fill="#595959" font-family="Calibri,Calibri_MSFontService,sans-serif" font-weight="400" font-size="64" transform="matrix(1 0 0 1 3659.43 2373)">(bows2</text></g><g clip-path="url(#clip52)"><text fill="#595959" font-family="Calibri,Calibri_MSFontService,sans-serif" font-weight="400" font-size="64" transform="matrix(1 0 0 1 3849.11 2373)">-</text></g><g clip-path="url(#clip53)"><text fill="#595959" font-family="Calibri,Calibri_MSFontService,sans-serif" font-weight="400" font-size="64" transform="matrix(1 0 0 1 3868.75 2373)">Bilder)</text></g><g clip-path="url(#clip54)"><rect x="3680.5" y="3497.5" width="22" height="22.9998" stroke="#CC0000" stroke-width="3.4375" stroke-linejoin="round" stroke-miterlimit="10" fill="#FF5050"/></g><g clip-path="url(#clip55)"><text fill="#595959" font-family="Calibri,Calibri_MSFontService,sans-serif" font-weight="400" font-size="41" transform="matrix(1 0 0 1 3712.43 3520)">rot</text></g><g clip-path="url(#clip56)"><rect x="3792.5" y="3497.5" width="22" height="22.9998" stroke="#548235" stroke-width="3.4375" stroke-linejoin="round" stroke-miterlimit="10" fill="#A9D18E"/></g><g clip-path="url(#clip57)"><text fill="#595959" font-family="Calibri,Calibri_MSFontService,sans-serif" font-weight="400" font-size="41" transform="matrix(1 0 0 1 3824.48 3520)">grün</text></g><g clip-path="url(#clip58)"><rect x="3931.5" y="3497.5" width="23" height="22.9998" stroke="#2F5597" stroke-width="3.4375" stroke-linejoin="round" stroke-miterlimit="10" fill="#8FAADC"/></g><g clip-path="url(#clip59)"><text fill="#595959" font-family="Calibri,Calibri_MSFontService,sans-serif" font-weight="400" font-size="41" transform="matrix(1 0 0 1 3963.74 3520)">blau</text></g><rect x="2750.5" y="2200.5" width="2200" height="1375" stroke="#D9D9D9" stroke-width="3.4375" stroke-linejoin="round" stroke-miterlimit="10" fill="none"/></g></svg>