<svg width="2478" height="1376" xmlns="http://www.w3.org/2000/svg" xmlns:xlink="http://www.w3.org/1999/xlink" xml:space="preserve" overflow="hidden"><defs><clipPath id="clip0"><rect x="1924" y="207" width="2478" height="1376"/></clipPath><clipPath id="clip1"><rect x="1925" y="207" width="2475" height="1374"/></clipPath><clipPath id="clip2"><rect x="2116" y="377" width="2237" height="613"/></clipPath><clipPath id="clip3"><rect x="2116" y="377" width="2237" height="613"/></clipPath><clipPath id="clip4"><rect x="2116" y="377" width="2237" height="613"/></clipPath><clipPath id="clip5"><rect x="2116" y="377" width="2237" height="613"/></clipPath><clipPath id="clip6"><rect x="1925" y="207" width="2475" height="1374"/></clipPath><clipPath id="clip7"><rect x="1925" y="207" width="2475" height="1374"/></clipPath><clipPath id="clip8"><rect x="1925" y="207" width="2475" height="1374"/></clipPath><clipPath id="clip9"><rect x="1925" y="207" width="2475" height="1374"/></clipPath><clipPath id="clip10"><rect x="1925" y="207" width="2475" height="1374"/></clipPath><clipPath id="clip11"><rect x="1925" y="207" width="2475" height="1374"/></clipPath><clipPath id="clip12"><rect x="1925" y="207" width="2475" height="1374"/></clipPath><clipPath id="clip13"><rect x="1925" y="207" width="2475" height="1374"/></clipPath><clipPath id="clip14"><rect x="1925" y="207" width="2475" height="1374"/></clipPath><clipPath id="clip15"><rect x="1925" y="207" width="2475" height="1374"/></clipPath><clipPath id="clip16"><rect x="1925" y="207" width="2475" height="1374"/></clipPath><clipPath id="clip17"><rect x="1925" y="207" width="2475" height="1374"/></clipPath><clipPath id="clip18"><rect x="1925" y="207" width="2475" height="1374"/></clipPath><clipPath id="clip19"><rect x="1925" y="207" width="2475" height="1374"/></clipPath><clipPath id="clip20"><rect x="1925" y="207" width="2475" height="1374"/></clipPath><clipPath id="clip21"><rect x="1925" y="207" width="2475" height="1374"/></clipPath><clipPath id="clip22"><rect x="1925" y="207" width="2475" height="1374"/></clipPath><clipPath id="clip23"><rect x="1925" y="207" width="2475" height="1374"/></clipPath><clipPath id="clip24"><rect x="1925" y="207" width="2475" height="1374"/></clipPath><clipPath id="clip25"><rect x="1925" y="207" width="2475" height="1374"/></clipPath><clipPath id="clip26"><rect x="1925" y="207" width="2475" height="1374"/></clipPath><clipPath id="clip27"><rect x="1925" y="207" width="2475" height="1374"/></clipPath><clipPath id="clip28"><rect x="1925" y="207" width="2475" height="1374"/></clipPath><clipPath id="clip29"><rect x="1925" y="207" width="2475" height="1374"/></clipPath><clipPath id="clip30"><rect x="1925" y="207" width="2475" height="1374"/></clipPath><clipPath id="clip31"><rect x="1925" y="207" width="2475" height="1374"/></clipPath><clipPath id="clip32"><rect x="1925" y="207" width="2475" height="1374"/></clipPath><clipPath id="clip33"><rect x="1925" y="207" width="2475" height="1374"/></clipPath><clipPath id="clip34"><rect x="1925" y="207" width="2475" height="1374"/></clipPath><clipPath id="clip35"><rect x="1925" y="207" width="2475" height="1374"/></clipPath><clipPath id="clip36"><rect x="1925" y="207" width="2475" height="1374"/></clipPath><clipPath id="clip37"><rect x="1925" y="207" width="2475" height="1374"/></clipPath><clipPath id="clip38"><rect x="1925" y="207" width="2475" height="1374"/></clipPath><clipPath id="clip39"><rect x="1925" y="207" width="2475" height="1374"/></clipPath><clipPath id="clip40"><rect x="1925" y="207" width="2475" height="1374"/></clipPath><clipPath id="clip41"><rect x="1925" y="207" width="2475" height="1374"/></clipPath><clipPath id="clip42"><rect x="1925" y="207" width="2475" height="1374"/></clipPath><clipPath id="clip43"><rect x="1925" y="207" width="2475" height="1374"/></clipPath><clipPath id="clip44"><rect x="1925" y="207" width="2475" height="1374"/></clipPath><clipPath id="clip45"><rect x="1925" y="207" width="2475" height="1374"/></clipPath><clipPath id="clip46"><rect x="1925" y="207" width="2475" height="1374"/></clipPath><clipPath id="clip47"><rect x="1925" y="207" width="2475" height="1374"/></clipPath><clipPath id="clip48"><rect x="1925" y="207" width="2475" height="1374"/></clipPath><clipPath id="clip49"><rect x="1925" y="207" width="2475" height="1374"/></clipPath><clipPath id="clip50"><rect x="1925" y="207" width="2475" height="1374"/></clipPath><clipPath id="clip51"><rect x="1925" y="207" width="2475" height="1374"/></clipPath></defs><g clip-path="url(#clip0)" transform="translate(-1924 -207)"><rect x="1925" y="208" width="2475" height="1373" fill="#FFFFFF"/><g clip-path="url(#clip1)"><path d="M2116.5 865.529 4349.5 865.529M2116.5 743.525 4349.5 743.525M2116.5 621.521 4349.5 621.521M2116.5 499.517 4349.5 499.517M2116.5 377.5 4349.5 377.5" stroke="#D9D9D9" stroke-width="3.4375" stroke-linejoin="round" stroke-miterlimit="10" fill="none"/></g><g clip-path="url(#clip2)"><path d="M2692.59 949.531 2708.59 949.531 2708.59 987.5 2692.59 987.5ZM2803.59 592.52 2819.59 592.52 2819.59 987.5 2803.59 987.5ZM3250.61 880.529 3266.61 880.529 3266.61 987.5 3250.61 987.5ZM3362.61 834.528 3378.61 834.528 3378.61 987.5 3362.61 987.5ZM3473.61 808.527 3489.61 808.527 3489.61 987.5 3473.61 987.5ZM3585.62 876.529 3601.62 876.529 3601.62 987.5 3585.62 987.5ZM3697.62 831.527 3712.62 831.527 3712.62 987.5 3697.62 987.5Z" stroke="#333F50" stroke-width="3.4375" stroke-linejoin="round" stroke-miterlimit="10" fill="#8497B0"/></g><g clip-path="url(#clip3)"><path d="M2712.59 966.532 2728.59 966.532 2728.59 987.5 2712.59 987.5ZM2824.59 648.521 2840.59 648.521 2840.59 987.5 2824.59 987.5ZM3270.61 949.531 3286.61 949.531 3286.61 987.5 3270.61 987.5ZM3382.61 923.53 3398.61 923.53 3398.61 987.5 3382.61 987.5ZM3493.61 923.53 3509.62 923.53 3509.62 987.5 3493.61 987.5ZM3605.62 936.531 3621.62 936.531 3621.62 987.5 3605.62 987.5ZM3717.62 898.53 3733.62 898.53 3733.62 987.5 3717.62 987.5ZM3940.63 530.518 3956.63 530.518 3956.63 987.5 3940.63 987.5Z" stroke="#BF9000" stroke-width="3.4375" stroke-linejoin="round" stroke-miterlimit="10" fill="#FFD966"/></g><g clip-path="url(#clip4)"><path d="M2732.59 974.532 2748.59 974.532 2748.59 987.5 2732.59 987.5ZM2844.59 952.531 2860.59 952.531 2860.59 987.5 2844.59 987.5ZM2955.6 470.516 2971.6 470.516 2971.6 987.5 2955.6 987.5ZM3067.6 487.516 3083.6 487.516 3083.6 987.5 3067.6 987.5ZM3179.6 452.515 3195.6 452.515 3195.6 987.5 3179.6 987.5ZM3290.61 791.526 3306.61 791.526 3306.61 987.5 3290.61 987.5ZM3402.61 765.525 3418.61 765.525 3418.61 987.5 3402.61 987.5ZM3514.62 752.525 3530.62 752.525 3530.62 987.5 3514.62 987.5ZM3625.62 804.527 3641.62 804.527 3641.62 987.5 3625.62 987.5ZM3737.62 804.527 3753.62 804.527 3753.62 987.5 3737.62 987.5ZM3960.63 856.528 3976.63 856.528 3976.63 987.5 3960.63 987.5ZM4072.63 500.517 4088.63 500.517 4088.63 987.5 4072.63 987.5ZM4184.64 491.516 4200.64 491.516 4200.64 987.5 4184.64 987.5Z" stroke="#548235" stroke-width="3.4375" stroke-linejoin="round" stroke-miterlimit="10" fill="#A9D18E"/></g><g clip-path="url(#clip5)"><path d="M2976.6 662.522 2992.6 662.522 2992.6 987.5 2976.6 987.5ZM3087.6 825.527 3103.6 825.527 3103.6 987.5 3087.6 987.5ZM3199.61 662.522 3215.61 662.522 3215.61 987.5 3199.61 987.5ZM3981.63 499.517 3997.63 499.517 3997.63 987.5 3981.63 987.5ZM4092.63 662.522 4108.63 662.522 4108.63 987.5 4092.63 987.5ZM4204.64 662.522 4220.64 662.522 4220.64 987.5 4204.64 987.5Z" stroke="#CC0000" stroke-width="3.4375" stroke-linejoin="round" stroke-miterlimit="10" fill="#FF5050"/></g><g clip-path="url(#clip6)"><path d="M2116.5 987.5 4349.5 987.5" stroke="#D9D9D9" stroke-width="3.4375" stroke-linejoin="round" stroke-miterlimit="10" fill="none" fill-rule="evenodd"/></g><g clip-path="url(#clip7)"><path d="M2116.5 987.5 2116.5 1373.5M2674.59 987.5 2674.59 1373.5M3232.61 987.5 3232.61 1373.5M3791.62 987.5 3791.62 1373.5M4349.5 987.5 4349.5 1373.5" stroke="#D9D9D9" stroke-width="3.4375" stroke-linejoin="round" stroke-miterlimit="10" fill="none"/></g><g clip-path="url(#clip8)"><path d="M2116.5 1373.5 2116.5 1453.5M2674.59 1373.5 2674.59 1453.5M3232.61 1373.5 3232.61 1453.5M3791.62 1373.5 3791.62 1453.5M4349.5 1373.5 4349.5 1453.5" stroke="#D9D9D9" stroke-width="3.4375" stroke-linejoin="round" stroke-miterlimit="10" fill="none"/></g><g clip-path="url(#clip9)"><text fill="#595959" font-family="Calibri,Calibri_MSFontService,sans-serif" font-weight="400" font-size="41" transform="matrix(1 0 0 1 1975.69 999)">0.00%</text></g><g clip-path="url(#clip10)"><text fill="#595959" font-family="Calibri,Calibri_MSFontService,sans-serif" font-weight="400" font-size="41" transform="matrix(1 0 0 1 1975.69 877)">5.00%</text></g><g clip-path="url(#clip11)"><text fill="#595959" font-family="Calibri,Calibri_MSFontService,sans-serif" font-weight="400" font-size="41" transform="matrix(1 0 0 1 1954.79 755)">10.00%</text></g><g clip-path="url(#clip12)"><text fill="#595959" font-family="Calibri,Calibri_MSFontService,sans-serif" font-weight="400" font-size="41" transform="matrix(1 0 0 1 1954.79 633)">15.00%</text></g><g clip-path="url(#clip13)"><text fill="#595959" font-family="Calibri,Calibri_MSFontService,sans-serif" font-weight="400" font-size="41" transform="matrix(1 0 0 1 1954.79 511)">20.00%</text></g><g clip-path="url(#clip14)"><text fill="#595959" font-family="Calibri,Calibri_MSFontService,sans-serif" font-weight="400" font-size="41" transform="matrix(1 0 0 1 1954.79 390)">25.00%</text></g><g clip-path="url(#clip15)"><text fill="#595959" font-family="Calibri,Calibri_MSFontService,sans-serif" font-weight="400" font-size="41" transform="matrix(6.12323e-17 -1 1 6.12323e-17 2186.21 1140)">67 Byte</text></g><g clip-path="url(#clip16)"><text fill="#595959" font-family="Calibri,Calibri_MSFontService,sans-serif" font-weight="400" font-size="41" transform="matrix(6.12323e-17 -1 1 6.12323e-17 2297.86 1140)">1.53 KB</text></g><g clip-path="url(#clip17)"><text fill="#595959" font-family="Calibri,Calibri_MSFontService,sans-serif" font-weight="400" font-size="41" transform="matrix(6.12323e-17 -1 1 6.12323e-17 2409.51 1140)">17.5 KB</text></g><g clip-path="url(#clip18)"><text fill="#595959" font-family="Calibri,Calibri_MSFontService,sans-serif" font-weight="400" font-size="41" transform="matrix(6.12323e-17 -1 1 6.12323e-17 2521.16 1370)">16 KB (min. Entropie)</text></g><g clip-path="url(#clip19)"><text fill="#595959" font-family="Calibri,Calibri_MSFontService,sans-serif" font-weight="400" font-size="41" transform="matrix(6.12323e-17 -1 1 6.12323e-17 2632.81 1261)">16.8 KB (binär)</text></g><g clip-path="url(#clip20)"><text fill="#595959" font-family="Calibri,Calibri_MSFontService,sans-serif" font-weight="400" font-size="41" transform="matrix(6.12323e-17 -1 1 6.12323e-17 2744.46 1140)">67 Byte</text></g><g clip-path="url(#clip21)"><text fill="#595959" font-family="Calibri,Calibri_MSFontService,sans-serif" font-weight="400" font-size="41" transform="matrix(6.12323e-17 -1 1 6.12323e-17 2856.12 1140)">1.53 KB</text></g><g clip-path="url(#clip22)"><text fill="#595959" font-family="Calibri,Calibri_MSFontService,sans-serif" font-weight="400" font-size="41" transform="matrix(6.12323e-17 -1 1 6.12323e-17 2967.77 1140)">17.5 KB</text></g><g clip-path="url(#clip23)"><text fill="#595959" font-family="Calibri,Calibri_MSFontService,sans-serif" font-weight="400" font-size="41" transform="matrix(6.12323e-17 -1 1 6.12323e-17 3079.42 1370)">16 KB (min. Entropie)</text></g><g clip-path="url(#clip24)"><text fill="#595959" font-family="Calibri,Calibri_MSFontService,sans-serif" font-weight="400" font-size="41" transform="matrix(6.12323e-17 -1 1 6.12323e-17 3191.07 1261)">16.8 KB (binär)</text></g><g clip-path="url(#clip25)"><text fill="#595959" font-family="Calibri,Calibri_MSFontService,sans-serif" font-weight="400" font-size="41" transform="matrix(6.12323e-17 -1 1 6.12323e-17 3302.72 1140)">67 Byte</text></g><g clip-path="url(#clip26)"><text fill="#595959" font-family="Calibri,Calibri_MSFontService,sans-serif" font-weight="400" font-size="41" transform="matrix(6.12323e-17 -1 1 6.12323e-17 3414.37 1140)">1.53 KB</text></g><g clip-path="url(#clip27)"><text fill="#595959" font-family="Calibri,Calibri_MSFontService,sans-serif" font-weight="400" font-size="41" transform="matrix(6.12323e-17 -1 1 6.12323e-17 3526.02 1140)">17.5 KB</text></g><g clip-path="url(#clip28)"><text fill="#595959" font-family="Calibri,Calibri_MSFontService,sans-serif" font-weight="400" font-size="41" transform="matrix(6.12323e-17 -1 1 6.12323e-17 3637.68 1370)">16 KB (min. Entropie)</text></g><g clip-path="url(#clip29)"><text fill="#595959" font-family="Calibri,Calibri_MSFontService,sans-serif" font-weight="400" font-size="41" transform="matrix(6.12323e-17 -1 1 6.12323e-17 3749.33 1261)">16.8 KB (binär)</text></g><g clip-path="url(#clip30)"><text fill="#595959" font-family="Calibri,Calibri_MSFontService,sans-serif" font-weight="400" font-size="41" transform="matrix(6.12323e-17 -1 1 6.12323e-17 3860.98 1140)">67 Byte</text></g><g clip-path="url(#clip31)"><text fill="#595959" font-family="Calibri,Calibri_MSFontService,sans-serif" font-weight="400" font-size="41" transform="matrix(6.12323e-17 -1 1 6.12323e-17 3972.63 1140)">1.53 KB</text></g><g clip-path="url(#clip32)"><text fill="#595959" font-family="Calibri,Calibri_MSFontService,sans-serif" font-weight="400" font-size="41" transform="matrix(6.12323e-17 -1 1 6.12323e-17 4084.28 1140)">17.5 KB</text></g><g clip-path="url(#clip33)"><text fill="#595959" font-family="Calibri,Calibri_MSFontService,sans-serif" font-weight="400" font-size="41" transform="matrix(6.12323e-17 -1 1 6.12323e-17 4195.93 1370)">16 KB (min. Entropie)</text></g><g clip-path="url(#clip34)"><text fill="#595959" font-family="Calibri,Calibri_MSFontService,sans-serif" font-weight="400" font-size="41" transform="matrix(6.12323e-17 -1 1 6.12323e-17 4307.58 1261)">16.8 KB (binär)</text></g><g clip-path="url(#clip35)"><text fill="#595959" font-family="Calibri,Calibri_MSFontService,sans-serif" font-weight="400" font-size="41" transform="matrix(1 0 0 1 2249.76 1439)">stegdetect (jsteg)</text></g><g clip-path="url(#clip36)"><text fill="#595959" font-family="Calibri,Calibri_MSFontService,sans-serif" font-weight="400" font-size="41" transform="matrix(1 0 0 1 2729.47 1439)">stegdetect (outguess-0.13)</text></g><g clip-path="url(#clip37)"><text fill="#595959" font-family="Calibri,Calibri_MSFontService,sans-serif" font-weight="400" font-size="41" transform="matrix(1 0 0 1 3372.64 1439)">stegbreak (jsteg)</text></g><g clip-path="url(#clip38)"><text fill="#595959" font-family="Calibri,Calibri_MSFontService,sans-serif" font-weight="400" font-size="41" transform="matrix(1 0 0 1 3852.34 1439)">stegbreak (outguess-0.13)</text></g><g clip-path="url(#clip39)"><text fill="#595959" font-family="Calibri,Calibri_MSFontService,sans-serif" font-weight="700" font-size="64" transform="matrix(1 0 0 1 2479.07 303)">Detektionsergebnisse</text></g><g clip-path="url(#clip40)"><text fill="#595959" font-family="Calibri,Calibri_MSFontService,sans-serif" font-weight="400" font-size="64" transform="matrix(1 0 0 1 3067.29 303)">von </text></g><g clip-path="url(#clip41)"><text fill="#595959" font-family="Calibri,Calibri_MSFontService,sans-serif" font-weight="700" font-size="64" transform="matrix(1 0 0 1 3177.75 303)">stegdetect </text></g><g clip-path="url(#clip42)"><text fill="#595959" font-family="Calibri,Calibri_MSFontService,sans-serif" font-weight="400" font-size="64" transform="matrix(1 0 0 1 3469.87 303)">und</text></g><g clip-path="url(#clip43)"><text fill="#595959" font-family="Calibri,Calibri_MSFontService,sans-serif" font-weight="700" font-size="64" transform="matrix(1 0 0 1 3585.51 303)">stegbreak</text></g><g clip-path="url(#clip44)"><rect x="2689.5" y="1503.5" width="23" height="23" stroke="#333F50" stroke-width="3.4375" stroke-linejoin="round" stroke-miterlimit="10" fill="#8497B0"/></g><g clip-path="url(#clip45)"><text fill="#595959" font-family="Calibri,Calibri_MSFontService,sans-serif" font-weight="400" font-size="41" transform="matrix(1 0 0 1 2721.94 1527)">alaska2</text></g><g clip-path="url(#clip46)"><rect x="2894.5" y="1503.5" width="22" height="23" stroke="#BF9000" stroke-width="3.4375" stroke-linejoin="round" stroke-miterlimit="10" fill="#FFD966"/></g><g clip-path="url(#clip47)"><text fill="#595959" font-family="Calibri,Calibri_MSFontService,sans-serif" font-weight="400" font-size="41" transform="matrix(1 0 0 1 2926.59 1527)">bows2</text></g><g clip-path="url(#clip48)"><rect x="3084.5" y="1503.5" width="23" height="23" stroke="#548235" stroke-width="3.4375" stroke-linejoin="round" stroke-miterlimit="10" fill="#A9D18E"/></g><g clip-path="url(#clip49)"><text fill="#595959" font-family="Calibri,Calibri_MSFontService,sans-serif" font-weight="400" font-size="41" transform="matrix(1 0 0 1 3116.68 1527)">Smartphone</text></g><g clip-path="url(#clip50)"><rect x="3371.5" y="1503.5" width="23" height="23" stroke="#CC0000" stroke-width="3.4375" stroke-linejoin="round" stroke-miterlimit="10" fill="#FF5050"/></g><g clip-path="url(#clip51)"><text fill="#595959" font-family="Calibri,Calibri_MSFontService,sans-serif" font-weight="400" font-size="41" transform="matrix(1 0 0 1 3404.01 1527)">hochauflösend</text></g><rect x="1925.5" y="208.5" width="2475" height="1373" stroke="#D9D9D9" stroke-width="3.4375" stroke-linejoin="round" stroke-miterlimit="10" fill="none"/></g></svg>