<svg width="1653" height="1239" xmlns="http://www.w3.org/2000/svg" xmlns:xlink="http://www.w3.org/1999/xlink" xml:space="preserve" overflow="hidden"><defs><clipPath id="clip0"><rect x="2804" y="207" width="1653" height="1239"/></clipPath><clipPath id="clip1"><rect x="2805" y="207" width="1650" height="1236"/></clipPath><clipPath id="clip2"><rect x="2965" y="377" width="1443" height="450"/></clipPath><clipPath id="clip3"><rect x="2965" y="377" width="1443" height="450"/></clipPath><clipPath id="clip4"><rect x="2965" y="377" width="1443" height="450"/></clipPath><clipPath id="clip5"><rect x="2965" y="377" width="1443" height="450"/></clipPath><clipPath id="clip6"><rect x="2965" y="377" width="1443" height="450"/></clipPath><clipPath id="clip7"><rect x="2965" y="377" width="1443" height="450"/></clipPath><clipPath id="clip8"><rect x="2805" y="207" width="1650" height="1236"/></clipPath><clipPath id="clip9"><rect x="2805" y="207" width="1650" height="1236"/></clipPath><clipPath id="clip10"><rect x="2805" y="207" width="1650" height="1236"/></clipPath><clipPath id="clip11"><rect x="2805" y="207" width="1650" height="1236"/></clipPath><clipPath id="clip12"><rect x="2805" y="207" width="1650" height="1236"/></clipPath><clipPath id="clip13"><rect x="2805" y="207" width="1650" height="1236"/></clipPath><clipPath id="clip14"><rect x="2805" y="207" width="1650" height="1236"/></clipPath><clipPath id="clip15"><rect x="2805" y="207" width="1650" height="1236"/></clipPath><clipPath id="clip16"><rect x="2805" y="207" width="1650" height="1236"/></clipPath><clipPath id="clip17"><rect x="2805" y="207" width="1650" height="1236"/></clipPath><clipPath id="clip18"><rect x="2805" y="207" width="1650" height="1236"/></clipPath><clipPath id="clip19"><rect x="2805" y="207" width="1650" height="1236"/></clipPath><clipPath id="clip20"><rect x="2805" y="207" width="1650" height="1236"/></clipPath><clipPath id="clip21"><rect x="2805" y="207" width="1650" height="1236"/></clipPath><clipPath id="clip22"><rect x="2805" y="207" width="1650" height="1236"/></clipPath><clipPath id="clip23"><rect x="2805" y="207" width="1650" height="1236"/></clipPath><clipPath id="clip24"><rect x="2805" y="207" width="1650" height="1236"/></clipPath><clipPath id="clip25"><rect x="2805" y="207" width="1650" height="1236"/></clipPath><clipPath id="clip26"><rect x="2805" y="207" width="1650" height="1236"/></clipPath><clipPath id="clip27"><rect x="2805" y="207" width="1650" height="1236"/></clipPath><clipPath id="clip28"><rect x="2805" y="207" width="1650" height="1236"/></clipPath><clipPath id="clip29"><rect x="2805" y="207" width="1650" height="1236"/></clipPath><clipPath id="clip30"><rect x="2805" y="207" width="1650" height="1236"/></clipPath><clipPath id="clip31"><rect x="2805" y="207" width="1650" height="1236"/></clipPath><clipPath id="clip32"><rect x="2805" y="207" width="1650" height="1236"/></clipPath><clipPath id="clip33"><rect x="2805" y="207" width="1650" height="1236"/></clipPath><clipPath id="clip34"><rect x="2805" y="207" width="1650" height="1236"/></clipPath><clipPath id="clip35"><rect x="2805" y="207" width="1650" height="1236"/></clipPath><clipPath id="clip36"><rect x="2805" y="207" width="1650" height="1236"/></clipPath><clipPath id="clip37"><rect x="2805" y="207" width="1650" height="1236"/></clipPath><clipPath id="clip38"><rect x="2805" y="207" width="1650" height="1236"/></clipPath><clipPath id="clip39"><rect x="2805" y="207" width="1650" height="1236"/></clipPath><clipPath id="clip40"><rect x="2805" y="207" width="1650" height="1236"/></clipPath></defs><g clip-path="url(#clip0)" transform="translate(-2804 -207)"><rect x="2805" y="208" width="1650" height="1236" fill="#FFFFFF"/><g clip-path="url(#clip1)"><path d="M2965.5 779.526 4404.5 779.526M2965.5 734.524 4404.5 734.524M2965.5 690.523 4404.5 690.523M2965.5 645.521 4404.5 645.521M2965.5 600.52 4404.5 600.52M2965.5 556.518 4404.5 556.518M2965.5 511.517 4404.5 511.517M2965.5 467.516 4404.5 467.516M2965.5 422.514 4404.5 422.514M2965.5 377.5 4404.5 377.5" stroke="#D9D9D9" stroke-width="3.4375" stroke-linejoin="round" stroke-miterlimit="10" fill="none"/></g><g clip-path="url(#clip2)"><path d="M3738.62 765.525 3810.63 765.525 3810.63 823.5 3738.62 823.5ZM3918.63 688.523 3990.63 688.523 3990.63 823.5 3918.63 823.5ZM4098.63 801.526 4170.64 801.526 4170.64 823.5 4098.63 823.5ZM4278.64 801.526 4350.64 801.526 4350.64 823.5 4278.64 823.5Z" stroke="#548235" stroke-width="3.4375" stroke-linejoin="round" stroke-miterlimit="10" fill="#A9D18E"/></g><g clip-path="url(#clip3)"><path d="M3019.6 734.524 3091.6 734.524 3091.6 823.5 3019.6 823.5ZM3199.61 734.524 3271.61 734.524 3271.61 823.5 3199.61 823.5ZM3378.61 734.524 3450.61 734.524 3450.61 823.5 3378.61 823.5ZM3558.62 734.524 3630.62 734.524 3630.62 823.5 3558.62 823.5ZM3738.62 688.523 3810.63 688.523 3810.63 765.525 3738.62 765.525ZM3918.63 610.52 3990.63 610.52 3990.63 688.523 3918.63 688.523ZM4098.63 734.524 4170.64 734.524 4170.64 801.526 4098.63 801.526ZM4278.64 734.524 4350.64 734.524 4350.64 801.526 4278.64 801.526Z" stroke="#548235" stroke-width="3.4375" stroke-linejoin="round" stroke-miterlimit="10" fill="#C5E0B4"/></g><g clip-path="url(#clip4)"><path d="M3019.6 645.521 3091.6 645.521 3091.6 734.524 3019.6 734.524ZM3199.61 534.518 3271.61 534.518 3271.61 734.524 3199.61 734.524ZM3378.61 534.518 3450.61 534.518 3450.61 734.524 3378.61 734.524ZM3558.62 534.518 3630.62 534.518 3630.62 734.524 3558.62 734.524ZM3738.62 494.516 3810.63 494.516 3810.63 688.523 3738.62 688.523ZM3918.63 494.516 3990.63 494.516 3990.63 610.52 3918.63 610.52ZM4098.63 645.521 4170.64 645.521 4170.64 734.524 4098.63 734.524ZM4278.64 645.521 4350.64 645.521 4350.64 734.524 4278.64 734.524Z" stroke="#333F50" stroke-width="3.4375" stroke-linejoin="round" stroke-miterlimit="10" fill="#8497B0"/></g><g clip-path="url(#clip5)"><path d="M3019.6 556.518 3091.6 556.518 3091.6 645.521 3019.6 645.521ZM3199.61 444.515 3271.61 444.515 3271.61 534.518 3199.61 534.518ZM3378.61 444.515 3450.61 444.515 3450.61 534.518 3378.61 534.518ZM3558.62 444.515 3630.62 444.515 3630.62 534.518 3558.62 534.518ZM3738.62 377.5 3810.63 377.5 3810.63 494.516 3738.62 494.516ZM3918.63 377.5 3990.63 377.5 3990.63 494.516 3918.63 494.516ZM4098.63 556.518 4170.64 556.518 4170.64 645.521 4098.63 645.521ZM4278.64 556.518 4350.64 556.518 4350.64 645.521 4278.64 645.521Z" stroke="#333F50" stroke-width="3.4375" stroke-linejoin="round" stroke-miterlimit="10" fill="#ADB9CA"/></g><g clip-path="url(#clip6)"><path d="M3019.6 489.516 3091.6 489.516 3091.6 556.518 3019.6 556.518ZM3199.61 377.5 3271.61 377.5 3271.61 444.515 3199.61 444.515ZM3378.61 377.5 3450.61 377.5 3450.61 444.515 3378.61 444.515ZM3558.62 377.5 3630.62 377.5 3630.62 444.515 3558.62 444.515ZM4098.63 489.516 4170.64 489.516 4170.64 556.518 4098.63 556.518ZM4278.64 489.516 4350.64 489.516 4350.64 556.518 4278.64 556.518Z" stroke="#BF9000" stroke-width="3.4375" stroke-linejoin="round" stroke-miterlimit="10" fill="#FFD966"/></g><g clip-path="url(#clip7)"><path d="M3019.6 377.5 3091.6 377.5 3091.6 489.516 3019.6 489.516ZM4098.63 377.5 4170.64 377.5 4170.64 489.516 4098.63 489.516ZM4278.64 377.5 4350.64 377.5 4350.64 489.516 4278.64 489.516Z" stroke="#BF9000" stroke-width="3.4375" stroke-linejoin="round" stroke-miterlimit="10" fill="#FFE699"/></g><g clip-path="url(#clip8)"><path d="M2965.5 823.5 4404.5 823.5" stroke="#D9D9D9" stroke-width="3.4375" stroke-linejoin="round" stroke-miterlimit="10" fill="none" fill-rule="evenodd"/></g><g clip-path="url(#clip9)"><text fill="#595959" font-family="Calibri,Calibri_MSFontService,sans-serif" font-weight="400" font-size="41" transform="matrix(1 0 0 1 2876.59 836)">0%</text></g><g clip-path="url(#clip10)"><text fill="#595959" font-family="Calibri,Calibri_MSFontService,sans-serif" font-weight="400" font-size="41" transform="matrix(1 0 0 1 2855.69 791)">10%</text></g><g clip-path="url(#clip11)"><text fill="#595959" font-family="Calibri,Calibri_MSFontService,sans-serif" font-weight="400" font-size="41" transform="matrix(1 0 0 1 2855.69 746)">20%</text></g><g clip-path="url(#clip12)"><text fill="#595959" font-family="Calibri,Calibri_MSFontService,sans-serif" font-weight="400" font-size="41" transform="matrix(1 0 0 1 2855.69 702)">30%</text></g><g clip-path="url(#clip13)"><text fill="#595959" font-family="Calibri,Calibri_MSFontService,sans-serif" font-weight="400" font-size="41" transform="matrix(1 0 0 1 2855.69 657)">40%</text></g><g clip-path="url(#clip14)"><text fill="#595959" font-family="Calibri,Calibri_MSFontService,sans-serif" font-weight="400" font-size="41" transform="matrix(1 0 0 1 2855.69 613)">50%</text></g><g clip-path="url(#clip15)"><text fill="#595959" font-family="Calibri,Calibri_MSFontService,sans-serif" font-weight="400" font-size="41" transform="matrix(1 0 0 1 2855.69 568)">60%</text></g><g clip-path="url(#clip16)"><text fill="#595959" font-family="Calibri,Calibri_MSFontService,sans-serif" font-weight="400" font-size="41" transform="matrix(1 0 0 1 2855.69 523)">70%</text></g><g clip-path="url(#clip17)"><text fill="#595959" font-family="Calibri,Calibri_MSFontService,sans-serif" font-weight="400" font-size="41" transform="matrix(1 0 0 1 2855.69 479)">80%</text></g><g clip-path="url(#clip18)"><text fill="#595959" font-family="Calibri,Calibri_MSFontService,sans-serif" font-weight="400" font-size="41" transform="matrix(1 0 0 1 2855.69 434)">90%</text></g><g clip-path="url(#clip19)"><text fill="#595959" font-family="Calibri,Calibri_MSFontService,sans-serif" font-weight="400" font-size="41" transform="matrix(1 0 0 1 2834.79 390)">100%</text></g><g clip-path="url(#clip20)"><text fill="#595959" font-family="Calibri,Calibri_MSFontService,sans-serif" font-weight="400" font-size="41" transform="matrix(0.707107 -0.707107 0.707107 0.707107 2879.61 1063)">_alaska2-51679</text></g><g clip-path="url(#clip21)"><text fill="#595959" font-family="Calibri,Calibri_MSFontService,sans-serif" font-weight="400" font-size="41" transform="matrix(0.707107 -0.707107 0.707107 0.707107 3059.52 1063)">_alaska2-51893</text></g><g clip-path="url(#clip22)"><text fill="#595959" font-family="Calibri,Calibri_MSFontService,sans-serif" font-weight="400" font-size="41" transform="matrix(0.707107 -0.707107 0.707107 0.707107 3239.44 1063)">_alaska2-62899</text></g><g clip-path="url(#clip23)"><text fill="#595959" font-family="Calibri,Calibri_MSFontService,sans-serif" font-weight="400" font-size="41" transform="matrix(0.707107 -0.707107 0.707107 0.707107 3419.36 1063)">_alaska2-66345</text></g><g clip-path="url(#clip24)"><text fill="#595959" font-family="Calibri,Calibri_MSFontService,sans-serif" font-weight="400" font-size="41" transform="matrix(0.707107 -0.707107 0.707107 0.707107 3509.13 1153)">_bb-20220414_202013</text></g><g clip-path="url(#clip25)"><text fill="#595959" font-family="Calibri,Calibri_MSFontService,sans-serif" font-weight="400" font-size="41" transform="matrix(0.707107 -0.707107 0.707107 0.707107 3689.04 1153)">_bb-20220825_134650</text></g><g clip-path="url(#clip26)"><text fill="#595959" font-family="Calibri,Calibri_MSFontService,sans-serif" font-weight="400" font-size="41" transform="matrix(0.707107 -0.707107 0.707107 0.707107 3984.17 1038)">_bows2-1230</text></g><g clip-path="url(#clip27)"><text fill="#595959" font-family="Calibri,Calibri_MSFontService,sans-serif" font-weight="400" font-size="41" transform="matrix(0.707107 -0.707107 0.707107 0.707107 4164.09 1038)">_bows2-3087</text></g><g clip-path="url(#clip28)"><text fill="#595959" font-family="Calibri,Calibri_MSFontService,sans-serif" font-weight="400" font-size="64" transform="matrix(1 0 0 1 3318.72 303)">stegbreak Fehlerklassen</text></g><g clip-path="url(#clip29)"><rect x="3008.5" y="1218.5" width="23" height="23" stroke="#548235" stroke-width="3.4375" stroke-linejoin="round" stroke-miterlimit="10" fill="#A9D18E"/></g><g clip-path="url(#clip30)"><text fill="#595959" font-family="Calibri,Calibri_MSFontService,sans-serif" font-weight="400" font-size="41" transform="matrix(1 0 0 1 3040.74 1241)"> Ergebnis: 'Einbettung gefunden'</text></g><g clip-path="url(#clip31)"><rect x="3644.5" y="1218.5" width="23" height="23" stroke="#548235" stroke-width="3.4375" stroke-linejoin="round" stroke-miterlimit="10" fill="#C5E0B4"/></g><g clip-path="url(#clip32)"><text fill="#595959" font-family="Calibri,Calibri_MSFontService,sans-serif" font-weight="400" font-size="41" transform="matrix(1 0 0 1 3677.03 1241)"> Ergebnis: 'negativ'</text></g><g clip-path="url(#clip33)"><rect x="3008.5" y="1295.5" width="23" height="23" stroke="#333F50" stroke-width="3.4375" stroke-linejoin="round" stroke-miterlimit="10" fill="#8497B0"/></g><g clip-path="url(#clip34)"><text fill="#595959" font-family="Calibri,Calibri_MSFontService,sans-serif" font-weight="400" font-size="41" transform="matrix(1 0 0 1 3050.07 1319)">SegFault 'Loaded 1 files…'</text></g><g clip-path="url(#clip35)"><rect x="3644.5" y="1295.5" width="23" height="23" stroke="#333F50" stroke-width="3.4375" stroke-linejoin="round" stroke-miterlimit="10" fill="#ADB9CA"/></g><g clip-path="url(#clip36)"><text fill="#595959" font-family="Calibri,Calibri_MSFontService,sans-serif" font-weight="400" font-size="41" transform="matrix(1 0 0 1 3677.03 1319)"> SegFault '' (leerer Output)</text></g><g clip-path="url(#clip37)"><rect x="3008.5" y="1373.5" width="23" height="22" stroke="#BF9000" stroke-width="3.4375" stroke-linejoin="round" stroke-miterlimit="10" fill="#FFD966"/></g><g clip-path="url(#clip38)"><text fill="#595959" font-family="Calibri,Calibri_MSFontService,sans-serif" font-weight="400" font-size="41" transform="matrix(1 0 0 1 3040.74 1396)"> 'Premature end of JPEG file'</text></g><g clip-path="url(#clip39)"><rect x="3644.5" y="1373.5" width="23" height="22" stroke="#BF9000" stroke-width="3.4375" stroke-linejoin="round" stroke-miterlimit="10" fill="#FFE699"/></g><g clip-path="url(#clip40)"><text fill="#595959" font-family="Calibri,Calibri_MSFontService,sans-serif" font-weight="400" font-size="41" transform="matrix(1 0 0 1 3677.03 1396)"> 'bad_size_in_bits'</text></g><rect x="2805.5" y="208.5" width="1650" height="1236" stroke="#D9D9D9" stroke-width="3.4375" stroke-linejoin="round" stroke-miterlimit="10" fill="none"/></g></svg>