<svg width="1653" height="1239" xmlns="http://www.w3.org/2000/svg" xmlns:xlink="http://www.w3.org/1999/xlink" xml:space="preserve" overflow="hidden"><defs><clipPath id="clip0"><rect x="879" y="688" width="1653" height="1239"/></clipPath><clipPath id="clip1"><rect x="880" y="689" width="1650" height="1236"/></clipPath><clipPath id="clip2"><rect x="1040" y="859" width="1443" height="449"/></clipPath><clipPath id="clip3"><rect x="1040" y="859" width="1443" height="449"/></clipPath><clipPath id="clip4"><rect x="1040" y="859" width="1443" height="449"/></clipPath><clipPath id="clip5"><rect x="1040" y="859" width="1443" height="449"/></clipPath><clipPath id="clip6"><rect x="1040" y="859" width="1443" height="449"/></clipPath><clipPath id="clip7"><rect x="1040" y="859" width="1443" height="449"/></clipPath><clipPath id="clip8"><rect x="880" y="689" width="1650" height="1236"/></clipPath><clipPath id="clip9"><rect x="880" y="689" width="1650" height="1236"/></clipPath><clipPath id="clip10"><rect x="880" y="689" width="1650" height="1236"/></clipPath><clipPath id="clip11"><rect x="880" y="689" width="1650" height="1236"/></clipPath><clipPath id="clip12"><rect x="880" y="689" width="1650" height="1236"/></clipPath><clipPath id="clip13"><rect x="880" y="689" width="1650" height="1236"/></clipPath><clipPath id="clip14"><rect x="880" y="689" width="1650" height="1236"/></clipPath><clipPath id="clip15"><rect x="880" y="689" width="1650" height="1236"/></clipPath><clipPath id="clip16"><rect x="880" y="689" width="1650" height="1236"/></clipPath><clipPath id="clip17"><rect x="880" y="689" width="1650" height="1236"/></clipPath><clipPath id="clip18"><rect x="880" y="689" width="1650" height="1236"/></clipPath><clipPath id="clip19"><rect x="880" y="689" width="1650" height="1236"/></clipPath><clipPath id="clip20"><rect x="880" y="689" width="1650" height="1236"/></clipPath><clipPath id="clip21"><rect x="880" y="689" width="1650" height="1236"/></clipPath><clipPath id="clip22"><rect x="880" y="689" width="1650" height="1236"/></clipPath><clipPath id="clip23"><rect x="880" y="689" width="1650" height="1236"/></clipPath><clipPath id="clip24"><rect x="880" y="689" width="1650" height="1236"/></clipPath><clipPath id="clip25"><rect x="880" y="689" width="1650" height="1236"/></clipPath><clipPath id="clip26"><rect x="880" y="689" width="1650" height="1236"/></clipPath><clipPath id="clip27"><rect x="880" y="689" width="1650" height="1236"/></clipPath><clipPath id="clip28"><rect x="880" y="689" width="1650" height="1236"/></clipPath><clipPath id="clip29"><rect x="880" y="689" width="1650" height="1236"/></clipPath><clipPath id="clip30"><rect x="880" y="689" width="1650" height="1236"/></clipPath><clipPath id="clip31"><rect x="880" y="689" width="1650" height="1236"/></clipPath><clipPath id="clip32"><rect x="880" y="689" width="1650" height="1236"/></clipPath><clipPath id="clip33"><rect x="880" y="689" width="1650" height="1236"/></clipPath><clipPath id="clip34"><rect x="880" y="689" width="1650" height="1236"/></clipPath><clipPath id="clip35"><rect x="880" y="689" width="1650" height="1236"/></clipPath><clipPath id="clip36"><rect x="880" y="689" width="1650" height="1236"/></clipPath><clipPath id="clip37"><rect x="880" y="689" width="1650" height="1236"/></clipPath><clipPath id="clip38"><rect x="880" y="689" width="1650" height="1236"/></clipPath><clipPath id="clip39"><rect x="880" y="689" width="1650" height="1236"/></clipPath><clipPath id="clip40"><rect x="880" y="689" width="1650" height="1236"/></clipPath></defs><g clip-path="url(#clip0)" transform="translate(-879 -688)"><rect x="880" y="689" width="1650" height="1236" fill="#FFFFFF"/><g clip-path="url(#clip1)"><path d="M1040.5 1260.54 2479.5 1260.54M1040.5 1215.54 2479.5 1215.54M1040.5 1171.54 2479.5 1171.54M1040.5 1126.54 2479.5 1126.54M1040.5 1082.54 2479.5 1082.54M1040.5 1037.53 2479.5 1037.53M1040.5 992.533 2479.5 992.533M1040.5 948.531 2479.5 948.531M1040.5 903.53 2479.5 903.53M1040.5 859.5 2479.5 859.5" stroke="#D9D9D9" stroke-width="3.4375" stroke-linejoin="round" stroke-miterlimit="10" fill="none"/></g><g clip-path="url(#clip2)"><path d="M1813.56 1247.54 1885.56 1247.54 1885.56 1305.5 1813.56 1305.5ZM1993.57 1169.54 2065.57 1169.54 2065.57 1305.5 1993.57 1305.5ZM2173.57 1282.54 2245.57 1282.54 2245.57 1305.5 2173.57 1305.5ZM2353.58 1282.54 2425.58 1282.54 2425.58 1305.5 2353.58 1305.5Z" stroke="#548235" stroke-width="3.4375" stroke-linejoin="round" stroke-miterlimit="10" fill="#A9D18E"/></g><g clip-path="url(#clip3)"><path d="M1094.54 1215.54 1166.54 1215.54 1166.54 1305.5 1094.54 1305.5ZM1274.54 1215.54 1346.54 1215.54 1346.54 1305.5 1274.54 1305.5ZM1454.55 1215.54 1525.55 1215.54 1525.55 1305.5 1454.55 1305.5ZM1633.55 1215.54 1705.56 1215.54 1705.56 1305.5 1633.55 1305.5ZM1813.56 1169.54 1885.56 1169.54 1885.56 1247.54 1813.56 1247.54ZM1993.57 1091.54 2065.57 1091.54 2065.57 1169.54 1993.57 1169.54ZM2173.57 1215.54 2245.57 1215.54 2245.57 1282.54 2173.57 1282.54ZM2353.58 1215.54 2425.58 1215.54 2425.58 1282.54 2353.58 1282.54Z" stroke="#548235" stroke-width="3.4375" stroke-linejoin="round" stroke-miterlimit="10" fill="#C5E0B4"/></g><g clip-path="url(#clip4)"><path d="M1094.54 1126.54 1166.54 1126.54 1166.54 1215.54 1094.54 1215.54ZM1274.54 1015.53 1346.54 1015.53 1346.54 1215.54 1274.54 1215.54ZM1454.55 1015.53 1525.55 1015.53 1525.55 1215.54 1454.55 1215.54ZM1633.55 1015.53 1705.56 1015.53 1705.56 1215.54 1633.55 1215.54ZM1813.56 975.532 1885.56 975.532 1885.56 1169.54 1813.56 1169.54ZM1993.57 975.532 2065.57 975.532 2065.57 1091.54 1993.57 1091.54ZM2173.57 1126.54 2245.57 1126.54 2245.57 1215.54 2173.57 1215.54ZM2353.58 1126.54 2425.58 1126.54 2425.58 1215.54 2353.58 1215.54Z" stroke="#C55A11" stroke-width="3.4375" stroke-linejoin="round" stroke-miterlimit="10" fill="#F4B183"/></g><g clip-path="url(#clip5)"><path d="M1094.54 1037.53 1166.54 1037.53 1166.54 1126.54 1094.54 1126.54ZM1274.54 926.531 1346.54 926.531 1346.54 1015.53 1274.54 1015.53ZM1454.55 926.531 1525.55 926.531 1525.55 1015.53 1454.55 1015.53ZM1633.55 926.531 1705.56 926.531 1705.56 1015.53 1633.55 1015.53ZM1813.56 859.5 1885.56 859.5 1885.56 975.532 1813.56 975.532ZM1993.57 859.5 2065.57 859.5 2065.57 975.532 1993.57 975.532ZM2173.57 1037.53 2245.57 1037.53 2245.57 1126.54 2173.57 1126.54ZM2353.58 1037.53 2425.58 1037.53 2425.58 1126.54 2353.58 1126.54Z" stroke="#C55A11" stroke-width="3.4375" stroke-linejoin="round" stroke-miterlimit="10" fill="#F8CBAD"/></g><g clip-path="url(#clip6)"><path d="M1094.54 970.532 1166.54 970.532 1166.54 1037.53 1094.54 1037.53ZM1274.54 859.5 1346.54 859.5 1346.54 926.531 1274.54 926.531ZM1454.55 859.5 1525.55 859.5 1525.55 926.531 1454.55 926.531ZM1633.55 859.5 1705.56 859.5 1705.56 926.531 1633.55 926.531ZM2173.57 970.532 2245.57 970.532 2245.57 1037.53 2173.57 1037.53ZM2353.58 970.532 2425.58 970.532 2425.58 1037.53 2353.58 1037.53Z" stroke="#2E75B6" stroke-width="3.4375" stroke-linejoin="round" stroke-miterlimit="10" fill="#9DC3E6"/></g><g clip-path="url(#clip7)"><path d="M1094.54 859.5 1166.54 859.5 1166.54 970.532 1094.54 970.532ZM2173.57 859.5 2245.57 859.5 2245.57 970.532 2173.57 970.532ZM2353.58 859.5 2425.58 859.5 2425.58 970.532 2353.58 970.532Z" stroke="#2E75B6" stroke-width="3.4375" stroke-linejoin="round" stroke-miterlimit="10" fill="#BDD7EE"/></g><g clip-path="url(#clip8)"><path d="M1040.5 1305.5 2479.5 1305.5" stroke="#D9D9D9" stroke-width="3.4375" stroke-linejoin="round" stroke-miterlimit="10" fill="none" fill-rule="evenodd"/></g><g clip-path="url(#clip9)"><text fill="#595959" font-family="Calibri,Calibri_MSFontService,sans-serif" font-weight="400" font-size="41" transform="matrix(1 0 0 1 951.592 1317)">0%</text></g><g clip-path="url(#clip10)"><text fill="#595959" font-family="Calibri,Calibri_MSFontService,sans-serif" font-weight="400" font-size="41" transform="matrix(1 0 0 1 930.692 1272)">10%</text></g><g clip-path="url(#clip11)"><text fill="#595959" font-family="Calibri,Calibri_MSFontService,sans-serif" font-weight="400" font-size="41" transform="matrix(1 0 0 1 930.692 1228)">20%</text></g><g clip-path="url(#clip12)"><text fill="#595959" font-family="Calibri,Calibri_MSFontService,sans-serif" font-weight="400" font-size="41" transform="matrix(1 0 0 1 930.692 1183)">30%</text></g><g clip-path="url(#clip13)"><text fill="#595959" font-family="Calibri,Calibri_MSFontService,sans-serif" font-weight="400" font-size="41" transform="matrix(1 0 0 1 930.692 1138)">40%</text></g><g clip-path="url(#clip14)"><text fill="#595959" font-family="Calibri,Calibri_MSFontService,sans-serif" font-weight="400" font-size="41" transform="matrix(1 0 0 1 930.692 1094)">50%</text></g><g clip-path="url(#clip15)"><text fill="#595959" font-family="Calibri,Calibri_MSFontService,sans-serif" font-weight="400" font-size="41" transform="matrix(1 0 0 1 930.692 1049)">60%</text></g><g clip-path="url(#clip16)"><text fill="#595959" font-family="Calibri,Calibri_MSFontService,sans-serif" font-weight="400" font-size="41" transform="matrix(1 0 0 1 930.692 1005)">70%</text></g><g clip-path="url(#clip17)"><text fill="#595959" font-family="Calibri,Calibri_MSFontService,sans-serif" font-weight="400" font-size="41" transform="matrix(1 0 0 1 930.692 960)">80%</text></g><g clip-path="url(#clip18)"><text fill="#595959" font-family="Calibri,Calibri_MSFontService,sans-serif" font-weight="400" font-size="41" transform="matrix(1 0 0 1 930.692 915)">90%</text></g><g clip-path="url(#clip19)"><text fill="#595959" font-family="Calibri,Calibri_MSFontService,sans-serif" font-weight="400" font-size="41" transform="matrix(1 0 0 1 909.792 871)">100%</text></g><g clip-path="url(#clip20)"><text fill="#595959" font-family="Calibri,Calibri_MSFontService,sans-serif" font-weight="400" font-size="41" transform="matrix(0.707107 -0.707107 0.707107 0.707107 954.608 1544)">_alaska2-51679</text></g><g clip-path="url(#clip21)"><text fill="#595959" font-family="Calibri,Calibri_MSFontService,sans-serif" font-weight="400" font-size="41" transform="matrix(0.707107 -0.707107 0.707107 0.707107 1134.52 1544)">_alaska2-51893</text></g><g clip-path="url(#clip22)"><text fill="#595959" font-family="Calibri,Calibri_MSFontService,sans-serif" font-weight="400" font-size="41" transform="matrix(0.707107 -0.707107 0.707107 0.707107 1314.44 1544)">_alaska2-62899</text></g><g clip-path="url(#clip23)"><text fill="#595959" font-family="Calibri,Calibri_MSFontService,sans-serif" font-weight="400" font-size="41" transform="matrix(0.707107 -0.707107 0.707107 0.707107 1494.36 1544)">_alaska2-66345</text></g><g clip-path="url(#clip24)"><text fill="#595959" font-family="Calibri,Calibri_MSFontService,sans-serif" font-weight="400" font-size="41" transform="matrix(0.707107 -0.707107 0.707107 0.707107 1584.13 1635)">_bb-20220414_202013</text></g><g clip-path="url(#clip25)"><text fill="#595959" font-family="Calibri,Calibri_MSFontService,sans-serif" font-weight="400" font-size="41" transform="matrix(0.707107 -0.707107 0.707107 0.707107 1764.04 1635)">_bb-20220825_134650</text></g><g clip-path="url(#clip26)"><text fill="#595959" font-family="Calibri,Calibri_MSFontService,sans-serif" font-weight="400" font-size="41" transform="matrix(0.707107 -0.707107 0.707107 0.707107 2059.17 1519)">_bows2-1230</text></g><g clip-path="url(#clip27)"><text fill="#595959" font-family="Calibri,Calibri_MSFontService,sans-serif" font-weight="400" font-size="41" transform="matrix(0.707107 -0.707107 0.707107 0.707107 2239.09 1519)">_bows2-3087</text></g><g clip-path="url(#clip28)"><text fill="#595959" font-family="Calibri,Calibri_MSFontService,sans-serif" font-weight="400" font-size="64" transform="matrix(1 0 0 1 1393.72 785)">stegbreak Fehlerklassen</text></g><g clip-path="url(#clip29)"><rect x="1157.5" y="1699.5" width="23" height="23" stroke="#548235" stroke-width="3.4375" stroke-linejoin="round" stroke-miterlimit="10" fill="#A9D18E"/></g><g clip-path="url(#clip30)"><text fill="#595959" font-family="Calibri,Calibri_MSFontService,sans-serif" font-weight="400" font-size="41" transform="matrix(1 0 0 1 1189.9 1723)">Ergebnis: Einbettung gefunden</text></g><g clip-path="url(#clip31)"><rect x="1719.5" y="1699.5" width="23" height="23" stroke="#548235" stroke-width="3.4375" stroke-linejoin="round" stroke-miterlimit="10" fill="#C5E0B4"/></g><g clip-path="url(#clip32)"><text fill="#595959" font-family="Calibri,Calibri_MSFontService,sans-serif" font-weight="400" font-size="41" transform="matrix(1 0 0 1 1752.03 1723)">Ergebnis: negativ</text></g><g clip-path="url(#clip33)"><rect x="1157.5" y="1777.5" width="23" height="22" stroke="#C55A11" stroke-width="3.4375" stroke-linejoin="round" stroke-miterlimit="10" fill="#F4B183"/></g><g clip-path="url(#clip34)"><text fill="#595959" font-family="Calibri,Calibri_MSFontService,sans-serif" font-weight="400" font-size="41" transform="matrix(1 0 0 1 1189.9 1800)">SegFault 'Loaded 1 files…'</text></g><g clip-path="url(#clip35)"><rect x="1719.5" y="1777.5" width="23" height="22" stroke="#C55A11" stroke-width="3.4375" stroke-linejoin="round" stroke-miterlimit="10" fill="#F8CBAD"/></g><g clip-path="url(#clip36)"><text fill="#595959" font-family="Calibri,Calibri_MSFontService,sans-serif" font-weight="400" font-size="41" transform="matrix(1 0 0 1 1752.03 1800)">SegFault '' (leerer Output)</text></g><g clip-path="url(#clip37)"><rect x="1157.5" y="1854.5" width="23" height="23" stroke="#2E75B6" stroke-width="3.4375" stroke-linejoin="round" stroke-miterlimit="10" fill="#9DC3E6"/></g><g clip-path="url(#clip38)"><text fill="#595959" font-family="Calibri,Calibri_MSFontService,sans-serif" font-weight="400" font-size="41" transform="matrix(1 0 0 1 1189.9 1877)">"Premature end of JPEG file"</text></g><g clip-path="url(#clip39)"><rect x="1719.5" y="1854.5" width="23" height="23" stroke="#2E75B6" stroke-width="3.4375" stroke-linejoin="round" stroke-miterlimit="10" fill="#BDD7EE"/></g><g clip-path="url(#clip40)"><text fill="#595959" font-family="Calibri,Calibri_MSFontService,sans-serif" font-weight="400" font-size="41" transform="matrix(1 0 0 1 1752.03 1877)">"bad_size_in_bits"</text></g><rect x="880.5" y="689.5" width="1650" height="1236" stroke="#D9D9D9" stroke-width="3.4375" stroke-linejoin="round" stroke-miterlimit="10" fill="none"/></g></svg>