<svg width="2478" height="1376" xmlns="http://www.w3.org/2000/svg" xmlns:xlink="http://www.w3.org/1999/xlink" xml:space="preserve" overflow="hidden"><defs><clipPath id="clip0"><rect x="1924" y="207" width="2478" height="1376"/></clipPath><clipPath id="clip1"><rect x="1925" y="207" width="2475" height="1374"/></clipPath><clipPath id="clip2"><rect x="2066" y="377" width="2287" height="613"/></clipPath><clipPath id="clip3"><rect x="2066" y="377" width="2287" height="613"/></clipPath><clipPath id="clip4"><rect x="2066" y="377" width="2287" height="613"/></clipPath><clipPath id="clip5"><rect x="2066" y="377" width="2287" height="613"/></clipPath><clipPath id="clip6"><rect x="1925" y="207" width="2475" height="1374"/></clipPath><clipPath id="clip7"><rect x="1925" y="207" width="2475" height="1374"/></clipPath><clipPath id="clip8"><rect x="1925" y="207" width="2475" height="1374"/></clipPath><clipPath id="clip9"><rect x="1925" y="207" width="2475" height="1374"/></clipPath><clipPath id="clip10"><rect x="1925" y="207" width="2475" height="1374"/></clipPath><clipPath id="clip11"><rect x="1925" y="207" width="2475" height="1374"/></clipPath><clipPath id="clip12"><rect x="1925" y="207" width="2475" height="1374"/></clipPath><clipPath id="clip13"><rect x="1925" y="207" width="2475" height="1374"/></clipPath><clipPath id="clip14"><rect x="1925" y="207" width="2475" height="1374"/></clipPath><clipPath id="clip15"><rect x="1925" y="207" width="2475" height="1374"/></clipPath><clipPath id="clip16"><rect x="1925" y="207" width="2475" height="1374"/></clipPath><clipPath id="clip17"><rect x="1925" y="207" width="2475" height="1374"/></clipPath><clipPath id="clip18"><rect x="1925" y="207" width="2475" height="1374"/></clipPath><clipPath id="clip19"><rect x="1925" y="207" width="2475" height="1374"/></clipPath><clipPath id="clip20"><rect x="1925" y="207" width="2475" height="1374"/></clipPath><clipPath id="clip21"><rect x="1925" y="207" width="2475" height="1374"/></clipPath><clipPath id="clip22"><rect x="1925" y="207" width="2475" height="1374"/></clipPath><clipPath id="clip23"><rect x="1925" y="207" width="2475" height="1374"/></clipPath><clipPath id="clip24"><rect x="1925" y="207" width="2475" height="1374"/></clipPath><clipPath id="clip25"><rect x="1925" y="207" width="2475" height="1374"/></clipPath><clipPath id="clip26"><rect x="1925" y="207" width="2475" height="1374"/></clipPath><clipPath id="clip27"><rect x="1925" y="207" width="2475" height="1374"/></clipPath><clipPath id="clip28"><rect x="1925" y="207" width="2475" height="1374"/></clipPath><clipPath id="clip29"><rect x="1925" y="207" width="2475" height="1374"/></clipPath><clipPath id="clip30"><rect x="1925" y="207" width="2475" height="1374"/></clipPath><clipPath id="clip31"><rect x="1925" y="207" width="2475" height="1374"/></clipPath><clipPath id="clip32"><rect x="1925" y="207" width="2475" height="1374"/></clipPath><clipPath id="clip33"><rect x="1925" y="207" width="2475" height="1374"/></clipPath><clipPath id="clip34"><rect x="1925" y="207" width="2475" height="1374"/></clipPath><clipPath id="clip35"><rect x="1925" y="207" width="2475" height="1374"/></clipPath><clipPath id="clip36"><rect x="1925" y="207" width="2475" height="1374"/></clipPath><clipPath id="clip37"><rect x="1925" y="207" width="2475" height="1374"/></clipPath><clipPath id="clip38"><rect x="1925" y="207" width="2475" height="1374"/></clipPath><clipPath id="clip39"><rect x="1925" y="207" width="2475" height="1374"/></clipPath><clipPath id="clip40"><rect x="1925" y="207" width="2475" height="1374"/></clipPath><clipPath id="clip41"><rect x="1925" y="207" width="2475" height="1374"/></clipPath><clipPath id="clip42"><rect x="1925" y="207" width="2475" height="1374"/></clipPath><clipPath id="clip43"><rect x="1925" y="207" width="2475" height="1374"/></clipPath><clipPath id="clip44"><rect x="1925" y="207" width="2475" height="1374"/></clipPath><clipPath id="clip45"><rect x="1925" y="207" width="2475" height="1374"/></clipPath><clipPath id="clip46"><rect x="1925" y="207" width="2475" height="1374"/></clipPath><clipPath id="clip47"><rect x="1925" y="207" width="2475" height="1374"/></clipPath><clipPath id="clip48"><rect x="1925" y="207" width="2475" height="1374"/></clipPath><clipPath id="clip49"><rect x="1925" y="207" width="2475" height="1374"/></clipPath><clipPath id="clip50"><rect x="1925" y="207" width="2475" height="1374"/></clipPath></defs><g clip-path="url(#clip0)" transform="translate(-1924 -207)"><rect x="1925" y="208" width="2475" height="1373" fill="#FFFFFF"/><g clip-path="url(#clip1)"><path d="M2066.5 865.529 4349.5 865.529M2066.5 743.525 4349.5 743.525M2066.5 621.521 4349.5 621.521M2066.5 499.517 4349.5 499.517M2066.5 377.5 4349.5 377.5" stroke="#D9D9D9" stroke-width="3.4375" stroke-linejoin="round" stroke-miterlimit="10" fill="none"/></g><g clip-path="url(#clip2)"><path d="M2654.59 949.531 2671.59 949.531 2671.59 987.5 2654.59 987.5ZM2768.59 592.52 2785.59 592.52 2785.59 987.5 2768.59 987.5ZM3225.61 880.529 3241.61 880.529 3241.61 987.5 3225.61 987.5ZM3339.61 834.528 3356.61 834.528 3356.61 987.5 3339.61 987.5ZM3453.61 808.527 3470.61 808.527 3470.61 987.5 3453.61 987.5ZM3568.62 876.529 3584.62 876.529 3584.62 987.5 3568.62 987.5ZM3682.62 831.527 3698.62 831.527 3698.62 987.5 3682.62 987.5Z" stroke="#548235" stroke-width="3.4375" stroke-linejoin="round" stroke-miterlimit="10" fill="#A9D18E"/></g><g clip-path="url(#clip3)"><path d="M2675.59 966.532 2691.59 966.532 2691.59 987.5 2675.59 987.5ZM2789.59 648.521 2805.59 648.521 2805.59 987.5 2789.59 987.5ZM3246.61 949.531 3262.61 949.531 3262.61 987.5 3246.61 987.5ZM3360.61 923.53 3376.61 923.53 3376.61 987.5 3360.61 987.5ZM3474.61 923.53 3490.61 923.53 3490.61 987.5 3474.61 987.5ZM3588.62 936.531 3605.62 936.531 3605.62 987.5 3588.62 987.5ZM3703.62 898.53 3719.62 898.53 3719.62 987.5 3703.62 987.5ZM3931.63 530.518 3947.63 530.518 3947.63 987.5 3931.63 987.5Z" stroke="#BF9000" stroke-width="3.4375" stroke-linejoin="round" stroke-miterlimit="10" fill="#FFD966"/></g><g clip-path="url(#clip4)"><path d="M2696.59 974.532 2712.59 974.532 2712.59 987.5 2696.59 987.5ZM2810.59 952.531 2826.59 952.531 2826.59 987.5 2810.59 987.5ZM2924.6 470.516 2940.6 470.516 2940.6 987.5 2924.6 987.5ZM3038.6 487.516 3055.6 487.516 3055.6 987.5 3038.6 987.5ZM3152.6 452.515 3169.6 452.515 3169.6 987.5 3152.6 987.5ZM3267.61 791.526 3283.61 791.526 3283.61 987.5 3267.61 987.5ZM3381.61 765.525 3397.61 765.525 3397.61 987.5 3381.61 987.5ZM3495.61 752.525 3511.62 752.525 3511.62 987.5 3495.61 987.5ZM3609.62 804.527 3625.62 804.527 3625.62 987.5 3609.62 987.5ZM3723.62 804.527 3740.62 804.527 3740.62 987.5 3723.62 987.5ZM3952.63 856.528 3968.63 856.528 3968.63 987.5 3952.63 987.5ZM4066.63 500.517 4082.63 500.517 4082.63 987.5 4066.63 987.5ZM4180.64 491.516 4196.64 491.516 4196.64 987.5 4180.64 987.5Z" stroke="#C55A11" stroke-width="3.4375" stroke-linejoin="round" stroke-miterlimit="10" fill="#F4B183"/></g><g clip-path="url(#clip5)"><path d="M2945.6 662.522 2961.6 662.522 2961.6 987.5 2945.6 987.5ZM3059.6 825.527 3075.6 825.527 3075.6 987.5 3059.6 987.5ZM3173.6 662.522 3189.6 662.522 3189.6 987.5 3173.6 987.5ZM3972.63 499.517 3989.63 499.517 3989.63 987.5 3972.63 987.5ZM4086.63 662.522 4103.63 662.522 4103.63 987.5 4086.63 987.5ZM4201.64 662.522 4217.64 662.522 4217.64 987.5 4201.64 987.5Z" stroke="#2F5597" stroke-width="3.4375" stroke-linejoin="round" stroke-miterlimit="10" fill="#8FAADC"/></g><g clip-path="url(#clip6)"><path d="M2066.5 987.5 4349.5 987.5" stroke="#D9D9D9" stroke-width="3.4375" stroke-linejoin="round" stroke-miterlimit="10" fill="none" fill-rule="evenodd"/></g><g clip-path="url(#clip7)"><path d="M2066.5 987.5 2066.5 1373.5M2636.59 987.5 2636.59 1373.5M3207.61 987.5 3207.61 1373.5M3778.62 987.5 3778.62 1373.5M4349.5 987.5 4349.5 1373.5" stroke="#D9D9D9" stroke-width="3.4375" stroke-linejoin="round" stroke-miterlimit="10" fill="none"/></g><g clip-path="url(#clip8)"><path d="M2066.5 1373.5 2066.5 1453.5M2636.59 1373.5 2636.59 1453.5M3207.61 1373.5 3207.61 1453.5M3778.62 1373.5 3778.62 1453.5M4349.5 1373.5 4349.5 1453.5" stroke="#D9D9D9" stroke-width="3.4375" stroke-linejoin="round" stroke-miterlimit="10" fill="none"/></g><g clip-path="url(#clip9)"><text fill="#595959" font-family="Calibri,Calibri_MSFontService,sans-serif" font-weight="400" font-size="41" transform="matrix(1 0 0 1 2007 999)">0</text></g><g clip-path="url(#clip10)"><text fill="#595959" font-family="Calibri,Calibri_MSFontService,sans-serif" font-weight="400" font-size="41" transform="matrix(1 0 0 1 1954.79 877)">0.05</text></g><g clip-path="url(#clip11)"><text fill="#595959" font-family="Calibri,Calibri_MSFontService,sans-serif" font-weight="400" font-size="41" transform="matrix(1 0 0 1 1975.69 755)">0.1</text></g><g clip-path="url(#clip12)"><text fill="#595959" font-family="Calibri,Calibri_MSFontService,sans-serif" font-weight="400" font-size="41" transform="matrix(1 0 0 1 1954.79 633)">0.15</text></g><g clip-path="url(#clip13)"><text fill="#595959" font-family="Calibri,Calibri_MSFontService,sans-serif" font-weight="400" font-size="41" transform="matrix(1 0 0 1 1975.69 511)">0.2</text></g><g clip-path="url(#clip14)"><text fill="#595959" font-family="Calibri,Calibri_MSFontService,sans-serif" font-weight="400" font-size="41" transform="matrix(1 0 0 1 1954.79 390)">0.25</text></g><g clip-path="url(#clip15)"><text fill="#595959" font-family="Calibri,Calibri_MSFontService,sans-serif" font-weight="400" font-size="41" transform="matrix(6.12323e-17 -1 1 6.12323e-17 2137.07 1140)">67 Byte</text></g><g clip-path="url(#clip16)"><text fill="#595959" font-family="Calibri,Calibri_MSFontService,sans-serif" font-weight="400" font-size="41" transform="matrix(6.12323e-17 -1 1 6.12323e-17 2251.24 1140)">1.53 KB</text></g><g clip-path="url(#clip17)"><text fill="#595959" font-family="Calibri,Calibri_MSFontService,sans-serif" font-weight="400" font-size="41" transform="matrix(6.12323e-17 -1 1 6.12323e-17 2365.42 1140)">17.5 KB</text></g><g clip-path="url(#clip18)"><text fill="#595959" font-family="Calibri,Calibri_MSFontService,sans-serif" font-weight="400" font-size="41" transform="matrix(6.12323e-17 -1 1 6.12323e-17 2479.59 1370)">16 KB (min. Entropie)</text></g><g clip-path="url(#clip19)"><text fill="#595959" font-family="Calibri,Calibri_MSFontService,sans-serif" font-weight="400" font-size="41" transform="matrix(6.12323e-17 -1 1 6.12323e-17 2593.76 1261)">16.8 KB (binär)</text></g><g clip-path="url(#clip20)"><text fill="#595959" font-family="Calibri,Calibri_MSFontService,sans-serif" font-weight="400" font-size="41" transform="matrix(6.12323e-17 -1 1 6.12323e-17 2707.93 1140)">67 Byte</text></g><g clip-path="url(#clip21)"><text fill="#595959" font-family="Calibri,Calibri_MSFontService,sans-serif" font-weight="400" font-size="41" transform="matrix(6.12323e-17 -1 1 6.12323e-17 2822.1 1140)">1.53 KB</text></g><g clip-path="url(#clip22)"><text fill="#595959" font-family="Calibri,Calibri_MSFontService,sans-serif" font-weight="400" font-size="41" transform="matrix(6.12323e-17 -1 1 6.12323e-17 2936.27 1140)">17.5 KB</text></g><g clip-path="url(#clip23)"><text fill="#595959" font-family="Calibri,Calibri_MSFontService,sans-serif" font-weight="400" font-size="41" transform="matrix(6.12323e-17 -1 1 6.12323e-17 3050.44 1370)">16 KB (min. Entropie)</text></g><g clip-path="url(#clip24)"><text fill="#595959" font-family="Calibri,Calibri_MSFontService,sans-serif" font-weight="400" font-size="41" transform="matrix(6.12323e-17 -1 1 6.12323e-17 3164.61 1261)">16.8 KB (binär)</text></g><g clip-path="url(#clip25)"><text fill="#595959" font-family="Calibri,Calibri_MSFontService,sans-serif" font-weight="400" font-size="41" transform="matrix(6.12323e-17 -1 1 6.12323e-17 3278.78 1140)">67 Byte</text></g><g clip-path="url(#clip26)"><text fill="#595959" font-family="Calibri,Calibri_MSFontService,sans-serif" font-weight="400" font-size="41" transform="matrix(6.12323e-17 -1 1 6.12323e-17 3392.96 1140)">1.53 KB</text></g><g clip-path="url(#clip27)"><text fill="#595959" font-family="Calibri,Calibri_MSFontService,sans-serif" font-weight="400" font-size="41" transform="matrix(6.12323e-17 -1 1 6.12323e-17 3507.13 1140)">17.5 KB</text></g><g clip-path="url(#clip28)"><text fill="#595959" font-family="Calibri,Calibri_MSFontService,sans-serif" font-weight="400" font-size="41" transform="matrix(6.12323e-17 -1 1 6.12323e-17 3621.3 1370)">16 KB (min. Entropie)</text></g><g clip-path="url(#clip29)"><text fill="#595959" font-family="Calibri,Calibri_MSFontService,sans-serif" font-weight="400" font-size="41" transform="matrix(6.12323e-17 -1 1 6.12323e-17 3735.47 1261)">16.8 KB (binär)</text></g><g clip-path="url(#clip30)"><text fill="#595959" font-family="Calibri,Calibri_MSFontService,sans-serif" font-weight="400" font-size="41" transform="matrix(6.12323e-17 -1 1 6.12323e-17 3849.64 1140)">67 Byte</text></g><g clip-path="url(#clip31)"><text fill="#595959" font-family="Calibri,Calibri_MSFontService,sans-serif" font-weight="400" font-size="41" transform="matrix(6.12323e-17 -1 1 6.12323e-17 3963.81 1140)">1.53 KB</text></g><g clip-path="url(#clip32)"><text fill="#595959" font-family="Calibri,Calibri_MSFontService,sans-serif" font-weight="400" font-size="41" transform="matrix(6.12323e-17 -1 1 6.12323e-17 4077.98 1140)">17.5 KB</text></g><g clip-path="url(#clip33)"><text fill="#595959" font-family="Calibri,Calibri_MSFontService,sans-serif" font-weight="400" font-size="41" transform="matrix(6.12323e-17 -1 1 6.12323e-17 4192.15 1370)">16 KB (min. Entropie)</text></g><g clip-path="url(#clip34)"><text fill="#595959" font-family="Calibri,Calibri_MSFontService,sans-serif" font-weight="400" font-size="41" transform="matrix(6.12323e-17 -1 1 6.12323e-17 4306.32 1261)">16.8 KB (binär)</text></g><g clip-path="url(#clip35)"><text fill="#595959" font-family="Calibri,Calibri_MSFontService,sans-serif" font-weight="400" font-size="41" transform="matrix(1 0 0 1 2205.67 1439)">stegdetect (jsteg)</text></g><g clip-path="url(#clip36)"><text fill="#595959" font-family="Calibri,Calibri_MSFontService,sans-serif" font-weight="400" font-size="41" transform="matrix(1 0 0 1 2697.98 1439)">stegdetect (outguess-0.13)</text></g><g clip-path="url(#clip37)"><text fill="#595959" font-family="Calibri,Calibri_MSFontService,sans-serif" font-weight="400" font-size="41" transform="matrix(1 0 0 1 3353.74 1439)">stegbreak (jsteg)</text></g><g clip-path="url(#clip38)"><text fill="#595959" font-family="Calibri,Calibri_MSFontService,sans-serif" font-weight="400" font-size="41" transform="matrix(1 0 0 1 3846.05 1439)">stegbreak (outguess-0.13)</text></g><g clip-path="url(#clip39)"><text fill="#595959" font-family="Calibri,Calibri_MSFontService,sans-serif" font-weight="400" font-size="64" transform="matrix(1 0 0 1 2626.58 303)">Ergebnisse von </text></g><g clip-path="url(#clip40)"><text fill="#595959" font-family="Calibri,Calibri_MSFontService,sans-serif" font-weight="700" font-size="64" transform="matrix(1 0 0 1 3030.24 303)">stegdetect </text></g><g clip-path="url(#clip41)"><text fill="#595959" font-family="Calibri,Calibri_MSFontService,sans-serif" font-weight="400" font-size="64" transform="matrix(1 0 0 1 3322.35 303)">und</text></g><g clip-path="url(#clip42)"><text fill="#595959" font-family="Calibri,Calibri_MSFontService,sans-serif" font-weight="700" font-size="64" transform="matrix(1 0 0 1 3437.99 303)">stegbreak</text></g><g clip-path="url(#clip43)"><rect x="2689.5" y="1503.5" width="23" height="23" stroke="#548235" stroke-width="3.4375" stroke-linejoin="round" stroke-miterlimit="10" fill="#A9D18E"/></g><g clip-path="url(#clip44)"><text fill="#595959" font-family="Calibri,Calibri_MSFontService,sans-serif" font-weight="400" font-size="41" transform="matrix(1 0 0 1 2721.94 1527)">alaska2</text></g><g clip-path="url(#clip45)"><rect x="2894.5" y="1503.5" width="22" height="23" stroke="#BF9000" stroke-width="3.4375" stroke-linejoin="round" stroke-miterlimit="10" fill="#FFD966"/></g><g clip-path="url(#clip46)"><text fill="#595959" font-family="Calibri,Calibri_MSFontService,sans-serif" font-weight="400" font-size="41" transform="matrix(1 0 0 1 2926.59 1527)">bows2</text></g><g clip-path="url(#clip47)"><rect x="3084.5" y="1503.5" width="23" height="23" stroke="#C55A11" stroke-width="3.4375" stroke-linejoin="round" stroke-miterlimit="10" fill="#F4B183"/></g><g clip-path="url(#clip48)"><text fill="#595959" font-family="Calibri,Calibri_MSFontService,sans-serif" font-weight="400" font-size="41" transform="matrix(1 0 0 1 3116.68 1527)">Smartphone</text></g><g clip-path="url(#clip49)"><rect x="3371.5" y="1503.5" width="23" height="23" stroke="#2F5597" stroke-width="3.4375" stroke-linejoin="round" stroke-miterlimit="10" fill="#8FAADC"/></g><g clip-path="url(#clip50)"><text fill="#595959" font-family="Calibri,Calibri_MSFontService,sans-serif" font-weight="400" font-size="41" transform="matrix(1 0 0 1 3404.01 1527)">hochauflösend</text></g><rect x="1925.5" y="208.5" width="2475" height="1373" stroke="#D9D9D9" stroke-width="3.4375" stroke-linejoin="round" stroke-miterlimit="10" fill="none"/></g></svg>